<svg width="129" height="48" viewBox="0 0 129 48" fill="none" xmlns="http://www.w3.org/2000/svg">
<path d="M6.65 13.6825L0.91 16.6225V12.2125L7.63 8.50254H11.27V33.3525H6.65V13.6825ZM24.8905 8.08254C29.2305 8.08254 32.9755 10.9175 32.9755 15.0825C32.9755 17.6725 31.1905 19.8425 29.5105 20.5775C31.4355 21.2775 33.6755 23.3425 33.6755 26.4575C33.6755 30.6575 29.8605 33.7725 24.8905 33.7725C19.8855 33.7725 16.1055 30.6575 16.1055 26.4575C16.1055 23.3425 18.3455 21.2775 20.2355 20.5775C18.5905 19.8425 16.8055 17.6725 16.8055 15.0825C16.8055 10.9175 20.5155 8.08254 24.8905 8.08254ZM24.8905 12.1425C23.0005 12.1425 21.3205 13.3325 21.3205 15.2575C21.3205 17.2875 22.9655 18.5475 24.8905 18.5475C26.8155 18.5475 28.4605 17.2875 28.4605 15.2575C28.4605 13.3325 26.7805 12.1425 24.8905 12.1425ZM24.8905 22.5375C22.5455 22.5375 20.7605 24.0075 20.7605 26.1425C20.7605 28.1725 22.5455 29.7125 24.8905 29.7125C27.2355 29.7125 29.0205 28.1725 29.0205 26.1425C29.0205 24.0075 27.2355 22.5375 24.8905 22.5375ZM56.455 29.1525V33.0725C55.72 33.4925 54.6 33.7725 53.13 33.7725C49.455 33.7725 47.18 31.6025 47.18 27.7525V19.1425H44.66V15.5025H47.32V11.4425L51.73 10.2875V15.5025H56.035V19.1425H51.73V27.1225C51.73 28.9425 52.675 29.7125 54.355 29.7125C54.845 29.7125 55.72 29.5725 56.455 29.1525ZM67.996 15.0825C73.456 15.0825 77.411 19.1425 77.411 24.4275C77.411 29.7125 73.456 33.7725 67.996 33.7725C62.501 33.7725 58.546 29.7125 58.546 24.4275C58.546 19.1425 62.501 15.0825 67.996 15.0825ZM67.996 19.2475C65.161 19.2475 63.131 21.4875 63.131 24.4275C63.131 27.3675 65.161 29.6075 67.996 29.6075C70.796 29.6075 72.826 27.3675 72.826 24.4275C72.826 21.4875 70.796 19.2475 67.996 19.2475ZM98.0782 19.6675C99.1982 18.4075 99.6532 17.1475 99.6532 16.0275C99.6532 13.9275 97.8682 12.4925 95.3482 12.4925C93.3882 12.4925 90.9732 13.2975 89.1182 15.3275V10.3225C90.7982 8.95754 93.2482 8.08254 95.8382 8.08254C100.633 8.08254 104.448 11.0225 104.448 15.6775C104.448 18.1975 103.223 20.1925 101.473 22.2575L95.1732 29.2575H104.658V33.3525H88.8382V30.3425L98.0782 19.6675Z" fill="#2BACCC"/>
<path d="M120.318 16.56H123.118V24.04H126.678V27.84H123.078V34H118.278V27.8H107.638V24.48L115.558 7.64L119.358 9.52L112.518 24.04H118.638V22.28L120.318 16.56Z" fill="#2BACCC"/>
</svg>
