<svg width="133" height="48" viewBox="0 0 133 48" fill="none" xmlns="http://www.w3.org/2000/svg">
<path d="M124.212 16.56H127.012V24.04H130.572V27.84H126.972V34H122.172V27.8H111.532V24.48L119.452 7.64L123.252 9.52L116.412 24.04H122.532V22.28L124.212 16.56Z" fill="#2BACCC"/>
<path d="M10.92 20.2271C12.04 18.9671 12.495 17.7071 12.495 16.5871C12.495 14.4871 10.71 13.0521 8.19 13.0521C6.23 13.0521 3.815 13.8571 1.96 15.8871V10.8821C3.64 9.51711 6.09 8.64211 8.68 8.64211C13.475 8.64211 17.29 11.5821 17.29 16.2371C17.29 18.7571 16.065 20.7521 14.315 22.8171L8.015 29.8171H17.5V33.9121H1.68V30.9021L10.92 20.2271ZM35.7973 9.06211V13.0871H26.5573L26.0323 18.3021C26.8373 18.0571 27.7473 17.9171 28.6923 17.9171C33.4523 17.9171 37.3373 21.0671 37.3373 25.8271C37.3373 30.0271 34.2923 34.3671 27.9573 34.3671C25.0523 34.3671 22.6723 33.4921 20.8873 32.1271V27.2621C22.6723 29.0821 25.1223 30.1321 27.5373 30.1321C30.7573 30.1321 32.6473 28.3121 32.6473 25.8621C32.6473 23.4121 30.7223 21.5221 27.0823 21.5221C25.1923 21.5221 23.7573 22.0121 22.6373 22.5721L21.9723 22.0471L23.0923 9.06211H35.7973ZM59.9071 29.7121V33.6321C59.1721 34.0521 58.0521 34.3321 56.5821 34.3321C52.9071 34.3321 50.6321 32.1621 50.6321 28.3121V19.7021H48.1121V16.0621H50.7721V12.0021L55.1821 10.8471V16.0621H59.4871V19.7021H55.1821V27.6821C55.1821 29.5021 56.1271 30.2721 57.8071 30.2721C58.2971 30.2721 59.1721 30.1321 59.9071 29.7121ZM71.4481 15.6421C76.9081 15.6421 80.8631 19.7021 80.8631 24.9871C80.8631 30.2721 76.9081 34.3321 71.4481 34.3321C65.9531 34.3321 61.9981 30.2721 61.9981 24.9871C61.9981 19.7021 65.9531 15.6421 71.4481 15.6421ZM71.4481 19.8071C68.6131 19.8071 66.5831 22.0471 66.5831 24.9871C66.5831 27.9271 68.6131 30.1671 71.4481 30.1671C74.2481 30.1671 76.2781 27.9271 76.2781 24.9871C76.2781 22.0471 74.2481 19.8071 71.4481 19.8071ZM93.0254 15.6071V10.8121C94.6004 9.51711 96.9804 8.64211 99.7454 8.64211C104.96 8.64211 107.97 11.8271 107.97 15.4321C107.97 17.8821 106.78 19.8771 104.575 20.9971C106.78 21.7671 108.6 23.9721 108.6 27.1221C108.6 30.9021 105.52 34.3321 99.6754 34.3321C96.8404 34.3321 94.4254 33.5971 92.4654 32.0221V26.8421C93.9354 28.6271 96.7704 30.0271 99.4304 30.0271C102.3 30.0271 103.945 28.6621 103.945 26.6321C103.945 24.5671 102.335 23.1671 98.9754 23.1671H96.0354V19.4221H98.3104C101.81 19.4221 103.315 17.9871 103.315 16.0621C103.315 14.3121 101.915 12.9471 99.0104 12.9471C96.5954 12.9471 94.5654 13.8921 93.0254 15.6071Z" fill="#2BACCC"/>
</svg>
