<svg width="133" height="48" viewBox="0 0 133 48" fill="none" xmlns="http://www.w3.org/2000/svg">
<path d="M124.212 16.56H127.012V24.04H130.572V27.84H126.972V34H122.172V27.8H111.532V24.48L119.452 7.64L123.252 9.52L116.412 24.04H122.532V22.28L124.212 16.56Z" fill="#2BACCC"/>
<path d="M102.017 16.56H104.817V24.04H108.377V27.84H104.777V34H99.9767V27.8H89.3367V24.48L97.2567 7.64L101.057 9.52L94.2167 24.04H100.337V22.28L102.017 16.56Z" fill="#2BACCC"/>
<path d="M2.415 15.6071V10.8121C3.99 9.51711 6.37 8.64211 9.135 8.64211C14.35 8.64211 17.36 11.8271 17.36 15.4321C17.36 17.8821 16.17 19.8771 13.965 20.9971C16.17 21.7671 17.99 23.9721 17.99 27.1221C17.99 30.9021 14.91 34.3321 9.065 34.3321C6.23 34.3321 3.815 33.5971 1.855 32.0221V26.8421C3.325 28.6271 6.16 30.0271 8.82 30.0271C11.69 30.0271 13.335 28.6621 13.335 26.6321C13.335 24.5671 11.725 23.1671 8.365 23.1671H5.425V19.4221H7.7C11.2 19.4221 12.705 17.9871 12.705 16.0621C12.705 14.3121 11.305 12.9471 8.4 12.9471C5.985 12.9471 3.955 13.8921 2.415 15.6071ZM36.31 9.06211V13.0871H27.07L26.545 18.3021C27.35 18.0571 28.26 17.9171 29.205 17.9171C33.965 17.9171 37.85 21.0671 37.85 25.8271C37.85 30.0271 34.805 34.3671 28.47 34.3671C25.565 34.3671 23.185 33.4921 21.4 32.1271V27.2621C23.185 29.0821 25.635 30.1321 28.05 30.1321C31.27 30.1321 33.16 28.3121 33.16 25.8621C33.16 23.4121 31.235 21.5221 27.595 21.5221C25.705 21.5221 24.27 22.0121 23.15 22.5721L22.485 22.0471L23.605 9.06211H36.31ZM60.4198 29.7121V33.6321C59.6848 34.0521 58.5648 34.3321 57.0948 34.3321C53.4198 34.3321 51.1448 32.1621 51.1448 28.3121V19.7021H48.6248V16.0621H51.2848V12.0021L55.6948 10.8471V16.0621H59.9998V19.7021H55.6948V27.6821C55.6948 29.5021 56.6398 30.2721 58.3198 30.2721C58.8098 30.2721 59.6848 30.1321 60.4198 29.7121ZM71.9608 15.6421C77.4208 15.6421 81.3758 19.7021 81.3758 24.9871C81.3758 30.2721 77.4208 34.3321 71.9608 34.3321C66.4658 34.3321 62.5108 30.2721 62.5108 24.9871C62.5108 19.7021 66.4658 15.6421 71.9608 15.6421ZM71.9608 19.8071C69.1258 19.8071 67.0958 22.0471 67.0958 24.9871C67.0958 27.9271 69.1258 30.1671 71.9608 30.1671C74.7608 30.1671 76.7908 27.9271 76.7908 24.9871C76.7908 22.0471 74.7608 19.8071 71.9608 19.8071Z" fill="#2BACCC"/>
</svg>
