<svg width="131" height="48" viewBox="0 0 131 48" fill="none" xmlns="http://www.w3.org/2000/svg">
<path d="M105.228 8.60727V12.6323H95.9881L95.4631 17.8473C96.2681 17.6023 97.1781 17.4623 98.1231 17.4623C102.883 17.4623 106.768 20.6123 106.768 25.3723C106.768 29.5723 103.723 33.9123 97.3881 33.9123C94.4831 33.9123 92.1031 33.0373 90.3181 31.6723V26.8073C92.1031 28.6273 94.5531 29.6773 96.9681 29.6773C100.188 29.6773 102.078 27.8573 102.078 25.4073C102.078 22.9573 100.153 21.0673 96.5131 21.0673C94.6231 21.0673 93.1881 21.5573 92.0681 22.1173L91.4031 21.5923L92.5231 8.60727H105.228Z" fill="#2BACCC"/>
<path d="M122.787 16.56H125.587V24.04H129.147V27.84H125.547V34H120.747V27.8H110.107V24.48L118.027 7.64L121.827 9.52L114.987 24.04H121.107V22.28L122.787 16.56Z" fill="#2BACCC"/>
<path d="M12.68 17.2275H15.48V24.7075H19.0401V28.5075H15.44V34.6675H10.64V28.4675H4.88758e-05V25.1475L7.92005 8.30748L11.72 10.1875L4.88005 24.7075H11V22.9475L12.68 17.2275Z" fill="#2BACCC"/>
<path d="M36.6443 9.79624V13.8212H27.4043L26.8793 19.0362C27.6843 18.7912 28.5943 18.6512 29.5393 18.6512C34.2993 18.6512 38.1843 21.8012 38.1843 26.5612C38.1843 30.7612 35.1393 35.1012 28.8043 35.1012C25.8993 35.1012 23.5193 34.2262 21.7343 32.8612V27.9962C23.5193 29.8162 25.9693 30.8662 28.3843 30.8662C31.6043 30.8662 33.4943 29.0462 33.4943 26.5962C33.4943 24.1462 31.5693 22.2562 27.9293 22.2562C26.0393 22.2562 24.6043 22.7462 23.4843 23.3062L22.8193 22.7812L23.9393 9.79624H36.6443Z" fill="#2BACCC"/>
<path d="M59.4737 29.4868V33.4068C58.7387 33.8268 57.6187 34.1068 56.1487 34.1068C52.4737 34.1068 50.1987 31.9368 50.1987 28.0868V19.4768H47.6787V15.8368H50.3387V11.7768L54.7487 10.6218V15.8368H59.0537V19.4768H54.7487V27.4568C54.7487 29.2768 55.6937 30.0468 57.3737 30.0468C57.8637 30.0468 58.7387 29.9068 59.4737 29.4868ZM71.0147 15.4168C76.4747 15.4168 80.4297 19.4768 80.4297 24.7618C80.4297 30.0468 76.4747 34.1068 71.0147 34.1068C65.5197 34.1068 61.5647 30.0468 61.5647 24.7618C61.5647 19.4768 65.5197 15.4168 71.0147 15.4168ZM71.0147 19.5818C68.1797 19.5818 66.1497 21.8218 66.1497 24.7618C66.1497 27.7018 68.1797 29.9418 71.0147 29.9418C73.8147 29.9418 75.8447 27.7018 75.8447 24.7618C75.8447 21.8218 73.8147 19.5818 71.0147 19.5818Z" fill="#2BACCC"/>
</svg>
