<svg width="71" height="37" viewBox="0 0 71 37" fill="none" xmlns="http://www.w3.org/2000/svg">
<path d="M1.34315e-05 28.3999L10.96 -9.91821e-05H16.24L27.2 28.3999H21.8L19.16 21.4399H8.04001L5.40001 28.3999H1.34315e-05ZM9.56001 16.7999H17.6L13.6 5.8799L9.56001 16.7999ZM37.1847 7.5199C38.2647 7.5199 39.3047 7.6799 40.2647 7.9999H47.9847V11.9999H44.9847C45.3847 12.8799 45.6247 13.8399 45.6247 14.8799C45.6247 19.0799 41.9047 22.2799 37.1447 22.2799C36.5447 22.2799 35.9847 22.2399 35.4247 22.1199C34.9847 22.4399 34.6247 22.7999 34.6247 23.3199C34.6247 24.1199 35.4247 24.5199 36.2647 24.5199H41.4247C45.4647 24.5199 48.1847 26.9599 48.1847 30.3199C48.1847 34.0799 44.1447 36.8799 37.7847 36.8799C32.0247 36.8799 28.1847 34.8399 28.1847 31.3199C28.1847 29.4399 29.6247 27.9599 31.5047 27.1199C30.4247 26.3199 29.9447 25.3599 29.9447 24.1999C29.9447 22.9199 30.8647 21.7199 32.1447 20.8799C30.1047 19.5599 28.7847 17.3999 28.7847 14.8799C28.7847 10.6799 32.5047 7.5199 37.1847 7.5199ZM37.1847 11.5599C35.1047 11.5599 33.5047 13.0399 33.5047 14.8799C33.5047 16.7599 35.1047 18.2399 37.1847 18.2399C39.3047 18.2399 40.9047 16.7599 40.9047 14.8799C40.9047 13.0399 39.3047 11.5599 37.1847 11.5599ZM34.9047 28.5999C34.1047 28.8799 33.2247 29.5199 33.2247 30.5599C33.2247 31.9599 35.1447 32.7599 37.9047 32.7599C41.3047 32.7599 43.2247 31.8399 43.2247 30.4799C43.2247 29.2799 42.0647 28.5999 40.6247 28.5999H34.9047ZM60.8206 7.5199C66.8606 7.5199 70.2206 11.8399 70.2206 17.1599C70.2206 17.9199 70.1406 18.8399 70.0606 19.4399H55.9406C56.3406 22.9999 59.1806 24.3999 62.3006 24.3999C64.8206 24.3999 67.3806 23.4799 68.8606 22.2399V27.1599C66.6206 28.5599 64.0606 28.8799 61.6206 28.8799C55.0606 28.8799 50.5806 24.6799 50.5806 18.2399C50.5806 12.1999 54.7006 7.5199 60.8206 7.5199ZM60.7406 11.8799C58.1806 11.8799 56.4206 13.5199 55.9806 16.0399H65.2606C65.0606 13.5599 63.3406 11.8799 60.7406 11.8799Z" fill="#2BACCC"/>
</svg>
