<svg width="102" height="39" viewBox="0 0 102 39" fill="none" xmlns="http://www.w3.org/2000/svg">
<path d="M6.68234 14.65V36.35H2.51734V10.415C2.51734 7.615 3.14734 4.045 8.57234 4.045C10.1123 4.045 12.2473 4.605 13.4373 5.27L12.4223 8.07C11.4073 7.545 10.0773 7.195 9.09734 7.195C7.34734 7.195 6.68234 8.175 6.68234 10.1V11.395H11.8623V14.65H6.68234ZM21.1182 10.87C24.5482 10.87 26.6832 12.62 26.6832 15.735C26.6832 21.125 19.9982 21.825 16.7782 21.86C16.9182 24.135 18.2132 26.34 21.1882 26.34C23.2532 26.34 24.7582 25.395 25.5982 24.8L26.8932 27.565C26.3332 28.055 24.0232 29.525 20.7332 29.525C14.9582 29.525 12.5782 25.815 12.5782 20.565C12.5782 15.42 15.5532 10.87 21.1182 10.87ZM22.9732 15.91C22.9732 14.615 22.1332 13.845 20.8732 13.845C18.0732 13.845 16.7432 16.575 16.6382 19.165C18.5282 19.2 22.9732 18.605 22.9732 15.91ZM33.8902 29H29.7252V14.44L29.4102 11.395H32.8752L33.2252 13.6C34.3802 11.85 36.0952 10.87 38.3002 10.87C40.5052 10.87 42.1852 11.71 43.1652 13.67C44.2152 11.85 46.0702 10.87 48.2752 10.87C51.8102 10.87 53.8402 12.935 53.8402 17.065V29H49.6752V17.905C49.6752 15.84 49.3252 14.09 47.0152 14.09C45.0902 14.09 43.8652 15.7 43.8652 17.52V29H39.7002V17.905C39.7002 16.015 39.4552 14.09 37.0402 14.09C35.0802 14.09 33.8902 15.77 33.8902 17.66V29ZM72.5811 12.095V25.64L72.8961 29H69.2911L69.0461 27.145L68.9061 27.11C67.8211 28.685 66.0361 29.455 64.1111 29.455C59.1761 29.455 57.2511 25.955 57.2511 20.95C57.2511 14.79 60.3311 10.87 66.3511 10.87C67.5061 10.87 70.0611 11.15 72.5811 12.095ZM68.4511 23.435V14.37C67.9261 14.125 66.9111 13.915 65.8261 13.915C62.5011 13.915 61.3811 17.03 61.3811 20.81C61.3811 23.715 62.0811 26.48 65.0211 26.48C67.1911 26.48 68.4511 24.94 68.4511 23.435ZM76.9599 4.71H81.1249V23.26C81.1249 25.43 81.5799 26.235 83.0149 26.235C83.7149 26.235 84.4849 25.99 85.2199 25.675L86.1299 28.475C85.1849 29.07 83.4699 29.525 81.9649 29.525C77.2399 29.525 76.9599 26.76 76.9599 24.135V4.71ZM95.3907 10.87C98.8207 10.87 100.956 12.62 100.956 15.735C100.956 21.125 94.2707 21.825 91.0507 21.86C91.1907 24.135 92.4857 26.34 95.4607 26.34C97.5257 26.34 99.0307 25.395 99.8707 24.8L101.166 27.565C100.606 28.055 98.2957 29.525 95.0057 29.525C89.2307 29.525 86.8507 25.815 86.8507 20.565C86.8507 15.42 89.8257 10.87 95.3907 10.87ZM97.2457 15.91C97.2457 14.615 96.4057 13.845 95.1457 13.845C92.3457 13.845 91.0157 16.575 90.9107 19.165C92.8007 19.2 97.2457 18.605 97.2457 15.91Z" fill="#2BACCC"/>
</svg>
