<svg width="139" height="30" viewBox="0 0 139 30" fill="none" xmlns="http://www.w3.org/2000/svg">
<path d="M25.4 13.3199V26.6399C22.52 28.4799 18.48 29.3599 15 29.3599C6.03999 29.3599 -9.62615e-06 23.1599 -9.62615e-06 14.6399C-9.62615e-06 5.75988 7.03999 -0.000119686 15.24 -0.000119686C18.6 -0.000119686 21.64 0.719881 24.52 2.27988V7.71988C21.52 5.79988 18.48 5.03988 15.4 5.03988C9.87999 5.03988 5.39999 8.87988 5.39999 14.8799C5.39999 20.7199 9.23999 24.3599 15.12 24.3599C16.64 24.3599 18.64 24.0799 20.52 23.4799V17.7199H13.84V13.3199H25.4ZM39.4922 7.99988C45.5322 7.99988 48.8922 12.3199 48.8922 17.6399C48.8922 18.3999 48.8122 19.3199 48.7322 19.9199H34.6122C35.0122 23.4799 37.8522 24.8799 40.9722 24.8799C43.4922 24.8799 46.0522 23.9599 47.5322 22.7199V27.6399C45.2922 29.0399 42.7322 29.3599 40.2922 29.3599C33.7322 29.3599 29.2522 25.1599 29.2522 18.7199C29.2522 12.6799 33.3722 7.99988 39.4922 7.99988ZM39.4122 12.3599C36.8522 12.3599 35.0922 13.9999 34.6522 16.5199H43.9322C43.7322 14.0399 42.0122 12.3599 39.4122 12.3599ZM58.4275 11.2399C59.5875 9.27988 61.6275 7.99988 64.7075 7.99988C69.4275 7.99988 72.6275 11.1599 72.6275 16.4799V28.8799H67.4275V17.1199C67.4275 14.1599 65.6675 12.6399 63.3475 12.6399C59.9075 12.6399 58.6275 15.7199 58.6275 18.3599V28.8799H53.4275V8.47988H58.4275V11.2399ZM92.9103 26.1199C91.8303 27.9999 89.1503 29.3599 86.4303 29.3599C81.1103 29.3599 76.8303 24.9999 76.8303 18.6799C76.8303 12.3599 81.1503 7.99988 86.3503 7.99988C88.9903 7.99988 91.4703 9.31988 92.5903 10.9999V0.479881H97.7503V28.8799H92.9103V26.1199ZM87.4303 24.7599C90.3903 24.7599 92.8703 22.3199 92.8703 18.7199C92.8703 15.0799 90.3903 12.6799 87.4303 12.6799C84.5103 12.6799 82.0303 15.1199 82.0303 18.7199C82.0303 22.3199 84.5103 24.7599 87.4303 24.7599ZM112.5 7.99988C118.54 7.99988 121.9 12.3199 121.9 17.6399C121.9 18.3999 121.82 19.3199 121.74 19.9199H107.62C108.02 23.4799 110.86 24.8799 113.98 24.8799C116.5 24.8799 119.06 23.9599 120.54 22.7199V27.6399C118.3 29.0399 115.74 29.3599 113.3 29.3599C106.74 29.3599 102.26 25.1599 102.26 18.7199C102.26 12.6799 106.38 7.99988 112.5 7.99988ZM112.42 12.3599C109.86 12.3599 108.1 13.9999 107.66 16.5199H116.94C116.74 14.0399 115.02 12.3599 112.42 12.3599ZM131.595 8.47988V11.9999C132.635 9.51988 134.635 7.99988 137.355 7.99988C137.835 7.99988 138.395 8.07988 138.635 8.15988V13.1999C138.475 13.1599 137.955 13.0799 137.515 13.0799C133.795 13.0799 131.635 15.6799 131.635 19.7999V28.8799H126.435V8.47988H131.595Z" fill="#2BACCC"/>
</svg>
