<svg width="75" height="39" viewBox="0 0 75 39" fill="none" xmlns="http://www.w3.org/2000/svg">
<path d="M6.80377 29H2.63877V14.44L2.32377 11.395H5.78877L6.13877 13.6C7.29377 11.85 9.00877 10.87 11.2138 10.87C13.4188 10.87 15.0988 11.71 16.0788 13.67C17.1288 11.85 18.9838 10.87 21.1888 10.87C24.7238 10.87 26.7538 12.935 26.7538 17.065V29H22.5888V17.905C22.5888 15.84 22.2388 14.09 19.9288 14.09C18.0038 14.09 16.7788 15.7 16.7788 17.52V29H12.6138V17.905C12.6138 16.015 12.3688 14.09 9.95377 14.09C7.99377 14.09 6.80377 15.77 6.80377 17.66V29ZM45.4946 12.095V25.64L45.8096 29H42.2046L41.9596 27.145L41.8196 27.11C40.7346 28.685 38.9496 29.455 37.0246 29.455C32.0896 29.455 30.1646 25.955 30.1646 20.95C30.1646 14.79 33.2446 10.87 39.2646 10.87C40.4196 10.87 42.9746 11.15 45.4946 12.095ZM41.3646 23.435V14.37C40.8396 14.125 39.8246 13.915 38.7396 13.915C35.4146 13.915 34.2946 17.03 34.2946 20.81C34.2946 23.715 34.9946 26.48 37.9346 26.48C40.1046 26.48 41.3646 24.94 41.3646 23.435ZM49.8735 4.71H54.0385V23.26C54.0385 25.43 54.4935 26.235 55.9285 26.235C56.6285 26.235 57.3985 25.99 58.1335 25.675L59.0435 28.475C58.0985 29.07 56.3835 29.525 54.8785 29.525C50.1535 29.525 49.8735 26.76 49.8735 24.135V4.71ZM68.3042 10.87C71.7342 10.87 73.8692 12.62 73.8692 15.735C73.8692 21.125 67.1842 21.825 63.9642 21.86C64.1042 24.135 65.3992 26.34 68.3742 26.34C70.4392 26.34 71.9442 25.395 72.7842 24.8L74.0792 27.565C73.5192 28.055 71.2092 29.525 67.9192 29.525C62.1442 29.525 59.7642 25.815 59.7642 20.565C59.7642 15.42 62.7392 10.87 68.3042 10.87ZM70.1592 15.91C70.1592 14.615 69.3192 13.845 68.0592 13.845C65.2592 13.845 63.9292 16.575 63.8242 19.165C65.7142 19.2 70.1592 18.605 70.1592 15.91Z" fill="#2BACCC"/>
</svg>
