<svg width="170" height="29" viewBox="0 0 170 29" fill="none" xmlns="http://www.w3.org/2000/svg">
<path d="M5.23999 18.6399V28.3999H-1.07884e-05V0.0399003H10.44C15.72 0.0399003 19.88 4.0799 19.88 9.2799C19.88 14.5599 15.72 18.6399 10.44 18.6399H5.23999ZM5.23999 14.0799H9.67999C12.28 14.0799 14.44 11.9999 14.44 9.2799C14.44 6.6399 12.28 4.6799 9.67999 4.6799H5.23999V14.0799ZM32.6281 7.5199C38.8681 7.5199 43.3881 12.1599 43.3881 18.1999C43.3881 24.2399 38.8681 28.8799 32.6281 28.8799C26.3481 28.8799 21.8281 24.2399 21.8281 18.1999C21.8281 12.1599 26.3481 7.5199 32.6281 7.5199ZM32.6281 12.2799C29.3881 12.2799 27.0681 14.8399 27.0681 18.1999C27.0681 21.5599 29.3881 24.1199 32.6281 24.1199C35.8281 24.1199 38.1481 21.5599 38.1481 18.1999C38.1481 14.8399 35.8281 12.2799 32.6281 12.2799ZM54.7584 7.5199C57.1184 7.5199 59.5584 8.1999 61.0784 9.2799V14.0799C59.3584 12.6799 57.2384 11.8399 54.9584 11.8399C52.7584 11.8399 51.6784 12.6399 51.6784 13.7599C51.6784 14.9999 52.9184 15.5999 55.4384 16.2799C58.7584 17.1599 62.2384 18.3199 62.2384 22.4399C62.2384 26.3999 59.1584 28.8799 54.0784 28.8799C51.2784 28.8799 48.7184 28.1199 46.8784 26.7999V21.6399C48.7984 23.4799 50.9584 24.5999 53.7584 24.5999C56.1584 24.5999 57.3984 23.7199 57.3984 22.4799C57.3984 21.1199 55.8384 20.6399 53.1184 19.7999C49.9584 18.8399 46.7584 17.5599 46.7584 13.8799C46.7584 10.2399 49.8784 7.5199 54.7584 7.5199ZM78.1884 23.5999V28.0799C77.3484 28.5599 76.0684 28.8799 74.3884 28.8799C70.1884 28.8799 67.5884 26.3999 67.5884 21.9999V12.1599H64.7084V7.9999H67.7484V3.3599L72.7884 2.0399V7.9999H77.7084V12.1599H72.7884V21.2799C72.7884 23.3599 73.8684 24.2399 75.7884 24.2399C76.3484 24.2399 77.3484 24.0799 78.1884 23.5999ZM96.8981 8.7999V13.6799C95.5381 12.7199 93.5781 12.1999 91.9781 12.1999C88.3381 12.1999 85.8581 14.6799 85.8581 18.2399C85.8581 21.5599 88.1781 24.1999 91.9781 24.1999C93.7381 24.1999 95.6181 23.7199 96.9381 22.6799V27.5999C95.4581 28.5199 93.2181 28.8799 91.3381 28.8799C85.1381 28.8799 80.5781 24.2799 80.5781 18.2399C80.5781 12.1599 85.0581 7.5199 91.3781 7.5199C93.2581 7.5199 95.3781 7.9599 96.8981 8.7999ZM110.792 7.5199C117.032 7.5199 121.552 12.1599 121.552 18.1999C121.552 24.2399 117.032 28.8799 110.792 28.8799C104.512 28.8799 99.9922 24.2399 99.9922 18.1999C99.9922 12.1599 104.512 7.5199 110.792 7.5199ZM110.792 12.2799C107.552 12.2799 105.232 14.8399 105.232 18.1999C105.232 21.5599 107.552 24.1199 110.792 24.1199C113.992 24.1199 116.312 21.5599 116.312 18.1999C116.312 14.8399 113.992 12.2799 110.792 12.2799ZM140.682 25.6399C139.602 27.5199 136.922 28.8799 134.202 28.8799C128.882 28.8799 124.602 24.5199 124.602 18.1999C124.602 11.8799 128.922 7.5199 134.122 7.5199C136.762 7.5199 139.242 8.8399 140.362 10.5199V-9.91821e-05H145.522V28.3999H140.682V25.6399ZM135.202 24.2799C138.162 24.2799 140.642 21.8399 140.642 18.2399C140.642 14.5999 138.162 12.1999 135.202 12.1999C132.282 12.1999 129.802 14.6399 129.802 18.2399C129.802 21.8399 132.282 24.2799 135.202 24.2799ZM160.272 7.5199C166.312 7.5199 169.672 11.8399 169.672 17.1599C169.672 17.9199 169.592 18.8399 169.512 19.4399H155.392C155.792 22.9999 158.632 24.3999 161.752 24.3999C164.272 24.3999 166.832 23.4799 168.312 22.2399V27.1599C166.072 28.5599 163.512 28.8799 161.072 28.8799C154.512 28.8799 150.032 24.6799 150.032 18.2399C150.032 12.1999 154.152 7.5199 160.272 7.5199ZM160.192 11.8799C157.632 11.8799 155.872 13.5199 155.432 16.0399H164.712C164.512 13.5599 162.792 11.8799 160.192 11.8799Z" fill="#2BACCC"/>
</svg>
