<svg width="128" height="39" viewBox="0 0 128 39" fill="none" xmlns="http://www.w3.org/2000/svg">
<path d="M12.53 11.395H16.695V26.06L16.975 29H13.405L13.16 26.935H13.02C11.83 28.685 9.94 29.49 7.945 29.49C4.095 29.49 2.17 27.46 2.17 23.33V11.395H6.335V22.56C6.335 24.695 6.72 26.27 9.065 26.27C10.955 26.27 12.53 24.59 12.53 22.91V11.395ZM25.3064 29H21.1414V14.44L20.8614 11.395H24.3614L24.7114 13.6C25.9364 11.85 27.7914 10.87 30.1014 10.87C33.6014 10.87 35.6664 12.83 35.6664 16.96V29H31.5014V17.87C31.5014 15.735 31.1164 14.09 28.8764 14.09C26.7764 14.09 25.3064 15.805 25.3064 17.625V29ZM47.4994 10.87C48.6194 10.87 49.4244 11.045 50.2294 11.29V4.675H54.3594V25.57L54.6744 29H51.1044L50.8244 27.11L50.6844 27.075C49.5994 28.685 47.8494 29.525 45.9244 29.525C40.4644 29.525 39.0294 25.255 39.0294 20.88C39.0294 14.895 42.1094 10.87 47.4994 10.87ZM50.2294 23.54V14.475C49.5994 14.195 48.6894 13.915 47.6044 13.915C44.2794 13.915 43.1594 17.065 43.1594 20.495C43.1594 23.68 43.9294 26.445 46.7644 26.445C48.8994 26.445 50.2294 24.905 50.2294 23.54ZM66.3682 10.87C69.7982 10.87 71.9332 12.62 71.9332 15.735C71.9332 21.125 65.2482 21.825 62.0282 21.86C62.1682 24.135 63.4632 26.34 66.4382 26.34C68.5032 26.34 70.0082 25.395 70.8482 24.8L72.1432 27.565C71.5832 28.055 69.2732 29.525 65.9832 29.525C60.2082 29.525 57.8282 25.815 57.8282 20.565C57.8282 15.42 60.8032 10.87 66.3682 10.87ZM68.2232 15.91C68.2232 14.615 67.3832 13.845 66.1232 13.845C63.3232 13.845 61.9932 16.575 61.8882 19.165C63.7782 19.2 68.2232 18.605 68.2232 15.91ZM79.1402 17.94V29H74.9752V14.23L74.6602 11.395H78.0902L78.5102 13.95C79.2802 11.955 80.9952 10.87 82.7452 10.87C83.7952 10.87 84.7752 11.115 85.5452 11.57L84.8102 15.105C84.0402 14.685 83.2352 14.405 82.3252 14.405C80.4352 14.405 79.2102 15.91 79.1402 17.94ZM95.9112 25.78H100.041V11.01L95.4562 13.39L93.9162 10.695L100.776 6.46H104.486L104.206 9.785V25.78H108.196V29H95.9112V25.78ZM110.203 23.435C110.203 20.18 112.688 18.08 114.403 17.065C112.793 16.05 110.938 14.475 110.938 11.85C110.938 8.56 113.633 6.005 117.903 6.005C122.663 6.005 124.483 8.63 124.483 11.255C124.483 13.6 122.943 15.385 121.228 16.855C123.783 18.36 125.428 20.39 125.428 22.945C125.428 26.34 123.083 29.385 117.623 29.385C111.883 29.385 110.203 26.165 110.203 23.435ZM121.018 23.05C121.018 20.985 118.953 19.585 117.343 18.815C115.803 19.655 114.228 21.055 114.228 23.155C114.228 24.73 115.313 26.2 117.623 26.2C119.758 26.2 121.018 25.01 121.018 23.05ZM117.763 8.98C116.153 8.98 114.928 10.135 114.928 11.605C114.928 13.25 116.258 14.405 118.078 15.35C119.268 14.51 120.668 13.04 120.668 11.465C120.668 9.925 119.478 8.98 117.763 8.98Z" fill="#2BACCC"/>
</svg>
