<svg width="110" height="25" viewBox="0 0 110 25" fill="none" xmlns="http://www.w3.org/2000/svg">
<path d="M1.9952 21.1042H6.1252V6.33422L1.5402 8.71422L0.000195354 6.01922L6.8602 1.78422H10.5702L10.2902 5.10922V21.1042H14.2802V24.3242H1.9952V21.1042ZM17.9588 7.38422L15.8588 4.72422C17.3638 3.25422 20.5138 1.32922 24.2238 1.32922C28.3888 1.32922 30.4188 3.74422 30.4188 6.68422C30.4188 8.78422 29.5438 10.4992 27.6538 11.8292C29.6138 13.5092 30.7688 15.6442 30.7688 17.8492C30.7688 21.3492 28.4238 24.7092 22.9638 24.7092C20.2338 24.7092 17.3638 23.8342 15.9987 22.9592L17.2238 19.6342C18.7288 20.4742 21.0738 21.1742 22.8238 21.1742C25.0638 21.1742 26.5338 19.9842 26.5338 18.1292C26.5338 16.6592 25.8688 15.3992 24.5038 14.0342C23.3488 14.5242 21.7388 14.9442 20.6188 15.1542L19.6038 12.0742C23.7338 11.1292 26.1488 10.1492 26.1488 7.52422C26.1488 5.80922 25.1337 4.93422 23.3838 4.93422C21.7388 4.93422 19.6038 5.94922 17.9588 7.38422ZM42.4101 -0.000783086H46.5751V6.71922H51.3001V9.97422H46.5751V18.8642C46.5751 20.9992 47.4151 21.6292 48.8501 21.6292C49.7951 21.6292 50.6701 21.2442 51.2301 20.8942L52.2801 23.5892C51.2301 24.3242 49.4801 24.8142 47.8351 24.8142C42.3751 24.8142 42.4101 21.4542 42.4101 19.0042V-0.000783086ZM60.8928 21.7692C63.4478 21.7692 64.5328 19.2492 64.5328 15.6092C64.5328 11.6892 63.6228 9.27422 60.9628 9.27422C58.4078 9.27422 57.2528 11.6542 57.2528 15.0142C57.2528 18.2692 57.7778 21.7692 60.8928 21.7692ZM53.0178 15.5042C53.0178 8.22422 57.5678 6.19422 61.1728 6.19422C63.7628 6.19422 68.8028 6.99922 68.8028 15.0492C68.8028 21.7692 65.2328 24.8492 60.6128 24.8492C55.9228 24.8492 53.0178 21.8392 53.0178 15.5042ZM80.335 21.1042H84.465V6.33422L79.88 8.71422L78.34 6.01922L85.2 1.78422H88.91L88.63 5.10922V21.1042H92.62V24.3242H80.335V21.1042ZM93.9886 5.24922V1.78422H109.039V4.68922C102.109 10.5342 101.444 18.0592 101.444 22.6442V24.3242H97.0686V22.3642C97.0686 17.4292 98.0836 11.0242 103.719 5.24922H93.9886Z" fill="#2BACCC"/>
</svg>
