<svg width="184" height="32" viewBox="0 0 184 32" fill="none" xmlns="http://www.w3.org/2000/svg">
<path d="M7.42531 31.2754H0.000312509L9.72031 1.35039H18.4053L28.7553 31.2754H20.5203L18.4953 24.8854H9.45031L7.42531 31.2754ZM13.8603 8.55039L10.7553 19.2154H17.0553L14.0403 8.55039C13.9953 8.55039 13.9053 8.55039 13.8603 8.55039ZM31.2061 30.1054V0.000388265H38.7661V8.64039C39.7561 8.05539 41.3311 7.56039 43.0861 7.56039C48.6661 7.56039 52.1311 11.2504 52.1311 18.7654C52.1311 27.5404 47.9911 31.9954 40.6561 31.9954C37.2361 31.9954 33.1861 31.1404 31.2061 30.1054ZM38.7661 15.0304V26.3254C39.4411 26.5954 40.2511 26.7754 41.0161 26.7754C43.9411 26.7754 44.6161 24.0304 44.6161 19.7554C44.6161 16.1104 44.0311 12.8704 41.0611 12.8704C39.8011 12.8704 38.7661 13.7254 38.7661 15.0304ZM64.8281 26.5054C67.0331 26.5054 67.8881 24.3004 67.8881 19.8904C67.8881 15.3004 67.1231 12.9604 64.8281 12.9604C62.7131 12.9604 61.7681 15.3454 61.7681 19.0804C61.7681 22.9504 62.1731 26.5054 64.8281 26.5054ZM54.1181 19.9354C54.1181 10.4854 60.2381 7.56039 65.1431 7.56039C68.7431 7.56039 75.6731 8.64039 75.6731 19.2154C75.6731 27.6754 70.7231 31.9954 64.5131 31.9954C58.0781 31.9954 54.1181 28.1254 54.1181 19.9354ZM91.1749 8.23539H98.6899V26.9104L99.1849 31.2754H92.8399L92.5249 29.1154H92.3449C90.9499 30.9604 88.7899 31.8604 86.4049 31.8604C81.2749 31.8604 78.7549 29.1604 78.7549 23.7154V8.23539H86.3149V22.7254C86.3149 24.7504 86.5399 26.1454 88.4299 26.1454C90.0049 26.1454 91.1749 24.8854 91.1749 23.0854V8.23539ZM103.276 0.000388265H110.881V8.23539H116.506V14.1304H110.881V23.2204C110.881 25.6954 112.051 26.3254 113.581 26.3254C114.436 26.3254 115.246 26.0104 116.011 25.6054L117.631 30.3304C116.236 31.2304 113.761 31.9954 111.241 31.9954C103.591 31.9954 103.276 27.5404 103.276 23.0404V0.000388265ZM136.634 31.2754H129.119V12.8704L128.579 8.23539H134.789L135.284 10.6654C136.679 8.77539 138.524 7.56039 141.494 7.56039C144.104 7.56039 146.219 8.46039 147.434 10.5304C148.784 8.68539 150.719 7.56039 153.599 7.56039C158.009 7.56039 160.709 10.0354 160.709 15.5254V31.2754H153.194V16.8304C153.194 14.8054 152.924 13.3204 151.124 13.3204C149.369 13.3204 148.649 14.7154 148.649 16.6504V31.2754H141.134V16.8304C141.134 14.8504 140.954 13.3204 139.109 13.3204C137.309 13.3204 136.634 14.7154 136.634 16.6954V31.2754ZM175.46 7.56039C180.185 7.56039 183.335 9.85539 183.335 14.5804C183.335 21.1054 175.955 22.4104 171.545 22.6804C171.725 24.7054 173.255 26.3704 176 26.3704C178.16 26.3704 180.14 25.4254 181.58 24.4804L183.56 29.4304C183.335 29.6554 179.96 31.9954 174.92 31.9954C167 31.9954 163.895 27.2254 163.895 20.3854C163.895 13.8604 167.765 7.56039 175.46 7.56039ZM176.81 14.6704C176.81 13.5454 176.135 12.8254 175.055 12.8254C172.805 12.8254 171.32 15.0304 171.185 18.1354C173.615 18.0004 176.81 16.8754 176.81 14.6704Z" fill="white"/>
</svg>
