<svg width="137" height="45" viewBox="0 0 137 45" fill="none" xmlns="http://www.w3.org/2000/svg">
<path d="M16.4423 13.2808V26.6769L16.7538 30H13.1885L12.9462 28.1654L12.8077 28.1308C11.7346 29.6885 9.96923 30.45 8.06538 30.45C3.18462 30.45 1.28077 26.9885 1.28077 22.0385C1.28077 15.9462 4.32692 12.0692 10.2808 12.0692C11.4231 12.0692 13.95 12.3462 16.4423 13.2808ZM12.3577 24.4962V15.5308C11.8385 15.2885 10.8346 15.0808 9.76154 15.0808C6.47308 15.0808 5.36538 18.1615 5.36538 21.9C5.36538 24.7731 6.05769 27.5077 8.96538 27.5077C11.1115 27.5077 12.3577 25.9846 12.3577 24.4962ZM20.773 29.0308V5.94231H24.8922V13.5231C25.8615 12.6231 27.3499 12.0692 28.9769 12.0692C33.2692 12.0692 35.8653 15.0462 35.8653 20.4462C35.8653 27.1962 32.8884 30.5192 27.6615 30.5192C25.2384 30.5192 22.2269 29.8615 20.773 29.0308ZM24.8922 17.6769V26.8846C25.5499 27.2308 26.6922 27.5769 27.8346 27.5769C30.2576 27.5769 31.7807 25.7423 31.7807 21C31.7807 18.3 31.123 15.0808 27.9038 15.0808C26.3115 15.0808 24.8922 16.1192 24.8922 17.6769ZM46.1177 27.4731C48.6446 27.4731 49.7177 24.9808 49.7177 21.3808C49.7177 17.5038 48.8177 15.1154 46.1869 15.1154C43.66 15.1154 42.5177 17.4692 42.5177 20.7923C42.5177 24.0115 43.0369 27.4731 46.1177 27.4731ZM38.3292 21.2769C38.3292 14.0769 42.8292 12.0692 46.3946 12.0692C48.9562 12.0692 53.9408 12.8654 53.9408 20.8269C53.9408 27.4731 50.41 30.5192 45.8408 30.5192C41.2023 30.5192 38.3292 27.5423 38.3292 21.2769ZM66.3515 12.5885H70.4361C71.0592 14.7692 71.5784 17.5731 71.5784 20.2038C71.5784 26.5731 68.7745 30.4846 63.2707 30.4846C59.1861 30.4846 57.213 28.5808 57.213 24.3231V12.5885H61.3669V23.4923C61.3669 25.6038 61.5053 27.2654 63.7207 27.2654C66.6284 27.2654 67.5284 23.8038 67.5284 20.4808C67.5284 17.5731 66.9053 14.8038 66.3515 12.5885ZM82.7437 12.0692C86.1361 12.0692 88.2476 13.8 88.2476 16.8808C88.2476 22.2115 81.6361 22.9038 78.4514 22.9385C78.5899 25.1885 79.8707 27.3692 82.813 27.3692C84.8553 27.3692 86.3437 26.4346 87.1745 25.8462L88.4553 28.5808C87.9014 29.0654 85.6168 30.5192 82.363 30.5192C76.6514 30.5192 74.2976 26.85 74.2976 21.6577C74.2976 16.5692 77.2399 12.0692 82.7437 12.0692ZM84.5784 17.0538C84.5784 15.7731 83.7476 15.0115 82.5014 15.0115C79.7322 15.0115 78.4168 17.7115 78.313 20.2731C80.1822 20.3077 84.5784 19.7192 84.5784 17.0538Z" fill="#2BACCC"/>
<path d="M16.4423 13.2808H16.6923V13.1075L16.5301 13.0467L16.4423 13.2808ZM16.4423 26.6769H16.1923V26.6886L16.1934 26.7003L16.4423 26.6769ZM16.7538 30V30.25H17.0284L17.0028 29.9767L16.7538 30ZM13.1885 30L12.9406 30.0327L12.9693 30.25H13.1885V30ZM12.9462 28.1654L13.194 28.1327L13.1717 27.9641L13.0068 27.9228L12.9462 28.1654ZM12.8077 28.1308L12.8683 27.8882L12.7002 27.8462L12.6018 27.9889L12.8077 28.1308ZM12.3577 15.5308H12.6077V15.3716L12.4634 15.3042L12.3577 15.5308ZM16.4423 13.2808H16.1923V26.6769H16.4423H16.6923V13.2808H16.4423ZM16.4423 26.6769L16.1934 26.7003L16.5049 30.0233L16.7538 30L17.0028 29.9767L16.6912 26.6536L16.4423 26.6769ZM16.7538 30V29.75H13.1885V30V30.25H16.7538V30ZM13.1885 30L13.4363 29.9673L13.194 28.1327L12.9462 28.1654L12.6983 28.1981L12.9406 30.0327L13.1885 30ZM12.9462 28.1654L13.0068 27.9228L12.8683 27.8882L12.8077 28.1308L12.7471 28.3733L12.8855 28.4079L12.9462 28.1654ZM12.8077 28.1308L12.6018 27.9889C11.5839 29.4665 9.90329 30.2 8.06538 30.2V30.45V30.7C10.0352 30.7 11.8853 29.9104 13.0136 28.2726L12.8077 28.1308ZM8.06538 30.45V30.2C5.69137 30.2 4.07615 29.3626 3.04454 27.9528C2.00297 26.5295 1.53077 24.4881 1.53077 22.0385H1.28077H1.03077C1.03077 24.5389 1.51049 26.7032 2.64104 28.2481C3.78154 29.8067 5.55863 30.7 8.06538 30.7V30.45ZM1.28077 22.0385H1.53077C1.53077 19.0307 2.28282 16.6044 3.73669 14.9333C5.18587 13.2676 7.36105 12.3192 10.2808 12.3192V12.0692V11.8192C7.24664 11.8192 4.92182 12.8093 3.35947 14.6051C1.80179 16.3956 1.03077 18.9539 1.03077 22.0385H1.28077ZM10.2808 12.0692V12.3192C11.3965 12.3192 13.8933 12.5919 16.3545 13.5149L16.4423 13.2808L16.5301 13.0467C14.0067 12.1004 11.4497 11.8192 10.2808 11.8192V12.0692ZM12.3577 24.4962H12.6077V15.5308H12.3577H12.1077V24.4962H12.3577ZM12.3577 15.5308L12.4634 15.3042C11.9004 15.0415 10.8572 14.8308 9.76154 14.8308V15.0808V15.3308C10.812 15.3308 11.7765 15.5354 12.252 15.7573L12.3577 15.5308ZM9.76154 15.0808V14.8308C8.01956 14.8308 6.84037 15.6565 6.11178 16.967C5.39359 18.2588 5.11538 20.0136 5.11538 21.9H5.36538H5.61538C5.61538 20.0479 5.89102 18.3931 6.54879 17.2099C7.19617 16.0455 8.21506 15.3308 9.76154 15.3308V15.0808ZM5.36538 21.9H5.11538C5.11538 23.348 5.28834 24.7988 5.8527 25.8956C6.13696 26.4481 6.52362 26.9168 7.04206 27.2465C7.56135 27.5767 8.19777 27.7577 8.96538 27.7577V27.5077V27.2577C8.27915 27.2577 7.73865 27.0969 7.31034 26.8246C6.88119 26.5517 6.54957 26.1572 6.2973 25.6669C5.78858 24.6781 5.61538 23.3251 5.61538 21.9H5.36538ZM8.96538 27.5077V27.7577C11.2442 27.7577 12.6077 26.128 12.6077 24.4962H12.3577H12.1077C12.1077 25.8412 10.9788 27.2577 8.96538 27.2577V27.5077ZM20.773 29.0308H20.523V29.1758L20.649 29.2478L20.773 29.0308ZM20.773 5.94231V5.69231H20.523V5.94231H20.773ZM24.8922 5.94231H25.1422V5.69231H24.8922V5.94231ZM24.8922 13.5231H24.6422V14.0964L25.0624 13.7063L24.8922 13.5231ZM24.8922 26.8846H24.6422V27.0355L24.7758 27.1058L24.8922 26.8846ZM20.773 29.0308H21.023V5.94231H20.773H20.523V29.0308H20.773ZM20.773 5.94231V6.19231H24.8922V5.94231V5.69231H20.773V5.94231ZM24.8922 5.94231H24.6422V13.5231H24.8922H25.1422V5.94231H24.8922ZM24.8922 13.5231L25.0624 13.7063C25.9782 12.8559 27.4025 12.3192 28.9769 12.3192V12.0692V11.8192C27.2974 11.8192 25.7448 12.3903 24.7221 13.3399L24.8922 13.5231ZM28.9769 12.0692V12.3192C31.0611 12.3192 32.7081 13.0393 33.8388 14.393C34.9748 15.7528 35.6153 17.7828 35.6153 20.4462H35.8653H36.1153C36.1153 17.7095 35.4577 15.551 34.2226 14.0724C32.9822 12.5876 31.1849 11.8192 28.9769 11.8192V12.0692ZM35.8653 20.4462H35.6153C35.6153 23.7894 34.8775 26.2412 33.5316 27.8538C32.1921 29.4586 30.2192 30.2692 27.6615 30.2692V30.5192V30.7692C30.3307 30.7692 32.4597 29.9183 33.9154 28.1741C35.3647 26.4377 36.1153 23.8529 36.1153 20.4462H35.8653ZM27.6615 30.5192V30.2692C26.4704 30.2692 25.1297 30.1073 23.9068 29.8422C22.68 29.5763 21.592 29.2108 20.8971 28.8137L20.773 29.0308L20.649 29.2478C21.4079 29.6815 22.5526 30.0603 23.8008 30.3309C25.0529 30.6023 26.4294 30.7692 27.6615 30.7692V30.5192ZM24.8922 17.6769H24.6422V26.8846H24.8922H25.1422V17.6769H24.8922ZM24.8922 26.8846L24.7758 27.1058C25.4673 27.4698 26.6494 27.8269 27.8346 27.8269V27.5769V27.3269C26.7351 27.3269 25.6325 26.9917 25.0087 26.6634L24.8922 26.8846ZM27.8346 27.5769V27.8269C29.1205 27.8269 30.1908 27.3337 30.9259 26.2031C31.6485 25.0918 32.0307 23.3897 32.0307 21H31.7807H31.5307C31.5307 23.3526 31.1514 24.939 30.5067 25.9305C29.8745 26.9029 28.9717 27.3269 27.8346 27.3269V27.5769ZM31.7807 21H32.0307C32.0307 19.6379 31.8662 18.1113 31.2734 16.9168C30.9752 16.3159 30.5651 15.7916 30.0066 15.4182C29.4466 15.0436 28.7523 14.8308 27.9038 14.8308V15.0808V15.3308C28.6649 15.3308 29.26 15.5203 29.7287 15.8338C30.199 16.1483 30.5568 16.5976 30.8255 17.139C31.3664 18.2291 31.5307 19.6621 31.5307 21H31.7807ZM27.9038 15.0808V14.8308C26.222 14.8308 24.6422 15.9371 24.6422 17.6769H24.8922H25.1422C25.1422 16.3013 26.401 15.3308 27.9038 15.3308V15.0808ZM46.1177 27.4731V27.7231C47.4841 27.7231 48.4627 27.0394 49.0849 25.8965C49.6979 24.7702 49.9677 23.1986 49.9677 21.3808H49.7177H49.4677C49.4677 23.163 49.2009 24.6375 48.6457 25.6574C48.0996 26.6606 47.2782 27.2231 46.1177 27.2231V27.4731ZM49.7177 21.3808H49.9677C49.9677 19.4323 49.7432 17.8166 49.1614 16.6803C48.8682 16.1076 48.4809 15.6502 47.9811 15.3373C47.4809 15.024 46.8837 14.8654 46.1869 14.8654V15.1154V15.3654C46.8056 15.3654 47.3074 15.5053 47.7158 15.761C48.1246 16.0171 48.4557 16.3991 48.7163 16.9082C49.2422 17.9353 49.4677 19.4523 49.4677 21.3808H49.7177ZM46.1869 15.1154V14.8654C44.8291 14.8654 43.8334 15.5057 43.1903 16.5792C42.5561 17.6377 42.2677 19.1085 42.2677 20.7923H42.5177H42.7677C42.7677 19.153 43.0505 17.7853 43.6192 16.8362C44.1789 15.902 45.0178 15.3654 46.1869 15.3654V15.1154ZM42.5177 20.7923H42.2677C42.2677 22.4066 42.3965 24.1185 42.9308 25.434C43.1993 26.0952 43.5756 26.6698 44.102 27.0792C44.6318 27.4913 45.2972 27.7231 46.1177 27.7231V27.4731V27.2231C45.3978 27.2231 44.843 27.0221 44.409 26.6846C43.9716 26.3444 43.6404 25.8524 43.394 25.2458C42.8985 24.0258 42.7677 22.3972 42.7677 20.7923H42.5177ZM38.3292 21.2769H38.5792C38.5792 17.7319 39.6849 15.5042 41.1914 14.1596C42.7039 12.8095 44.6546 12.3192 46.3946 12.3192V12.0692V11.8192C44.5693 11.8192 42.4872 12.3328 40.8584 13.7866C39.2236 15.2458 38.0792 17.6219 38.0792 21.2769H38.3292ZM46.3946 12.0692V12.3192C47.6563 12.3192 49.4756 12.5168 50.9767 13.6613C52.4649 14.7959 53.6908 16.9013 53.6908 20.8269H53.9408H54.1908C54.1908 16.791 52.9244 14.5175 51.2799 13.2637C49.6482 12.0197 47.6945 11.8192 46.3946 11.8192V12.0692ZM53.9408 20.8269H53.6908C53.6908 24.1072 52.8198 26.4632 51.4196 27.9968C50.0214 29.5282 48.0684 30.2692 45.8408 30.2692V30.5192V30.7692C48.1824 30.7692 50.2794 29.9872 51.7889 28.334C53.2963 26.6829 54.1908 24.1928 54.1908 20.8269H53.9408ZM45.8408 30.5192V30.2692C43.5776 30.2692 41.7765 29.5453 40.5361 28.0857C39.2902 26.6197 38.5792 24.3757 38.5792 21.2769H38.3292H38.0792C38.0792 24.4435 38.8049 26.8207 40.1551 28.4095C41.5108 30.0047 43.4655 30.7692 45.8408 30.7692V30.5192ZM66.3515 12.5885V12.3385H66.0313L66.1089 12.6491L66.3515 12.5885ZM70.4361 12.5885L70.6765 12.5198L70.6247 12.3385H70.4361V12.5885ZM57.213 12.5885V12.3385H56.963V12.5885H57.213ZM61.3669 12.5885H61.6169V12.3385H61.3669V12.5885ZM66.3515 12.5885V12.8385H70.4361V12.5885V12.3385H66.3515V12.5885ZM70.4361 12.5885L70.1957 12.6571C70.8143 14.8221 71.3284 17.6023 71.3284 20.2038H71.5784H71.8284C71.8284 17.5439 71.3041 14.7163 70.6765 12.5198L70.4361 12.5885ZM71.5784 20.2038H71.3284C71.3284 23.3566 70.6338 25.8643 69.2916 27.5786C67.9569 29.2834 65.9575 30.2346 63.2707 30.2346V30.4846V30.7346C66.0878 30.7346 68.2422 29.7301 69.6853 27.8868C71.1211 26.053 71.8284 23.4203 71.8284 20.2038H71.5784ZM63.2707 30.4846V30.2346C61.2625 30.2346 59.8255 29.7663 58.8873 28.8241C57.9488 27.8816 57.463 26.4182 57.463 24.3231H57.213H56.963C56.963 26.4856 57.4637 28.103 58.533 29.1769C59.6025 30.251 61.1942 30.7346 63.2707 30.7346V30.4846ZM57.213 24.3231H57.463V12.5885H57.213H56.963V24.3231H57.213ZM57.213 12.5885V12.8385H61.3669V12.5885V12.3385H57.213V12.5885ZM61.3669 12.5885H61.1169V23.4923H61.3669H61.6169V12.5885H61.3669ZM61.3669 23.4923H61.1169C61.1169 24.537 61.1475 25.5374 61.4858 26.2749C61.6594 26.6535 61.9165 26.9701 62.2926 27.1889C62.6657 27.4059 63.1366 27.5154 63.7207 27.5154V27.2654V27.0154C63.1971 27.0154 62.8199 26.9172 62.544 26.7567C62.271 26.5979 62.0782 26.3672 61.9403 26.0665C61.6554 25.4453 61.6169 24.5591 61.6169 23.4923H61.3669ZM63.7207 27.2654V27.5154C65.3025 27.5154 66.3272 26.5618 66.9421 25.2236C67.5522 23.8957 67.7784 22.1581 67.7784 20.4808H67.5284H67.2784C67.2784 22.1265 67.0546 23.7812 66.4878 25.0149C65.9257 26.2382 65.0466 27.0154 63.7207 27.0154V27.2654ZM67.5284 20.4808H67.7784C67.7784 17.5403 67.1485 14.7458 66.594 12.5278L66.3515 12.5885L66.1089 12.6491C66.6621 14.8619 67.2784 17.6058 67.2784 20.4808H67.5284ZM78.4514 22.9385L78.4487 22.6885L78.1858 22.6913L78.2019 22.9538L78.4514 22.9385ZM87.1745 25.8462L87.4009 25.7401L87.2741 25.4693L87.03 25.6421L87.1745 25.8462ZM88.4553 28.5808L88.6199 28.7689L88.7615 28.6451L88.6817 28.4747L88.4553 28.5808ZM78.313 20.2731L78.0632 20.263L78.0528 20.5183L78.3083 20.523L78.313 20.2731ZM82.7437 12.0692V12.3192C84.4002 12.3192 85.7115 12.7418 86.6049 13.5093C87.493 14.2723 87.9976 15.4012 87.9976 16.8808H88.2476H88.4976C88.4976 15.2795 87.9464 14.0027 86.9307 13.1301C85.9202 12.262 84.4796 11.8192 82.7437 11.8192V12.0692ZM88.2476 16.8808H87.9976C87.9976 18.1571 87.6035 19.1434 86.9716 19.9126C86.3362 20.6862 85.4495 21.2527 84.4486 21.6645C82.4425 22.4898 80.032 22.6713 78.4487 22.6885L78.4514 22.9385L78.4542 23.1884C80.0554 23.171 82.5431 22.9891 84.6389 22.1269C85.6889 21.6949 86.6542 21.0867 87.358 20.23C88.0652 19.3691 88.4976 18.2699 88.4976 16.8808H88.2476ZM78.4514 22.9385L78.2019 22.9538C78.2735 24.1174 78.6412 25.2817 79.3906 26.1599C80.1462 27.0452 81.273 27.6192 82.813 27.6192V27.3692V27.1192C81.4106 27.1192 80.4259 26.6028 79.7709 25.8353C79.1098 25.0606 78.7678 24.0096 78.701 22.9231L78.4514 22.9385ZM82.813 27.3692V27.6192C84.9339 27.6192 86.4751 26.6479 87.319 26.0502L87.1745 25.8462L87.03 25.6421C86.2124 26.2213 84.7766 27.1192 82.813 27.1192V27.3692ZM87.1745 25.8462L86.9481 25.9522L88.2289 28.6868L88.4553 28.5808L88.6817 28.4747L87.4009 25.7401L87.1745 25.8462ZM88.4553 28.5808L88.2907 28.3926C87.7754 28.8435 85.5475 30.2692 82.363 30.2692V30.5192V30.7692C85.6861 30.7692 88.0275 29.2873 88.6199 28.7689L88.4553 28.5808ZM82.363 30.5192V30.2692C79.5641 30.2692 77.6255 29.3728 76.3807 27.8757C75.1292 26.3706 74.5476 24.2209 74.5476 21.6577H74.2976H74.0476C74.0476 24.2868 74.6429 26.5679 75.9962 28.1954C77.3562 29.831 79.4503 30.7692 82.363 30.7692V30.5192ZM74.2976 21.6577H74.5476C74.5476 19.1589 75.2703 16.8206 76.6511 15.1125C78.0273 13.4101 80.0674 12.3192 82.7437 12.3192V12.0692V11.8192C79.9163 11.8192 77.7333 12.9784 76.2623 14.7981C74.796 16.612 74.0476 19.0681 74.0476 21.6577H74.2976ZM84.5784 17.0538H84.8284C84.8284 16.3578 84.6012 15.7779 84.1807 15.3724C83.7615 14.9682 83.1753 14.7615 82.5014 14.7615V15.0115V15.2615C83.0737 15.2615 83.526 15.4356 83.8337 15.7324C84.1401 16.0279 84.3284 16.4691 84.3284 17.0538H84.5784ZM82.5014 15.0115V14.7615C81.022 14.7615 79.929 15.4881 79.202 16.5396C78.4806 17.5832 78.1165 18.9479 78.0632 20.263L78.313 20.2731L78.5628 20.2832C78.6133 19.0367 78.9588 17.7706 79.6133 16.8239C80.2624 15.885 81.2117 15.2615 82.5014 15.2615V15.0115ZM78.313 20.2731L78.3083 20.523C79.2634 20.5407 80.8616 20.4004 82.2307 19.9114C83.5829 19.4285 84.8284 18.5574 84.8284 17.0538H84.5784H84.3284C84.3284 18.2157 83.3758 18.9715 82.0625 19.4405C80.7663 19.9035 79.2318 20.0401 78.3176 20.0231L78.313 20.2731Z" fill="#2BACCC"/>
<path d="M114.654 6.42308V10.4038H105.516L104.997 15.5615C105.793 15.3192 106.693 15.1808 107.627 15.1808C112.335 15.1808 116.177 18.2962 116.177 23.0038C116.177 27.1577 113.166 31.45 106.9 31.45C104.027 31.45 101.673 30.5846 99.9081 29.2346V24.4231C101.673 26.2231 104.097 27.2615 106.485 27.2615C109.67 27.2615 111.539 25.4615 111.539 23.0385C111.539 20.6154 109.635 18.7462 106.035 18.7462C104.166 18.7462 102.747 19.2308 101.639 19.7846L100.981 19.2654L102.089 6.42308H114.654ZM133.956 6.42308V10.4038H124.818L124.299 15.5615C125.095 15.3192 125.995 15.1808 126.929 15.1808C131.637 15.1808 135.479 18.2962 135.479 23.0038C135.479 27.1577 132.468 31.45 126.203 31.45C123.329 31.45 120.976 30.5846 119.21 29.2346V24.4231C120.976 26.2231 123.399 27.2615 125.787 27.2615C128.972 27.2615 130.841 25.4615 130.841 23.0385C130.841 20.6154 128.937 18.7462 125.337 18.7462C123.468 18.7462 122.049 19.2308 120.941 19.7846L120.283 19.2654L121.391 6.42308H133.956Z" fill="#2BACCC"/>
</svg>
