<svg width="86" height="86" viewBox="0 0 86 86" fill="none" xmlns="http://www.w3.org/2000/svg">
<circle opacity="0.56" cx="42.6978" cy="42.6978" r="42.6978" fill="#3E3E3E"/>
<path d="M33.4852 44.6505L45.1092 56.2744C45.5836 56.7489 45.8114 57.3024 45.7924 57.935C45.7734 58.5676 45.5259 59.1211 45.0499 59.5956C44.5754 60.0305 44.0219 60.2582 43.3893 60.2788C42.7567 60.2993 42.2032 60.0716 41.7288 59.5956L26.072 43.9388C25.8348 43.7016 25.6664 43.4446 25.5667 43.1678C25.4671 42.8911 25.4189 42.5946 25.422 42.2783C25.4252 41.962 25.475 41.6654 25.5715 41.3887C25.6679 41.1119 25.8356 40.8549 26.0744 40.6177L41.7311 24.961C42.166 24.526 42.7101 24.3086 43.3632 24.3086C44.0164 24.3086 44.5794 24.526 45.0522 24.961C45.5267 25.4354 45.7639 25.9992 45.7639 26.6524C45.7639 27.3055 45.5267 27.8685 45.0522 28.3414L33.4852 39.906H59.9949C60.6671 39.906 61.2309 40.1338 61.6863 40.5892C62.1418 41.0447 62.3688 41.6077 62.3672 42.2783C62.3656 42.9488 62.1379 43.5126 61.684 43.9697C61.2301 44.4267 60.6671 44.6537 59.9949 44.6505H33.4852Z" fill="white"/>
</svg>
