<svg width="130" height="25" viewBox="0 0 130 25" fill="none" xmlns="http://www.w3.org/2000/svg">
<path d="M-7.80895e-05 23.3442V-0.000783086H4.16492V7.66422C5.14492 6.75422 6.64992 6.19422 8.29492 6.19422C12.6349 6.19422 15.2599 9.20422 15.2599 14.6642C15.2599 21.4892 12.2499 24.8492 6.96492 24.8492C4.51492 24.8492 1.46992 24.1842 -7.80895e-05 23.3442ZM4.16492 11.8642V21.1742C4.82992 21.5242 5.98492 21.8742 7.13992 21.8742C9.58992 21.8742 11.1299 20.0192 11.1299 15.2242C11.1299 12.4942 10.4649 9.23922 7.20992 9.23922C5.59992 9.23922 4.16492 10.2892 4.16492 11.8642ZM26.3262 6.19422C29.7562 6.19422 31.8912 7.94422 31.8912 11.0592C31.8912 16.4492 25.2062 17.1492 21.9862 17.1842C22.1262 19.4592 23.4212 21.6642 26.3962 21.6642C28.4612 21.6642 29.9662 20.7192 30.8062 20.1242L32.1012 22.8892C31.5412 23.3792 29.2312 24.8492 25.9412 24.8492C20.1662 24.8492 17.7862 21.1392 17.7862 15.8892C17.7862 10.7442 20.7612 6.19422 26.3262 6.19422ZM28.1812 11.2342C28.1812 9.93922 27.3412 9.16922 26.0812 9.16922C23.2812 9.16922 21.9512 11.8992 21.8462 14.4892C23.7362 14.5242 28.1812 13.9292 28.1812 11.2342ZM34.8632 0.0342185H39.0282V18.5842C39.0282 20.7542 39.4832 21.5592 40.9182 21.5592C41.6182 21.5592 42.3882 21.3142 43.1232 20.9992L44.0332 23.7992C43.0882 24.3942 41.3732 24.8492 39.8682 24.8492C35.1432 24.8492 34.8632 22.0842 34.8632 19.4592V0.0342185ZM52.594 21.7692C55.149 21.7692 56.234 19.2492 56.234 15.6092C56.234 11.6892 55.324 9.27422 52.664 9.27422C50.109 9.27422 48.954 11.6542 48.954 15.0142C48.954 18.2692 49.479 21.7692 52.594 21.7692ZM44.719 15.5042C44.719 8.22422 49.269 6.19422 52.874 6.19422C55.464 6.19422 60.504 6.99922 60.504 15.0492C60.504 21.7692 56.934 24.8492 52.314 24.8492C47.624 24.8492 44.719 21.8392 44.719 15.5042ZM82.3276 6.71922H86.4226C87.0876 8.92422 87.6476 11.6542 87.6476 14.3492C87.6476 20.7192 85.2326 24.8142 80.0526 24.8142C77.4626 24.8142 76.0276 23.6592 75.3276 21.9442C73.8226 24.0792 71.9326 24.8142 69.6926 24.8142C65.9126 24.8142 63.8126 22.8542 63.8126 18.7242V6.71922H67.9776V17.6392C67.9776 19.7742 68.1526 21.5942 70.3576 21.5942C72.2126 21.5942 73.5426 20.0192 73.5426 18.2342V6.71922H77.7076V17.6042C77.7076 19.8092 77.8126 21.5942 80.0176 21.5942C83.0626 21.5942 83.5526 17.4992 83.5526 14.4892C83.5526 11.7242 82.9226 8.95922 82.3276 6.71922ZM99.5167 21.1042H103.647V6.33422L99.0617 8.71422L97.5217 6.01922L104.382 1.78422H108.092L107.812 5.10922V21.1042H111.802V24.3242H99.5167V21.1042ZM115.935 7.55922L113.625 4.82922C115.655 2.79922 118.49 1.32922 121.465 1.32922C125.805 1.32922 128.115 3.84922 128.115 7.55922C128.115 9.86922 127.03 12.0392 125.105 14.2092L119.225 20.9292H129.13V24.3242H113.59V21.6292L121.22 12.8442C122.97 10.8142 123.705 9.83422 123.705 7.94422C123.705 6.01922 122.41 5.07422 120.765 5.07422C119.05 5.07422 117.335 6.26422 115.935 7.55922Z" fill="#2BACCC"/>
</svg>
