<svg width="3596" height="1115" viewBox="0 0 3596 1115" fill="none" xmlns="http://www.w3.org/2000/svg">
<g opacity="0.1">
<path d="M709.74 295.274C726.32 275.484 757.4 277.734 781.93 285.784C806.46 293.834 831.66 306.104 856.86 300.534C866.87 298.324 876.1 293.384 886.07 290.974C910.95 284.964 936.44 295.274 961.63 299.744C999.12 306.384 1038.84 299.634 1072.02 280.964C1100.92 298.514 1137 306.974 1170.34 301.414C1190.72 298.014 1210.81 290.164 1231.37 292.254C1255.1 294.664 1276.76 310.174 1300.57 308.824C1319.97 307.724 1337.12 295.554 1356.3 292.474C1376.79 289.184 1397.6 296.534 1418.31 295.304C1447.44 293.584 1473.87 275.144 1503.05 274.784C1522.94 274.544 1541.84 282.744 1561.34 286.664C1591.49 292.734 1622.65 288.504 1653.11 284.264C1635.02 265.974 1601.43 278.164 1578.58 266.354C1565.07 259.374 1556.54 245.794 1546.35 234.494C1536.17 223.194 1521.29 213.254 1506.63 217.334C1507.87 203.454 1501.58 189.124 1490.51 180.644C1479.44 172.164 1463.97 169.824 1450.89 174.644C1457.45 158.794 1456.09 139.904 1447.35 125.144C1438.61 110.394 1422.68 100.134 1405.63 98.2736C1399.91 97.6536 1393.8 97.8336 1388.86 94.8636C1380.43 89.7836 1379.11 77.9636 1372.4 70.7736C1359.92 57.4036 1336.45 65.7436 1320.46 56.8836C1312.09 52.2436 1306.96 43.5536 1300.82 36.2036C1285.71 18.1236 1261.79 7.14359 1238.35 9.59359C1214.92 12.0536 1193.06 28.8336 1186.56 51.4836C1154.81 31.9436 1113.25 28.3336 1079 43.0636C1044.75 57.7836 1019.25 92.5836 1018.38 129.854C995.6 122.594 968.28 136.164 960.3 158.694C935.19 154.144 907.88 168.214 897.01 191.294C894.01 197.654 891.68 205.134 885.51 208.504C878.41 212.384 869.62 209.024 861.59 209.974C844.23 212.034 836.09 232.134 822.6 243.254C810.93 252.874 795.11 255.564 780.02 256.624C764.93 257.684 749.43 257.524 735.22 262.704C721.01 267.894 710.35 280.154 709.72 295.274H709.74Z" fill="white"/>
<mask id="mask0_219_162" style="mask-type:luminance" maskUnits="userSpaceOnUse" x="709" y="9" width="945" height="300">
<path d="M709.74 295.274C726.32 275.484 757.4 277.734 781.93 285.784C806.46 293.834 831.66 306.104 856.86 300.534C866.87 298.324 876.1 293.384 886.07 290.974C910.95 284.964 936.44 295.274 961.63 299.744C999.12 306.384 1038.84 299.634 1072.02 280.964C1100.92 298.514 1137 306.974 1170.34 301.414C1190.72 298.014 1210.81 290.164 1231.37 292.254C1255.1 294.664 1276.76 310.174 1300.57 308.824C1319.97 307.724 1337.12 295.554 1356.3 292.474C1376.79 289.184 1397.6 296.534 1418.31 295.304C1447.44 293.584 1473.87 275.144 1503.05 274.784C1522.94 274.544 1541.84 282.744 1561.34 286.664C1591.49 292.734 1622.65 288.504 1653.11 284.264C1635.02 265.974 1601.43 278.164 1578.58 266.354C1565.07 259.374 1556.54 245.794 1546.35 234.494C1536.17 223.194 1521.29 213.254 1506.63 217.334C1507.87 203.454 1501.58 189.124 1490.51 180.644C1479.44 172.164 1463.97 169.824 1450.89 174.644C1457.45 158.794 1456.09 139.904 1447.35 125.144C1438.61 110.394 1422.68 100.134 1405.63 98.2736C1399.91 97.6536 1393.8 97.8336 1388.86 94.8636C1380.43 89.7836 1379.11 77.9636 1372.4 70.7736C1359.92 57.4036 1336.45 65.7436 1320.46 56.8836C1312.09 52.2436 1306.96 43.5536 1300.82 36.2036C1285.71 18.1236 1261.79 7.14359 1238.35 9.59359C1214.92 12.0536 1193.06 28.8336 1186.56 51.4836C1154.81 31.9436 1113.25 28.3336 1079 43.0636C1044.75 57.7836 1019.25 92.5836 1018.38 129.854C995.6 122.594 968.28 136.164 960.3 158.694C935.19 154.144 907.88 168.214 897.01 191.294C894.01 197.654 891.68 205.134 885.51 208.504C878.41 212.384 869.62 209.024 861.59 209.974C844.23 212.034 836.09 232.134 822.6 243.254C810.93 252.874 795.11 255.564 780.02 256.624C764.93 257.684 749.43 257.524 735.22 262.704C721.01 267.894 710.35 280.154 709.72 295.274H709.74Z" fill="white"/>
</mask>
<g mask="url(#mask0_219_162)">
<path opacity="0.14" d="M1681 291.354C1656.15 283.534 1629.18 289.444 1603.27 286.724C1578.79 284.164 1555.86 273.984 1532.24 267.034C1508.62 260.084 1482.35 256.544 1460.02 266.894C1464.76 255.344 1476.02 246.744 1488.41 245.194C1476.25 237.734 1461.36 234.854 1447.3 237.244C1449.44 224.344 1475.16 226.424 1475.46 213.354C1475.57 208.334 1471.26 204.394 1467.01 201.714C1455.35 194.374 1441.25 190.984 1427.53 192.214C1435.97 177.954 1428.86 157.664 1414.38 149.604C1399.9 141.554 1380.74 144.904 1367.95 155.444C1361.56 136.344 1345.41 120.804 1326.08 115.164C1306.75 109.524 1284.77 113.924 1269.11 126.584C1282.79 128.434 1295.31 137.424 1301.43 149.794C1277 142.624 1248.24 157.124 1239.48 181.024C1265.03 176.524 1291.87 198.764 1292.19 224.714C1292.27 223.194 1292.36 221.674 1292.44 220.154C1283.6 211.024 1269.1 208.954 1257.49 203.794C1250.33 200.614 1242.6 198.254 1234.77 198.694C1226.94 199.134 1219.01 202.754 1214.83 209.384C1207.01 199.634 1192.48 197.094 1180.61 201.004C1168.74 204.914 1159.29 214.154 1152.2 224.444C1147.33 213.844 1135.87 206.624 1124.2 206.834C1112.54 207.034 1101.33 214.644 1096.83 225.414C1094.79 221.034 1097.1 215.914 1099.75 211.864C1105.74 202.694 1113.93 194.624 1124.11 190.584C1134.29 186.544 1146.61 187.054 1155.46 193.514C1155.14 186.874 1160.21 181.194 1165.65 177.374C1175.49 170.464 1187.69 166.984 1199.69 167.674C1200.27 163.254 1198.54 158.884 1196.72 154.814C1193.03 146.614 1188.6 138.444 1181.66 132.744C1174.71 127.044 1164.72 124.274 1156.51 127.924C1170.07 114.754 1192.49 111.834 1208.98 121.074C1198.16 98.8436 1170.16 88.6335 1145.86 93.1835C1121.56 97.7335 1101 114.314 1085.63 133.674C1084.97 134.504 1083.95 135.444 1082.99 134.974C1082.04 134.504 1083.64 132.794 1083.78 133.844C1074.94 129.464 1061.35 130.034 1052.52 134.414C1043.68 138.794 1037.1 147.464 1035.24 157.154C1022.26 153.394 1007.71 160.504 1000.41 171.874C993.109 183.244 992.239 197.854 995.389 210.994C989.209 209.284 984.189 204.914 978.559 201.854C966.849 195.494 952.069 195.144 940.069 200.954C928.069 206.754 919.169 218.564 916.879 231.694C909.409 230.694 901.819 229.694 894.379 230.894C886.939 232.094 879.549 235.834 875.729 242.324C873.619 245.904 872.709 250.104 870.479 253.614C866.159 260.434 856.749 263.504 849.239 260.534C838.589 256.334 824.859 256.474 815.379 262.904C810.999 265.874 807.849 270.404 803.469 273.394C787.009 284.614 765.319 269.194 745.419 269.924C729.419 270.514 715.459 282.084 707.639 296.054C699.829 310.024 697.079 326.184 694.689 342.014C715.719 315.534 751.839 301.974 785.109 308.064C812.359 313.054 838.379 330.084 865.639 325.104C881.419 322.224 895.189 312.164 910.969 309.324C940.479 304.004 967.739 324.424 996.429 333.114C1020.67 340.454 1047.41 339.254 1070.88 329.754C1081.67 325.384 1091.95 319.294 1103.42 317.334C1116.59 315.094 1129.99 318.524 1142.93 321.884C1185.71 333.004 1233.96 342.874 1271.86 320.134C1277.05 317.024 1282.23 313.234 1288.27 312.834C1295.73 312.344 1302.35 317.104 1309.02 320.484C1339.72 336.084 1376.78 323.624 1408.02 309.144C1432.15 297.964 1457.32 285.324 1483.81 287.574C1501.46 289.074 1517.8 297.114 1534.89 301.764C1555.79 307.454 1577.68 308.054 1599.33 308.614C1623.84 309.254 1648.34 309.884 1672.85 310.524C1678.4 310.664 1684.49 310.634 1688.77 307.094C1693.05 303.554 1686.32 293.024 1681.02 291.354H1681Z" fill="#2BACCC"/>
</g>
<path d="M1927.1 249.324C1916.8 248.824 1907.72 242.844 1898.46 238.324C1889.2 233.804 1877.83 230.704 1868.88 235.824C1877.07 225.224 1889.13 217.704 1902.25 215.004C1907.36 213.954 1912.75 213.564 1917.29 211.014C1921.84 208.464 1925.23 202.774 1923.1 198.014C1904.12 197.904 1885.14 197.794 1866.16 197.684C1846.11 197.564 1824.08 198.154 1809.03 211.404C1810.5 197.504 1824.7 189.054 1837.41 183.234C1840.63 181.764 1844.05 180.134 1845.83 177.074C1848.12 173.124 1846.93 168.194 1846.39 163.664C1843.53 139.684 1864.77 115.694 1888.92 115.624C1897.97 115.594 1908.36 118.014 1915.07 111.954C1920.93 106.664 1921.16 96.9337 1927.26 91.9237C1937.89 83.1837 1957.43 95.0437 1966.41 84.6137C1968.34 82.3637 1969.3 79.4736 1970.45 76.7436C1978.33 58.0636 1998.15 45.0836 2018.43 45.3336C2038.71 45.5736 2058.2 59.0236 2065.63 77.8936C2070.66 68.9836 2075.74 60.0136 2082.37 52.2136C2106 24.4136 2149.65 16.1236 2181.83 33.3136C2214.01 50.5036 2231.38 91.4036 2221.42 126.494C2233.38 124.654 2246.05 124.214 2257.13 129.074C2268.21 133.934 2277.14 145.334 2275.82 157.364C2298.88 147.224 2329.27 161.084 2336.72 185.154C2338.5 190.894 2340.38 198.264 2346.32 199.164C2348.82 199.544 2351.29 198.524 2353.69 197.704C2375 190.404 2400.76 199.464 2412.81 218.494C2399.52 210.734 2382.67 214.744 2368.2 219.964C2353.72 225.184 2338.36 231.504 2323.45 227.684C2315.11 225.544 2307.03 220.274 2298.6 221.974C2293.55 222.994 2289.36 226.384 2285.08 229.254C2264.44 243.124 2236.95 246.204 2213.76 237.244C2210.47 235.974 2207.14 234.454 2203.62 234.504C2200.59 234.554 2197.72 235.754 2194.89 236.824C2173.21 245.034 2148.93 246.214 2126.56 240.154C2113.76 236.684 2101.24 230.864 2087.99 231.224C2069.25 231.724 2050.37 244.484 2032.97 237.514C2025.79 234.644 2019.58 228.534 2011.85 228.544C2004.43 228.554 1999.54 234.134 1992.81 235.934C1985.21 237.964 1979.78 235.634 1972.08 236.254C1956.29 237.514 1943.42 250.144 1927.1 249.354V249.324Z" fill="white"/>
<mask id="mask1_219_162" style="mask-type:luminance" maskUnits="userSpaceOnUse" x="1809" y="24" width="604" height="226">
<path d="M1927.1 249.324C1916.8 248.824 1907.72 242.844 1898.46 238.324C1889.2 233.804 1877.83 230.704 1868.88 235.824C1877.07 225.224 1889.13 217.704 1902.25 215.004C1907.36 213.954 1912.75 213.564 1917.29 211.014C1921.84 208.464 1925.23 202.774 1923.1 198.014C1904.12 197.904 1885.14 197.794 1866.16 197.684C1846.11 197.564 1824.08 198.154 1809.03 211.404C1810.5 197.504 1824.7 189.054 1837.41 183.234C1840.63 181.764 1844.05 180.134 1845.83 177.074C1848.12 173.124 1846.93 168.194 1846.39 163.664C1843.53 139.684 1864.77 115.694 1888.92 115.624C1897.97 115.594 1908.36 118.014 1915.07 111.954C1920.93 106.664 1921.16 96.9337 1927.26 91.9237C1937.89 83.1837 1957.43 95.0437 1966.41 84.6137C1968.34 82.3637 1969.3 79.4736 1970.45 76.7436C1978.33 58.0636 1998.15 45.0836 2018.43 45.3336C2038.71 45.5736 2058.2 59.0236 2065.63 77.8936C2070.66 68.9836 2075.74 60.0136 2082.37 52.2136C2106 24.4136 2149.65 16.1236 2181.83 33.3136C2214.01 50.5036 2231.38 91.4036 2221.42 126.494C2233.38 124.654 2246.05 124.214 2257.13 129.074C2268.21 133.934 2277.14 145.334 2275.82 157.364C2298.88 147.224 2329.27 161.084 2336.72 185.154C2338.5 190.894 2340.38 198.264 2346.32 199.164C2348.82 199.544 2351.29 198.524 2353.69 197.704C2375 190.404 2400.76 199.464 2412.81 218.494C2399.52 210.734 2382.67 214.744 2368.2 219.964C2353.72 225.184 2338.36 231.504 2323.45 227.684C2315.11 225.544 2307.03 220.274 2298.6 221.974C2293.55 222.994 2289.36 226.384 2285.08 229.254C2264.44 243.124 2236.95 246.204 2213.76 237.244C2210.47 235.974 2207.14 234.454 2203.62 234.504C2200.59 234.554 2197.72 235.754 2194.89 236.824C2173.21 245.034 2148.93 246.214 2126.56 240.154C2113.76 236.684 2101.24 230.864 2087.99 231.224C2069.25 231.724 2050.37 244.484 2032.97 237.514C2025.79 234.644 2019.58 228.534 2011.85 228.544C2004.43 228.554 1999.54 234.134 1992.81 235.934C1985.21 237.964 1979.78 235.634 1972.08 236.254C1956.29 237.514 1943.42 250.144 1927.1 249.354V249.324Z" fill="white"/>
</mask>
<g mask="url(#mask1_219_162)">
<path opacity="0.14" d="M1866.13 239.624C1883.35 226.224 1907.34 222.054 1928.07 228.864C1938.69 213.944 1957.93 205.654 1976.07 208.184C1972.45 195.484 1957.9 188.754 1944.69 188.834C1931.48 188.914 1918.91 194.034 1906.12 197.294C1872.09 205.954 1833.56 202.244 1804.73 222.304C1822.12 200.434 1848.26 185.734 1875.98 182.224C1884.63 163.034 1906.23 150.534 1927.18 152.614C1931.84 136.884 1945.89 124.344 1962.05 121.514C1978.21 118.674 1995.69 125.684 2005.43 138.884C2015.29 129.814 2031.69 131.814 2042.52 139.714C2053.34 147.614 2059.92 159.924 2066.13 171.804C2068.96 160.284 2067.83 147.834 2062.98 137.004C2073.56 139.234 2083.19 145.694 2089.28 154.624C2087.04 142.594 2084.8 130.554 2082.56 118.524C2082.26 116.894 2081.98 115.084 2082.85 113.664C2084.16 111.524 2087.22 111.484 2089.7 111.864C2112.97 115.414 2133.1 134.384 2138.03 157.404C2141.61 149.704 2142.46 140.764 2140.39 132.524C2160.01 133.034 2179.08 143.844 2189.59 160.424C2180 153.154 2165.84 152.594 2155.7 159.074C2167.54 162.674 2177.6 171.734 2182.42 183.134C2197.41 167.534 2225.77 167.974 2240.26 184.034C2254.59 172.834 2278.3 177.054 2287.88 192.514C2289.7 195.454 2291.28 198.914 2294.43 200.354C2297.75 201.874 2301.62 200.614 2305.27 200.714C2312.77 200.934 2318.71 206.824 2325.45 210.104C2338.99 216.694 2354.95 212.514 2369.94 211.104C2389.51 209.254 2410.93 213.194 2424.54 227.374C2398.82 229.704 2373.86 232.434 2348.1 234.164C2335.71 234.994 2323.11 235.744 2311.02 232.914C2303 231.034 2295.35 227.614 2287.18 226.554C2277.76 225.334 2268.27 227.344 2258.91 228.894C2245.27 231.154 2231.34 232.464 2217.61 230.764C2210.42 229.874 2203.28 228.164 2196.03 228.394C2186.87 228.684 2178.13 232.044 2169.31 234.554C2142.99 242.044 2113.46 241.674 2089.54 228.374C2086.24 226.534 2082.88 224.414 2079.1 224.264C2075.66 224.134 2072.4 225.664 2069.23 227.004C2053.12 233.804 2035.16 236.164 2017.84 233.774C2014.94 233.374 2012.01 232.844 2009.11 233.234C2005.33 233.744 2001.95 235.764 1998.6 237.584C1958.1 259.574 1909.95 253.854 1866.12 239.624H1866.13Z" fill="#2BACCC"/>
</g>
<path d="M183.66 960.613C186.6 975.803 207.77 977.883 222.63 973.603C237.49 969.313 254.93 962.793 267.11 972.333C274.42 978.063 276.97 987.773 281.36 995.953C300.96 1032.47 353.02 1033.76 393.1 1023.19C399.95 1021.38 407.11 1019.36 414.02 1020.91C431.17 1024.75 447.53 1048.66 460.46 1036.75C426.06 1054.36 396.62 1081.52 376.28 1114.38C415.44 1092.97 467.56 1117.1 507.36 1096.91C531.93 1084.45 554.1 1055.47 580.02 1064.83C591.79 1069.08 599.45 1080.47 610.33 1086.65C643.4 1105.43 680.75 1069.56 718.4 1064.2C756.72 1058.75 794.79 1086.08 832.65 1078.01C854.57 1073.34 872.79 1057.33 894.74 1052.81C926.45 1046.28 957.87 1064.82 990.21 1066.25C1019.53 1067.54 1047.72 1054.72 1077.01 1052.9C1127.25 1049.77 1176.18 1079.06 1226 1071.85C1258.47 1067.16 1287.84 1047.24 1320.63 1046.15C1333.67 1045.72 1347.23 1048.25 1359.45 1043.69C1369.27 1040.03 1376.96 1032.21 1386.32 1027.48C1417.45 1011.76 1457.26 1033.63 1489.26 1019.77C1501.99 1014.26 1512.05 1003.55 1525.06 998.713C1538.57 993.683 1553.52 995.573 1567.84 997.183C1611.66 1002.12 1657.62 998.583 1685.42 964.343C1646.61 989.153 1598.58 942.603 1552.66 946.213C1535.88 927.103 1508.67 917.783 1483.69 922.593C1485.68 895.673 1467.5 868.563 1441.84 860.193C1453.08 835.093 1426.05 802.634 1399.32 809.144C1405.86 779.204 1380.39 746.543 1349.76 745.593C1342.09 704.733 1309.5 669.613 1269.33 658.923C1229.16 648.233 1183.42 662.493 1156.45 694.133C1152.26 699.053 1148.25 704.543 1142.35 707.183C1137.26 709.473 1131.47 709.314 1125.92 709.894C1094.78 713.144 1069.38 744.393 1072.56 775.543C1051.66 778.703 1033.56 795.733 1029.15 816.403C1005.69 802.203 973.08 805.313 952.73 823.683C957.45 780.373 912.69 739.253 869.93 747.623C870.15 727.273 857.98 707.273 839.8 698.123C821.62 688.973 798.3 691.113 782.09 703.423C760.34 626.433 673.3 577.873 594.15 589.593C515.01 601.313 449.05 665.143 423.52 740.963C389.7 726.583 345.54 750.373 338.94 786.523C299.38 776.843 254.72 805.903 247.54 845.993C235.87 840.143 219.05 841.273 207.33 847.013C194.2 853.443 185.34 866.033 173.86 875.083C163.9 882.933 151.83 888.093 139.28 889.883C126.21 891.743 112.83 890.003 99.75 891.813C84.9 893.863 70.96 900.433 58.59 908.893C29.6 928.683 8.32 959.443 0 993.523C3.52 995.413 6.68 990.633 8.4 987.013C14.76 973.623 30.12 965.103 44.85 966.813C62.54 968.863 76.58 983.633 94.14 986.603C112.46 989.703 130.35 979.333 144.55 967.343C153.85 959.493 164.23 950.153 176.29 951.783C179.27 952.183 183.1 957.663 183.67 960.613H183.66Z" fill="white"/>
<mask id="mask2_219_162" style="mask-type:luminance" maskUnits="userSpaceOnUse" x="0" y="587" width="1686" height="528">
<path d="M183.66 960.613C186.6 975.803 207.77 977.883 222.63 973.603C237.49 969.313 254.93 962.793 267.11 972.333C274.42 978.063 276.97 987.773 281.36 995.953C300.96 1032.47 353.02 1033.76 393.1 1023.19C399.95 1021.38 407.11 1019.36 414.02 1020.91C431.17 1024.75 447.53 1048.66 460.46 1036.75C426.06 1054.36 396.62 1081.52 376.28 1114.38C415.44 1092.97 467.56 1117.1 507.36 1096.91C531.93 1084.45 554.1 1055.47 580.02 1064.83C591.79 1069.08 599.45 1080.47 610.33 1086.65C643.4 1105.43 680.75 1069.56 718.4 1064.2C756.72 1058.75 794.79 1086.08 832.65 1078.01C854.57 1073.34 872.79 1057.33 894.74 1052.81C926.45 1046.28 957.87 1064.82 990.21 1066.25C1019.53 1067.54 1047.72 1054.72 1077.01 1052.9C1127.25 1049.77 1176.18 1079.06 1226 1071.85C1258.47 1067.16 1287.84 1047.24 1320.63 1046.15C1333.67 1045.72 1347.23 1048.25 1359.45 1043.69C1369.27 1040.03 1376.96 1032.21 1386.32 1027.48C1417.45 1011.76 1457.26 1033.63 1489.26 1019.77C1501.99 1014.26 1512.05 1003.55 1525.06 998.713C1538.57 993.683 1553.52 995.573 1567.84 997.183C1611.66 1002.12 1657.62 998.583 1685.42 964.343C1646.61 989.153 1598.58 942.603 1552.66 946.213C1535.88 927.103 1508.67 917.783 1483.69 922.593C1485.68 895.673 1467.5 868.563 1441.84 860.193C1453.08 835.093 1426.05 802.634 1399.32 809.144C1405.86 779.204 1380.39 746.543 1349.76 745.593C1342.09 704.733 1309.5 669.613 1269.33 658.923C1229.16 648.233 1183.42 662.493 1156.45 694.133C1152.26 699.053 1148.25 704.543 1142.35 707.183C1137.26 709.473 1131.47 709.314 1125.92 709.894C1094.78 713.144 1069.38 744.393 1072.56 775.543C1051.66 778.703 1033.56 795.733 1029.15 816.403C1005.69 802.203 973.08 805.313 952.73 823.683C957.45 780.373 912.69 739.253 869.93 747.623C870.15 727.273 857.98 707.273 839.8 698.123C821.62 688.973 798.3 691.113 782.09 703.423C760.34 626.433 673.3 577.873 594.15 589.593C515.01 601.313 449.05 665.143 423.52 740.963C389.7 726.583 345.54 750.373 338.94 786.523C299.38 776.843 254.72 805.903 247.54 845.993C235.87 840.143 219.05 841.273 207.33 847.013C194.2 853.443 185.34 866.033 173.86 875.083C163.9 882.933 151.83 888.093 139.28 889.883C126.21 891.743 112.83 890.003 99.75 891.813C84.9 893.863 70.96 900.433 58.59 908.893C29.6 928.683 8.32 959.443 0 993.523C3.52 995.413 6.68 990.633 8.4 987.013C14.76 973.623 30.12 965.103 44.85 966.813C62.54 968.863 76.58 983.633 94.14 986.603C112.46 989.703 130.35 979.333 144.55 967.343C153.85 959.493 164.23 950.153 176.29 951.783C179.27 952.183 183.1 957.663 183.67 960.613H183.66Z" fill="white"/>
</mask>
<g mask="url(#mask2_219_162)">
<path opacity="0.14" d="M404.66 1198.57C407.38 1172.67 421 1148.62 439.79 1130.59C458.58 1112.56 482.27 1100.23 506.98 1092.03C485.84 1080.08 459.1 1083.86 436.6 1093.02C432.39 1094.73 427.91 1096.66 423.45 1095.79C420.59 1095.23 418.1 1093.58 415.46 1092.35C400.48 1085.35 383.16 1092.35 367.25 1096.86C328.68 1107.81 282.17 1101.08 257.03 1069.86C253.5 1065.47 250.07 1060.41 244.71 1058.67C240.98 1057.46 236.94 1058.1 233.04 1058.51C213 1060.59 192.32 1055.86 175.19 1045.27C172.51 1043.62 169.62 1041.75 166.49 1042.11C164.27 1042.36 162.35 1043.71 160.54 1045.01C151.91 1051.21 143.28 1057.42 134.65 1063.62C129.72 1067.16 124.66 1070.77 118.83 1072.44C100.79 1077.6 83.36 1063.14 64.86 1059.97C46.89 1056.9 28.71 1064.84 14.01 1075.61C10.7 1078.04 6.24001 1080.69 2.85001 1078.37C0.450006 1076.73 0.0300067 1073.39 0.0100067 1070.48C-0.279993 1031.9 28.22 998.953 59.56 976.463C73.61 966.373 89.42 957.283 106.71 956.713C125.15 956.093 145.85 964.733 160.75 953.853C165.13 950.653 168.31 946.113 171.84 941.993C191.87 918.643 230.32 903.054 258.18 916.104C259.61 916.094 258.23 918.764 257.02 918.004C255.81 917.244 255.99 915.443 256.34 914.053C260.67 897.153 269.09 880.863 282.5 869.703C295.91 858.543 314.74 853.183 331.41 858.323C335.99 838.023 343.72 817.864 357.76 802.514C371.81 787.164 393.05 777.334 413.56 780.884C415.53 781.224 417.63 781.674 419.46 780.864C421.82 779.824 422.86 777.103 423.72 774.673C438.42 732.883 468.43 695.003 509.51 678.453C522.9 673.063 537.12 670.004 551.4 667.894C589.62 662.244 629.22 663.293 666.14 674.663C703.06 686.033 737.18 708.173 759.69 739.573C732.76 751.453 716.92 779.444 716.53 808.874C724.89 787.924 742.84 771.023 764.26 763.943C785.67 756.863 810.16 759.723 829.36 771.553C844.64 780.963 857.14 798.764 852.48 816.104C880.27 815.714 907.01 833.743 919.1 858.773C910.34 872.153 906.87 888.893 909.6 904.653C917.64 887.763 935.16 875.793 953.82 874.443C939.54 892.493 932.01 915.773 933.01 938.773C920.03 929.443 903.62 924.233 887.83 926.743C872.04 929.253 857.33 940.273 852.53 955.523C838.12 944.283 816.6 943.223 801.15 952.973C785.7 962.733 777.42 982.623 781.37 1000.46C784.9 986.803 795.51 974.713 809.2 971.293C822.89 967.873 838.95 974.494 844.68 987.384C854.41 980.014 870.28 983.113 876.52 993.593C894.69 973.093 930.22 971.553 950.09 990.403C959.67 980.853 969.4 971.243 980.96 964.203C992.52 957.163 1011.9 951.033 1025.28 953.043C1024.06 954.263 1022.21 952.453 1021.37 950.943C1014.97 939.403 1002.01 931.823 988.82 931.913C975.63 931.993 962.76 939.733 956.51 951.353C955.24 931.003 961.83 910.254 974.62 894.374C987.41 878.484 1006.26 867.614 1026.41 864.494C1026.15 845.774 1042.03 828.253 1060.68 826.673C1065.61 810.803 1071.05 794.123 1083.41 783.033C1089.11 777.913 1095.98 774.304 1102.76 770.744C1112.02 765.884 1121.49 760.953 1131.83 759.403C1143.22 757.693 1154.79 760.214 1165.93 763.134C1161.43 772.514 1157.31 782.193 1155.58 792.453C1153.85 802.703 1156.12 812.403 1161.09 821.533C1162.02 812.093 1166.34 803.313 1171.46 795.333C1175.32 789.303 1179.74 783.513 1185.37 779.083C1196.41 770.383 1211.06 767.673 1225.11 767.473C1241.76 767.233 1258.73 770.243 1273.32 778.283C1288.62 786.713 1300.83 800.633 1307.2 816.903C1308.06 819.103 1308.99 821.553 1311.08 822.653C1311.93 823.103 1312.88 823.273 1313.82 823.443C1320.83 824.723 1328.07 826.204 1333.84 830.384C1339.61 834.574 1344.03 842.723 1341.61 849.423C1342.48 848.613 1340.16 847.724 1339.8 848.864C1339.44 850.004 1340.52 851.043 1341.51 851.703C1345.78 854.493 1350.67 856.133 1355.34 858.193C1367.08 863.363 1377.56 871.363 1385.65 881.313C1368.79 885.303 1353.78 896.554 1345.23 911.624C1362.73 896.074 1390.87 893.254 1410.25 906.394C1429.63 919.534 1437.19 948.113 1425.51 968.403C1441.9 967.453 1458.54 975.273 1468.28 988.493C1454.72 987.653 1441.44 998.483 1439.55 1011.94C1421.81 1015.31 1406.78 1030.07 1403.1 1047.75C1420.54 1035.3 1440.7 1022.2 1461.71 1026.37C1472.24 1028.46 1482.13 1034.84 1492.82 1033.79C1500.59 1033.02 1507.37 1028.41 1514.59 1025.43C1531.22 1018.56 1550.19 1020.42 1567.63 1024.84C1585.07 1029.26 1601.92 1036.11 1619.67 1039.04C1644.93 1043.21 1671.49 1039.08 1694.29 1027.43C1683.8 1056.3 1650.84 1077.18 1620.35 1080.93C1589.86 1084.67 1558.29 1081.38 1528.88 1090.23C1508.47 1096.37 1490.02 1108.13 1469.39 1113.52C1445.65 1119.73 1420.5 1117.14 1396.29 1121.08C1367.02 1125.85 1340.14 1139.95 1311.53 1147.78C1280.24 1156.34 1247.43 1157.25 1215 1158.11C1149.8 1159.84 1084.6 1161.56 1019.4 1163.29C993.31 1163.98 966.65 1164.6 941.76 1156.74C908.65 1146.3 879.84 1121.25 845.17 1119.61C826.96 1118.74 808.05 1124.48 790.84 1118.46C780.85 1114.96 772.44 1107.75 762.35 1104.57C721.81 1091.8 688.5 1147.29 646 1147.03C617.66 1146.86 593.98 1121.59 565.64 1121.76C537.28 1121.93 516.3 1146.61 493.96 1164.09C470.65 1182.32 434.03 1195.19 404.64 1198.63L404.66 1198.57Z" fill="#2BACCC"/>
</g>
<path d="M2712.04 93.0236C2715.57 89.4436 2718.49 85.2336 2722.36 82.0136C2729.82 75.8236 2740.67 74.0336 2749.72 77.4936C2753.4 64.5436 2759.27 51.6736 2769.59 43.0336C2779.91 34.3936 2795.48 31.0136 2807.13 37.7636C2808.06 38.3036 2808.99 38.9036 2810.05 39.0336C2813.66 39.4436 2815.25 34.7436 2816.09 31.2136C2820.75 11.7536 2841.81 -1.01641 2861.79 0.0635933C2881.77 1.14359 2899.82 13.7836 2911.49 30.0336C2912.82 31.8836 2914.31 33.9336 2916.56 34.3336C2918.29 34.6336 2919.99 33.8636 2921.62 33.2136C2939.43 26.1336 2962.03 35.4136 2969.73 52.9636C2970.74 55.2636 2971.66 57.8336 2973.83 59.1036C2976.02 60.3836 2978.78 59.8936 2981.26 59.3436C2995.27 56.2136 3010.8 52.3736 3023.28 59.4736C3029.09 62.7736 3033.45 68.1136 3037.29 73.5836C3044.53 83.8936 3050.45 95.1236 3054.85 106.934C3071.93 97.1836 3096.6 105.144 3104.76 123.034C3086.05 115.684 3066.13 129.074 3046.26 132.114C3034.09 133.974 3021.69 131.854 3009.67 129.214C3005.72 128.344 3001.71 127.414 2997.68 127.694C2991.86 128.104 2986.55 130.974 2981.3 133.534C2955.44 146.144 2925.62 152.184 2897.52 146.004C2881.03 142.374 2865.01 134.614 2848.16 135.824C2829.04 137.194 2810.91 150.094 2792.13 146.204C2780.97 143.894 2771.91 136.014 2761.65 131.064C2736.6 118.994 2696.47 119.044 2669.46 124.404C2678.94 109.404 2699.8 105.434 2712.04 93.0236Z" fill="white"/>
<mask id="mask3_219_162" style="mask-type:luminance" maskUnits="userSpaceOnUse" x="2669" y="0" width="436" height="149">
<path d="M2712.04 93.0236C2715.57 89.4436 2718.49 85.2336 2722.36 82.0136C2729.82 75.8236 2740.67 74.0336 2749.72 77.4936C2753.4 64.5436 2759.27 51.6736 2769.59 43.0336C2779.91 34.3936 2795.48 31.0136 2807.13 37.7636C2808.06 38.3036 2808.99 38.9036 2810.05 39.0336C2813.66 39.4436 2815.25 34.7436 2816.09 31.2136C2820.75 11.7536 2841.81 -1.01641 2861.79 0.0635933C2881.77 1.14359 2899.82 13.7836 2911.49 30.0336C2912.82 31.8836 2914.31 33.9336 2916.56 34.3336C2918.29 34.6336 2919.99 33.8636 2921.62 33.2136C2939.43 26.1336 2962.03 35.4136 2969.73 52.9636C2970.74 55.2636 2971.66 57.8336 2973.83 59.1036C2976.02 60.3836 2978.78 59.8936 2981.26 59.3436C2995.27 56.2136 3010.8 52.3736 3023.28 59.4736C3029.09 62.7736 3033.45 68.1136 3037.29 73.5836C3044.53 83.8936 3050.45 95.1236 3054.85 106.934C3071.93 97.1836 3096.6 105.144 3104.76 123.034C3086.05 115.684 3066.13 129.074 3046.26 132.114C3034.09 133.974 3021.69 131.854 3009.67 129.214C3005.72 128.344 3001.71 127.414 2997.68 127.694C2991.86 128.104 2986.55 130.974 2981.3 133.534C2955.44 146.144 2925.62 152.184 2897.52 146.004C2881.03 142.374 2865.01 134.614 2848.16 135.824C2829.04 137.194 2810.91 150.094 2792.13 146.204C2780.97 143.894 2771.91 136.014 2761.65 131.064C2736.6 118.994 2696.47 119.044 2669.46 124.404C2678.94 109.404 2699.8 105.434 2712.04 93.0236Z" fill="white"/>
</mask>
<g mask="url(#mask3_219_162)">
<path opacity="0.14" d="M2772.23 112.164C2766.82 105.884 2761.42 99.6136 2756.01 93.3336C2767.32 90.4636 2779.05 89.2736 2790.71 89.8136C2785.43 88.0636 2783.57 80.9336 2785.74 75.8136C2787.91 70.6836 2792.82 67.2936 2797.74 64.6936C2804.92 60.9036 2812.89 58.1436 2821 58.4436C2823.28 58.5236 2825.64 58.8437 2827.81 58.1137C2830.05 57.3637 2831.76 55.5936 2833.51 54.0136C2847.39 41.4536 2868.12 37.9437 2886.19 42.8437C2904.26 47.7337 2919.68 60.2436 2930.52 75.5036C2922.44 70.2536 2911.63 69.4736 2902.88 73.5136C2894.13 77.5536 2887.71 86.2837 2886.47 95.8437C2898.9 88.5637 2916.63 92.4337 2924.88 104.234C2935.94 96.5937 2952.8 99.2237 2961.01 109.864C2960.81 101.454 2956.24 93.2736 2949.18 88.7036C2966.85 78.2836 2992.95 87.6837 2999.91 106.974C3009.87 100.174 3024.26 100.724 3033.66 108.284C3038.92 112.504 3042.96 118.764 3049.45 120.604C3055.86 122.414 3062.48 119.304 3068.95 117.734C3087.78 113.154 3109.13 123.314 3117.46 140.814C3108.21 135.304 3097.41 132.914 3086.69 131.974C3053 129.034 3019.82 139.644 2987.18 148.514C2940.59 161.174 2893.1 170.494 2845.18 176.394C2822.8 179.144 2799.93 181.134 2777.84 176.614C2758.36 172.624 2740.28 163.734 2721.39 157.514C2711.76 154.344 2701.74 151.874 2691.6 151.204C2685.1 150.774 2671.38 155.524 2666.19 153.084C2656.47 148.514 2666.72 135.284 2671.45 129.624C2694.15 102.474 2741.31 101.014 2772.24 112.174L2772.23 112.164Z" fill="#2BACCC"/>
</g>
<path d="M1139.68 513.974C1160.57 516.584 1181.39 508.694 1202.44 508.644C1230.74 508.574 1258.49 522.654 1286.42 518.064C1300.58 515.744 1313.63 508.734 1327.77 506.324C1341.33 504.014 1355.19 506.034 1368.86 507.454C1398.35 510.524 1428.13 510.804 1457.67 508.284C1452.13 500.444 1439.74 504.724 1430.55 501.934C1420.61 498.924 1415.2 487.644 1405.55 483.794C1392.68 478.664 1377.42 488.504 1364.55 483.374C1356.86 480.304 1352.12 472.684 1345.8 467.344C1336.38 459.374 1322.79 456.644 1311.03 460.354C1305.35 462.144 1300.18 465.284 1294.55 467.204C1288.91 469.124 1282.31 469.664 1277.32 466.414C1273.8 464.124 1271.59 460.304 1268.51 457.444C1260.8 450.274 1248.64 450.164 1238.73 453.704C1228.82 457.244 1220.32 463.804 1211.18 469.024C1202.04 474.244 1191.38 478.234 1181.11 475.914C1175.57 474.664 1170.34 471.614 1164.67 471.814C1155.43 472.144 1148.75 480.754 1140.12 484.054C1127.85 488.754 1113.13 482.264 1101.28 487.944C1094.98 490.964 1090.55 497.004 1084.3 500.124C1076.92 503.804 1068.22 502.894 1059.98 502.984C1051.74 503.074 1042.46 504.894 1037.96 511.804C1055.06 513.384 1069.07 512.374 1085.41 508.124C1104.44 503.174 1121.1 511.634 1139.68 513.964V513.974Z" fill="white"/>
<mask id="mask4_219_162" style="mask-type:luminance" maskUnits="userSpaceOnUse" x="1037" y="451" width="421" height="68">
<path d="M1139.68 513.974C1160.57 516.584 1181.39 508.694 1202.44 508.644C1230.74 508.574 1258.49 522.654 1286.42 518.064C1300.58 515.744 1313.63 508.734 1327.77 506.324C1341.33 504.014 1355.19 506.034 1368.86 507.454C1398.35 510.524 1428.13 510.804 1457.67 508.284C1452.13 500.444 1439.74 504.724 1430.55 501.934C1420.61 498.924 1415.2 487.644 1405.55 483.794C1392.68 478.664 1377.42 488.504 1364.55 483.374C1356.86 480.304 1352.12 472.684 1345.8 467.344C1336.38 459.374 1322.79 456.644 1311.03 460.354C1305.35 462.144 1300.18 465.284 1294.55 467.204C1288.91 469.124 1282.31 469.664 1277.32 466.414C1273.8 464.124 1271.59 460.304 1268.51 457.444C1260.8 450.274 1248.64 450.164 1238.73 453.704C1228.82 457.244 1220.32 463.804 1211.18 469.024C1202.04 474.244 1191.38 478.234 1181.11 475.914C1175.57 474.664 1170.34 471.614 1164.67 471.814C1155.43 472.144 1148.75 480.754 1140.12 484.054C1127.85 488.754 1113.13 482.264 1101.28 487.944C1094.98 490.964 1090.55 497.004 1084.3 500.124C1076.92 503.804 1068.22 502.894 1059.98 502.984C1051.74 503.074 1042.46 504.894 1037.96 511.804C1055.06 513.384 1069.07 512.374 1085.41 508.124C1104.44 503.174 1121.1 511.634 1139.68 513.964V513.974Z" fill="white"/>
</mask>
<g mask="url(#mask4_219_162)">
<path opacity="0.14" d="M1367.79 497.094C1363.55 496.404 1359.27 495.704 1355.27 494.144C1349.58 491.934 1344.6 488.044 1338.75 486.314C1323.66 481.854 1308.69 492.584 1296.59 502.644C1292.6 494.344 1283.06 489.714 1273.86 489.544C1264.65 489.374 1255.77 492.984 1247.78 497.564C1248.62 489.594 1254.97 482.504 1262.8 480.804C1246.88 474.244 1227.59 476.684 1213.81 487.014C1207.96 491.394 1201.98 497.434 1194.73 496.474C1189.86 495.834 1185.98 492.084 1181.3 490.574C1167.93 486.264 1155.22 501.124 1141.19 500.354C1134.8 500.004 1128.9 496.394 1122.51 496.184C1115.64 495.954 1109.34 499.624 1102.91 502.044C1078.68 511.154 1048.17 503.694 1028.59 520.634C1071.84 517.614 1113.44 538.564 1156.77 540.044C1197.17 541.424 1236.51 525.834 1276.93 525.334C1313.54 524.884 1350.06 536.844 1386.29 531.614C1396.35 530.164 1406.48 527.384 1416.52 528.934C1422.42 529.844 1427.98 532.214 1433.75 533.694C1448.1 537.384 1463.05 535.454 1477.28 532.174C1483.49 530.744 1494.26 530.294 1495.06 523.784C1495.51 520.134 1491.71 514.364 1488.86 512.354C1482.38 507.794 1472.28 510.604 1464.98 510.604C1450.54 510.604 1435.83 507.394 1421.56 505.334C1403.61 502.734 1385.68 499.994 1367.78 497.104L1367.79 497.094Z" fill="#2BACCC"/>
</g>
<mask id="mask5_219_162" style="mask-type:luminance" maskUnits="userSpaceOnUse" x="1464" y="262" width="2132" height="762">
<path d="M2901.99 949.424C2873.95 977.944 2826.97 985.624 2791.31 967.524C2786.53 965.094 2781.71 962.194 2776.35 962.034C2766.3 961.734 2758.88 970.734 2751.9 977.964C2729.41 1001.3 2696.41 1012.7 2664.01 1013.43C2631.6 1014.16 2599.65 1005.06 2569.87 992.244C2563.56 989.524 2556.99 986.574 2550.14 987.084C2542.14 987.674 2535.33 992.834 2528.67 997.294C2489.36 1023.62 2437.89 1030.92 2392.81 1016.56C2362.34 1006.85 2333.29 987.674 2301.42 990.354C2278.6 992.274 2258.38 1005.26 2236.51 1012.06C2209.83 1020.36 2180.29 1019.15 2154.38 1008.69C2131.68 999.534 2105.17 983.774 2085.31 998.094C2095.06 980.144 2113.54 967.204 2133.75 964.174C2149.25 961.854 2165.31 965.054 2180.63 961.694C2195.94 958.334 2211.16 944.194 2207.06 929.064C2178.89 943.234 2142.2 938.134 2118.97 916.814C2107.7 906.474 2097.67 891.914 2082.41 890.864C2073.27 890.234 2064.71 894.834 2056.17 898.164C2029.48 908.564 1998.27 906.644 1973.05 893.044C1953.41 882.454 1937.64 865.414 1917.38 856.064C1897.12 846.714 1874.71 850.174 1857.39 864.244C1834.52 882.814 1800.78 878.274 1773.05 868.324C1745.32 858.384 1717.86 843.814 1688.43 845.294C1644.73 847.494 1606.63 884.854 1563.16 879.844C1545.78 877.844 1529.94 869.134 1513.06 864.544C1496.17 859.954 1475.65 860.594 1464.22 873.844C1480.33 845.944 1510.37 827.154 1542.32 831.314C1558.25 833.384 1574.9 840.024 1589.74 833.874C1605.07 827.514 1612.05 810.174 1622.82 797.544C1638.95 778.624 1666.18 769.944 1690.29 776.034C1705.34 746.764 1740.35 729.204 1772.81 734.644C1776.37 735.244 1779.97 736.084 1783.54 735.584C1791.49 734.454 1796.88 727.214 1801.79 720.854C1813.09 706.224 1826.89 693.134 1843.59 685.194C1860.28 677.254 1880.12 674.894 1897.43 681.394C1892.82 662.154 1871.36 648.704 1852.03 652.944C1838.92 655.824 1826.62 665.584 1813.53 662.624C1806.69 661.084 1800.8 656.154 1793.81 655.544C1785.15 654.794 1777.53 660.764 1770.76 666.224C1749.43 683.414 1722.31 699.554 1696.12 691.534C1684.02 687.824 1673.9 679.314 1661.96 675.124C1650.02 670.934 1633.78 673.194 1629.06 684.934C1627.71 669.064 1643.35 657.124 1658.18 651.304C1673.01 645.484 1690.01 641.584 1699.52 628.804C1705.38 620.934 1707.35 610.914 1711.39 601.964C1723.51 575.134 1756.77 559.914 1785 568.284C1792.67 531.084 1804.06 493.524 1827.68 463.784C1851.3 434.044 1889.4 413.414 1926.9 419.474C1953.01 423.694 1975.56 439.884 1995.33 457.454C2027.83 442.884 2071.56 463.654 2081.88 497.744C2082.86 500.964 2083.81 504.594 2086.69 506.344C2090.69 508.764 2095.7 506.144 2099.92 504.134C2130.57 489.574 2166.53 509.364 2191.07 532.794C2194.13 535.714 2197.52 538.884 2201.74 539.114C2206.79 539.384 2210.91 535.424 2214.78 532.164C2233.58 516.334 2261.93 512.924 2283.95 523.844C2283.2 502.804 2284.12 480.924 2293.55 462.094C2302.99 443.274 2322.95 428.324 2343.87 430.724C2347.67 431.164 2351.9 432.044 2355.04 429.854C2359.69 426.594 2358.37 419.544 2357.05 414.024C2348.45 378.184 2363.98 337.804 2394.38 316.974C2424.78 296.134 2468.04 296.204 2498.37 317.144C2526.3 288.254 2562.89 265.784 2602.95 262.684C2643.01 259.574 2686.06 279.124 2703.33 315.404C2736.7 294.184 2783.99 302.844 2812.19 330.564C2840.39 358.284 2850.46 401.164 2844.04 440.184C2861.3 429.744 2885.98 431.274 2903.89 440.554C2921.8 449.824 2934.29 468.804 2935.73 488.924C2958.16 478.344 2985.28 478.264 3007.77 488.724C3030.25 499.184 3047.67 519.974 3054.03 543.944C3087.98 513.324 3145.69 523.484 3177.38 556.454C3209.06 589.414 3218.97 638.014 3218.03 683.734C3248.24 667.074 3290.78 678.904 3308.05 708.764C3311.09 714.024 3313.83 720.114 3319.34 722.684C3324.83 725.244 3331.23 723.434 3337.15 722.144C3369.96 715.004 3406.19 726.584 3428.77 751.434C3440.25 764.064 3448.54 779.904 3462.52 789.684C3477.13 799.904 3495.81 801.994 3513.62 802.804C3531.43 803.614 3549.8 803.564 3566.27 810.414C3582.73 817.264 3596.98 833.244 3595.43 851.014C3583.29 837.054 3560.73 839.774 3543.87 847.394C3527.01 855.014 3510.88 866.524 3492.38 866.694C3470.16 866.904 3449.25 850.444 3427.43 854.684C3408.4 858.384 3396.09 876.274 3380.62 887.954C3349.32 911.594 3302.98 908.344 3270.24 886.734C3266.07 883.984 3261.88 880.894 3256.95 880.084C3249.85 878.924 3243.02 882.724 3236.57 885.904C3193.19 907.294 3138.62 904.004 3098.12 877.554C3091.36 873.144 3084.46 867.954 3076.39 867.614C3070.29 867.354 3064.48 869.954 3058.79 872.194C3017.85 888.304 2970.5 887.374 2930.22 869.674C2925.29 867.504 2920.23 865.054 2914.85 865.164C2907.35 865.324 2900.99 870.354 2894.21 873.554C2879.34 880.564 2862.02 878.804 2845.75 881.194C2829.48 883.584 2811.52 893.374 2810.19 909.764C2827.4 901.614 2849.41 905.024 2863.35 917.984C2866.6 921.004 2869.47 924.504 2873.26 926.814C2886.58 934.934 2903.07 925.224 2918.18 921.344C2948.55 913.544 2983.25 934.794 2990.1 965.404C2967.88 952.764 2927.51 947.574 2902.02 949.434L2901.99 949.424Z" fill="white"/>
</mask>
<g mask="url(#mask5_219_162)">
<path d="M2901.99 949.424C2873.95 977.944 2826.97 985.624 2791.31 967.524C2786.53 965.094 2781.71 962.194 2776.35 962.034C2766.3 961.734 2758.88 970.734 2751.9 977.964C2729.41 1001.3 2696.41 1012.7 2664.01 1013.43C2631.6 1014.16 2599.65 1005.06 2569.87 992.244C2563.56 989.524 2556.99 986.574 2550.14 987.084C2542.14 987.674 2535.33 992.834 2528.67 997.294C2489.36 1023.62 2437.89 1030.92 2392.81 1016.56C2362.34 1006.85 2333.29 987.674 2301.42 990.354C2278.6 992.274 2258.38 1005.26 2236.51 1012.06C2209.83 1020.36 2180.29 1019.15 2154.38 1008.69C2131.68 999.534 2105.17 983.774 2085.31 998.094C2095.06 980.144 2113.54 967.204 2133.75 964.174C2149.25 961.854 2165.31 965.054 2180.63 961.694C2195.94 958.334 2211.16 944.194 2207.06 929.064C2178.89 943.234 2142.2 938.134 2118.97 916.814C2107.7 906.474 2097.67 891.914 2082.41 890.864C2073.27 890.234 2064.71 894.834 2056.17 898.164C2029.48 908.564 1998.27 906.644 1973.05 893.044C1953.41 882.454 1937.64 865.414 1917.38 856.064C1897.12 846.714 1874.71 850.174 1857.39 864.244C1834.52 882.814 1800.78 878.274 1773.05 868.324C1745.32 858.384 1717.86 843.814 1688.43 845.294C1644.73 847.494 1606.63 884.854 1563.16 879.844C1545.78 877.844 1529.94 869.134 1513.06 864.544C1496.17 859.954 1475.65 860.594 1464.22 873.844C1480.33 845.944 1510.37 827.154 1542.32 831.314C1558.25 833.384 1574.9 840.024 1589.74 833.874C1605.07 827.514 1612.05 810.174 1622.82 797.544C1638.95 778.624 1666.18 769.944 1690.29 776.034C1705.34 746.764 1740.35 729.204 1772.81 734.644C1776.37 735.244 1779.97 736.084 1783.54 735.584C1791.49 734.454 1796.88 727.214 1801.79 720.854C1813.09 706.224 1826.89 693.134 1843.59 685.194C1860.28 677.254 1880.12 674.894 1897.43 681.394C1892.82 662.154 1871.36 648.704 1852.03 652.944C1838.92 655.824 1826.62 665.584 1813.53 662.624C1806.69 661.084 1800.8 656.154 1793.81 655.544C1785.15 654.794 1777.53 660.764 1770.76 666.224C1749.43 683.414 1722.31 699.554 1696.12 691.534C1684.02 687.824 1673.9 679.314 1661.96 675.124C1650.02 670.934 1633.78 673.194 1629.06 684.934C1627.71 669.064 1643.35 657.124 1658.18 651.304C1673.01 645.484 1690.01 641.584 1699.52 628.804C1705.38 620.934 1707.35 610.914 1711.39 601.964C1723.51 575.134 1756.77 559.914 1785 568.284C1792.67 531.084 1804.06 493.524 1827.68 463.784C1851.3 434.044 1889.4 413.414 1926.9 419.474C1953.01 423.694 1975.56 439.884 1995.33 457.454C2027.83 442.884 2071.56 463.654 2081.88 497.744C2082.86 500.964 2083.81 504.594 2086.69 506.344C2090.69 508.764 2095.7 506.144 2099.92 504.134C2130.57 489.574 2166.53 509.364 2191.07 532.794C2194.13 535.714 2197.52 538.884 2201.74 539.114C2206.79 539.384 2210.91 535.424 2214.78 532.164C2233.58 516.334 2261.93 512.924 2283.95 523.844C2283.2 502.804 2284.12 480.924 2293.55 462.094C2302.99 443.274 2322.95 428.324 2343.87 430.724C2347.67 431.164 2351.9 432.044 2355.04 429.854C2359.69 426.594 2358.37 419.544 2357.05 414.024C2348.45 378.184 2363.98 337.804 2394.38 316.974C2424.78 296.134 2468.04 296.204 2498.37 317.144C2526.3 288.254 2562.89 265.784 2602.95 262.684C2643.01 259.574 2686.06 279.124 2703.33 315.404C2736.7 294.184 2783.99 302.844 2812.19 330.564C2840.39 358.284 2850.46 401.164 2844.04 440.184C2861.3 429.744 2885.98 431.274 2903.89 440.554C2921.8 449.824 2934.29 468.804 2935.73 488.924C2958.16 478.344 2985.28 478.264 3007.77 488.724C3030.25 499.184 3047.67 519.974 3054.03 543.944C3087.98 513.324 3145.69 523.484 3177.38 556.454C3209.06 589.414 3218.97 638.014 3218.03 683.734C3248.24 667.074 3290.78 678.904 3308.05 708.764C3311.09 714.024 3313.83 720.114 3319.34 722.684C3324.83 725.244 3331.23 723.434 3337.15 722.144C3369.96 715.004 3406.19 726.584 3428.77 751.434C3440.25 764.064 3448.54 779.904 3462.52 789.684C3477.13 799.904 3495.81 801.994 3513.62 802.804C3531.43 803.614 3549.8 803.564 3566.27 810.414C3582.73 817.264 3596.98 833.244 3595.43 851.014C3583.29 837.054 3560.73 839.774 3543.87 847.394C3527.01 855.014 3510.88 866.524 3492.38 866.694C3470.16 866.904 3449.25 850.444 3427.43 854.684C3408.4 858.384 3396.09 876.274 3380.62 887.954C3349.32 911.594 3302.98 908.344 3270.24 886.734C3266.07 883.984 3261.88 880.894 3256.95 880.084C3249.85 878.924 3243.02 882.724 3236.57 885.904C3193.19 907.294 3138.62 904.004 3098.12 877.554C3091.36 873.144 3084.46 867.954 3076.39 867.614C3070.29 867.354 3064.48 869.954 3058.79 872.194C3017.85 888.304 2970.5 887.374 2930.22 869.674C2925.29 867.504 2920.23 865.054 2914.85 865.164C2907.35 865.324 2900.99 870.354 2894.21 873.554C2879.34 880.564 2862.02 878.804 2845.75 881.194C2829.48 883.584 2811.52 893.374 2810.19 909.764C2827.4 901.614 2849.41 905.024 2863.35 917.984C2866.6 921.004 2869.47 924.504 2873.26 926.814C2886.58 934.934 2903.07 925.224 2918.18 921.344C2948.55 913.544 2983.25 934.794 2990.1 965.404C2967.88 952.764 2927.51 947.574 2902.02 949.434L2901.99 949.424Z" fill="white"/>
<path opacity="0.14" d="M3575.19 812.364C3540.08 796.854 3500.27 796.454 3461.98 799.114C3454.23 799.654 3446.02 800.224 3439.1 796.684C3433.35 793.744 3429.32 788.364 3425.23 783.364C3410.13 764.844 3390.67 748.614 3367.38 743.264C3344.09 737.914 3316.71 745.824 3304.38 766.294C3293.99 730.624 3256.26 705.074 3219.28 708.664C3216.97 725.274 3207.49 740.764 3193.75 750.384C3200.91 679.964 3157.2 611.394 3095.33 577.004C3088.41 592.894 3077.44 606.994 3063.74 617.614C3057.88 622.154 3050.36 626.234 3043.35 623.834C3050.76 601.724 3057.66 579.164 3059.06 555.894C3060.45 532.624 3055.89 508.294 3042.19 489.434C3028.48 470.574 3004.61 458.284 2981.63 462.234C2978.57 462.764 2975.36 463.554 2972.42 462.554C2969.69 461.624 2967.69 459.324 2965.73 457.214C2935.7 424.774 2881.14 418.894 2844.88 444.174C2842.21 426.284 2831.43 410.664 2819.58 396.994C2801.17 375.764 2778.56 356.994 2751.55 349.244C2724.54 341.494 2692.63 346.694 2673.55 367.324C2654.4 351.404 2633.78 335.744 2609.45 330.444C2589.59 326.114 2565.61 330.814 2547.85 340.704C2565.57 345.054 2580.17 360.194 2583.88 378.064C2561.03 365.164 2536.46 354.454 2510.42 351.164C2484.38 347.874 2456.61 352.634 2435.52 368.254C2402.74 392.524 2392.48 436.554 2387.66 477.054C2370.57 476.344 2353.36 484.634 2343.27 498.444C2333.18 512.254 2330.49 531.164 2336.35 547.234C2319.02 545.234 2300.95 550.884 2287.84 562.394C2294.86 567.644 2300.54 574.574 2304.52 582.374C2331.37 601.944 2354.09 627.214 2370.47 656.124C2346.28 664.494 2326.42 684.524 2318.25 708.784C2337.83 688.394 2364.65 673.264 2392.91 673.994C2421.17 674.724 2449.65 694.554 2454.36 722.434C2470.99 708.064 2491.72 696.684 2513.68 697.384C2535.65 698.084 2557.99 714.114 2560 735.994C2579.02 726.444 2602.6 730.534 2621.05 741.144C2639.49 751.764 2653.87 768.074 2667.89 784.084C2610.45 748.514 2525.48 769.804 2491.6 828.254C2473.99 806.524 2446 793.614 2418.04 794.324C2390.08 795.034 2362.78 809.334 2346.29 831.924C2328.57 810.284 2300.8 797.234 2272.84 797.394C2244.87 797.554 2217.26 810.924 2199.79 832.774C2218.7 835.354 2238.56 850.914 2248.91 866.944C2240.85 860.474 2229.86 857.814 2219.74 859.894C2209.62 861.974 2200.56 868.744 2195.71 877.864C2194.72 868.394 2193.19 858.954 2190.5 849.824C2187.19 838.574 2181.67 827.304 2171.87 820.864C2162.07 814.424 2147.23 814.674 2140.03 823.924C2139.06 809.514 2142.86 794.814 2150.68 782.674C2152.17 780.364 2153.84 778.094 2156.07 776.484C2164.23 770.554 2175.75 775.364 2185.66 773.454C2185.5 754.024 2187.24 734.054 2195.66 716.534C2197.78 712.124 2200.38 707.824 2204.18 704.744C2211.62 698.704 2222.61 698.504 2231.4 702.304C2240.19 706.104 2247.08 713.314 2252.71 721.064C2252.86 705.854 2260.59 690.914 2272.92 682.004C2285.25 673.104 2301.87 670.454 2316.35 675.094C2315.6 646.854 2307.62 618.994 2293.74 594.454C2267.06 569.544 2226.96 557.444 2191.59 565.054C2178.21 546.384 2160.48 530.084 2138.83 522.404C2117.18 514.734 2091.31 516.864 2073.53 531.394C2059.28 504.504 2027.54 488.014 1997.34 491.834C1981.54 493.834 1963.82 505.414 1966.19 521.164C1945 517.034 1922.99 514.114 1901.93 518.884C1880.87 523.654 1860.74 537.494 1853.8 557.934C1881.84 541.954 1921.66 551.964 1938.82 579.294C1902.6 561.524 1853.05 581.684 1839.51 619.684C1821.08 611.164 1797.78 614.514 1782.51 627.884C1778.83 631.104 1775.51 634.894 1771.11 637.024C1765.62 639.674 1759.25 639.384 1753.18 639.974C1733.18 641.924 1714.58 654.804 1705.73 672.854C1689.69 663.974 1668.98 664.234 1653.16 673.504C1637.34 682.774 1626.99 700.714 1626.89 719.044C1668.46 697.444 1719.84 711.254 1764.94 698.604C1789.28 691.774 1811.33 677.334 1836.31 673.404C1863.5 669.134 1890.88 677.764 1917.02 686.374C1928.84 690.264 1940.93 694.324 1950.71 702.034C1960.48 709.744 1967.65 721.974 1965.9 734.304C1924.14 709.584 1864.06 723.404 1837.3 763.894C1819.06 769.714 1798.26 761.894 1780.49 769.004C1773.38 771.844 1767.36 776.874 1760.51 780.284C1735.29 792.834 1700.54 783.034 1680.45 802.774C1675.1 808.034 1671.35 815.034 1665 819.034C1655.08 825.294 1642.08 822.434 1630.69 825.224C1610.76 830.114 1597.99 851.614 1577.9 855.784C1565.56 858.344 1553.01 853.804 1540.51 852.194C1515.11 848.914 1488.38 858.614 1470.99 877.404C1497.33 898.624 1532.62 916.924 1565.33 925.494C1577.11 928.584 1589.32 930.784 1601.45 929.634C1625.08 927.394 1653.43 912.804 1675.53 921.484C1776.87 961.294 1889.84 956.874 1997.98 944.184C2025.96 940.904 2054.55 937.134 2082.07 943.184C2097.11 946.494 2111.58 952.694 2126.93 953.894C2145.92 955.374 2164.59 949.094 2182.37 942.264C2200.15 935.434 2218.07 927.874 2237.08 926.614C2256.09 925.364 2276.85 931.734 2287.45 947.554C2277.48 943.384 2266.5 940.134 2255.97 942.554C2245.44 944.984 2236 954.894 2237.56 965.584C2213.99 962.854 2189.31 974.004 2175.79 993.504C2157.63 980.674 2133.05 977.484 2112.22 985.254C2091.39 993.024 2074.9 1011.52 2069.58 1033.11C2069.11 1035 2068.76 1037.12 2069.76 1038.79C2070.59 1040.18 2072.17 1040.9 2073.62 1041.61C2086.49 1047.82 2097.41 1057.45 2103.96 1070.16C2136.26 1065.11 2168.56 1060.06 2200.87 1055.01C2229.99 1050.46 2259.32 1045.89 2288.77 1046.96C2324.93 1048.27 2360.2 1058.01 2395.99 1063.38C2509.31 1080.4 2625.26 1053.37 2739.21 1065.37C2789 1070.61 2839.03 1083.28 2888.51 1075.63C2922.41 1070.39 2954.76 1055.45 2980.73 1033.04C2990.57 1024.55 2999.84 1014.46 3003.23 1001.91C3009.53 978.594 2991.79 953.184 2968.59 946.454C2945.39 939.724 2919.67 948.914 2901.83 965.194C2866.25 949.864 2830.68 934.524 2795.1 919.194C2871.25 892.434 2955.82 915.984 3029.25 949.474C3102.68 982.974 3172.83 1026.77 3251.93 1042.81C3339.89 1060.65 3431.31 1042.41 3516.65 1014.62C3545.14 1005.34 3573.82 994.714 3597.42 976.244C3621.02 957.774 3639.12 930.114 3639.37 900.154C3639.69 861.774 3610.33 827.874 3575.21 812.364H3575.19Z" fill="#2BACCC"/>
</g>
</g>
</svg>
