<svg width="394" height="24" viewBox="0 0 394 24" fill="none" xmlns="http://www.w3.org/2000/svg">
<path d="M17.92 17.7278V22.0478C16.48 23.1358 14.144 23.8078 11.648 23.8078C5.05602 23.8078 2.34842e-05 18.8158 2.34842e-05 12.1278C2.34842e-05 5.31183 5.12002 0.319826 11.616 0.319826C13.856 0.319826 15.872 0.799828 17.568 1.75983V6.07983C15.904 4.95983 13.952 4.35183 12.032 4.35183C7.58402 4.35183 4.35202 7.61583 4.35202 12.0638C4.35202 16.8958 7.90402 19.7438 12.16 19.7438C14.144 19.7438 16.224 19.0398 17.92 17.7278ZM29.0418 6.71983C34.0338 6.71983 37.6498 10.4318 37.6498 15.2638C37.6498 20.0958 34.0338 23.8078 29.0418 23.8078C24.0178 23.8078 20.4018 20.0958 20.4018 15.2638C20.4018 10.4318 24.0178 6.71983 29.0418 6.71983ZM29.0418 10.5278C26.4498 10.5278 24.5938 12.5758 24.5938 15.2638C24.5938 17.9518 26.4498 19.9998 29.0418 19.9998C31.6018 19.9998 33.4578 17.9518 33.4578 15.2638C33.4578 12.5758 31.6018 10.5278 29.0418 10.5278ZM41.082 19.0078V0.703827H45.242V18.2398C45.242 19.3918 45.562 20.1278 46.714 20.1278C47.034 20.1278 47.386 20.0638 47.77 19.9358V23.4878C47.226 23.7118 46.586 23.8078 45.85 23.8078C43.194 23.8078 41.082 22.4958 41.082 19.0078ZM50.8945 19.0078V0.703827H55.0545V18.2398C55.0545 19.3918 55.3745 20.1278 56.5265 20.1278C56.8465 20.1278 57.1985 20.0638 57.5825 19.9358V23.4878C57.0385 23.7118 56.3985 23.8078 55.6625 23.8078C53.0065 23.8078 50.8945 22.4958 50.8945 19.0078ZM67.657 6.71983C72.489 6.71983 75.177 10.1758 75.177 14.4318C75.177 15.0398 75.113 15.7758 75.049 16.2558H63.753C64.073 19.1038 66.345 20.2238 68.841 20.2238C70.857 20.2238 72.905 19.4878 74.089 18.4958V22.4318C72.297 23.5518 70.249 23.8078 68.297 23.8078C63.049 23.8078 59.465 20.4478 59.465 15.2958C59.465 10.4638 62.761 6.71983 67.657 6.71983ZM67.593 10.2078C65.545 10.2078 64.137 11.5198 63.785 13.5358H71.209C71.049 11.5518 69.673 10.2078 67.593 10.2078ZM90.6453 7.74383V11.6478C89.5573 10.8798 87.9893 10.4638 86.7093 10.4638C83.7973 10.4638 81.8133 12.4478 81.8133 15.2958C81.8133 17.9518 83.6693 20.0638 86.7093 20.0638C88.1173 20.0638 89.6213 19.6798 90.6773 18.8478V22.7838C89.4933 23.5198 87.7013 23.8078 86.1973 23.8078C81.2373 23.8078 77.5893 20.1278 77.5893 15.2958C77.5893 10.4318 81.1733 6.71983 86.2293 6.71983C87.7333 6.71983 89.4293 7.07183 90.6453 7.74383ZM103.74 19.5838V23.1678C103.068 23.5518 102.044 23.8078 100.7 23.8078C97.34 23.8078 95.26 21.8238 95.26 18.3038V10.4318H92.956V7.10383H95.388V3.39183L99.42 2.33583V7.10383H103.356V10.4318H99.42V17.7278C99.42 19.3918 100.284 20.0958 101.82 20.0958C102.268 20.0958 103.068 19.9678 103.74 19.5838ZM118.84 7.10383V9.91983C119.672 7.93583 121.272 6.71983 123.448 6.71983C123.832 6.71983 124.28 6.78383 124.472 6.84783V10.8798C124.344 10.8478 123.928 10.7838 123.576 10.7838C120.6 10.7838 118.872 12.8638 118.872 16.1598V23.4238H114.712V7.10383H118.84ZM127.243 8.28783C128.619 7.39183 130.731 6.71983 132.939 6.71983C137.099 6.71983 140.107 8.99183 140.107 13.1198V23.4238H136.235V21.1518C135.211 22.8158 133.451 23.8078 131.307 23.8078C128.235 23.8078 125.995 21.8558 125.995 19.1678C125.995 16.3198 128.107 14.6878 131.915 14.1118L136.043 13.5038V13.0558C136.043 11.3598 134.699 10.3678 132.619 10.3678C130.443 10.3678 128.459 11.2958 127.243 12.1918V8.28783ZM132.235 20.5758C134.347 20.5758 136.075 18.8478 136.075 16.7998V16.1918L132.779 16.6078C130.987 16.8318 129.963 17.5678 129.963 18.7518C129.963 19.8718 130.891 20.5758 132.235 20.5758ZM146.792 -0.000173569C148.104 -0.000173569 149.16 1.02383 149.16 2.36783C149.16 3.71183 148.104 4.73583 146.792 4.73583C145.448 4.73583 144.36 3.71183 144.36 2.36783C144.36 1.02383 145.448 -0.000173569 146.792 -0.000173569ZM144.68 23.4238V7.10383H148.84V23.4238H144.68ZM157.618 9.31183C158.546 7.74383 160.178 6.71983 162.642 6.71983C166.418 6.71983 168.978 9.24783 168.978 13.5038V23.4238H164.818V14.0158C164.818 11.6478 163.41 10.4318 161.554 10.4318C158.802 10.4318 157.778 12.8958 157.778 15.0078V23.4238H153.618V7.10383H157.618V9.31183ZM176.632 23.4238L171.288 7.10383H175.416L178.744 18.2718L182.328 7.10383H185.72L189.304 18.2718L192.632 7.10383H196.76L191.384 23.4238H187.512L184.024 12.8318L180.504 23.4238H176.632ZM199.274 8.28783C200.65 7.39183 202.762 6.71983 204.97 6.71983C209.13 6.71983 212.138 8.99183 212.138 13.1198V23.4238H208.266V21.1518C207.242 22.8158 205.482 23.8078 203.338 23.8078C200.266 23.8078 198.026 21.8558 198.026 19.1678C198.026 16.3198 200.138 14.6878 203.946 14.1118L208.074 13.5038V13.0558C208.074 11.3598 206.73 10.3678 204.65 10.3678C202.474 10.3678 200.49 11.2958 199.274 12.1918V8.28783ZM204.266 20.5758C206.378 20.5758 208.106 18.8478 208.106 16.7998V16.1918L204.81 16.6078C203.018 16.8318 201.994 17.5678 201.994 18.7518C201.994 19.8718 202.922 20.5758 204.266 20.5758ZM225.771 19.5838V23.1678C225.099 23.5518 224.075 23.8078 222.731 23.8078C219.371 23.8078 217.291 21.8238 217.291 18.3038V10.4318H214.987V7.10383H217.419V3.39183L221.451 2.33583V7.10383H225.387V10.4318H221.451V17.7278C221.451 19.3918 222.315 20.0958 223.851 20.0958C224.299 20.0958 225.099 19.9678 225.771 19.5838ZM235.907 6.71983C240.739 6.71983 243.427 10.1758 243.427 14.4318C243.427 15.0398 243.363 15.7758 243.299 16.2558H232.003C232.323 19.1038 234.595 20.2238 237.091 20.2238C239.107 20.2238 241.155 19.4878 242.339 18.4958V22.4318C240.547 23.5518 238.499 23.8078 236.547 23.8078C231.299 23.8078 227.715 20.4478 227.715 15.2958C227.715 10.4638 231.011 6.71983 235.907 6.71983ZM235.843 10.2078C233.795 10.2078 232.387 11.5198 232.035 13.5358H239.459C239.299 11.5518 237.923 10.2078 235.843 10.2078ZM251.183 7.10383V9.91983C252.015 7.93583 253.615 6.71983 255.791 6.71983C256.175 6.71983 256.623 6.78383 256.815 6.84783V10.8798C256.687 10.8478 256.271 10.7838 255.919 10.7838C252.943 10.7838 251.215 12.8638 251.215 16.1598V23.4238H247.055V7.10383H251.183ZM268.792 -0.000173569C270.104 -0.000173569 271.16 1.02383 271.16 2.36783C271.16 3.71183 270.104 4.73583 268.792 4.73583C267.448 4.73583 266.36 3.71183 266.36 2.36783C266.36 1.02383 267.448 -0.000173569 268.792 -0.000173569ZM266.68 23.4238V7.10383H270.84V23.4238H266.68ZM279.618 9.31183C280.546 7.74383 282.178 6.71983 284.642 6.71983C288.418 6.71983 290.978 9.24783 290.978 13.5038V23.4238H286.818V14.0158C286.818 11.6478 285.41 10.4318 283.554 10.4318C280.802 10.4318 279.778 12.8958 279.778 15.0078V23.4238H275.618V7.10383H279.618V9.31183ZM303.212 8.28783C304.588 7.39183 306.7 6.71983 308.908 6.71983C313.068 6.71983 316.076 8.99183 316.076 13.1198V23.4238H312.204V21.1518C311.18 22.8158 309.42 23.8078 307.276 23.8078C304.204 23.8078 301.964 21.8558 301.964 19.1678C301.964 16.3198 304.076 14.6878 307.884 14.1118L312.012 13.5038V13.0558C312.012 11.3598 310.668 10.3678 308.588 10.3678C306.412 10.3678 304.428 11.2958 303.212 12.1918V8.28783ZM308.204 20.5758C310.316 20.5758 312.044 18.8478 312.044 16.7998V16.1918L308.748 16.6078C306.956 16.8318 305.932 17.5678 305.932 18.7518C305.932 19.8718 306.86 20.5758 308.204 20.5758ZM337.553 19.5838V23.1678C336.881 23.5518 335.857 23.8078 334.513 23.8078C331.153 23.8078 329.073 21.8238 329.073 18.3038V10.4318H326.769V7.10383H329.201V3.39183L333.233 2.33583V7.10383H337.169V10.4318H333.233V17.7278C333.233 19.3918 334.097 20.0958 335.633 20.0958C336.081 20.0958 336.881 19.9678 337.553 19.5838ZM340.837 8.28783C342.213 7.39183 344.325 6.71983 346.533 6.71983C350.693 6.71983 353.701 8.99183 353.701 13.1198V23.4238H349.829V21.1518C348.805 22.8158 347.045 23.8078 344.901 23.8078C341.829 23.8078 339.589 21.8558 339.589 19.1678C339.589 16.3198 341.701 14.6878 345.509 14.1118L349.637 13.5038V13.0558C349.637 11.3598 348.293 10.3678 346.213 10.3678C344.037 10.3678 342.053 11.2958 340.837 12.1918V8.28783ZM345.829 20.5758C347.941 20.5758 349.669 18.8478 349.669 16.7998V16.1918L346.373 16.6078C344.581 16.8318 343.557 17.5678 343.557 18.7518C343.557 19.8718 344.485 20.5758 345.829 20.5758ZM362.274 9.31183C363.202 7.74383 364.834 6.71983 367.298 6.71983C371.074 6.71983 373.634 9.24783 373.634 13.5038V23.4238H369.474V14.0158C369.474 11.6478 368.066 10.4318 366.21 10.4318C363.458 10.4318 362.434 12.8958 362.434 15.0078V23.4238H358.274V7.10383H362.274V9.31183ZM382.34 23.4238H378.18V0.703827H382.34V14.1438L388.228 7.10383H393.188L387.428 14.0478L393.7 23.4238H388.868L384.388 16.3838L382.34 18.7518V23.4238Z" fill="white"/>
</svg>
