<svg width="226" height="26" viewBox="0 0 226 26" fill="none" xmlns="http://www.w3.org/2000/svg">
<path d="M19.6 19.8449V23.5199C18.13 24.7449 15.4 25.5499 12.67 25.5499C5.565 25.5499 2.6077e-08 20.0549 2.6077e-08 12.7749C2.6077e-08 5.35488 5.565 -0.00011909 12.39 -0.00011909C14.91 -0.00011909 17.15 0.559882 19.145 1.67988V5.35488C17.15 4.09488 14.91 3.39488 12.74 3.39488C7.49 3.39488 3.57 7.45488 3.57 12.7749C3.57 18.7599 8.05 22.1549 13.09 22.1549C15.33 22.1549 17.64 21.3499 19.6 19.8449ZM31.8262 6.99988C37.0762 6.99988 40.9962 11.0599 40.9962 16.2749C40.9962 21.4899 37.0762 25.5499 31.8262 25.5499C26.5762 25.5499 22.6562 21.4899 22.6562 16.2749C22.6562 11.0599 26.5762 6.99988 31.8262 6.99988ZM31.8262 10.2199C28.4662 10.2199 26.1212 12.9849 26.1212 16.2749C26.1212 19.5649 28.4662 22.3299 31.8262 22.3299C35.1862 22.3299 37.5312 19.5649 37.5312 16.2749C37.5312 12.9849 35.1862 10.2199 31.8262 10.2199ZM48.8819 10.0799C49.8969 8.22488 51.6819 6.99988 54.6219 6.99988C58.6469 6.99988 61.4819 9.72988 61.4819 14.4199V25.1299H58.0869V14.5599C58.0869 11.6199 56.1969 10.1149 53.9219 10.1149C50.2469 10.1149 48.9519 13.5099 48.9519 16.1349V25.1299H45.5569V7.41988H48.8819V10.0799ZM80.1426 22.5049C79.1626 24.2199 76.6076 25.5499 74.1576 25.5499C69.4326 25.5499 65.7576 21.6649 65.7576 16.2749C65.7576 10.8849 69.4326 6.99988 74.1576 6.99988C76.6076 6.99988 78.9876 8.29488 80.0026 9.86988V0.419882H83.3976V25.1299H80.1426V22.5049ZM74.7176 22.4349C77.6576 22.4349 80.2126 19.9499 80.2126 16.2749C80.2126 12.5649 77.6576 10.1149 74.7176 10.1149C71.7776 10.1149 69.1876 12.5999 69.1876 16.2749C69.1876 19.9499 71.7776 22.4349 74.7176 22.4349ZM96.7244 6.99988C101.799 6.99988 104.739 10.6749 104.739 15.2249C104.739 15.8899 104.669 16.5899 104.564 17.1499H91.5094C91.8944 20.8949 94.5894 22.3999 97.6344 22.3999C99.8744 22.3999 102.079 21.5949 103.584 20.2649V23.7999C101.309 25.3399 99.2444 25.5499 97.1444 25.5499C91.5444 25.5499 87.9394 21.5249 87.9394 16.3099C87.9394 11.0949 91.4044 6.99988 96.7244 6.99988ZM96.6544 10.0449C94.0294 10.0449 92.1394 11.6899 91.6144 14.3849H101.379C101.134 11.7599 99.3144 10.0449 96.6544 10.0449ZM112.627 10.0799C113.642 8.22488 115.427 6.99988 118.367 6.99988C122.392 6.99988 125.227 9.72988 125.227 14.4199V25.1299H121.832V14.5599C121.832 11.6199 119.942 10.1149 117.667 10.1149C113.992 10.1149 112.697 13.5099 112.697 16.1349V25.1299H109.302V7.41988H112.627V10.0799ZM136.258 6.99988C138.288 6.99988 140.423 7.62988 141.683 8.64488V12.1449C140.108 10.8149 138.393 10.0449 136.398 10.0449C134.158 10.0449 133.108 10.9899 133.108 12.1799C133.108 13.4749 134.403 14.1049 136.783 14.8049C139.618 15.6099 142.593 16.5899 142.593 20.1249C142.593 23.4499 140.003 25.5499 135.978 25.5499C133.668 25.5499 131.393 24.8499 129.748 23.5199V19.7399C131.463 21.4899 133.318 22.5049 135.733 22.5049C138.113 22.5049 139.303 21.5249 139.303 20.1599C139.303 18.7249 137.903 18.2349 135.348 17.4649C132.548 16.5899 129.783 15.5399 129.783 12.3549C129.783 9.27488 132.338 6.99988 136.258 6.99988ZM146.966 8.74988C148.401 7.76988 150.606 6.99988 152.986 6.99988C157.501 6.99988 160.301 9.62488 160.301 13.6849V25.1299H157.151V22.3999C155.891 24.4999 153.826 25.5499 151.376 25.5499C148.086 25.5499 145.636 23.3799 145.636 20.4399C145.636 17.2899 147.981 15.5399 152.251 14.9449L156.906 14.2799V13.6149C156.906 11.4099 155.366 10.0799 152.776 10.0799C150.431 10.0799 148.296 11.1649 146.966 12.1449V8.74988ZM151.936 22.6799C154.806 22.6799 156.976 20.2999 156.976 17.8149V16.9049L152.776 17.4299C150.326 17.7449 148.961 18.6899 148.961 20.2299C148.961 21.7349 150.186 22.6799 151.936 22.6799ZM174.864 21.8399V24.9549C174.199 25.3399 173.254 25.5499 172.029 25.5499C168.564 25.5499 166.499 23.4849 166.499 19.9149V10.2549H163.839V7.41988H166.604V3.25488L169.894 2.20488V7.41988H174.444V10.2549H169.894V19.4949C169.894 21.4899 170.804 22.3999 172.764 22.3999C173.149 22.3999 174.024 22.3299 174.864 21.8399ZM180.641 -0.00011909C181.796 -0.00011909 182.776 0.944881 182.776 2.13488C182.776 3.32488 181.796 4.30488 180.641 4.30488C179.486 4.30488 178.506 3.32488 178.506 2.13488C178.506 0.944881 179.486 -0.00011909 180.641 -0.00011909ZM178.926 25.1299V7.41988H182.321V25.1299H178.926ZM196.025 6.99988C201.275 6.99988 205.195 11.0599 205.195 16.2749C205.195 21.4899 201.275 25.5499 196.025 25.5499C190.775 25.5499 186.855 21.4899 186.855 16.2749C186.855 11.0599 190.775 6.99988 196.025 6.99988ZM196.025 10.2199C192.665 10.2199 190.32 12.9849 190.32 16.2749C190.32 19.5649 192.665 22.3299 196.025 22.3299C199.385 22.3299 201.73 19.5649 201.73 16.2749C201.73 12.9849 199.385 10.2199 196.025 10.2199ZM213.081 10.0799C214.096 8.22488 215.881 6.99988 218.821 6.99988C222.846 6.99988 225.681 9.72988 225.681 14.4199V25.1299H222.286V14.5599C222.286 11.6199 220.396 10.1149 218.121 10.1149C214.446 10.1149 213.151 13.5099 213.151 16.1349V25.1299H209.756V7.41988H213.081V10.0799Z" fill="white"/>
</svg>
