<svg width="695" height="122" viewBox="0 0 695 122" fill="none" xmlns="http://www.w3.org/2000/svg">
<path d="M83.3163 36.25C86.5643 36.25 89.4643 34.8 92.3643 32.19L96.0183 36.83C92.1903 40.426 87.9563 42.108 82.9103 42.108C72.4123 42.108 65.7423 35.554 65.7423 22.33C65.7423 7.19199 75.0223 2.14598 83.2583 2.14598C87.7823 2.14598 92.8283 3.94399 96.4823 9.33799L91.4363 12.992C89.0003 9.91798 86.3903 8.11999 82.9103 8.11999C76.9363 8.11999 72.9923 13.108 72.9923 21.866C72.9923 30.74 76.2403 36.25 83.3163 36.25ZM123.76 13.398V35.844L124.282 41.412H118.308L117.902 38.338L117.67 38.28C115.872 40.89 112.914 42.166 109.724 42.166C101.546 42.166 98.3564 36.366 98.3564 28.072C98.3564 17.864 103.46 11.368 113.436 11.368C115.35 11.368 119.584 11.832 123.76 13.398ZM116.916 32.19V17.168C116.046 16.762 114.364 16.414 112.566 16.414C107.056 16.414 105.2 21.576 105.2 27.84C105.2 32.654 106.36 37.236 111.232 37.236C114.828 37.236 116.916 34.684 116.916 32.19ZM137.977 41.412H131.075V17.284L130.611 12.238H136.411L136.991 15.892C139.021 12.992 142.095 11.368 145.923 11.368C151.723 11.368 155.145 14.616 155.145 21.46V41.412H148.243V22.968C148.243 19.43 147.605 16.704 143.893 16.704C140.413 16.704 137.977 19.546 137.977 22.562V41.412ZM198.358 37.758C198.358 39.904 198.184 43.906 197.894 45.82C196.792 52.78 192.616 56.84 185.366 56.84C179.102 56.84 175.97 53.882 175.97 49.242C175.97 44.892 178.87 41.586 182.06 39.324C177.304 38.628 174.346 35.728 174.346 29.928V12.238H181.248V28.71C181.248 32.48 181.596 35.264 186.178 35.264C189.484 35.264 191.514 33.466 191.514 30.16V12.238H198.358V37.758ZM182.292 48.14C182.292 50.402 183.568 51.852 186.178 51.852C190.238 51.852 191.572 48.082 191.572 42.862V37.99C186.468 40.426 182.292 43.268 182.292 48.14ZM216.983 37.178C221.217 37.178 223.015 33.002 223.015 26.97C223.015 20.474 221.507 16.472 217.099 16.472C212.865 16.472 210.951 20.416 210.951 25.984C210.951 31.378 211.821 37.178 216.983 37.178ZM203.933 26.796C203.933 14.732 211.473 11.368 217.447 11.368C221.739 11.368 230.091 12.702 230.091 26.042C230.091 37.178 224.175 42.282 216.519 42.282C208.747 42.282 203.933 37.294 203.933 26.796ZM252.742 12.238H259.644V36.54L260.108 41.412H254.192L253.786 37.99H253.554C251.582 40.89 248.45 42.224 245.144 42.224C238.764 42.224 235.574 38.86 235.574 32.016V12.238H242.476V30.74C242.476 34.278 243.114 36.888 247 36.888C250.132 36.888 252.742 34.104 252.742 31.32V12.238ZM285.86 41.412H278.958V1.10198H285.86V14.674C287.832 12.412 290.732 11.368 293.69 11.368C299.78 11.368 303.028 14.732 303.028 21.576V41.412H296.126V22.794C296.126 19.43 295.43 16.704 291.66 16.704C288.354 16.704 285.86 19.488 285.86 22.446V41.412ZM322.758 11.368C328.442 11.368 331.98 14.268 331.98 19.43C331.98 28.362 320.902 29.522 315.566 29.58C315.798 33.35 317.944 37.004 322.874 37.004C326.296 37.004 328.79 35.438 330.182 34.452L332.328 39.034C331.4 39.846 327.572 42.282 322.12 42.282C312.55 42.282 308.606 36.134 308.606 27.434C308.606 18.908 313.536 11.368 322.758 11.368ZM325.832 19.72C325.832 17.574 324.44 16.298 322.352 16.298C317.712 16.298 315.508 20.822 315.334 25.114C318.466 25.172 325.832 24.186 325.832 19.72ZM336.905 1.15999H343.807V31.9C343.807 35.496 344.561 36.83 346.939 36.83C348.099 36.83 349.375 36.424 350.593 35.902L352.101 40.542C350.535 41.528 347.693 42.282 345.199 42.282C337.369 42.282 336.905 37.7 336.905 33.35V1.15999ZM362.498 40.6V53.592H355.596V13.282C359.946 11.948 364.238 11.368 367.196 11.368C376.476 11.368 380.826 16.53 380.826 26.564C380.826 36.772 376.128 42.282 368.53 42.282C366.268 42.282 364.006 41.528 362.498 40.6ZM373.866 27.086C373.866 20.3 371.256 16.878 365.92 16.878C364.876 16.878 363.716 16.994 362.498 17.284V35.148C364.006 36.134 365.92 36.598 367.428 36.598C372.358 36.598 373.866 31.726 373.866 27.086ZM398.814 1.10198H405.716V12.238H413.546V17.632H405.716V32.364C405.716 35.902 407.108 36.946 409.486 36.946C411.052 36.946 412.502 36.308 413.43 35.728L415.17 40.194C413.43 41.412 410.53 42.224 407.804 42.224C398.756 42.224 398.814 36.656 398.814 32.596V1.10198ZM425.819 41.412H418.917V1.10198H425.819V14.674C427.791 12.412 430.691 11.368 433.649 11.368C439.739 11.368 442.987 14.732 442.987 21.576V41.412H436.085V22.794C436.085 19.43 435.389 16.704 431.619 16.704C428.313 16.704 425.819 19.488 425.819 22.446V41.412ZM462.717 11.368C468.401 11.368 471.939 14.268 471.939 19.43C471.939 28.362 460.861 29.522 455.525 29.58C455.757 33.35 457.903 37.004 462.833 37.004C466.255 37.004 468.749 35.438 470.141 34.452L472.287 39.034C471.359 39.846 467.531 42.282 462.079 42.282C452.509 42.282 448.565 36.134 448.565 27.434C448.565 18.908 453.495 11.368 462.717 11.368ZM465.791 19.72C465.791 17.574 464.399 16.298 462.311 16.298C457.671 16.298 455.467 20.822 455.293 25.114C458.425 25.172 465.791 24.186 465.791 19.72ZM512.938 13.398V35.844L513.46 41.412H507.486L507.08 38.338L506.848 38.28C505.05 40.89 502.092 42.166 498.902 42.166C490.724 42.166 487.534 36.366 487.534 28.072C487.534 17.864 492.638 11.368 502.614 11.368C504.528 11.368 508.762 11.832 512.938 13.398ZM506.094 32.19V17.168C505.224 16.762 503.542 16.414 501.744 16.414C496.234 16.414 494.378 21.576 494.378 27.84C494.378 32.654 495.538 37.236 500.41 37.236C504.006 37.236 506.094 34.684 506.094 32.19ZM520.195 1.15999H527.097V31.9C527.097 35.496 527.851 36.83 530.229 36.83C531.389 36.83 532.665 36.424 533.883 35.902L535.391 40.542C533.825 41.528 530.983 42.282 528.489 42.282C520.659 42.282 520.195 37.7 520.195 33.35V1.15999ZM545.961 41.412H539.059V12.238H545.961V41.412ZM538.479 3.88599C538.479 1.73999 540.103 -1.5378e-05 542.481 -1.5378e-05C544.859 -1.5378e-05 546.483 1.73999 546.483 3.88599C546.483 6.08999 544.801 7.71399 542.481 7.71399C540.045 7.71399 538.479 6.08999 538.479 3.88599ZM565.747 11.368C571.431 11.368 574.969 14.268 574.969 19.43C574.969 28.362 563.891 29.522 558.555 29.58C558.787 33.35 560.933 37.004 565.863 37.004C569.285 37.004 571.779 35.438 573.171 34.452L575.317 39.034C574.389 39.846 570.561 42.282 565.109 42.282C555.539 42.282 551.595 36.134 551.595 27.434C551.595 18.908 556.525 11.368 565.747 11.368ZM568.821 19.72C568.821 17.574 567.429 16.298 565.341 16.298C560.701 16.298 558.497 20.822 558.323 25.114C561.455 25.172 568.821 24.186 568.821 19.72ZM586.854 41.412H579.952V17.284L579.488 12.238H585.288L585.868 15.892C587.898 12.992 590.972 11.368 594.8 11.368C600.6 11.368 604.022 14.616 604.022 21.46V41.412H597.12V22.968C597.12 19.43 596.482 16.704 592.77 16.704C589.29 16.704 586.854 19.546 586.854 22.562V41.412ZM608.609 39.324L610.639 34.394C612.553 35.612 615.975 37.178 618.933 37.178C621.369 37.178 623.341 36.076 623.341 33.466C623.341 30.856 621.137 30.044 618.411 29.232C614.177 28.014 609.421 26.622 609.421 20.59C609.421 14.558 614.409 11.368 620.035 11.368C624.385 11.368 628.155 13.108 630.533 15.486L627.227 19.546C625.023 17.632 622.587 16.414 620.151 16.414C618.063 16.414 616.091 17.458 616.091 19.778C616.091 22.446 618.527 23.2 621.253 24.012C625.487 25.346 630.185 27.028 630.185 33.002C630.185 39.034 625.719 42.282 619.223 42.282C614.235 42.282 610.117 40.484 608.609 39.324ZM14.036 76.368C15.892 76.368 17.226 76.658 18.56 77.064V66.102H25.404V100.728L25.926 106.412H20.01L19.546 103.28L19.314 103.222C17.516 105.89 14.616 107.282 11.426 107.282C2.378 107.282 3.93391e-06 100.206 3.93391e-06 92.956C3.93391e-06 83.038 5.104 76.368 14.036 76.368ZM18.56 97.364V82.342C17.516 81.878 16.008 81.414 14.21 81.414C8.7 81.414 6.844 86.634 6.844 92.318C6.844 97.596 8.12 102.178 12.818 102.178C16.356 102.178 18.56 99.626 18.56 97.364ZM39.6783 106.412H32.7763V77.238H39.6783V106.412ZM32.1963 68.886C32.1963 66.74 33.8203 65 36.1983 65C38.5763 65 40.2003 66.74 40.2003 68.886C40.2003 71.09 38.5183 72.714 36.1983 72.714C33.7623 72.714 32.1963 71.09 32.1963 68.886ZM44.3265 104.324L46.3565 99.394C48.2705 100.612 51.6925 102.178 54.6505 102.178C57.0865 102.178 59.0585 101.076 59.0585 98.466C59.0585 95.856 56.8545 95.044 54.1285 94.232C49.8945 93.014 45.1385 91.622 45.1385 85.59C45.1385 79.558 50.1265 76.368 55.7525 76.368C60.1025 76.368 63.8725 78.108 66.2505 80.486L62.9445 84.546C60.7405 82.632 58.3045 81.414 55.8685 81.414C53.7805 81.414 51.8085 82.458 51.8085 84.778C51.8085 87.446 54.2445 88.2 56.9705 89.012C61.2045 90.346 65.9025 92.028 65.9025 98.002C65.9025 104.034 61.4365 107.282 54.9405 107.282C49.9525 107.282 45.8345 105.484 44.3265 104.324ZM83.5961 101.714C85.8581 101.714 87.8881 100.96 90.2661 99.22L92.8761 103.86C90.6141 105.716 87.0761 107.224 82.7841 107.224C74.2581 107.224 69.3281 101.83 69.3281 91.97C69.3281 80.312 76.5781 76.368 82.7261 76.368C86.4961 76.368 90.6721 77.876 93.3981 81.878L89.0481 85.474C87.5401 83.618 85.4521 81.878 82.8421 81.878C78.9561 81.878 76.2301 85.068 76.2301 91.68C76.2301 97.712 78.4341 101.714 83.5961 101.714ZM107.582 102.178C111.816 102.178 113.614 98.002 113.614 91.97C113.614 85.474 112.106 81.472 107.698 81.472C103.464 81.472 101.55 85.416 101.55 90.984C101.55 96.378 102.42 102.178 107.582 102.178ZM94.5318 91.796C94.5318 79.732 102.072 76.368 108.046 76.368C112.338 76.368 120.69 77.702 120.69 91.042C120.69 102.178 114.774 107.282 107.118 107.282C99.3458 107.282 94.5318 102.294 94.5318 91.796ZM141.485 77.238H148.329C149.373 80.892 150.243 85.59 150.243 89.998C150.243 100.67 145.545 107.224 136.323 107.224C129.479 107.224 126.173 104.034 126.173 96.9V77.238H133.133V95.508C133.133 99.046 133.365 101.83 137.077 101.83C141.949 101.83 143.457 96.03 143.457 90.462C143.457 85.59 142.413 80.95 141.485 77.238ZM168.951 76.368C174.635 76.368 178.173 79.268 178.173 84.43C178.173 93.362 167.095 94.522 161.759 94.58C161.991 98.35 164.137 102.004 169.067 102.004C172.489 102.004 174.983 100.438 176.375 99.452L178.521 104.034C177.593 104.846 173.765 107.282 168.313 107.282C158.743 107.282 154.799 101.134 154.799 92.434C154.799 83.908 159.729 76.368 168.951 76.368ZM172.025 84.72C172.025 82.574 170.633 81.298 168.545 81.298C163.905 81.298 161.701 85.822 161.527 90.114C164.659 90.172 172.025 89.186 172.025 84.72ZM190.116 88.084V106.412H183.214V81.936L182.692 77.238H188.376L189.072 81.472C190.348 78.166 193.19 76.368 196.09 76.368C197.83 76.368 199.454 76.774 200.73 77.528L199.512 83.386C198.236 82.69 196.902 82.226 195.394 82.226C192.262 82.226 190.232 84.72 190.116 88.084ZM216.922 106.412V67.842H240.18V73.99H223.998V83.676H237.86V89.824H223.998V100.264H240.586V106.412H216.922ZM268.789 78.398V100.844L269.311 106.412H263.337L262.931 103.338L262.699 103.28C260.901 105.89 257.943 107.166 254.753 107.166C246.575 107.166 243.385 101.366 243.385 93.072C243.385 82.864 248.489 76.368 258.465 76.368C260.379 76.368 264.613 76.832 268.789 78.398ZM261.945 97.19V82.168C261.075 81.762 259.393 81.414 257.595 81.414C252.085 81.414 250.229 86.576 250.229 92.84C250.229 97.654 251.389 102.236 256.261 102.236C259.857 102.236 261.945 99.684 261.945 97.19ZM283.063 88.084V106.412H276.161V81.936L275.639 77.238H281.323L282.019 81.472C283.295 78.166 286.137 76.368 289.037 76.368C290.777 76.368 292.401 76.774 293.677 77.528L292.459 83.386C291.183 82.69 289.849 82.226 288.341 82.226C285.209 82.226 283.179 84.72 283.063 88.084ZM297.285 66.102H304.187V77.238H312.017V82.632H304.187V97.364C304.187 100.902 305.579 101.946 307.957 101.946C309.523 101.946 310.973 101.308 311.901 100.728L313.641 105.194C311.901 106.412 309.001 107.224 306.275 107.224C297.227 107.224 297.285 101.656 297.285 97.596V66.102ZM324.291 106.412H317.389V66.102H324.291V79.674C326.263 77.412 329.163 76.368 332.121 76.368C338.211 76.368 341.459 79.732 341.459 86.576V106.412H334.557V87.794C334.557 84.43 333.861 81.704 330.091 81.704C326.785 81.704 324.291 84.488 324.291 87.446V106.412ZM348.746 64.42C349.268 64.362 350.486 64.246 351.356 64.304C353.27 64.42 355.068 65.058 355.068 67.146C355.068 69.756 352.11 74.976 349.326 79.268L345.788 78.108L348.746 64.42ZM354.887 104.324L356.917 99.394C358.831 100.612 362.253 102.178 365.211 102.178C367.647 102.178 369.619 101.076 369.619 98.466C369.619 95.856 367.415 95.044 364.689 94.232C360.455 93.014 355.699 91.622 355.699 85.59C355.699 79.558 360.687 76.368 366.313 76.368C370.663 76.368 374.433 78.108 376.811 80.486L373.505 84.546C371.301 82.632 368.865 81.414 366.429 81.414C364.341 81.414 362.369 82.458 362.369 84.778C362.369 87.446 364.805 88.2 367.531 89.012C371.765 90.346 376.463 92.028 376.463 98.002C376.463 104.034 371.997 107.282 365.501 107.282C360.513 107.282 356.395 105.484 354.887 104.324ZM424.482 77.238H431.268C432.37 80.892 433.298 85.416 433.298 89.882C433.298 100.438 429.296 107.224 420.712 107.224C416.42 107.224 414.042 105.31 412.882 102.468C410.388 106.006 407.256 107.224 403.544 107.224C397.28 107.224 393.8 103.976 393.8 97.132V77.238H400.702V95.334C400.702 98.872 400.992 101.888 404.646 101.888C407.72 101.888 409.924 99.278 409.924 96.32V77.238H416.826V95.276C416.826 98.93 417 101.888 420.654 101.888C425.7 101.888 426.512 95.102 426.512 90.114C426.512 85.532 425.468 80.95 424.482 77.238ZM463.293 78.398V100.844L463.815 106.412H457.841L457.435 103.338L457.203 103.28C455.405 105.89 452.447 107.166 449.257 107.166C441.079 107.166 437.889 101.366 437.889 93.072C437.889 82.864 442.993 76.368 452.969 76.368C454.883 76.368 459.117 76.832 463.293 78.398ZM456.449 97.19V82.168C455.579 81.762 453.897 81.414 452.099 81.414C446.589 81.414 444.733 86.576 444.733 92.84C444.733 97.654 445.893 102.236 450.765 102.236C454.361 102.236 456.449 99.684 456.449 97.19ZM470.549 66.102H477.451V77.238H485.281V82.632H477.451V97.364C477.451 100.902 478.843 101.946 481.221 101.946C482.787 101.946 484.237 101.308 485.165 100.728L486.905 105.194C485.165 106.412 482.265 107.224 479.539 107.224C470.491 107.224 470.549 101.656 470.549 97.596V66.102ZM502.338 76.368C508.022 76.368 511.56 79.268 511.56 84.43C511.56 93.362 500.482 94.522 495.146 94.58C495.378 98.35 497.524 102.004 502.454 102.004C505.876 102.004 508.37 100.438 509.762 99.452L511.908 104.034C510.98 104.846 507.152 107.282 501.7 107.282C492.13 107.282 488.186 101.134 488.186 92.434C488.186 83.908 493.116 76.368 502.338 76.368ZM505.412 84.72C505.412 82.574 504.02 81.298 501.932 81.298C497.292 81.298 495.088 85.822 494.914 90.114C498.046 90.172 505.412 89.186 505.412 84.72ZM523.503 88.084V106.412H516.601V81.936L516.079 77.238H521.763L522.459 81.472C523.735 78.166 526.577 76.368 529.477 76.368C531.217 76.368 532.841 76.774 534.117 77.528L532.899 83.386C531.623 82.69 530.289 82.226 528.781 82.226C525.649 82.226 523.619 84.72 523.503 88.084ZM562.663 101.714C564.925 101.714 566.955 100.96 569.333 99.22L571.943 103.86C569.681 105.716 566.143 107.224 561.851 107.224C553.325 107.224 548.395 101.83 548.395 91.97C548.395 80.312 555.645 76.368 561.793 76.368C565.563 76.368 569.739 77.876 572.465 81.878L568.115 85.474C566.607 83.618 564.519 81.878 561.909 81.878C558.023 81.878 555.297 85.068 555.297 91.68C555.297 97.712 557.501 101.714 562.663 101.714ZM600.251 102.758C600.251 104.904 600.077 108.906 599.787 110.82C598.685 117.78 594.509 121.84 587.259 121.84C580.995 121.84 577.863 118.882 577.863 114.242C577.863 109.892 580.763 106.586 583.953 104.324C579.197 103.628 576.239 100.728 576.239 94.928V77.238H583.141V93.71C583.141 97.48 583.489 100.264 588.071 100.264C591.377 100.264 593.407 98.466 593.407 95.16V77.238H600.251V102.758ZM584.185 113.14C584.185 115.402 585.461 116.852 588.071 116.852C592.131 116.852 593.465 113.082 593.465 107.862V102.99C588.361 105.426 584.185 108.268 584.185 113.14ZM620.153 101.714C622.415 101.714 624.445 100.96 626.823 99.22L629.433 103.86C627.171 105.716 623.633 107.224 619.341 107.224C610.815 107.224 605.885 101.83 605.885 91.97C605.885 80.312 613.135 76.368 619.283 76.368C623.053 76.368 627.229 77.876 629.955 81.878L625.605 85.474C624.097 83.618 622.009 81.878 619.399 81.878C615.513 81.878 612.787 85.068 612.787 91.68C612.787 97.712 614.991 101.714 620.153 101.714ZM633.787 66.16H640.689V96.9C640.689 100.496 641.443 101.83 643.821 101.83C644.981 101.83 646.257 101.424 647.475 100.902L648.983 105.542C647.417 106.528 644.575 107.282 642.081 107.282C634.251 107.282 633.787 102.7 633.787 98.35V66.16ZM664.33 76.368C670.014 76.368 673.552 79.268 673.552 84.43C673.552 93.362 662.474 94.522 657.138 94.58C657.37 98.35 659.516 102.004 664.446 102.004C667.868 102.004 670.362 100.438 671.754 99.452L673.9 104.034C672.972 104.846 669.144 107.282 663.692 107.282C654.122 107.282 650.178 101.134 650.178 92.434C650.178 83.908 655.108 76.368 664.33 76.368ZM667.404 84.72C667.404 82.574 666.012 81.298 663.924 81.298C659.284 81.298 657.08 85.822 656.906 90.114C660.038 90.172 667.404 89.186 667.404 84.72ZM688.221 75.324C688.221 72.83 686.597 71.554 684.451 71.554C682.827 71.554 680.449 72.134 677.781 73.12L676.621 67.784C679.347 66.798 682.015 66.102 684.915 66.102C691.933 66.102 694.717 69.756 694.717 74.86C694.717 80.196 691.933 82.574 688.511 85.126C686.481 86.576 685.437 87.272 685.437 89.592V95.972H680.101C679.985 94.812 679.695 91.332 679.695 89.882C679.695 85.474 680.739 83.676 684.161 81.182C686.249 79.558 688.221 78.456 688.221 75.324ZM678.651 103.512C678.651 101.424 680.275 99.684 682.537 99.684C685.089 99.684 686.597 101.308 686.597 103.454C686.597 105.542 685.147 107.398 682.711 107.398C680.101 107.398 678.651 105.658 678.651 103.512Z" fill="#FEFFFE"/>
</svg>
