<svg width="749" height="658" viewBox="0 0 749 658" fill="none" xmlns="http://www.w3.org/2000/svg">
<g filter="url(#filter0_d_319_3615)">
<rect x="86.3047" y="43.1523" width="576" height="485" rx="50.3442" fill="white" shape-rendering="crispEdges"/>
<g filter="url(#filter1_d_319_3615)">
<rect x="309.258" y="115.072" width="129.456" height="129.456" rx="64.7282" fill="#23A55A" shape-rendering="crispEdges"/>
<rect x="312.854" y="118.668" width="122.264" height="122.264" rx="61.1322" stroke="white" stroke-width="7.19202" shape-rendering="crispEdges"/>
<rect x="303.862" y="109.679" width="140.244" height="140.244" rx="70.1222" stroke="#23A55A" stroke-width="3.59601"/>
<path d="M347.203 181.993L365.326 200.115L401.57 161.281" stroke="white" stroke-width="7.76674" stroke-linecap="round" stroke-linejoin="round"/>
</g>
<path d="M308.497 303.342C310.647 303.342 312.657 302.08 314.481 300.397L319.342 306.661C315.743 309.887 312.47 311.243 307.936 311.243C298.96 311.243 293.21 305.726 293.21 295.488C293.21 283.1 300.737 279.033 307.936 279.033C313.031 279.033 317.239 281.23 319.903 285.952L313.125 290.814C311.302 288.243 309.572 287.074 307.702 287.074C305.131 287.074 303.168 289.505 303.168 294.928C303.168 299.976 304.757 303.342 308.497 303.342ZM330.91 304.651C332.36 304.651 332.874 303.108 332.874 298.714C332.874 294.273 332.406 292.45 330.864 292.45C329.508 292.45 328.947 294.46 328.947 297.873C328.947 301.659 329.134 304.651 330.91 304.651ZM319.27 298.901C319.27 289.037 325.908 285.765 331.191 285.765C335.071 285.765 342.597 286.934 342.597 298.06C342.597 306.708 337.221 311.43 330.536 311.43C323.618 311.43 319.27 307.409 319.27 298.901ZM354.901 296.19V310.682H345.458V291.562L344.756 286.513H352.283L353.031 289.738C354.386 286.56 356.724 285.765 358.36 285.765C359.575 285.765 361.118 285.999 362.24 286.653L361.071 294.554C360.043 294.086 358.874 293.712 357.659 293.712C356.023 293.712 354.901 294.367 354.901 296.19ZM373.892 296.19V310.682H364.449V291.562L363.748 286.513H371.274L372.022 289.738C373.378 286.56 375.715 285.765 377.351 285.765C378.567 285.765 380.11 285.999 381.232 286.653L380.063 294.554C379.034 294.086 377.866 293.712 376.65 293.712C375.014 293.712 373.892 294.367 373.892 296.19ZM393.794 285.765C398.889 285.765 402.489 288.196 402.489 293.665C402.489 300.07 395.757 301.753 390.942 302.22C391.316 303.623 392.625 304.511 394.635 304.511C396.552 304.511 398.609 303.716 400.338 302.594L402.723 308.765C402.816 308.718 398.983 311.43 393.186 311.43C384.631 311.43 381.312 306.474 381.312 299.369C381.312 292.59 385.426 285.765 393.794 285.765ZM394.448 293.572C394.448 292.824 393.981 292.31 393.233 292.31C391.924 292.31 390.615 293.572 390.475 296.657C392.999 296.423 394.448 294.928 394.448 293.572ZM417.232 304.137C418.775 304.137 419.897 303.623 421.813 302.36L425.039 308.718C422.655 310.495 419.616 311.476 415.783 311.476C408.677 311.476 403.956 307.269 403.956 298.995C403.956 289.832 409.939 285.765 416.017 285.765C419.663 285.765 423.169 286.934 425.6 290.907L419.943 295.769C419.008 294.46 418.027 293.151 416.484 293.151C414.38 293.151 413.399 295.208 413.399 298.574C413.399 302.22 414.801 304.137 417.232 304.137ZM427.355 278.192H436.845V286.513H442.408V293.806H436.845V301.285C436.845 303.623 438.06 304.371 439.416 304.371C440.07 304.371 440.818 304.137 441.566 303.716L443.53 309.7C442.034 310.635 439.229 311.43 436.33 311.43C427.869 311.43 427.355 306.381 427.355 301.753V278.192ZM445.806 285.952V281.417C445.806 279.641 446.975 278.192 449.78 278.192C452.631 278.192 453.8 279.688 453.8 281.511V285.952L452.538 301.379H447.115L445.806 285.952ZM445.245 307.316C445.245 305.212 446.928 303.249 449.639 303.249C452.538 303.249 454.08 305.025 454.08 307.363C454.08 309.419 452.585 311.476 449.733 311.476C446.741 311.476 445.245 309.56 445.245 307.316Z" fill="#0E2A72"/>
</g>
<defs>
<filter id="filter0_d_319_3615" x="0.000411987" y="0.000205994" width="748.609" height="657.609" filterUnits="userSpaceOnUse" color-interpolation-filters="sRGB">
<feFlood flood-opacity="0" result="BackgroundImageFix"/>
<feColorMatrix in="SourceAlpha" type="matrix" values="0 0 0 0 0 0 0 0 0 0 0 0 0 0 0 0 0 0 127 0" result="hardAlpha"/>
<feOffset dy="43.1521"/>
<feGaussianBlur stdDeviation="43.1521"/>
<feComposite in2="hardAlpha" operator="out"/>
<feColorMatrix type="matrix" values="0 0 0 0 0 0 0 0 0 0 0 0 0 0 0 0 0 0 0.2 0"/>
<feBlend mode="normal" in2="BackgroundImageFix" result="effect1_dropShadow_319_3615"/>
<feBlend mode="normal" in="SourceGraphic" in2="effect1_dropShadow_319_3615" result="shape"/>
</filter>
<filter id="filter1_d_319_3615" x="258.912" y="86.3048" width="230.144" height="230.144" filterUnits="userSpaceOnUse" color-interpolation-filters="sRGB">
<feFlood flood-opacity="0" result="BackgroundImageFix"/>
<feColorMatrix in="SourceAlpha" type="matrix" values="0 0 0 0 0 0 0 0 0 0 0 0 0 0 0 0 0 0 127 0" result="hardAlpha"/>
<feOffset dy="21.5761"/>
<feGaussianBlur stdDeviation="21.5761"/>
<feComposite in2="hardAlpha" operator="out"/>
<feColorMatrix type="matrix" values="0 0 0 0 0 0 0 0 0 0 0 0 0 0 0 0 0 0 0.1 0"/>
<feBlend mode="normal" in2="BackgroundImageFix" result="effect1_dropShadow_319_3615"/>
<feBlend mode="normal" in="SourceGraphic" in2="effect1_dropShadow_319_3615" result="shape"/>
</filter>
</defs>
</svg>
