<svg width="548" height="161" viewBox="0 0 548 161" fill="none" xmlns="http://www.w3.org/2000/svg">
<g filter="url(#filter0_d_747_2897)">
<rect x="28.7686" y="14.3848" width="490.058" height="102.728" rx="21.5761" fill="#0E2A72" shape-rendering="crispEdges"/>
<path d="M193.695 52.3227H197.464V72.748H194.242L184.086 58.9394V72.748H180.289V52.3227H183.54L193.695 66.1314V52.3227ZM208.157 57.7311C212.501 57.7311 214.918 60.8381 214.918 64.6642C214.918 65.2108 214.86 65.8725 214.803 66.304H204.647C204.935 68.8644 206.978 69.8712 209.222 69.8712C211.034 69.8712 212.875 69.2096 213.94 68.3178V71.8562C212.329 72.8631 210.487 73.0933 208.733 73.0933C204.015 73.0933 200.793 70.0726 200.793 65.441C200.793 61.097 203.756 57.7311 208.157 57.7311ZM208.1 60.8668C206.258 60.8668 204.993 62.0463 204.676 63.8587H211.35C211.207 62.0751 209.97 60.8668 208.1 60.8668ZM230.611 72.748H226.469L223.419 67.7999L220.255 72.748H216.112L221.089 65.2396L216.285 58.0763H220.427L223.362 62.7368L226.325 58.0763H230.439L225.634 65.2396L230.611 72.748ZM241.354 69.2959V72.5179C240.75 72.8631 239.83 73.0933 238.621 73.0933C235.601 73.0933 233.731 71.3096 233.731 68.1452V61.0682H231.66V58.0763H233.846V54.7392L237.471 53.7899V58.0763H241.009V61.0682H237.471V67.6273C237.471 69.1233 238.247 69.7562 239.628 69.7562C240.031 69.7562 240.75 69.6411 241.354 69.2959ZM265.199 58.0763V78.5017H261.459V71.0507C260.654 72.2302 258.87 73.0933 257.029 73.0933C253.232 73.0933 250.153 69.9575 250.153 65.4122C250.153 60.8668 253.26 57.7311 257.029 57.7311C259.072 57.7311 260.884 58.8243 261.718 60.1189V58.0763H265.199ZM261.661 65.441C261.661 62.8231 259.906 61.097 257.777 61.097C255.677 61.097 253.893 62.8518 253.893 65.441C253.893 68.0301 255.677 69.7849 257.777 69.7849C259.906 69.7849 261.661 68.0301 261.661 65.441ZM279.405 70.763C278.571 72.1727 277.133 73.0933 274.889 73.0933C271.494 73.0933 269.193 70.8206 269.193 66.9944V58.0763H272.932V66.5341C272.932 68.663 274.198 69.7562 275.867 69.7562C278.341 69.7562 279.29 67.541 279.29 65.6423V58.0763H283.03V72.748H279.405V70.763ZM293.619 57.7311C297.963 57.7311 300.379 60.8381 300.379 64.6642C300.379 65.2108 300.322 65.8725 300.264 66.304H290.109C290.397 68.8644 292.439 69.8712 294.683 69.8712C296.495 69.8712 298.337 69.2096 299.401 68.3178V71.8562C297.79 72.8631 295.949 73.0933 294.194 73.0933C289.476 73.0933 286.254 70.0726 286.254 65.441C286.254 61.097 289.217 57.7311 293.619 57.7311ZM293.561 60.8668C291.72 60.8668 290.454 62.0463 290.138 63.8587H296.812C296.668 62.0751 295.431 60.8668 293.561 60.8668ZM308.56 57.7311C310.258 57.7311 312.012 58.2202 313.106 58.9969V62.4491C311.869 61.4422 310.344 60.8381 308.704 60.8381C307.122 60.8381 306.345 61.4134 306.345 62.2189C306.345 63.1107 307.237 63.5423 309.049 64.0313C311.437 64.6642 313.94 65.4985 313.94 68.4616C313.94 71.3096 311.725 73.0933 308.071 73.0933C306.057 73.0933 304.216 72.5467 302.893 71.5973V67.8862C304.274 69.2096 305.827 70.0151 307.841 70.0151C309.567 70.0151 310.459 69.3822 310.459 68.4904C310.459 67.5123 309.337 67.167 307.381 66.5629C305.108 65.8725 302.807 64.9519 302.807 62.3052C302.807 59.6873 305.051 57.7311 308.56 57.7311ZM325.411 69.2959V72.5179C324.807 72.8631 323.887 73.0933 322.678 73.0933C319.658 73.0933 317.788 71.3096 317.788 68.1452V61.0682H315.716V58.0763H317.903V54.7392L321.528 53.7899V58.0763H325.066V61.0682H321.528V67.6273C321.528 69.1233 322.304 69.7562 323.685 69.7562C324.088 69.7562 324.807 69.6411 325.411 69.2959ZM330.262 51.6898C331.442 51.6898 332.391 52.6104 332.391 53.8186C332.391 55.0269 331.442 55.9475 330.262 55.9475C329.054 55.9475 328.076 55.0269 328.076 53.8186C328.076 52.6104 329.054 51.6898 330.262 51.6898ZM328.364 72.748V58.0763H332.103V72.748H328.364ZM343.073 57.7311C347.56 57.7311 350.811 61.0682 350.811 65.4122C350.811 69.7562 347.56 73.0933 343.073 73.0933C338.556 73.0933 335.305 69.7562 335.305 65.4122C335.305 61.0682 338.556 57.7311 343.073 57.7311ZM343.073 61.1545C340.742 61.1545 339.074 62.9957 339.074 65.4122C339.074 67.8287 340.742 69.6699 343.073 69.6699C345.374 69.6699 347.043 67.8287 347.043 65.4122C347.043 62.9957 345.374 61.1545 343.073 61.1545ZM357.665 60.0613C358.5 58.6517 359.967 57.7311 362.182 57.7311C365.577 57.7311 367.878 60.0038 367.878 63.8299V72.748H364.138V64.2902C364.138 62.1614 362.872 61.0682 361.204 61.0682C358.73 61.0682 357.809 63.2833 357.809 65.182V72.748H354.069V58.0763H357.665V60.0613Z" fill="white"/>
</g>
<defs>
<filter id="filter0_d_747_2897" x="0.000463486" y="0.000720024" width="547.594" height="160.265" filterUnits="userSpaceOnUse" color-interpolation-filters="sRGB">
<feFlood flood-opacity="0" result="BackgroundImageFix"/>
<feColorMatrix in="SourceAlpha" type="matrix" values="0 0 0 0 0 0 0 0 0 0 0 0 0 0 0 0 0 0 127 0" result="hardAlpha"/>
<feOffset dy="14.384"/>
<feGaussianBlur stdDeviation="14.384"/>
<feComposite in2="hardAlpha" operator="out"/>
<feColorMatrix type="matrix" values="0 0 0 0 0 0 0 0 0 0 0 0 0 0 0 0 0 0 0.1 0"/>
<feBlend mode="normal" in2="BackgroundImageFix" result="effect1_dropShadow_747_2897"/>
<feBlend mode="normal" in="SourceGraphic" in2="effect1_dropShadow_747_2897" result="shape"/>
</filter>
</defs>
</svg>
