<svg width="547" height="161" viewBox="0 0 547 161" fill="none" xmlns="http://www.w3.org/2000/svg">
<g filter="url(#filter0_d_288_77)">
<rect x="28.7681" y="14.3843" width="489.058" height="102.728" rx="21.5761" fill="#0E2A72" shape-rendering="crispEdges"/>
<path d="M190.456 52.3232H194.224V72.7485H191.002L180.847 58.9399V72.7485H177.05V52.3232H180.301L190.456 66.1319V52.3232ZM204.918 57.7316C209.262 57.7316 211.679 60.8385 211.679 64.6647C211.679 65.2113 211.621 65.873 211.563 66.3045H201.408C201.696 68.8648 203.739 69.8717 205.982 69.8717C207.795 69.8717 209.636 69.2101 210.7 68.3182V71.8567C209.089 72.8636 207.248 73.0938 205.493 73.0938C200.775 73.0938 197.553 70.0731 197.553 65.4414C197.553 61.0975 200.517 57.7316 204.918 57.7316ZM204.861 60.8673C203.019 60.8673 201.754 62.0468 201.437 63.8592H208.111C207.967 62.0756 206.73 60.8673 204.861 60.8673ZM227.372 72.7485H223.23L220.18 67.8004L217.016 72.7485H212.873L217.85 65.2401L213.046 58.0768H217.188L220.123 62.7372L223.086 58.0768H227.2L222.395 65.2401L227.372 72.7485ZM238.115 69.2964V72.5184C237.511 72.8636 236.591 73.0938 235.382 73.0938C232.362 73.0938 230.492 71.3101 230.492 68.1456V61.0687H228.42V58.0768H230.607V54.7397L234.232 53.7904V58.0768H237.77V61.0687H234.232V67.6278C234.232 69.1238 235.008 69.7567 236.389 69.7567C236.792 69.7567 237.511 69.6416 238.115 69.2964ZM257.674 51.978C263.715 51.978 268.26 56.5809 268.26 62.5359C268.26 66.9086 265.815 70.5622 262.104 72.1732C263.974 73.7267 266.534 74.5609 268.979 74.5609C269.958 74.5609 271.137 74.4171 272.058 74.1869V77.4377C271.051 77.6391 269.67 77.8405 268.605 77.8405C264.837 77.8405 260.694 76.0569 258.393 73.065C258.163 73.0938 257.904 73.0938 257.645 73.0938C251.575 73.0938 247.058 68.4909 247.058 62.5359C247.058 56.5809 251.603 51.978 257.674 51.978ZM257.674 55.6028C253.876 55.6028 250.971 58.5659 250.971 62.5359C250.971 66.4771 253.876 69.469 257.674 69.469C261.442 69.469 264.348 66.4771 264.348 62.5359C264.348 58.5659 261.442 55.6028 257.674 55.6028ZM281.644 70.7635C280.81 72.1732 279.372 73.0938 277.128 73.0938C273.733 73.0938 271.432 70.8211 271.432 66.9949V58.0768H275.172V66.5346C275.172 68.6635 276.437 69.7567 278.106 69.7567C280.58 69.7567 281.529 67.5415 281.529 65.6428V58.0768H285.269V72.7485H281.644V70.7635ZM295.858 57.7316C300.202 57.7316 302.618 60.8385 302.618 64.6647C302.618 65.2113 302.561 65.873 302.503 66.3045H292.348C292.636 68.8648 294.678 69.8717 296.922 69.8717C298.735 69.8717 300.576 69.2101 301.64 68.3182V71.8567C300.029 72.8636 298.188 73.0938 296.433 73.0938C291.715 73.0938 288.493 70.0731 288.493 65.4414C288.493 61.0975 291.456 57.7316 295.858 57.7316ZM295.8 60.8673C293.959 60.8673 292.693 62.0468 292.377 63.8592H299.051C298.907 62.0756 297.67 60.8673 295.8 60.8673ZM310.799 57.7316C312.497 57.7316 314.252 58.2206 315.345 58.9974V62.4496C314.108 61.4427 312.583 60.8385 310.943 60.8385C309.361 60.8385 308.584 61.4139 308.584 62.2194C308.584 63.1112 309.476 63.5427 311.289 64.0318C313.676 64.6647 316.179 65.499 316.179 68.4621C316.179 71.3101 313.964 73.0938 310.31 73.0938C308.297 73.0938 306.455 72.5472 305.132 71.5978V67.8867C306.513 69.2101 308.066 70.0156 310.08 70.0156C311.806 70.0156 312.698 69.3827 312.698 68.4909C312.698 67.5127 311.576 67.1675 309.62 66.5634C307.347 65.873 305.046 64.9524 305.046 62.3057C305.046 59.6878 307.29 57.7316 310.799 57.7316ZM327.65 69.2964V72.5184C327.046 72.8636 326.126 73.0938 324.917 73.0938C321.897 73.0938 320.027 71.3101 320.027 68.1456V61.0687H317.956V58.0768H320.142V54.7397L323.767 53.7904V58.0768H327.305V61.0687H323.767V67.6278C323.767 69.1238 324.543 69.7567 325.924 69.7567C326.327 69.7567 327.046 69.6416 327.65 69.2964ZM332.501 51.6903C333.681 51.6903 334.63 52.6109 334.63 53.8191C334.63 55.0274 333.681 55.948 332.501 55.948C331.293 55.948 330.315 55.0274 330.315 53.8191C330.315 52.6109 331.293 51.6903 332.501 51.6903ZM330.603 72.7485V58.0768H334.343V72.7485H330.603ZM345.312 57.7316C349.8 57.7316 353.05 61.0687 353.05 65.4127C353.05 69.7567 349.8 73.0938 345.312 73.0938C340.795 73.0938 337.544 69.7567 337.544 65.4127C337.544 61.0687 340.795 57.7316 345.312 57.7316ZM345.312 61.155C342.982 61.155 341.313 62.9962 341.313 65.4127C341.313 67.8292 342.982 69.6703 345.312 69.6703C347.613 69.6703 349.282 67.8292 349.282 65.4127C349.282 62.9962 347.613 61.155 345.312 61.155ZM359.905 60.0618C360.739 58.6522 362.206 57.7316 364.421 57.7316C367.816 57.7316 370.117 60.0043 370.117 63.8304V72.7485H366.377V64.2907C366.377 62.1619 365.112 61.0687 363.443 61.0687C360.969 61.0687 360.048 63.2838 360.048 65.1825V72.7485H356.309V58.0768H359.905V60.0618Z" fill="white"/>
</g>
<defs>
<filter id="filter0_d_288_77" x="-2.47955e-05" y="0.000231743" width="546.594" height="160.264" filterUnits="userSpaceOnUse" color-interpolation-filters="sRGB">
<feFlood flood-opacity="0" result="BackgroundImageFix"/>
<feColorMatrix in="SourceAlpha" type="matrix" values="0 0 0 0 0 0 0 0 0 0 0 0 0 0 0 0 0 0 127 0" result="hardAlpha"/>
<feOffset dy="14.384"/>
<feGaussianBlur stdDeviation="14.384"/>
<feComposite in2="hardAlpha" operator="out"/>
<feColorMatrix type="matrix" values="0 0 0 0 0 0 0 0 0 0 0 0 0 0 0 0 0 0 0.1 0"/>
<feBlend mode="normal" in2="BackgroundImageFix" result="effect1_dropShadow_288_77"/>
<feBlend mode="normal" in="SourceGraphic" in2="effect1_dropShadow_288_77" result="shape"/>
</filter>
</defs>
</svg>
