<svg width="199" height="66" viewBox="0 0 199 66" fill="none" xmlns="http://www.w3.org/2000/svg">
<path d="M6.6487 22.9766V0.384562H14.5207C21.1127 0.384562 25.9127 5.37656 25.9127 11.6486C25.9127 18.0486 21.1127 22.9766 14.5207 22.9766H6.6487ZM9.8167 20.0966H14.2327C18.8407 20.0966 22.6167 16.5766 22.6167 11.6486C22.6167 6.81656 18.8727 3.26456 14.2647 3.26456H9.8167V20.0966ZM30.0124 8.00056C31.3244 7.10456 33.3404 6.40056 35.5164 6.40056C39.6444 6.40056 42.2044 8.80056 42.2044 12.5126V22.9766H39.3244V20.4806C38.1724 22.4006 36.2844 23.3606 34.0444 23.3606C31.0364 23.3606 28.7964 21.3766 28.7964 18.6886C28.7964 15.8086 30.9404 14.2086 34.8444 13.6646L39.1004 13.0566V12.4486C39.1004 10.4326 37.6924 9.21656 35.3244 9.21656C33.1804 9.21656 31.2284 10.2086 30.0124 11.1046V8.00056ZM34.5564 20.7366C37.1804 20.7366 39.1644 18.5606 39.1644 16.2886V15.4566L35.3244 15.9366C33.0844 16.2246 31.8364 17.0886 31.8364 18.4966C31.8364 19.8726 32.9564 20.7366 34.5564 20.7366ZM47.4522 6.78456H50.4922V9.21656C51.4202 7.52056 53.0522 6.40056 55.7402 6.40056C58.3002 6.40056 60.3162 7.61656 61.3402 9.76056C62.8442 7.45656 64.5082 6.40056 67.1962 6.40056C70.8762 6.40056 73.4682 8.89656 73.4682 13.1846V22.9766H70.3642V13.3126C70.3642 10.6246 68.6362 9.24856 66.5562 9.24856C63.1962 9.24856 62.0122 12.3526 62.0122 14.7526V22.9766H58.9082V13.3126C58.9082 10.6246 57.1802 9.24856 55.1002 9.24856C51.7402 9.24856 50.5562 12.3526 50.5562 14.7526V22.9766H47.4522V6.78456ZM83.5349 6.40056C85.3909 6.40056 87.3429 6.97656 88.4949 7.90456V11.1046C87.0549 9.88856 85.4869 9.18456 83.6629 9.18456C81.6149 9.18456 80.6549 10.0486 80.6549 11.1366C80.6549 12.3206 81.8389 12.8966 84.0149 13.5366C86.6069 14.2726 89.3269 15.1686 89.3269 18.4006C89.3269 21.4406 86.9589 23.3606 83.2789 23.3606C81.1669 23.3606 79.0869 22.7206 77.5829 21.5046V18.0486C79.1509 19.6486 80.8469 20.5766 83.0549 20.5766C85.2309 20.5766 86.3189 19.6806 86.3189 18.4326C86.3189 17.1206 85.0389 16.6726 82.7029 15.9686C80.1429 15.1686 77.6149 14.2086 77.6149 11.2966C77.6149 8.48056 79.9509 6.40056 83.5349 6.40056ZM92.6209 26.8486L93.9329 23.2646C93.2289 23.0086 92.5249 22.2726 92.5249 21.3766C92.5249 20.2566 93.3569 19.4246 94.4769 19.4246C95.5969 19.4246 96.4289 20.2566 96.4289 21.3766C96.4289 21.6966 96.3329 22.0166 96.1729 22.3686L94.1889 26.8486H92.6209ZM110.992 6.78456V9.63256C111.792 7.64856 113.456 6.40056 115.632 6.40056C116.016 6.40056 116.432 6.46456 116.624 6.52856V9.56856C116.496 9.53656 116.176 9.50456 115.984 9.50456C113.008 9.50456 111.056 11.6486 111.056 14.9446V22.9766H107.952V6.78456H110.992ZM121.645 0.00056076C122.701 0.00056076 123.597 0.864561 123.597 1.95256C123.597 3.04056 122.701 3.93656 121.645 3.93656C120.589 3.93656 119.693 3.04056 119.693 1.95256C119.693 0.864561 120.589 0.00056076 121.645 0.00056076ZM120.077 22.9766V6.78456H123.181V22.9766H120.077ZM135.679 22.9766H132.863L126.239 6.78456H129.567L134.271 18.8166L138.975 6.78456H142.303L135.679 22.9766ZM151.859 6.40056C156.499 6.40056 159.187 9.76056 159.187 13.9206C159.187 14.5286 159.123 15.1686 159.027 15.6806H147.091C147.443 19.1046 149.907 20.4806 152.691 20.4806C154.739 20.4806 156.755 19.7446 158.131 18.5286V21.7606C156.051 23.1686 154.163 23.3606 152.243 23.3606C147.123 23.3606 143.827 19.6806 143.827 14.9126C143.827 10.1446 146.995 6.40056 151.859 6.40056ZM151.795 9.18456C149.395 9.18456 147.667 10.6886 147.187 13.1526H156.115C155.891 10.7526 154.227 9.18456 151.795 9.18456ZM166.398 6.78456V9.63256C167.198 7.64856 168.862 6.40056 171.038 6.40056C171.422 6.40056 171.838 6.46456 172.03 6.52856V9.56856C171.902 9.53656 171.582 9.50456 171.39 9.50456C168.414 9.50456 166.462 11.6486 166.462 14.9446V22.9766H163.358V6.78456H166.398ZM180.16 6.40056C182.016 6.40056 183.968 6.97656 185.12 7.90456V11.1046C183.68 9.88856 182.112 9.18456 180.288 9.18456C178.24 9.18456 177.28 10.0486 177.28 11.1366C177.28 12.3206 178.464 12.8966 180.64 13.5366C183.232 14.2726 185.952 15.1686 185.952 18.4006C185.952 21.4406 183.584 23.3606 179.904 23.3606C177.792 23.3606 175.712 22.7206 174.208 21.5046V18.0486C175.776 19.6486 177.472 20.5766 179.68 20.5766C181.856 20.5766 182.944 19.6806 182.944 18.4326C182.944 17.1206 181.664 16.6726 179.328 15.9686C176.768 15.1686 174.24 14.2086 174.24 11.2966C174.24 8.48056 176.576 6.40056 180.16 6.40056ZM189.246 26.8486L190.558 23.2646C189.854 23.0086 189.15 22.2726 189.15 21.3766C189.15 20.2566 189.982 19.4246 191.102 19.4246C192.222 19.4246 193.054 20.2566 193.054 21.3766C193.054 21.6966 192.958 22.0166 192.798 22.3686L190.814 26.8486H189.246ZM1.21557 50.0006C2.52757 49.1046 4.54357 48.4006 6.71957 48.4006C10.8476 48.4006 13.4076 50.8006 13.4076 54.5126V64.9766H10.5276V62.4806C9.37557 64.4006 7.48757 65.3606 5.24757 65.3606C2.23957 65.3606 -0.00042963 63.3766 -0.00042963 60.6886C-0.00042963 57.8086 2.14357 56.2086 6.04757 55.6646L10.3036 55.0566V54.4486C10.3036 52.4326 8.89557 51.2166 6.52757 51.2166C4.38357 51.2166 2.43157 52.2086 1.21557 53.1046V50.0006ZM5.75957 62.7366C8.38357 62.7366 10.3676 60.5606 10.3676 58.2886V57.4566L6.52757 57.9366C4.28757 58.2246 3.03957 59.0886 3.03957 60.4966C3.03957 61.8726 4.15957 62.7366 5.75957 62.7366ZM21.6953 51.2166C22.6233 49.5206 24.2553 48.4006 26.9433 48.4006C30.6233 48.4006 33.2153 50.8966 33.2153 55.1846V64.9766H30.1113V55.3126C30.1113 52.6246 28.3833 51.2486 26.3033 51.2486C22.9433 51.2486 21.7593 54.3526 21.7593 56.7526V64.9766H18.6553V48.7846H21.6953V51.2166ZM50.2766 62.5766C49.3806 64.1446 47.0446 65.3606 44.8046 65.3606C40.4846 65.3606 37.1246 61.8086 37.1246 56.8806C37.1246 51.9526 40.4846 48.4006 44.8046 48.4006C47.0446 48.4006 49.2206 49.5846 50.1486 51.0246V42.3846H53.2526V64.9766H50.2766V62.5766ZM45.3166 62.5126C48.0046 62.5126 50.3406 60.2406 50.3406 56.8806C50.3406 53.4886 48.0046 51.2486 45.3166 51.2486C42.6286 51.2486 40.2606 53.5206 40.2606 56.8806C40.2606 60.2406 42.6286 62.5126 45.3166 62.5126ZM71.4881 48.4006C73.3441 48.4006 75.2961 48.9766 76.4481 49.9046V53.1046C75.0081 51.8886 73.4401 51.1846 71.6161 51.1846C69.5681 51.1846 68.6081 52.0486 68.6081 53.1366C68.6081 54.3206 69.7921 54.8966 71.9681 55.5366C74.5601 56.2726 77.2801 57.1686 77.2801 60.4006C77.2801 63.4406 74.9121 65.3606 71.2321 65.3606C69.1201 65.3606 67.0401 64.7206 65.5361 63.5046V60.0486C67.1041 61.6486 68.8001 62.5766 71.0081 62.5766C73.1841 62.5766 74.2721 61.6806 74.2721 60.4326C74.2721 59.1206 72.9921 58.6726 70.6561 57.9686C68.0961 57.1686 65.5681 56.2086 65.5681 53.2966C65.5681 50.4806 67.9041 48.4006 71.4881 48.4006ZM88.0621 48.4006C92.7021 48.4006 95.3901 51.7606 95.3901 55.9206C95.3901 56.5286 95.3261 57.1686 95.2301 57.6806H83.2941C83.6461 61.1046 86.1101 62.4806 88.8941 62.4806C90.9421 62.4806 92.9581 61.7446 94.3341 60.5286V63.7606C92.2541 65.1686 90.3661 65.3606 88.4461 65.3606C83.3261 65.3606 80.0301 61.6806 80.0301 56.9126C80.0301 52.1446 83.1981 48.4006 88.0621 48.4006ZM87.9981 51.1846C85.5981 51.1846 83.8701 52.6886 83.3901 55.1526H92.3181C92.0941 52.7526 90.4301 51.1846 87.9981 51.1846ZM99.4656 50.0006C100.778 49.1046 102.794 48.4006 104.97 48.4006C109.098 48.4006 111.658 50.8006 111.658 54.5126V64.9766H108.778V62.4806C107.626 64.4006 105.738 65.3606 103.498 65.3606C100.49 65.3606 98.2496 63.3766 98.2496 60.6886C98.2496 57.8086 100.394 56.2086 104.298 55.6646L108.554 55.0566V54.4486C108.554 52.4326 107.146 51.2166 104.778 51.2166C102.634 51.2166 100.682 52.2086 99.4656 53.1046V50.0006ZM104.01 62.7366C106.634 62.7366 108.618 60.5606 108.618 58.2886V57.4566L104.778 57.9366C102.538 58.2246 101.29 59.0886 101.29 60.4966C101.29 61.8726 102.41 62.7366 104.01 62.7366ZM119.945 64.9766L114.665 48.7846H117.897L121.577 60.7526L125.481 48.7846H128.489L132.393 60.7526L136.073 48.7846H139.305L134.025 64.9766H131.017L126.985 53.1046L122.953 64.9766H119.945ZM142.278 50.0006C143.59 49.1046 145.606 48.4006 147.782 48.4006C151.91 48.4006 154.47 50.8006 154.47 54.5126V64.9766H151.59V62.4806C150.438 64.4006 148.55 65.3606 146.31 65.3606C143.302 65.3606 141.062 63.3766 141.062 60.6886C141.062 57.8086 143.206 56.2086 147.11 55.6646L151.366 55.0566V54.4486C151.366 52.4326 149.958 51.2166 147.59 51.2166C145.446 51.2166 143.494 52.2086 142.278 53.1046V50.0006ZM146.822 62.7366C149.446 62.7366 151.43 60.5606 151.43 58.2886V57.4566L147.59 57.9366C145.35 58.2246 144.102 59.0886 144.102 60.4966C144.102 61.8726 145.222 62.7366 146.822 62.7366ZM167.786 61.9686V64.8166C167.178 65.1686 166.314 65.3606 165.194 65.3606C162.026 65.3606 160.138 63.4726 160.138 60.2086V51.3766H157.706V48.7846H160.234V44.9766L163.242 44.0166V48.7846H167.402V51.3766H163.242V59.8246C163.242 61.6486 164.074 62.4806 165.866 62.4806C166.218 62.4806 167.018 62.4166 167.786 61.9686ZM178.031 48.4006C182.671 48.4006 185.359 51.7606 185.359 55.9206C185.359 56.5286 185.295 57.1686 185.199 57.6806H173.263C173.615 61.1046 176.079 62.4806 178.863 62.4806C180.911 62.4806 182.927 61.7446 184.303 60.5286V63.7606C182.223 65.1686 180.335 65.3606 178.415 65.3606C173.295 65.3606 169.999 61.6806 169.999 56.9126C169.999 52.1446 173.167 48.4006 178.031 48.4006ZM177.967 51.1846C175.567 51.1846 173.839 52.6886 173.359 55.1526H182.287C182.063 52.7526 180.399 51.1846 177.967 51.1846ZM192.57 48.7846V51.6326C193.37 49.6486 195.034 48.4006 197.21 48.4006C197.594 48.4006 198.01 48.4646 198.202 48.5286V51.5686C198.074 51.5366 197.754 51.5046 197.562 51.5046C194.586 51.5046 192.634 53.6486 192.634 56.9446V64.9766H189.53V48.7846H192.57Z" fill="white"/>
</svg>
