<svg width="202" height="66" viewBox="0 0 202 66" fill="none" xmlns="http://www.w3.org/2000/svg">
<path d="M3.71162 22.9761V0.384073H11.5836C18.1756 0.384073 22.9756 5.37607 22.9756 11.6481C22.9756 18.0481 18.1756 22.9761 11.5836 22.9761H3.71162ZM6.87962 20.0961H11.2956C15.9036 20.0961 19.6796 16.5761 19.6796 11.6481C19.6796 6.81607 15.9356 3.26407 11.3276 3.26407H6.87962V20.0961ZM27.0754 8.00007C28.3874 7.10407 30.4034 6.40007 32.5794 6.40007C36.7074 6.40007 39.2674 8.80007 39.2674 12.5121V22.9761H36.3874V20.4801C35.2354 22.4001 33.3474 23.3601 31.1074 23.3601C28.0994 23.3601 25.8594 21.3761 25.8594 18.6881C25.8594 15.8081 28.0034 14.2081 31.9074 13.6641L36.1634 13.0561V12.4481C36.1634 10.4321 34.7554 9.21607 32.3874 9.21607C30.2434 9.21607 28.2914 10.2081 27.0754 11.1041V8.00007ZM31.6194 20.7361C34.2434 20.7361 36.2274 18.5601 36.2274 16.2881V15.4561L32.3874 15.9361C30.1474 16.2241 28.8994 17.0881 28.8994 18.4961C28.8994 19.8721 30.0194 20.7361 31.6194 20.7361ZM44.5151 6.78407H47.5551V9.21607C48.4831 7.52007 50.1151 6.40007 52.8031 6.40007C55.3631 6.40007 57.3791 7.61607 58.4031 9.76007C59.9071 7.45607 61.5711 6.40007 64.2591 6.40007C67.9391 6.40007 70.5311 8.89607 70.5311 13.1841V22.9761H67.4271V13.3121C67.4271 10.6241 65.6991 9.24807 63.6191 9.24807C60.2591 9.24807 59.0751 12.3521 59.0751 14.7521V22.9761H55.9711V13.3121C55.9711 10.6241 54.2431 9.24807 52.1631 9.24807C48.8031 9.24807 47.6191 12.3521 47.6191 14.7521V22.9761H44.5151V6.78407ZM80.5979 6.40007C82.4539 6.40007 84.4059 6.97607 85.5579 7.90407V11.1041C84.1179 9.88807 82.5499 9.18407 80.7259 9.18407C78.6779 9.18407 77.7179 10.0481 77.7179 11.1361C77.7179 12.3201 78.9019 12.8961 81.0779 13.5361C83.6699 14.2721 86.3899 15.1681 86.3899 18.4001C86.3899 21.4401 84.0219 23.3601 80.3419 23.3601C78.2299 23.3601 76.1499 22.7201 74.6459 21.5041V18.0481C76.2139 19.6481 77.9099 20.5761 80.1179 20.5761C82.2939 20.5761 83.3819 19.6801 83.3819 18.4321C83.3819 17.1201 82.1019 16.6721 79.7659 15.9681C77.2059 15.1681 74.6779 14.2081 74.6779 11.2961C74.6779 8.48007 77.0139 6.40007 80.5979 6.40007ZM89.6839 26.8481L90.9959 23.2641C90.2919 23.0081 89.5879 22.2721 89.5879 21.3761C89.5879 20.2561 90.4199 19.4241 91.5399 19.4241C92.6599 19.4241 93.4919 20.2561 93.4919 21.3761C93.4919 21.6961 93.3959 22.0161 93.2359 22.3681L91.2519 26.8481H89.6839ZM105.399 22.9761V0.384073H113.335C117.975 0.384073 120.983 3.13607 120.983 7.16807C120.983 10.1441 118.967 12.8001 115.799 13.5681L122.263 22.9761H118.519L112.375 14.0481H108.567V22.9761H105.399ZM108.567 11.2321H113.335C116.119 11.2321 117.655 9.60007 117.655 7.20007C117.655 4.86407 116.119 3.26407 113.335 3.26407H108.567V11.2321ZM127.552 7.24792e-05C128.608 7.24792e-05 129.504 0.864073 129.504 1.95207C129.504 3.04007 128.608 3.93607 127.552 3.93607C126.496 3.93607 125.6 3.04007 125.6 1.95207C125.6 0.864073 126.496 7.24792e-05 127.552 7.24792e-05ZM125.984 22.9761V6.78407H129.088V22.9761H125.984ZM141.586 22.9761H138.77L132.146 6.78407H135.474L140.178 18.8161L144.882 6.78407H148.21L141.586 22.9761ZM157.766 6.40007C162.406 6.40007 165.094 9.76007 165.094 13.9201C165.094 14.5281 165.03 15.1681 164.934 15.6801H152.998C153.35 19.1041 155.814 20.4801 158.598 20.4801C160.646 20.4801 162.662 19.7441 164.038 18.5281V21.7601C161.958 23.1681 160.07 23.3601 158.15 23.3601C153.03 23.3601 149.734 19.6801 149.734 14.9121C149.734 10.1441 152.902 6.40007 157.766 6.40007ZM157.702 9.18407C155.302 9.18407 153.574 10.6881 153.094 13.1521H162.022C161.798 10.7521 160.134 9.18407 157.702 9.18407ZM172.305 6.78407V9.63207C173.105 7.64807 174.769 6.40007 176.945 6.40007C177.329 6.40007 177.745 6.46407 177.937 6.52807V9.56807C177.809 9.53607 177.489 9.50407 177.297 9.50407C174.321 9.50407 172.369 11.6481 172.369 14.9441V22.9761H169.265V6.78407H172.305ZM186.067 6.40007C187.923 6.40007 189.875 6.97607 191.027 7.90407V11.1041C189.587 9.88807 188.019 9.18407 186.195 9.18407C184.147 9.18407 183.187 10.0481 183.187 11.1361C183.187 12.3201 184.371 12.8961 186.547 13.5361C189.139 14.2721 191.859 15.1681 191.859 18.4001C191.859 21.4401 189.491 23.3601 185.811 23.3601C183.699 23.3601 181.619 22.7201 180.115 21.5041V18.0481C181.683 19.6481 183.379 20.5761 185.587 20.5761C187.763 20.5761 188.851 19.6801 188.851 18.4321C188.851 17.1201 187.571 16.6721 185.235 15.9681C182.675 15.1681 180.147 14.2081 180.147 11.2961C180.147 8.48007 182.483 6.40007 186.067 6.40007ZM195.153 26.8481L196.465 23.2641C195.761 23.0081 195.057 22.2721 195.057 21.3761C195.057 20.2561 195.889 19.4241 197.009 19.4241C198.129 19.4241 198.961 20.2561 198.961 21.3761C198.961 21.6961 198.865 22.0161 198.705 22.3681L196.721 26.8481H195.153ZM1.216 50.0001C2.528 49.1041 4.544 48.4001 6.72 48.4001C10.848 48.4001 13.408 50.8001 13.408 54.5121V64.9761H10.528V62.4801C9.376 64.4001 7.488 65.3601 5.248 65.3601C2.24 65.3601 -2.38419e-06 63.3761 -2.38419e-06 60.6881C-2.38419e-06 57.8081 2.144 56.2081 6.048 55.6641L10.304 55.0561V54.4481C10.304 52.4321 8.896 51.2161 6.528 51.2161C4.384 51.2161 2.432 52.2081 1.216 53.1041V50.0001ZM5.76 62.7361C8.384 62.7361 10.368 60.5601 10.368 58.2881V57.4561L6.528 57.9361C4.288 58.2241 3.04 59.0881 3.04 60.4961C3.04 61.8721 4.16 62.7361 5.76 62.7361ZM21.6957 51.2161C22.6237 49.5201 24.2557 48.4001 26.9437 48.4001C30.6237 48.4001 33.2157 50.8961 33.2157 55.1841V64.9761H30.1117V55.3121C30.1117 52.6241 28.3837 51.2481 26.3037 51.2481C22.9437 51.2481 21.7597 54.3521 21.7597 56.7521V64.9761H18.6557V48.7841H21.6957V51.2161ZM50.277 62.5761C49.381 64.1441 47.045 65.3601 44.805 65.3601C40.485 65.3601 37.125 61.8081 37.125 56.8801C37.125 51.9521 40.485 48.4001 44.805 48.4001C47.045 48.4001 49.221 49.5841 50.149 51.0241V42.3841H53.253V64.9761H50.277V62.5761ZM45.317 62.5121C48.005 62.5121 50.341 60.2401 50.341 56.8801C50.341 53.4881 48.005 51.2481 45.317 51.2481C42.629 51.2481 40.261 53.5201 40.261 56.8801C40.261 60.2401 42.629 62.5121 45.317 62.5121ZM73.3445 42.0001C75.5205 42.0001 77.5045 42.6081 78.9125 43.4401V46.7361C77.3445 45.6481 75.2645 44.9761 73.4405 44.9761C71.1365 44.9761 69.2485 46.0321 69.2485 48.0481C69.2485 49.8721 70.7525 50.7681 73.7285 52.0161C77.0885 53.4561 80.1285 54.8321 80.1285 58.7041C80.1285 62.7681 76.8325 65.3281 72.2565 65.3281C69.6645 65.3281 67.2965 64.4961 65.7925 63.4401V59.8561C67.4245 61.2641 69.8245 62.3521 72.1285 62.3521C74.6245 62.3521 76.7045 61.0401 76.7045 58.8321C76.7045 56.8481 74.9765 55.9841 71.7445 54.5761C68.8005 53.3281 65.8885 51.9201 65.8885 48.2401C65.8885 44.4001 69.0245 42.0001 73.3445 42.0001ZM91.0312 48.4001C95.6712 48.4001 98.3592 51.7601 98.3592 55.9201C98.3592 56.5281 98.2952 57.1681 98.1992 57.6801H86.2632C86.6152 61.1041 89.0792 62.4801 91.8632 62.4801C93.9112 62.4801 95.9272 61.7441 97.3032 60.5281V63.7601C95.2232 65.1681 93.3352 65.3601 91.4152 65.3601C86.2952 65.3601 82.9992 61.6801 82.9992 56.9121C82.9992 52.1441 86.1672 48.4001 91.0312 48.4001ZM90.9672 51.1841C88.5672 51.1841 86.8392 52.6881 86.3592 55.1521H95.2872C95.0632 52.7521 93.3992 51.1841 90.9672 51.1841ZM102.435 50.0001C103.747 49.1041 105.763 48.4001 107.939 48.4001C112.067 48.4001 114.627 50.8001 114.627 54.5121V64.9761H111.747V62.4801C110.595 64.4001 108.707 65.3601 106.467 65.3601C103.459 65.3601 101.219 63.3761 101.219 60.6881C101.219 57.8081 103.363 56.2081 107.267 55.6641L111.523 55.0561V54.4481C111.523 52.4321 110.115 51.2161 107.747 51.2161C105.603 51.2161 103.651 52.2081 102.435 53.1041V50.0001ZM106.979 62.7361C109.603 62.7361 111.587 60.5601 111.587 58.2881V57.4561L107.747 57.9361C105.507 58.2241 104.259 59.0881 104.259 60.4961C104.259 61.8721 105.379 62.7361 106.979 62.7361ZM122.914 64.9761L117.634 48.7841H120.866L124.546 60.7521L128.45 48.7841H131.458L135.362 60.7521L139.042 48.7841H142.274L136.994 64.9761H133.986L129.954 53.1041L125.922 64.9761H122.914ZM145.247 50.0001C146.559 49.1041 148.575 48.4001 150.751 48.4001C154.879 48.4001 157.439 50.8001 157.439 54.5121V64.9761H154.559V62.4801C153.407 64.4001 151.519 65.3601 149.279 65.3601C146.271 65.3601 144.031 63.3761 144.031 60.6881C144.031 57.8081 146.175 56.2081 150.079 55.6641L154.335 55.0561V54.4481C154.335 52.4321 152.927 51.2161 150.559 51.2161C148.415 51.2161 146.463 52.2081 145.247 53.1041V50.0001ZM149.791 62.7361C152.415 62.7361 154.399 60.5601 154.399 58.2881V57.4561L150.559 57.9361C148.319 58.2241 147.071 59.0881 147.071 60.4961C147.071 61.8721 148.191 62.7361 149.791 62.7361ZM170.755 61.9681V64.8161C170.147 65.1681 169.283 65.3601 168.163 65.3601C164.995 65.3601 163.107 63.4721 163.107 60.2081V51.3761H160.675V48.7841H163.203V44.9761L166.211 44.0161V48.7841H170.371V51.3761H166.211V59.8241C166.211 61.6481 167.043 62.4801 168.835 62.4801C169.187 62.4801 169.987 62.4161 170.755 61.9681ZM181 48.4001C185.64 48.4001 188.328 51.7601 188.328 55.9201C188.328 56.5281 188.264 57.1681 188.168 57.6801H176.232C176.584 61.1041 179.048 62.4801 181.832 62.4801C183.88 62.4801 185.896 61.7441 187.272 60.5281V63.7601C185.192 65.1681 183.304 65.3601 181.384 65.3601C176.264 65.3601 172.968 61.6801 172.968 56.9121C172.968 52.1441 176.136 48.4001 181 48.4001ZM180.936 51.1841C178.536 51.1841 176.808 52.6881 176.328 55.1521H185.256C185.032 52.7521 183.368 51.1841 180.936 51.1841ZM195.539 48.7841V51.6321C196.339 49.6481 198.003 48.4001 200.179 48.4001C200.563 48.4001 200.979 48.4641 201.171 48.5281V51.5681C201.043 51.5361 200.723 51.5041 200.531 51.5041C197.555 51.5041 195.603 53.6481 195.603 56.9441V64.9761H192.499V48.7841H195.539Z" fill="white"/>
</svg>
