<svg width="184" height="24" viewBox="0 0 184 24" fill="none" xmlns="http://www.w3.org/2000/svg">
<path d="M-1.43051e-06 22.9761V0.384073H7.872C14.464 0.384073 19.264 5.37607 19.264 11.6481C19.264 18.0481 14.464 22.9761 7.872 22.9761H-1.43051e-06ZM3.168 20.0961H7.584C12.192 20.0961 15.968 16.5761 15.968 11.6481C15.968 6.81607 12.224 3.26407 7.616 3.26407H3.168V20.0961ZM30.304 6.40007C34.944 6.40007 37.632 9.76007 37.632 13.9201C37.632 14.5281 37.568 15.1681 37.472 15.6801H25.536C25.888 19.1041 28.352 20.4801 31.136 20.4801C33.184 20.4801 35.2 19.7441 36.576 18.5281V21.7601C34.496 23.1681 32.608 23.3601 30.688 23.3601C25.568 23.3601 22.272 19.6801 22.272 14.9121C22.272 10.1441 25.44 6.40007 30.304 6.40007ZM30.24 9.18407C27.84 9.18407 26.112 10.6881 25.632 13.1521H34.56C34.336 10.7521 32.672 9.18407 30.24 9.18407ZM46.6675 6.40007C48.5235 6.40007 50.4755 6.97607 51.6275 7.90407V11.1041C50.1875 9.88807 48.6195 9.18407 46.7955 9.18407C44.7475 9.18407 43.7875 10.0481 43.7875 11.1361C43.7875 12.3201 44.9715 12.8961 47.1475 13.5361C49.7395 14.2721 52.4595 15.1681 52.4595 18.4001C52.4595 21.4401 50.0915 23.3601 46.4115 23.3601C44.2995 23.3601 42.2195 22.7201 40.7155 21.5041V18.0481C42.2835 19.6481 43.9795 20.5761 46.1875 20.5761C48.3635 20.5761 49.4515 19.6801 49.4515 18.4321C49.4515 17.1201 48.1715 16.6721 45.8355 15.9681C43.2755 15.1681 40.7475 14.2081 40.7475 11.2961C40.7475 8.48007 43.0835 6.40007 46.6675 6.40007ZM56.4575 8.00007C57.7695 7.10407 59.7855 6.40007 61.9615 6.40007C66.0895 6.40007 68.6495 8.80007 68.6495 12.5121V22.9761H65.7695V20.4801C64.6175 22.4001 62.7295 23.3601 60.4895 23.3601C57.4815 23.3601 55.2415 21.3761 55.2415 18.6881C55.2415 15.8081 57.3855 14.2081 61.2895 13.6641L65.5455 13.0561V12.4481C65.5455 10.4321 64.1375 9.21607 61.7695 9.21607C59.6255 9.21607 57.6735 10.2081 56.4575 11.1041V8.00007ZM61.0015 20.7361C63.6255 20.7361 65.6095 18.5601 65.6095 16.2881V15.4561L61.7695 15.9361C59.5295 16.2241 58.2815 17.0881 58.2815 18.4961C58.2815 19.8721 59.4015 20.7361 61.0015 20.7361ZM73.7052 18.9441V0.384073H76.8092V18.4001C76.8092 19.6161 77.0972 20.5121 78.3132 20.5121C78.6012 20.5121 78.9532 20.4801 79.3692 20.3201V23.1041C78.8892 23.2961 78.4092 23.3601 77.9292 23.3601C75.7852 23.3601 73.7052 22.3681 73.7052 18.9441ZM84.7465 7.24792e-05C85.8025 7.24792e-05 86.6985 0.864073 86.6985 1.95207C86.6985 3.04007 85.8025 3.93607 84.7465 3.93607C83.6905 3.93607 82.7945 3.04007 82.7945 1.95207C82.7945 0.864073 83.6905 7.24792e-05 84.7465 7.24792e-05ZM83.1785 22.9761V6.78407H86.2825V22.9761H83.1785ZM94.8122 9.21607C95.7402 7.52007 97.3722 6.40007 100.06 6.40007C103.74 6.40007 106.332 8.89607 106.332 13.1841V22.9761H103.228V13.3121C103.228 10.6241 101.5 9.24807 99.4202 9.24807C96.0602 9.24807 94.8762 12.3521 94.8762 14.7521V22.9761H91.7722V6.78407H94.8122V9.21607ZM111.457 8.00007C112.769 7.10407 114.785 6.40007 116.961 6.40007C121.089 6.40007 123.649 8.80007 123.649 12.5121V22.9761H120.769V20.4801C119.617 22.4001 117.729 23.3601 115.489 23.3601C112.481 23.3601 110.241 21.3761 110.241 18.6881C110.241 15.8081 112.385 14.2081 116.289 13.6641L120.545 13.0561V12.4481C120.545 10.4321 119.137 9.21607 116.769 9.21607C114.625 9.21607 112.673 10.2081 111.457 11.1041V8.00007ZM116.001 20.7361C118.625 20.7361 120.609 18.5601 120.609 16.2881V15.4561L116.769 15.9361C114.529 16.2241 113.281 17.0881 113.281 18.4961C113.281 19.8721 114.401 20.7361 116.001 20.7361ZM136.965 19.9681V22.8161C136.357 23.1681 135.493 23.3601 134.373 23.3601C131.205 23.3601 129.317 21.4721 129.317 18.2081V9.37607H126.885V6.78407H129.413V2.97607L132.421 2.01607V6.78407H136.581V9.37607H132.421V17.8241C132.421 19.6481 133.253 20.4801 135.045 20.4801C135.397 20.4801 136.197 20.4161 136.965 19.9681ZM142.246 7.24792e-05C143.302 7.24792e-05 144.198 0.864073 144.198 1.95207C144.198 3.04007 143.302 3.93607 142.246 3.93607C141.19 3.93607 140.294 3.04007 140.294 1.95207C140.294 0.864073 141.19 7.24792e-05 142.246 7.24792e-05ZM140.678 22.9761V6.78407H143.782V22.9761H140.678ZM156.312 6.40007C161.112 6.40007 164.696 10.1121 164.696 14.8801C164.696 19.6481 161.112 23.3601 156.312 23.3601C151.512 23.3601 147.928 19.6481 147.928 14.8801C147.928 10.1121 151.512 6.40007 156.312 6.40007ZM156.312 9.34407C153.24 9.34407 151.096 11.8721 151.096 14.8801C151.096 17.8881 153.24 20.4161 156.312 20.4161C159.384 20.4161 161.528 17.8881 161.528 14.8801C161.528 11.8721 159.384 9.34407 156.312 9.34407ZM171.906 9.21607C172.834 7.52007 174.466 6.40007 177.154 6.40007C180.834 6.40007 183.426 8.89607 183.426 13.1841V22.9761H180.322V13.3121C180.322 10.6241 178.594 9.24807 176.514 9.24807C173.154 9.24807 171.97 12.3521 171.97 14.7521V22.9761H168.866V6.78407H171.906V9.21607Z" fill="white"/>
</svg>
