<svg width="219" height="25" viewBox="0 0 219 25" fill="none" xmlns="http://www.w3.org/2000/svg">
<path d="M6.19343 19.1313H-1.83827e-05V-0.000151771H6.3896C8.26414 -0.000151771 9.874 0.382852 11.2192 1.14886C12.5644 1.90864 13.5951 3.0016 14.3112 4.42774C15.0337 5.84766 15.3949 7.55094 15.3949 9.53757C15.3949 11.5304 15.0305 13.2431 14.3019 14.6754C13.5795 16.1078 12.5332 17.2101 11.1631 17.9823C9.79304 18.7483 8.13647 19.1313 6.19343 19.1313ZM2.88652 16.6091H6.03462C7.49191 16.6091 8.70319 16.3351 9.66849 15.7871C10.6338 15.2328 11.3562 14.4325 11.8357 13.3863C12.3153 12.3338 12.555 11.0509 12.555 9.53757C12.555 8.0367 12.3153 6.76313 11.8357 5.71688C11.3624 4.67062 10.6556 3.87659 9.7152 3.33478C8.77481 2.79297 7.60712 2.52207 6.21211 2.52207H2.88652V16.6091ZM18.7602 19.1313V4.78272H21.4599V7.06206H21.6093C21.8709 6.28983 22.3317 5.68263 22.9919 5.24046C23.6582 4.79206 24.4118 4.56787 25.2525 4.56787C25.4269 4.56787 25.6324 4.57409 25.8691 4.58655C26.112 4.59901 26.3019 4.61457 26.4389 4.63326V7.30494C26.3268 7.2738 26.1275 7.23955 25.8411 7.20219C25.5546 7.15859 25.2681 7.13679 24.9816 7.13679C24.3215 7.13679 23.733 7.27692 23.2161 7.55716C22.7054 7.83118 22.3006 8.21419 22.0017 8.70617C21.7027 9.19194 21.5533 9.7462 21.5533 10.369V19.1313H18.7602ZM32.9033 19.449C31.994 19.449 31.172 19.2808 30.4371 18.9445C29.7022 18.602 29.1199 18.1069 28.6902 17.4592C28.2667 16.8115 28.055 16.0175 28.055 15.0771C28.055 14.2675 28.2107 13.6011 28.5221 13.078C28.8335 12.5549 29.2538 12.1408 29.7832 11.8356C30.3125 11.5304 30.9042 11.3 31.5581 11.1443C32.212 10.9886 32.8784 10.8703 33.5572 10.7893C34.4166 10.6897 35.1141 10.6087 35.6497 10.5465C36.1853 10.478 36.5745 10.369 36.8174 10.2195C37.0603 10.07 37.1817 9.82716 37.1817 9.49087V9.42547C37.1817 8.60965 36.9513 7.97753 36.4904 7.52914C36.0358 7.08074 35.357 6.85655 34.454 6.85655C33.5136 6.85655 32.7725 7.06518 32.2307 7.48243C31.6951 7.89346 31.3245 8.3512 31.119 8.85564L28.4941 8.25778C28.8054 7.3859 29.2601 6.68217 29.8579 6.14659C30.462 5.60478 31.1564 5.21243 31.9411 4.96955C32.7258 4.72045 33.5509 4.59589 34.4166 4.59589C34.9895 4.59589 35.5967 4.6644 36.2382 4.80141C36.8859 4.93219 37.49 5.17507 38.0505 5.53005C38.6172 5.88503 39.0811 6.39258 39.4423 7.05272C39.8036 7.70663 39.9842 8.55671 39.9842 9.60296V19.1313H37.2564V17.1696H37.1443C36.9637 17.5308 36.6928 17.8858 36.3316 18.2346C35.9704 18.5833 35.5064 18.8729 34.9397 19.1033C34.373 19.3337 33.6942 19.449 32.9033 19.449ZM33.5105 17.207C34.2827 17.207 34.9428 17.0544 35.4909 16.7493C36.0451 16.4441 36.4655 16.0455 36.752 15.5535C37.0447 15.0553 37.191 14.5228 37.191 13.9561V12.1065C37.0914 12.2061 36.8983 12.2996 36.6119 12.3867C36.3316 12.4677 36.0109 12.5393 35.6497 12.6016C35.2885 12.6577 34.9366 12.7106 34.5941 12.7604C34.2516 12.804 33.9651 12.8414 33.7347 12.8725C33.1929 12.941 32.6977 13.0562 32.2494 13.2181C31.8072 13.3801 31.4522 13.6136 31.1844 13.9188C30.9229 14.2177 30.7921 14.6163 30.7921 15.1145C30.7921 15.8058 31.0474 16.3289 31.5581 16.6839C32.0688 17.0326 32.7195 17.207 33.5105 17.207ZM49.7204 24.811C48.5807 24.811 47.5999 24.6615 46.7778 24.3626C45.962 24.0637 45.2956 23.6682 44.7787 23.1762C44.2618 22.6843 43.8757 22.1456 43.6204 21.5602L46.0211 20.5699C46.1893 20.844 46.4135 21.1336 46.6937 21.4387C46.9802 21.7501 47.3663 22.0148 47.8521 22.2327C48.3441 22.4507 48.9762 22.5597 49.7484 22.5597C50.8071 22.5597 51.6821 22.3012 52.3734 21.7843C53.0647 21.2737 53.4103 20.4578 53.4103 19.3369V16.5157H53.2328C53.0647 16.8209 52.8218 17.1603 52.5042 17.5339C52.1928 17.9076 51.7631 18.2314 51.215 18.5055C50.667 18.7795 49.9539 18.9165 49.0758 18.9165C47.9424 18.9165 46.921 18.6518 46.0118 18.1225C45.1088 17.5869 44.3926 16.7991 43.8632 15.759C43.3401 14.7128 43.0786 13.4268 43.0786 11.901C43.0786 10.3752 43.337 9.06738 43.8539 7.97753C44.377 6.88769 45.0932 6.05317 46.0025 5.474C46.9117 4.88859 47.9424 4.59589 49.0945 4.59589C49.9851 4.59589 50.7044 4.74536 51.2524 5.04429C51.8004 5.33699 52.227 5.67951 52.5322 6.07186C52.8436 6.4642 53.0834 6.80984 53.2515 7.10877H53.457V4.78272H56.1941V19.449C56.1941 20.682 55.9076 21.694 55.3347 22.485C54.7617 23.2759 53.9864 23.8613 53.0086 24.2412C52.0371 24.6211 50.941 24.811 49.7204 24.811ZM49.6924 16.5998C50.4957 16.5998 51.1746 16.413 51.7288 16.0393C52.2893 15.6594 52.7128 15.1176 52.9993 14.4139C53.292 13.7039 53.4383 12.8538 53.4383 11.8636C53.4383 10.8983 53.2951 10.0482 53.0086 9.31338C52.7221 8.57851 52.3018 8.00556 51.7475 7.59453C51.1932 7.17727 50.5082 6.96865 49.6924 6.96865C48.8516 6.96865 48.151 7.18662 47.5905 7.62256C47.03 8.05227 46.6065 8.63767 46.3201 9.37877C46.0398 10.1199 45.8997 10.9481 45.8997 11.8636C45.8997 12.804 46.0429 13.6292 46.3294 14.3391C46.6159 15.0491 47.0394 15.6034 47.5999 16.0019C48.1666 16.4005 48.8641 16.5998 49.6924 16.5998ZM71.0775 19.449C70.1683 19.449 69.3462 19.2808 68.6113 18.9445C67.8765 18.602 67.2942 18.1069 66.8645 17.4592C66.441 16.8115 66.2293 16.0175 66.2293 15.0771C66.2293 14.2675 66.3849 13.6011 66.6963 13.078C67.0077 12.5549 67.4281 12.1408 67.9574 11.8356C68.4868 11.5304 69.0784 11.3 69.7323 11.1443C70.3862 10.9886 71.0526 10.8703 71.7314 10.7893C72.5909 10.6897 73.2884 10.6087 73.8239 10.5465C74.3595 10.478 74.7487 10.369 74.9916 10.2195C75.2345 10.07 75.3559 9.82716 75.3559 9.49087V9.42547C75.3559 8.60965 75.1255 7.97753 74.6647 7.52914C74.2101 7.08074 73.5312 6.85655 72.6282 6.85655C71.6878 6.85655 70.9467 7.06518 70.4049 7.48243C69.8693 7.89346 69.4988 8.3512 69.2933 8.85564L66.6683 8.25778C66.9797 7.3859 67.4343 6.68217 68.0322 6.14659C68.6363 5.60478 69.3306 5.21243 70.1153 4.96955C70.9 4.72045 71.7252 4.59589 72.5909 4.59589C73.1638 4.59589 73.771 4.6644 74.4125 4.80141C75.0601 4.93219 75.6642 5.17507 76.2247 5.53005C76.7914 5.88503 77.2554 6.39258 77.6166 7.05272C77.9778 7.70663 78.1584 8.55671 78.1584 9.60296V19.1313H75.4307V17.1696H75.3186C75.138 17.5308 74.8671 17.8858 74.5059 18.2346C74.1447 18.5833 73.6807 18.8729 73.114 19.1033C72.5473 19.3337 71.8684 19.449 71.0775 19.449ZM71.6847 17.207C72.457 17.207 73.1171 17.0544 73.6651 16.7493C74.2194 16.4441 74.6398 16.0455 74.9262 15.5535C75.2189 15.0553 75.3653 14.5228 75.3653 13.9561V12.1065C75.2656 12.2061 75.0726 12.2996 74.7861 12.3867C74.5059 12.4677 74.1851 12.5393 73.8239 12.6016C73.4627 12.6577 73.1109 12.7106 72.7683 12.7604C72.4258 12.804 72.1393 12.8414 71.9089 12.8725C71.3671 12.941 70.872 13.0562 70.4236 13.2181C69.9814 13.3801 69.6265 13.6136 69.3587 13.9188C69.0971 14.2177 68.9663 14.6163 68.9663 15.1145C68.9663 15.8058 69.2217 16.3289 69.7323 16.6839C70.243 17.0326 70.8938 17.207 71.6847 17.207ZM84.6718 10.6119V19.1313H81.8787V4.78272H84.5597V7.11811H84.7372C85.0673 6.35833 85.5842 5.74802 86.2879 5.28717C86.9979 4.82632 87.8915 4.59589 88.9689 4.59589C89.9467 4.59589 90.803 4.80141 91.5379 5.21244C92.2727 5.61724 92.8426 6.22132 93.2474 7.0247C93.6522 7.82807 93.8546 8.82139 93.8546 10.0047V19.1313H91.0614V10.3409C91.0614 9.30092 90.7905 8.48821 90.2487 7.9028C89.7069 7.31117 88.9627 7.01535 88.0161 7.01535C87.3684 7.01535 86.7923 7.15548 86.2879 7.43572C85.7897 7.71597 85.3942 8.127 85.1015 8.66881C84.8151 9.20439 84.6718 9.85207 84.6718 10.6119ZM108.353 8.28581L105.821 8.7342C105.715 8.41036 105.547 8.10209 105.317 7.80939C105.092 7.51668 104.787 7.27692 104.401 7.09009C104.015 6.90326 103.532 6.80984 102.953 6.80984C102.162 6.80984 101.502 6.98733 100.973 7.34231C100.443 7.69106 100.179 8.14257 100.179 8.69683C100.179 9.17637 100.356 9.56248 100.711 9.85519C101.066 10.1479 101.639 10.3877 102.43 10.5745L104.709 11.0976C106.03 11.4028 107.014 11.873 107.661 12.5082C108.309 13.1434 108.633 13.9686 108.633 14.9837C108.633 15.8431 108.384 16.6091 107.886 17.2817C107.394 17.9481 106.705 18.4712 105.821 18.8511C104.943 19.231 103.925 19.4209 102.766 19.4209C101.16 19.4209 99.8487 19.0784 98.8336 18.3934C97.8185 17.7021 97.1957 16.7212 96.9653 15.4508L99.665 15.0397C99.8332 15.7435 100.179 16.2759 100.702 16.6372C101.225 16.9921 101.907 17.1696 102.748 17.1696C103.663 17.1696 104.395 16.9797 104.943 16.5998C105.491 16.2137 105.765 15.7435 105.765 15.1892C105.765 14.7408 105.597 14.364 105.261 14.0589C104.931 13.7537 104.423 13.5233 103.738 13.3676L101.309 12.8351C99.9702 12.53 98.98 12.0442 98.3385 11.3779C97.7033 10.7115 97.3857 9.86764 97.3857 8.8463C97.3857 7.99933 97.6223 7.25823 98.0956 6.62301C98.5689 5.98778 99.2228 5.49268 100.057 5.1377C100.892 4.7765 101.848 4.59589 102.925 4.59589C104.476 4.59589 105.697 4.93219 106.587 5.60478C107.478 6.27114 108.066 7.16482 108.353 8.28581ZM114.815 19.1313L110.592 4.78272H113.479L116.291 15.32H116.431L119.252 4.78272H122.138L124.941 15.2733H125.081L127.874 4.78272H130.761L126.548 19.1313H123.698L120.784 8.77157H120.569L117.654 19.1313H114.815ZM139.159 19.4209C137.745 19.4209 136.528 19.1189 135.506 18.5148C134.491 17.9045 133.706 17.0482 133.152 15.9459C132.604 14.8373 132.33 13.5389 132.33 12.0505C132.33 10.5807 132.604 9.28535 133.152 8.16436C133.706 7.04338 134.479 6.16839 135.469 5.53939C136.465 4.91039 137.63 4.59589 138.963 4.59589C139.772 4.59589 140.557 4.72979 141.317 4.99758C142.076 5.26537 142.758 5.68574 143.362 6.25869C143.967 6.83164 144.443 7.57585 144.792 8.49132C145.14 9.40056 145.315 10.506 145.315 11.8076V12.7978H133.909V10.7053H142.578C142.578 9.9704 142.428 9.3196 142.129 8.75288C141.83 8.17993 141.41 7.72843 140.868 7.39836C140.333 7.06829 139.704 6.90326 138.981 6.90326C138.197 6.90326 137.512 7.09631 136.926 7.48243C136.347 7.86232 135.899 8.36054 135.581 8.97708C135.27 9.58739 135.114 10.2506 135.114 10.9668V12.6016C135.114 13.5607 135.282 14.3765 135.618 15.0491C135.961 15.7217 136.437 16.2355 137.048 16.5904C137.658 16.9392 138.371 17.1136 139.187 17.1136C139.716 17.1136 140.199 17.0388 140.635 16.8894C141.071 16.7337 141.447 16.5033 141.765 16.1981C142.083 15.8929 142.326 15.5162 142.494 15.0678L145.137 15.5442C144.926 16.3227 144.546 17.0046 143.998 17.59C143.456 18.1692 142.774 18.6207 141.952 18.9445C141.136 19.2621 140.205 19.4209 139.159 19.4209ZM148.414 19.1313V4.78272H151.114V7.06206H151.263C151.525 6.28983 151.985 5.68263 152.646 5.24046C153.312 4.79206 154.066 4.56787 154.906 4.56787C155.081 4.56787 155.286 4.57409 155.523 4.58655C155.766 4.59901 155.956 4.61457 156.093 4.63326V7.30494C155.981 7.2738 155.781 7.23955 155.495 7.20219C155.208 7.15859 154.922 7.13679 154.635 7.13679C153.975 7.13679 153.387 7.27692 152.87 7.55716C152.359 7.83118 151.954 8.21419 151.655 8.70617C151.356 9.19194 151.207 9.7462 151.207 10.369V19.1313H148.414ZM168.265 10.6119V19.1313H165.472V-0.000151771H168.227V7.11811H168.405C168.741 6.34588 169.255 5.73245 169.946 5.27782C170.637 4.8232 171.54 4.59589 172.655 4.59589C173.639 4.59589 174.499 4.79829 175.233 5.20309C175.975 5.60789 176.548 6.21198 176.952 7.01535C177.363 7.8125 177.569 8.80893 177.569 10.0047V19.1313H174.776V10.3409C174.776 9.28847 174.505 8.47264 173.963 7.89346C173.421 7.30806 172.668 7.01535 171.702 7.01535C171.042 7.01535 170.451 7.15548 169.927 7.43572C169.411 7.71597 169.003 8.127 168.704 8.66881C168.411 9.20439 168.265 9.85207 168.265 10.6119ZM187.48 19.4209C186.067 19.4209 184.849 19.1189 183.828 18.5148C182.813 17.9045 182.028 17.0482 181.474 15.9459C180.926 14.8373 180.652 13.5389 180.652 12.0505C180.652 10.5807 180.926 9.28535 181.474 8.16436C182.028 7.04338 182.8 6.16839 183.79 5.53939C184.787 4.91039 185.951 4.59589 187.284 4.59589C188.094 4.59589 188.878 4.72979 189.638 4.99758C190.398 5.26537 191.08 5.68574 191.684 6.25869C192.288 6.83164 192.764 7.57585 193.113 8.49132C193.462 9.40056 193.636 10.506 193.636 11.8076V12.7978H182.23V10.7053H190.899C190.899 9.9704 190.75 9.3196 190.451 8.75288C190.152 8.17993 189.732 7.72843 189.19 7.39836C188.654 7.06829 188.025 6.90326 187.303 6.90326C186.518 6.90326 185.833 7.09631 185.248 7.48243C184.668 7.86232 184.22 8.36054 183.902 8.97708C183.591 9.58739 183.435 10.2506 183.435 10.9668V12.6016C183.435 13.5607 183.604 14.3765 183.94 15.0491C184.282 15.7217 184.759 16.2355 185.369 16.5904C185.979 16.9392 186.692 17.1136 187.508 17.1136C188.038 17.1136 188.52 17.0388 188.956 16.8894C189.392 16.7337 189.769 16.5033 190.087 16.1981C190.404 15.8929 190.647 15.5162 190.815 15.0678L193.459 15.5442C193.247 16.3227 192.867 17.0046 192.319 17.59C191.777 18.1692 191.095 18.6207 190.273 18.9445C189.458 19.2621 188.527 19.4209 187.48 19.4209ZM196.735 19.1313V4.78272H199.435V7.06206H199.585C199.846 6.28983 200.307 5.68263 200.967 5.24046C201.633 4.79206 202.387 4.56787 203.228 4.56787C203.402 4.56787 203.608 4.57409 203.844 4.58655C204.087 4.59901 204.277 4.61457 204.414 4.63326V7.30494C204.302 7.2738 204.103 7.23955 203.816 7.20219C203.53 7.15859 203.243 7.13679 202.957 7.13679C202.297 7.13679 201.708 7.27692 201.191 7.55716C200.681 7.83118 200.276 8.21419 199.977 8.70617C199.678 9.19194 199.529 9.7462 199.529 10.369V19.1313H196.735ZM212.502 19.4209C211.088 19.4209 209.87 19.1189 208.849 18.5148C207.834 17.9045 207.049 17.0482 206.495 15.9459C205.947 14.8373 205.673 13.5389 205.673 12.0505C205.673 10.5807 205.947 9.28535 206.495 8.16436C207.049 7.04338 207.821 6.16839 208.812 5.53939C209.808 4.91039 210.973 4.59589 212.305 4.59589C213.115 4.59589 213.9 4.72979 214.66 4.99758C215.419 5.26537 216.101 5.68574 216.705 6.25869C217.309 6.83164 217.786 7.57585 218.135 8.49132C218.483 9.40056 218.658 10.506 218.658 11.8076V12.7978H207.252V10.7053H215.921C215.921 9.9704 215.771 9.3196 215.472 8.75288C215.173 8.17993 214.753 7.72843 214.211 7.39836C213.676 7.06829 213.047 6.90326 212.324 6.90326C211.539 6.90326 210.854 7.09631 210.269 7.48243C209.69 7.86232 209.241 8.36054 208.924 8.97708C208.612 9.58739 208.457 10.2506 208.457 10.9668V12.6016C208.457 13.5607 208.625 14.3765 208.961 15.0491C209.304 15.7217 209.78 16.2355 210.39 16.5904C211.001 16.9392 211.714 17.1136 212.53 17.1136C213.059 17.1136 213.542 17.0388 213.978 16.8894C214.414 16.7337 214.79 16.5033 215.108 16.1981C215.426 15.8929 215.668 15.5162 215.837 15.0678L218.48 15.5442C218.268 16.3227 217.889 17.0046 217.341 17.59C216.799 18.1692 216.117 18.6207 215.295 18.9445C214.479 19.2621 213.548 19.4209 212.502 19.4209Z" fill="#001969" fill-opacity="0.3"/>
</svg>
