<svg width="192" height="33" viewBox="0 0 192 33" fill="none" xmlns="http://www.w3.org/2000/svg">
<path d="M7.49528e-06 25.1299V0.419882H15.33V3.56988H3.46501V11.0949H13.3V14.2449H3.46501V21.9799H15.68V25.1299H7.49528e-06ZM27.1376 25.1299H24.0576L16.8126 7.41988H20.4526L25.5976 20.5799L30.7426 7.41988H34.3826L27.1376 25.1299ZM37.4145 8.74988C38.8495 7.76988 41.0545 6.99988 43.4345 6.99988C47.9495 6.99988 50.7495 9.62488 50.7495 13.6849V25.1299H47.5995V22.3999C46.3395 24.4999 44.2745 25.5499 41.8245 25.5499C38.5345 25.5499 36.0845 23.3799 36.0845 20.4399C36.0845 17.2899 38.4295 15.5399 42.6995 14.9449L47.3545 14.2799V13.6149C47.3545 11.4099 45.8145 10.0799 43.2245 10.0799C40.8795 10.0799 38.7445 11.1649 37.4145 12.1449V8.74988ZM42.3845 22.6799C45.2545 22.6799 47.4245 20.2999 47.4245 17.8149V16.9049L43.2245 17.4299C40.7745 17.7449 39.4095 18.6899 39.4095 20.2299C39.4095 21.7349 40.6345 22.6799 42.3845 22.6799ZM56.4892 32.1299V7.41988H59.7442V10.0099C60.8642 8.29488 63.2792 6.99988 65.7292 6.99988C70.4542 6.99988 74.1292 10.8849 74.1292 16.2749C74.1292 21.6299 70.4892 25.5499 65.5542 25.5499C63.3142 25.5499 61.0042 24.4299 59.8842 22.8549V32.1299H56.4892ZM59.6742 16.2749C59.6742 19.9499 62.2292 22.4349 65.1692 22.4349C68.1092 22.4349 70.6992 19.9499 70.6992 16.2749C70.6992 12.5999 68.1092 10.1149 65.1692 10.1149C62.2292 10.1149 59.6742 12.5649 59.6742 16.2749ZM86.406 6.99988C91.656 6.99988 95.576 11.0599 95.576 16.2749C95.576 21.4899 91.656 25.5499 86.406 25.5499C81.156 25.5499 77.236 21.4899 77.236 16.2749C77.236 11.0599 81.156 6.99988 86.406 6.99988ZM86.406 10.2199C83.046 10.2199 80.701 12.9849 80.701 16.2749C80.701 19.5649 83.046 22.3299 86.406 22.3299C89.766 22.3299 92.111 19.5649 92.111 16.2749C92.111 12.9849 89.766 10.2199 86.406 10.2199ZM103.462 7.41988V10.5349C104.337 8.36488 106.157 6.99988 108.537 6.99988C108.957 6.99988 109.412 7.06988 109.622 7.13988V10.4649C109.482 10.4299 109.132 10.3949 108.922 10.3949C105.667 10.3949 103.532 12.7399 103.532 16.3449V25.1299H100.137V7.41988H103.462ZM113.02 8.74988C114.455 7.76988 116.66 6.99988 119.04 6.99988C123.555 6.99988 126.355 9.62488 126.355 13.6849V25.1299H123.205V22.3999C121.945 24.4999 119.88 25.5499 117.43 25.5499C114.14 25.5499 111.69 23.3799 111.69 20.4399C111.69 17.2899 114.035 15.5399 118.305 14.9449L122.96 14.2799V13.6149C122.96 11.4099 121.42 10.0799 118.83 10.0799C116.485 10.0799 114.35 11.1649 113.02 12.1449V8.74988ZM117.99 22.6799C120.86 22.6799 123.03 20.2999 123.03 17.8149V16.9049L118.83 17.4299C116.38 17.7449 115.015 18.6899 115.015 20.2299C115.015 21.7349 116.24 22.6799 117.99 22.6799ZM140.919 21.8399V24.9549C140.254 25.3399 139.309 25.5499 138.084 25.5499C134.619 25.5499 132.554 23.4849 132.554 19.9149V10.2549H129.894V7.41988H132.659V3.25488L135.949 2.20488V7.41988H140.499V10.2549H135.949V19.4949C135.949 21.4899 136.859 22.3999 138.819 22.3999C139.204 22.3999 140.079 22.3299 140.919 21.8399ZM146.695 -0.00011909C147.85 -0.00011909 148.83 0.944881 148.83 2.13488C148.83 3.32488 147.85 4.30488 146.695 4.30488C145.54 4.30488 144.56 3.32488 144.56 2.13488C144.56 0.944881 145.54 -0.00011909 146.695 -0.00011909ZM144.98 25.1299V7.41988H148.375V25.1299H144.98ZM162.08 6.99988C167.33 6.99988 171.25 11.0599 171.25 16.2749C171.25 21.4899 167.33 25.5499 162.08 25.5499C156.83 25.5499 152.91 21.4899 152.91 16.2749C152.91 11.0599 156.83 6.99988 162.08 6.99988ZM162.08 10.2199C158.72 10.2199 156.375 12.9849 156.375 16.2749C156.375 19.5649 158.72 22.3299 162.08 22.3299C165.44 22.3299 167.785 19.5649 167.785 16.2749C167.785 12.9849 165.44 10.2199 162.08 10.2199ZM179.135 10.0799C180.15 8.22488 181.935 6.99988 184.875 6.99988C188.9 6.99988 191.735 9.72988 191.735 14.4199V25.1299H188.34V14.5599C188.34 11.6199 186.45 10.1149 184.175 10.1149C180.5 10.1149 179.205 13.5099 179.205 16.1349V25.1299H175.81V7.41988H179.135V10.0799Z" fill="white"/>
</svg>
