<svg width="230" height="31" viewBox="0 0 230 31" fill="none" xmlns="http://www.w3.org/2000/svg">
<path d="M-0.000179529 23.4238V0.735826H13.7278V4.44783H4.19182V10.6238H12.2238V14.2718H4.19182V23.4238H-0.000179529ZM19.1653 -0.000173569C20.4773 -0.000173569 21.5333 1.02383 21.5333 2.36783C21.5333 3.71183 20.4773 4.73583 19.1653 4.73583C17.8213 4.73583 16.7333 3.71183 16.7333 2.36783C16.7333 1.02383 17.8213 -0.000173569 19.1653 -0.000173569ZM17.0533 23.4238V7.10383H21.2133V23.4238H17.0533ZM40.0068 23.4238H35.3988L32.0068 17.9198L28.4868 23.4238H23.8788L29.4148 15.0718L24.0708 7.10383H28.6788L31.9428 12.2878L35.2388 7.10383H39.8148L34.4708 15.0718L40.0068 23.4238ZM50.2363 19.0078V0.703827H54.3963V18.2398C54.3963 19.3918 54.7163 20.1278 55.8683 20.1278C56.1883 20.1278 56.5403 20.0638 56.9243 19.9358V23.4878C56.3803 23.7118 55.7403 23.8078 55.0043 23.8078C52.3483 23.8078 50.2363 22.4958 50.2363 19.0078ZM66.9988 6.71983C71.8308 6.71983 74.5188 10.1758 74.5188 14.4318C74.5188 15.0398 74.4548 15.7758 74.3908 16.2558H63.0948C63.4148 19.1038 65.6868 20.2238 68.1828 20.2238C70.1988 20.2238 72.2468 19.4878 73.4308 18.4958V22.4318C71.6388 23.5518 69.5908 23.8078 67.6388 23.8078C62.3908 23.8078 58.8068 20.4478 58.8068 15.2958C58.8068 10.4638 62.1028 6.71983 66.9988 6.71983ZM66.9348 10.2078C64.8868 10.2078 63.4788 11.5198 63.1268 13.5358H70.5508C70.3908 11.5518 69.0148 10.2078 66.9348 10.2078ZM78.1471 8.28783C79.5231 7.39183 81.6351 6.71983 83.8431 6.71983C88.0031 6.71983 91.0111 8.99183 91.0111 13.1198V23.4238H87.1391V21.1518C86.1151 22.8158 84.3551 23.8078 82.2111 23.8078C79.1391 23.8078 76.8991 21.8558 76.8991 19.1678C76.8991 16.3198 79.0111 14.6878 82.8191 14.1118L86.9471 13.5038V13.0558C86.9471 11.3598 85.6031 10.3678 83.5231 10.3678C81.3471 10.3678 79.3631 11.2958 78.1471 12.1918V8.28783ZM83.1391 20.5758C85.2511 20.5758 86.9791 18.8478 86.9791 16.7998V16.1918L83.6831 16.6078C81.8911 16.8318 80.8671 17.5678 80.8671 18.7518C80.8671 19.8718 81.7951 20.5758 83.1391 20.5758ZM99.7446 23.4238H95.5846V0.703827H99.7446V14.1438L105.633 7.10383H110.593L104.833 14.0478L111.105 23.4238H106.273L101.793 16.3838L99.7446 18.7518V23.4238ZM115.603 -0.000173569C116.915 -0.000173569 117.971 1.02383 117.971 2.36783C117.971 3.71183 116.915 4.73583 115.603 4.73583C114.259 4.73583 113.171 3.71183 113.171 2.36783C113.171 1.02383 114.259 -0.000173569 115.603 -0.000173569ZM113.491 23.4238V7.10383H117.651V23.4238H113.491ZM126.428 9.31183C127.356 7.74383 128.988 6.71983 131.452 6.71983C135.228 6.71983 137.788 9.24783 137.788 13.5038V23.4238H133.628V14.0158C133.628 11.6478 132.22 10.4318 130.364 10.4318C127.612 10.4318 126.588 12.8958 126.588 15.0078V23.4238H122.428V7.10383H126.428V9.31183ZM147.903 6.71983C148.767 6.71983 149.599 6.84783 150.367 7.10383H156.543V10.3038H154.143C154.463 11.0078 154.655 11.7758 154.655 12.6078C154.655 15.9678 151.679 18.5278 147.871 18.5278C147.391 18.5278 146.943 18.4958 146.495 18.3998C146.143 18.6558 145.855 18.9438 145.855 19.3598C145.855 19.9998 146.495 20.3198 147.167 20.3198H151.295C154.527 20.3198 156.703 22.2718 156.703 24.9598C156.703 27.9678 153.471 30.2078 148.383 30.2078C143.775 30.2078 140.703 28.5758 140.703 25.7598C140.703 24.2558 141.855 23.0718 143.359 22.3998C142.495 21.7598 142.111 20.9918 142.111 20.0638C142.111 19.0398 142.847 18.0798 143.871 17.4078C142.239 16.3518 141.183 14.6238 141.183 12.6078C141.183 9.24783 144.159 6.71983 147.903 6.71983ZM147.903 9.95183C146.239 9.95183 144.959 11.1358 144.959 12.6078C144.959 14.1118 146.239 15.2958 147.903 15.2958C149.599 15.2958 150.879 14.1118 150.879 12.6078C150.879 11.1358 149.599 9.95183 147.903 9.95183ZM146.079 23.5838C145.439 23.8078 144.735 24.3198 144.735 25.1518C144.735 26.2718 146.271 26.9118 148.479 26.9118C151.199 26.9118 152.735 26.1758 152.735 25.0878C152.735 24.1278 151.807 23.5838 150.655 23.5838H146.079ZM176.863 19.5838V23.1678C176.191 23.5518 175.167 23.8078 173.823 23.8078C170.463 23.8078 168.383 21.8238 168.383 18.3038V10.4318H166.079V7.10383H168.511V3.39183L172.543 2.33583V7.10383H176.479V10.4318H172.543V17.7278C172.543 19.3918 173.407 20.0958 174.943 20.0958C175.391 20.0958 176.191 19.9678 176.863 19.5838ZM180.147 8.28783C181.523 7.39183 183.635 6.71983 185.843 6.71983C190.003 6.71983 193.011 8.99183 193.011 13.1198V23.4238H189.139V21.1518C188.115 22.8158 186.355 23.8078 184.211 23.8078C181.139 23.8078 178.899 21.8558 178.899 19.1678C178.899 16.3198 181.011 14.6878 184.819 14.1118L188.947 13.5038V13.0558C188.947 11.3598 187.603 10.3678 185.523 10.3678C183.347 10.3678 181.363 11.2958 180.147 12.1918V8.28783ZM185.139 20.5758C187.251 20.5758 188.979 18.8478 188.979 16.7998V16.1918L185.683 16.6078C183.891 16.8318 182.867 17.5678 182.867 18.7518C182.867 19.8718 183.795 20.5758 185.139 20.5758ZM197.585 29.8238V7.10383H201.457V9.37583C202.353 7.93583 204.369 6.71983 206.641 6.71983C210.833 6.71983 214.289 10.2078 214.289 15.2638C214.289 20.3198 210.897 23.8078 206.513 23.8078C204.561 23.8078 202.673 22.9118 201.713 21.5998V29.8238H197.585ZM201.489 15.2958C201.489 18.1758 203.441 20.1278 205.809 20.1278C208.145 20.1278 210.129 18.1758 210.129 15.2958C210.129 12.4158 208.145 10.4638 205.809 10.4638C203.441 10.4638 201.489 12.3838 201.489 15.2958ZM223.369 6.71983C225.257 6.71983 227.209 7.26383 228.425 8.12783V11.9678C227.049 10.8478 225.353 10.1758 223.529 10.1758C221.769 10.1758 220.905 10.8158 220.905 11.7118C220.905 12.7038 221.897 13.1838 223.913 13.7278C226.569 14.4318 229.353 15.3598 229.353 18.6558C229.353 21.8238 226.889 23.8078 222.825 23.8078C220.585 23.8078 218.537 23.1998 217.065 22.1438V18.0158C218.601 19.4878 220.329 20.3838 222.569 20.3838C224.489 20.3838 225.481 19.6798 225.481 18.6878C225.481 17.5998 224.233 17.2158 222.057 16.5438C219.529 15.7758 216.969 14.7518 216.969 11.8078C216.969 8.89583 219.465 6.71983 223.369 6.71983Z" fill="white"/>
</svg>
