<svg width="86" height="86" viewBox="0 0 86 86" fill="none" xmlns="http://www.w3.org/2000/svg">
<circle opacity="0.56" cx="42.6978" cy="42.6978" r="42.6978" fill="#3E3E3E"/>
<path d="M25.333 55.7176V35.6293C25.333 34.9225 25.4915 34.2529 25.8084 33.6205C26.1254 32.9881 26.5621 32.4672 27.1186 32.058L40.5108 22.0139C41.292 21.4187 42.1848 21.1211 43.1893 21.1211C44.1937 21.1211 45.0865 21.4187 45.8677 22.0139L59.2599 32.058C59.8179 32.4672 60.2554 32.9881 60.5723 33.6205C60.8893 34.2529 61.047 34.9225 61.0455 35.6293V55.7176C61.0455 56.9452 60.608 57.9965 59.7331 58.8714C58.8581 59.7464 57.8076 60.1831 56.5814 60.1816H49.8853C49.2529 60.1816 48.7232 59.9674 48.2961 59.5388C47.8691 59.1103 47.6548 58.5805 47.6533 57.9496V46.7894C47.6533 46.157 47.439 45.6273 47.0105 45.2002C46.5819 44.7732 46.0522 44.5589 45.4213 44.5574H40.9572C40.3248 44.5574 39.7951 44.7717 39.368 45.2002C38.941 45.6288 38.7267 46.1585 38.7252 46.7894V57.9496C38.7252 58.582 38.5109 59.1125 38.0824 59.541C37.6538 59.9696 37.1241 60.1831 36.4932 60.1816H29.7971C28.5695 60.1816 27.5189 59.7449 26.6454 58.8714C25.772 57.998 25.3345 56.9467 25.333 55.7176Z" fill="white"/>
</svg>
