<svg width="189" height="114" viewBox="0 0 189 114" fill="none" xmlns="http://www.w3.org/2000/svg">
<path d="M41.3274 22.5918V-0.000204086H44.4954V19.7118H54.4474V22.5918H41.3274ZM64.0064 6.0158C68.6464 6.0158 71.3344 9.3758 71.3344 13.5358C71.3344 14.1438 71.2704 14.7838 71.1744 15.2958H59.2384C59.5904 18.7198 62.0544 20.0958 64.8384 20.0958C66.8864 20.0958 68.9024 19.3598 70.2784 18.1438V21.3758C68.1984 22.7838 66.3104 22.9758 64.3904 22.9758C59.2704 22.9758 55.9744 19.2958 55.9744 14.5278C55.9744 9.7598 59.1424 6.0158 64.0064 6.0158ZM63.9424 8.7998C61.5424 8.7998 59.8144 10.3038 59.3344 12.7678H68.2624C68.0384 10.3678 66.3744 8.7998 63.9424 8.7998ZM83.7299 19.5838V22.4318C83.1219 22.7838 82.2579 22.9758 81.1379 22.9758C77.9699 22.9758 76.0819 21.0878 76.0819 17.8238V8.9918H73.6499V6.3998H76.1779V2.5918L79.1859 1.6318V6.3998H83.3459V8.9918H79.1859V17.4398C79.1859 19.2638 80.0179 20.0958 81.8099 20.0958C82.1619 20.0958 82.9619 20.0318 83.7299 19.5838ZM103.542 19.5838V22.4318C102.934 22.7838 102.07 22.9758 100.95 22.9758C97.7824 22.9758 95.8944 21.0878 95.8944 17.8238V8.9918H93.4624V6.3998H95.9904V2.5918L98.9984 1.6318V6.3998H103.158V8.9918H98.9984V17.4398C98.9984 19.2638 99.8304 20.0958 101.622 20.0958C101.974 20.0958 102.774 20.0318 103.542 19.5838ZM107.256 -0.000204086H110.36V8.6398C111.288 7.1998 112.92 6.0158 115.544 6.0158C119.128 6.0158 121.816 8.5118 121.816 12.7998V22.5918H118.712V12.9278C118.712 10.2398 116.952 8.8638 114.904 8.8638C111.544 8.8638 110.36 11.6478 110.36 14.0478V22.5918H107.256V-0.000204086ZM133.725 6.0158C138.365 6.0158 141.053 9.3758 141.053 13.5358C141.053 14.1438 140.989 14.7838 140.893 15.2958H128.957C129.309 18.7198 131.773 20.0958 134.557 20.0958C136.605 20.0958 138.621 19.3598 139.997 18.1438V21.3758C137.917 22.7838 136.029 22.9758 134.109 22.9758C128.989 22.9758 125.693 19.2958 125.693 14.5278C125.693 9.7598 128.861 6.0158 133.725 6.0158ZM133.661 8.7998C131.261 8.7998 129.533 10.3038 129.053 12.7678H137.981C137.757 10.3678 136.093 8.7998 133.661 8.7998ZM17.6355 48.0158C19.4915 48.0158 21.4435 48.5918 22.5955 49.5198V52.7198C21.1555 51.5038 19.5875 50.7998 17.7635 50.7998C15.7155 50.7998 14.7555 51.6638 14.7555 52.7518C14.7555 53.9358 15.9395 54.5118 18.1155 55.1518C20.7075 55.8878 23.4275 56.7838 23.4275 60.0158C23.4275 63.0558 21.0595 64.9758 17.3795 64.9758C15.2675 64.9758 13.1875 64.3358 11.6835 63.1198V59.6638C13.2515 61.2638 14.9475 62.1918 17.1555 62.1918C19.3315 62.1918 20.4195 61.2958 20.4195 60.0478C20.4195 58.7358 19.1395 58.2878 16.8035 57.5838C14.2435 56.7838 11.7155 55.8238 11.7155 52.9118C11.7155 50.0958 14.0515 48.0158 17.6355 48.0158ZM27.5215 41.9998H30.6255V50.6398C31.5535 49.1998 33.1855 48.0158 35.8095 48.0158C39.3935 48.0158 42.0815 50.5118 42.0815 54.7998V64.5918H38.9775V54.9278C38.9775 52.2398 37.2175 50.8638 35.1695 50.8638C31.8095 50.8638 30.6255 53.6478 30.6255 56.0478V64.5918H27.5215V41.9998ZM54.3428 48.0158C59.1428 48.0158 62.7268 51.7278 62.7268 56.4958C62.7268 61.2638 59.1428 64.9758 54.3428 64.9758C49.5428 64.9758 45.9588 61.2638 45.9588 56.4958C45.9588 51.7278 49.5428 48.0158 54.3428 48.0158ZM54.3428 50.9598C51.2708 50.9598 49.1268 53.4878 49.1268 56.4958C49.1268 59.5038 51.2708 62.0318 54.3428 62.0318C57.4148 62.0318 59.5588 59.5038 59.5588 56.4958C59.5588 53.4878 57.4148 50.9598 54.3428 50.9598ZM69.7803 64.5918L64.5003 48.3998H67.7323L71.4123 60.3678L75.3163 48.3998H78.3243L82.2283 60.3678L85.9083 48.3998H89.1403L83.8603 64.5918H80.8523L76.8203 52.7198L72.7883 64.5918H69.7803ZM98.9283 48.0158C103.568 48.0158 106.256 51.3758 106.256 55.5358C106.256 56.1438 106.192 56.7838 106.096 57.2958H94.1603C94.5123 60.7198 96.9763 62.0958 99.7603 62.0958C101.808 62.0958 103.824 61.3598 105.2 60.1438V63.3758C103.12 64.7838 101.232 64.9758 99.3123 64.9758C94.1923 64.9758 90.8963 61.2958 90.8963 56.5278C90.8963 51.7598 94.0643 48.0158 98.9283 48.0158ZM98.8643 50.7998C96.4643 50.7998 94.7363 52.3038 94.2563 54.7678H103.184C102.96 52.3678 101.296 50.7998 98.8643 50.7998ZM113.468 48.3998V51.2478C114.268 49.2638 115.932 48.0158 118.108 48.0158C118.492 48.0158 118.908 48.0798 119.1 48.1438V51.1838C118.972 51.1518 118.652 51.1198 118.46 51.1198C115.484 51.1198 113.532 53.2638 113.532 56.5598V64.5918H110.428V48.3998H113.468ZM132.624 48.3998V51.2478C133.424 49.2638 135.088 48.0158 137.264 48.0158C137.648 48.0158 138.064 48.0798 138.256 48.1438V51.1838C138.128 51.1518 137.808 51.1198 137.616 51.1198C134.64 51.1198 132.688 53.2638 132.688 56.5598V64.5918H129.584V48.3998H132.624ZM152.941 62.1598C152.013 63.8558 150.381 64.9758 147.693 64.9758C144.013 64.9758 141.421 62.4798 141.421 58.1918V48.3998H144.525V58.0638C144.525 60.7518 146.253 62.1278 148.333 62.1278C151.693 62.1278 152.877 59.0238 152.877 56.6238V48.3998H155.981V64.5918H152.941V62.1598ZM164.53 50.8318C165.458 49.1358 167.09 48.0158 169.778 48.0158C173.458 48.0158 176.05 50.5118 176.05 54.7998V64.5918H172.946V54.9278C172.946 52.2398 171.218 50.8638 169.138 50.8638C165.778 50.8638 164.594 53.9678 164.594 56.3678V64.5918H161.49V48.3998H164.53V50.8318ZM5.28028 106.592L0.000281274 90.3998H3.23228L6.91228 102.368L10.8163 90.3998H13.8243L17.7283 102.368L21.4083 90.3998H24.6403L19.3603 106.592H16.3523L12.3203 94.7198L8.28828 106.592H5.28028ZM27.8965 83.9998H31.0005V92.6398C31.9285 91.1998 33.5605 90.0158 36.1845 90.0158C39.7685 90.0158 42.4565 92.5118 42.4565 96.7998V106.592H39.3525V96.9278C39.3525 94.2398 37.5925 92.8638 35.5445 92.8638C32.1845 92.8638 31.0005 95.6478 31.0005 98.0478V106.592H27.8965V83.9998ZM54.3658 90.0158C59.0058 90.0158 61.6938 93.3758 61.6938 97.5358C61.6938 98.1438 61.6298 98.7838 61.5338 99.2958H49.5978C49.9498 102.72 52.4138 104.096 55.1978 104.096C57.2458 104.096 59.2618 103.36 60.6378 102.144V105.376C58.5578 106.784 56.6698 106.976 54.7498 106.976C49.6298 106.976 46.3338 103.296 46.3338 98.5278C46.3338 93.7598 49.5018 90.0158 54.3658 90.0158ZM54.3018 92.7998C51.9018 92.7998 50.1738 94.3038 49.6938 96.7678H58.6218C58.3978 94.3678 56.7338 92.7998 54.3018 92.7998ZM68.9053 92.8318C69.8333 91.1358 71.4653 90.0158 74.1533 90.0158C77.8333 90.0158 80.4253 92.5118 80.4253 96.7998V106.592H77.3213V96.9278C77.3213 94.2398 75.5933 92.8638 73.5133 92.8638C70.1533 92.8638 68.9693 95.9678 68.9693 98.3678V106.592H65.8653V90.3998H68.9053V92.8318ZM100.21 90.0158C104.85 90.0158 107.538 93.3758 107.538 97.5358C107.538 98.1438 107.474 98.7838 107.378 99.2958H95.4415C95.7935 102.72 98.2575 104.096 101.042 104.096C103.09 104.096 105.106 103.36 106.482 102.144V105.376C104.402 106.784 102.514 106.976 100.594 106.976C95.4735 106.976 92.1775 103.296 92.1775 98.5278C92.1775 93.7598 95.3455 90.0158 100.21 90.0158ZM100.146 92.7998C97.7455 92.7998 96.0175 94.3038 95.5375 96.7678H104.466C104.242 94.3678 102.578 92.7998 100.146 92.7998ZM111.709 90.3998H114.749V92.8318C115.677 91.1358 117.309 90.0158 119.997 90.0158C122.557 90.0158 124.573 91.2318 125.597 93.3758C127.101 91.0718 128.765 90.0158 131.453 90.0158C135.133 90.0158 137.725 92.5118 137.725 96.7998V106.592H134.621V96.9278C134.621 94.2398 132.893 92.8638 130.813 92.8638C127.453 92.8638 126.269 95.9678 126.269 98.3678V106.592H123.165V96.9278C123.165 94.2398 121.437 92.8638 119.357 92.8638C115.997 92.8638 114.813 95.9678 114.813 98.3678V106.592H111.709V90.3998ZM142.928 112.992V90.3998H145.904V92.7678C146.928 91.1998 149.136 90.0158 151.376 90.0158C155.696 90.0158 159.056 93.5678 159.056 98.4958C159.056 103.392 155.728 106.976 151.216 106.976C149.168 106.976 147.056 105.952 146.032 104.512V112.992H142.928ZM145.84 98.4958C145.84 101.856 148.176 104.128 150.864 104.128C153.552 104.128 155.92 101.856 155.92 98.4958C155.92 95.1358 153.552 92.8638 150.864 92.8638C148.176 92.8638 145.84 95.1038 145.84 98.4958ZM171.308 103.584V106.432C170.7 106.784 169.836 106.976 168.716 106.976C165.548 106.976 163.66 105.088 163.66 101.824V92.9918H161.228V90.3998H163.756V86.5918L166.764 85.6318V90.3998H170.924V92.9918H166.764V101.44C166.764 103.264 167.596 104.096 169.388 104.096C169.74 104.096 170.54 104.032 171.308 103.584ZM173.614 112.96V110.176C174.478 110.72 175.278 110.72 175.662 110.72C177.07 110.72 177.902 109.92 178.574 108.16L179.246 106.368L172.526 90.3998H176.014L180.718 102.656L185.294 90.3998H188.654L181.134 109.248C180.174 111.68 178.926 113.376 175.95 113.376C175.31 113.376 174.51 113.344 173.614 112.96Z" fill="white"/>
</svg>
