<svg width="304" height="406" viewBox="0 0 304 406" fill="none" xmlns="http://www.w3.org/2000/svg">
<path d="M3.51001 401.67C3.51001 401.5 3.51001 401.34 3.51001 401.17" stroke="white" stroke-width="7" stroke-miterlimit="10" stroke-linecap="round"/>
<path d="M8.47998 382.13C17.4 366.77 35.1702 360.6 35.1702 335.99C35.1702 303.15 3.5 303.15 3.5 270.31C3.5 237.47 35.1702 237.47 35.1702 204.63C35.1702 171.79 3.5 171.79 3.5 138.94C3.5 109.97 28.1402 106.55 33.9502 83.6099" stroke="white" stroke-width="7" stroke-miterlimit="10" stroke-linecap="round" stroke-dasharray="1 19.9"/>
<path d="M35.1802 73.7598C35.1802 73.5898 35.1802 73.4298 35.1802 73.2598" stroke="white" stroke-width="7" stroke-miterlimit="10" stroke-linecap="round"/>
<g opacity="0.5">
<path d="M68.1802 401.67C68.1802 401.5 68.1802 401.34 68.1802 401.17" stroke="white" stroke-width="7" stroke-miterlimit="10" stroke-linecap="round"/>
<path d="M72.02 381.4C81.09 360.16 103.04 353.63 103.04 322.04C103.04 282.22 68.1702 282.22 68.1702 242.41C68.1702 202.6 103.04 202.59 103.04 162.78C103.04 122.97 68.1702 122.96 68.1702 83.1403C68.1702 47.2003 96.5801 43.7003 102.11 14.0703" stroke="white" stroke-width="7" stroke-miterlimit="10" stroke-linecap="round" stroke-dasharray="1.01 20.27"/>
<path d="M103.04 4C103.04 3.83 103.04 3.67 103.04 3.5" stroke="white" stroke-width="7" stroke-miterlimit="10" stroke-linecap="round"/>
</g>
<path d="M136.04 401.67C136.04 401.5 136.04 401.34 136.04 401.17" stroke="white" stroke-width="7" stroke-miterlimit="10" stroke-linecap="round"/>
<path d="M141.02 382.13C149.94 366.77 167.71 360.6 167.71 335.99C167.71 303.15 136.04 303.15 136.04 270.31C136.04 237.47 167.71 237.47 167.71 204.63C167.71 171.79 136.04 171.79 136.04 138.94C136.04 109.97 160.68 106.55 166.49 83.6099" stroke="white" stroke-width="7" stroke-miterlimit="10" stroke-linecap="round" stroke-dasharray="1 19.9"/>
<path d="M167.71 73.7598C167.71 73.5898 167.71 73.4298 167.71 73.2598" stroke="white" stroke-width="7" stroke-miterlimit="10" stroke-linecap="round"/>
<g opacity="0.5">
<path d="M200.71 401.67C200.71 401.5 200.71 401.34 200.71 401.17" stroke="white" stroke-width="7" stroke-miterlimit="10" stroke-linecap="round"/>
<path d="M204.56 381.4C213.63 360.16 235.58 353.63 235.58 322.04C235.58 282.22 200.71 282.22 200.71 242.41C200.71 202.6 235.58 202.59 235.58 162.78C235.58 122.97 200.71 122.96 200.71 83.1403C200.71 47.2003 229.12 43.7003 234.65 14.0703" stroke="white" stroke-width="7" stroke-miterlimit="10" stroke-linecap="round" stroke-dasharray="1.01 20.27"/>
<path d="M235.58 4C235.58 3.83 235.58 3.67 235.58 3.5" stroke="white" stroke-width="7" stroke-miterlimit="10" stroke-linecap="round"/>
</g>
<path d="M268.58 401.67C268.58 401.5 268.58 401.34 268.58 401.17" stroke="white" stroke-width="7" stroke-miterlimit="10" stroke-linecap="round"/>
<path d="M273.55 382.13C282.46 366.77 300.24 360.6 300.24 335.99C300.24 303.15 268.57 303.15 268.57 270.31C268.57 237.47 300.24 237.47 300.24 204.63C300.24 171.79 268.57 171.79 268.57 138.94C268.57 109.97 293.21 106.55 299.02 83.6099" stroke="white" stroke-width="7" stroke-miterlimit="10" stroke-linecap="round" stroke-dasharray="1 19.9"/>
<path d="M300.24 73.7598C300.24 73.5898 300.24 73.4298 300.24 73.2598" stroke="white" stroke-width="7" stroke-miterlimit="10" stroke-linecap="round"/>
</svg>
