<svg width="204" height="33" viewBox="0 0 204 33" fill="none" xmlns="http://www.w3.org/2000/svg">
<path d="M3.46501 15.9599V25.1299H7.49528e-06V0.419882H8.71501C13.02 0.419882 16.555 3.88488 16.555 8.11988C16.555 12.4599 13.02 15.9599 8.75001 15.9599H3.46501ZM3.46501 12.9499H8.19001C10.78 12.9499 12.985 10.8499 12.985 8.11988C12.985 5.52988 10.78 3.56988 8.19001 3.56988H3.46501V12.9499ZM23.7546 7.41988V10.5349C24.6296 8.36488 26.4496 6.99988 28.8296 6.99988C29.2496 6.99988 29.7046 7.06988 29.9146 7.13988V10.4649C29.7746 10.4299 29.4246 10.3949 29.2146 10.3949C25.9596 10.3949 23.8246 12.7399 23.8246 16.3449V25.1299H20.4296V7.41988H23.7546ZM40.5962 6.99988C45.6712 6.99988 48.6112 10.6749 48.6112 15.2249C48.6112 15.8899 48.5412 16.5899 48.4362 17.1499H35.3812C35.7662 20.8949 38.4612 22.3999 41.5062 22.3999C43.7462 22.3999 45.9512 21.5949 47.4562 20.2649V23.7999C45.1812 25.3399 43.1162 25.5499 41.0162 25.5499C35.4162 25.5499 31.8112 21.5249 31.8112 16.3099C31.8112 11.0949 35.2762 6.99988 40.5962 6.99988ZM40.5262 10.0449C37.9012 10.0449 36.0112 11.6899 35.4862 14.3849H45.2512C45.0062 11.7599 43.1862 10.0449 40.5262 10.0449ZM65.8788 8.18988V11.5849C64.5838 10.6749 62.6938 10.2199 61.2588 10.2199C57.5838 10.2199 55.1688 12.8099 55.1688 16.3099C55.1688 19.5299 57.3738 22.3299 61.2588 22.3299C62.8688 22.3299 64.6888 21.9099 65.9488 20.9299V24.3599C64.5838 25.2349 62.6238 25.5499 60.9788 25.5499C55.6238 25.5499 51.7038 21.5599 51.7038 16.3099C51.7038 11.0249 55.5538 6.99988 61.0138 6.99988C62.6938 6.99988 64.5138 7.38488 65.8788 8.18988ZM72.3546 -0.00011909C73.5096 -0.00011909 74.4896 0.944881 74.4896 2.13488C74.4896 3.32488 73.5096 4.30488 72.3546 4.30488C71.1996 4.30488 70.2196 3.32488 70.2196 2.13488C70.2196 0.944881 71.1996 -0.00011909 72.3546 -0.00011909ZM70.6396 25.1299V7.41988H74.0346V25.1299H70.6396ZM80.039 32.1299V7.41988H83.294V10.0099C84.414 8.29488 86.829 6.99988 89.279 6.99988C94.004 6.99988 97.679 10.8849 97.679 16.2749C97.679 21.6299 94.039 25.5499 89.104 25.5499C86.864 25.5499 84.554 24.4299 83.434 22.8549V32.1299H80.039ZM83.224 16.2749C83.224 19.9499 85.779 22.4349 88.719 22.4349C91.659 22.4349 94.249 19.9499 94.249 16.2749C94.249 12.5999 91.659 10.1149 88.719 10.1149C85.779 10.1149 83.224 12.5649 83.224 16.2749ZM103.971 -0.00011909C105.126 -0.00011909 106.106 0.944881 106.106 2.13488C106.106 3.32488 105.126 4.30488 103.971 4.30488C102.816 4.30488 101.836 3.32488 101.836 2.13488C101.836 0.944881 102.816 -0.00011909 103.971 -0.00011909ZM102.256 25.1299V7.41988H105.651V25.1299H102.256ZM120.65 21.8399V24.9549C119.985 25.3399 119.04 25.5499 117.815 25.5499C114.35 25.5499 112.285 23.4849 112.285 19.9149V10.2549H109.625V7.41988H112.39V3.25488L115.68 2.20488V7.41988H120.23V10.2549H115.68V19.4949C115.68 21.4899 116.59 22.3999 118.55 22.3999C118.935 22.3999 119.81 22.3299 120.65 21.8399ZM124.607 8.74988C126.042 7.76988 128.247 6.99988 130.627 6.99988C135.142 6.99988 137.942 9.62488 137.942 13.6849V25.1299H134.792V22.3999C133.532 24.4999 131.467 25.5499 129.017 25.5499C125.727 25.5499 123.277 23.3799 123.277 20.4399C123.277 17.2899 125.622 15.5399 129.892 14.9449L134.547 14.2799V13.6149C134.547 11.4099 133.007 10.0799 130.417 10.0799C128.072 10.0799 125.937 11.1649 124.607 12.1449V8.74988ZM129.577 22.6799C132.447 22.6799 134.617 20.2999 134.617 17.8149V16.9049L130.417 17.4299C127.967 17.7449 126.602 18.6899 126.602 20.2299C126.602 21.7349 127.827 22.6799 129.577 22.6799ZM152.506 21.8399V24.9549C151.841 25.3399 150.896 25.5499 149.671 25.5499C146.206 25.5499 144.141 23.4849 144.141 19.9149V10.2549H141.481V7.41988H144.246V3.25488L147.536 2.20488V7.41988H152.086V10.2549H147.536V19.4949C147.536 21.4899 148.446 22.3999 150.406 22.3999C150.791 22.3999 151.666 22.3299 152.506 21.8399ZM158.282 -0.00011909C159.437 -0.00011909 160.417 0.944881 160.417 2.13488C160.417 3.32488 159.437 4.30488 158.282 4.30488C157.127 4.30488 156.147 3.32488 156.147 2.13488C156.147 0.944881 157.127 -0.00011909 158.282 -0.00011909ZM156.567 25.1299V7.41988H159.962V25.1299H156.567ZM173.667 6.99988C178.917 6.99988 182.837 11.0599 182.837 16.2749C182.837 21.4899 178.917 25.5499 173.667 25.5499C168.417 25.5499 164.497 21.4899 164.497 16.2749C164.497 11.0599 168.417 6.99988 173.667 6.99988ZM173.667 10.2199C170.307 10.2199 167.962 12.9849 167.962 16.2749C167.962 19.5649 170.307 22.3299 173.667 22.3299C177.027 22.3299 179.372 19.5649 179.372 16.2749C179.372 12.9849 177.027 10.2199 173.667 10.2199ZM190.722 10.0799C191.737 8.22488 193.522 6.99988 196.462 6.99988C200.487 6.99988 203.322 9.72988 203.322 14.4199V25.1299H199.927V14.5599C199.927 11.6199 198.037 10.1149 195.762 10.1149C192.087 10.1149 190.792 13.5099 190.792 16.1349V25.1299H187.397V7.41988H190.722V10.0799Z" fill="white"/>
</svg>
