<svg width="215" height="72" viewBox="0 0 215 72" fill="none" xmlns="http://www.w3.org/2000/svg">
<path d="M53.6145 14.5926V22.9766H50.4465V0.384562H58.4145C62.3505 0.384562 65.5825 3.55256 65.5825 7.42456C65.5825 11.3926 62.3505 14.5926 58.4465 14.5926H53.6145ZM53.6145 11.8406H57.9345C60.3025 11.8406 62.3185 9.92056 62.3185 7.42456C62.3185 5.05656 60.3025 3.26456 57.9345 3.26456H53.6145V11.8406ZM80.5133 20.5446C79.5853 22.2406 77.9533 23.3606 75.2653 23.3606C71.5853 23.3606 68.9933 20.8646 68.9933 16.5766V6.78456H72.0973V16.4486C72.0973 19.1366 73.8253 20.5126 75.9053 20.5126C79.2653 20.5126 80.4493 17.4086 80.4493 15.0086V6.78456H83.5533V22.9766H80.5133V20.5446ZM92.1025 6.78456V9.63256C92.9025 7.64856 94.5665 6.40056 96.7425 6.40056C97.1265 6.40056 97.5425 6.46456 97.7345 6.52856V9.56856C97.6065 9.53656 97.2865 9.50456 97.0945 9.50456C94.1185 9.50456 92.1665 11.6486 92.1665 14.9446V22.9766H89.0625V6.78456H92.1025ZM102.756 0.00056076C103.812 0.00056076 104.708 0.864561 104.708 1.95256C104.708 3.04056 103.812 3.93656 102.756 3.93656C101.7 3.93656 100.804 3.04056 100.804 1.95256C100.804 0.864561 101.7 0.00056076 102.756 0.00056076ZM101.188 22.9766V6.78456H104.292V22.9766H101.188ZM113.685 5.40856V6.78456H117.557V9.37656H113.685V22.9766H110.581V9.37656H108.341V6.78456H110.581V5.31256C110.581 2.04856 112.885 0.00056076 116.117 0.00056076C116.949 0.00056076 117.717 0.0965614 118.357 0.448561V3.13656C117.813 2.88056 117.205 2.75256 116.597 2.75256C115.093 2.75256 113.685 3.45656 113.685 5.40856ZM122.443 0.00056076C123.499 0.00056076 124.395 0.864561 124.395 1.95256C124.395 3.04056 123.499 3.93656 122.443 3.93656C121.387 3.93656 120.491 3.04056 120.491 1.95256C120.491 0.864561 121.387 0.00056076 122.443 0.00056076ZM120.875 22.9766V6.78456H123.979V22.9766H120.875ZM136.157 6.40056C140.797 6.40056 143.485 9.76056 143.485 13.9206C143.485 14.5286 143.421 15.1686 143.325 15.6806H131.389C131.741 19.1046 134.205 20.4806 136.989 20.4806C139.037 20.4806 141.053 19.7446 142.429 18.5286V21.7606C140.349 23.1686 138.461 23.3606 136.541 23.3606C131.421 23.3606 128.125 19.6806 128.125 14.9126C128.125 10.1446 131.293 6.40056 136.157 6.40056ZM136.093 9.18456C133.693 9.18456 131.965 10.6886 131.485 13.1526H140.413C140.189 10.7526 138.525 9.18456 136.093 9.18456ZM159.496 20.5766C158.6 22.1446 156.264 23.3606 154.024 23.3606C149.704 23.3606 146.344 19.8086 146.344 14.8806C146.344 9.95256 149.704 6.40056 154.024 6.40056C156.264 6.40056 158.44 7.58456 159.368 9.02456V0.384562H162.472V22.9766H159.496V20.5766ZM154.536 20.5126C157.224 20.5126 159.56 18.2406 159.56 14.8806C159.56 11.4886 157.224 9.24856 154.536 9.24856C151.848 9.24856 149.48 11.5206 149.48 14.8806C149.48 18.2406 151.848 20.5126 154.536 20.5126ZM3.04005 48.7846V51.6326C3.84005 49.6486 5.50405 48.4006 7.68005 48.4006C8.06405 48.4006 8.48005 48.4646 8.67205 48.5286V51.5686C8.54405 51.5366 8.22405 51.5046 8.03205 51.5046C5.05605 51.5046 3.10405 53.6486 3.10405 56.9446V64.9766H4.69685e-05V48.7846H3.04005ZM18.438 48.4006C23.078 48.4006 25.766 51.7606 25.766 55.9206C25.766 56.5286 25.702 57.1686 25.606 57.6806H13.67C14.022 61.1046 16.486 62.4806 19.27 62.4806C21.318 62.4806 23.334 61.7446 24.71 60.5286V63.7606C22.63 65.1686 20.742 65.3606 18.822 65.3606C13.702 65.3606 10.406 61.6806 10.406 56.9126C10.406 52.1446 13.574 48.4006 18.438 48.4006ZM18.374 51.1846C15.974 51.1846 14.246 52.6886 13.766 55.1526H22.694C22.47 52.7526 20.806 51.1846 18.374 51.1846ZM41.5535 49.4886V52.5926C40.3695 51.7606 38.6415 51.3446 37.3295 51.3446C33.9695 51.3446 31.7615 53.7126 31.7615 56.9126C31.7615 59.8566 33.7775 62.4166 37.3295 62.4166C38.8015 62.4166 40.4655 62.0326 41.6175 61.1366V64.2726C40.3695 65.0726 38.5775 65.3606 37.0735 65.3606C32.1775 65.3606 28.5935 61.7126 28.5935 56.9126C28.5935 52.0806 32.1135 48.4006 37.1055 48.4006C38.6415 48.4006 40.3055 48.7526 41.5535 49.4886ZM44.4983 71.3446V68.5606C45.3623 69.1046 46.1623 69.1046 46.5463 69.1046C47.9543 69.1046 48.7863 68.3046 49.4583 66.5446L50.1303 64.7526L43.4103 48.7846H46.8983L51.6023 61.0406L56.1783 48.7846H59.5383L52.0183 67.6326C51.0583 70.0646 49.8103 71.7606 46.8343 71.7606C46.1943 71.7606 45.3943 71.7286 44.4983 71.3446ZM74.0848 49.4886V52.5926C72.9008 51.7606 71.1728 51.3446 69.8608 51.3446C66.5008 51.3446 64.2928 53.7126 64.2928 56.9126C64.2928 59.8566 66.3088 62.4166 69.8608 62.4166C71.3328 62.4166 72.9968 62.0326 74.1488 61.1366V64.2726C72.9008 65.0726 71.1088 65.3606 69.6048 65.3606C64.7088 65.3606 61.1248 61.7126 61.1248 56.9126C61.1248 52.0806 64.6448 48.4006 69.6368 48.4006C71.1728 48.4006 72.8368 48.7526 74.0848 49.4886ZM78.2455 60.9446V42.3846H81.3495V60.4006C81.3495 61.6166 81.6375 62.5126 82.8535 62.5126C83.1415 62.5126 83.4935 62.4806 83.9095 62.3206V65.1046C83.4295 65.2966 82.9495 65.3606 82.4695 65.3606C80.3255 65.3606 78.2455 64.3686 78.2455 60.9446ZM94.1568 48.4006C98.7968 48.4006 101.485 51.7606 101.485 55.9206C101.485 56.5286 101.421 57.1686 101.325 57.6806H89.3888C89.7408 61.1046 92.2048 62.4806 94.9888 62.4806C97.0368 62.4806 99.0528 61.7446 100.429 60.5286V63.7606C98.3488 65.1686 96.4608 65.3606 94.5408 65.3606C89.4208 65.3606 86.1248 61.6806 86.1248 56.9126C86.1248 52.1446 89.2928 48.4006 94.1568 48.4006ZM94.0928 51.1846C91.6928 51.1846 89.9648 52.6886 89.4848 55.1526H98.4128C98.1888 52.7526 96.5248 51.1846 94.0928 51.1846ZM117.496 62.5766C116.6 64.1446 114.264 65.3606 112.024 65.3606C107.704 65.3606 104.344 61.8086 104.344 56.8806C104.344 51.9526 107.704 48.4006 112.024 48.4006C114.264 48.4006 116.44 49.5846 117.368 51.0246V42.3846H120.472V64.9766H117.496V62.5766ZM112.536 62.5126C115.224 62.5126 117.56 60.2406 117.56 56.8806C117.56 53.4886 115.224 51.2486 112.536 51.2486C109.848 51.2486 107.48 53.5206 107.48 56.8806C107.48 60.2406 109.848 62.5126 112.536 62.5126ZM136.321 64.9766L131.041 48.7846H134.273L137.953 60.7526L141.857 48.7846H144.865L148.769 60.7526L152.449 48.7846H155.681L150.401 64.9766H147.393L143.361 53.1046L139.329 64.9766H136.321ZM158.654 50.0006C159.966 49.1046 161.982 48.4006 164.158 48.4006C168.286 48.4006 170.846 50.8006 170.846 54.5126V64.9766H167.966V62.4806C166.814 64.4006 164.926 65.3606 162.686 65.3606C159.678 65.3606 157.438 63.3766 157.438 60.6886C157.438 57.8086 159.582 56.2086 163.486 55.6646L167.742 55.0566V54.4486C167.742 52.4326 166.334 51.2166 163.966 51.2166C161.822 51.2166 159.87 52.2086 158.654 53.1046V50.0006ZM163.198 62.7366C165.822 62.7366 167.806 60.5606 167.806 58.2886V57.4566L163.966 57.9366C161.726 58.2246 160.478 59.0886 160.478 60.4966C160.478 61.8726 161.598 62.7366 163.198 62.7366ZM184.162 61.9686V64.8166C183.554 65.1686 182.69 65.3606 181.57 65.3606C178.402 65.3606 176.514 63.4726 176.514 60.2086V51.3766H174.082V48.7846H176.61V44.9766L179.618 44.0166V48.7846H183.778V51.3766H179.618V59.8246C179.618 61.6486 180.45 62.4806 182.242 62.4806C182.594 62.4806 183.394 62.4166 184.162 61.9686ZM194.407 48.4006C199.047 48.4006 201.735 51.7606 201.735 55.9206C201.735 56.5286 201.671 57.1686 201.575 57.6806H189.639C189.991 61.1046 192.455 62.4806 195.239 62.4806C197.287 62.4806 199.303 61.7446 200.679 60.5286V63.7606C198.599 65.1686 196.711 65.3606 194.791 65.3606C189.671 65.3606 186.375 61.6806 186.375 56.9126C186.375 52.1446 189.543 48.4006 194.407 48.4006ZM194.343 51.1846C191.943 51.1846 190.215 52.6886 189.735 55.1526H198.663C198.439 52.7526 196.775 51.1846 194.343 51.1846ZM208.946 48.7846V51.6326C209.746 49.6486 211.41 48.4006 213.586 48.4006C213.97 48.4006 214.386 48.4646 214.578 48.5286V51.5686C214.45 51.5366 214.13 51.5046 213.938 51.5046C210.962 51.5046 209.01 53.6486 209.01 56.9446V64.9766H205.906V48.7846H208.946Z" fill="white"/>
</svg>
