<svg width="229" height="72" viewBox="0 0 229 72" fill="none" xmlns="http://www.w3.org/2000/svg">
<path d="M60.3555 14.5921V22.9761H57.1875V0.384073H65.1555C69.0915 0.384073 72.3235 3.55207 72.3235 7.42407C72.3235 11.3921 69.0915 14.5921 65.1875 14.5921H60.3555ZM60.3555 11.8401H64.6755C67.0435 11.8401 69.0595 9.92007 69.0595 7.42407C69.0595 5.05607 67.0435 3.26407 64.6755 3.26407H60.3555V11.8401ZM87.2542 20.5441C86.3262 22.2401 84.6942 23.3601 82.0062 23.3601C78.3262 23.3601 75.7342 20.8641 75.7342 16.5761V6.78407H78.8382V16.4481C78.8382 19.1361 80.5662 20.5121 82.6462 20.5121C86.0062 20.5121 87.1902 17.4081 87.1902 15.0081V6.78407H90.2942V22.9761H87.2542V20.5441ZM98.8435 6.78407V9.63207C99.6435 7.64807 101.307 6.40007 103.483 6.40007C103.867 6.40007 104.283 6.46407 104.475 6.52807V9.56807C104.347 9.53607 104.027 9.50407 103.835 9.50407C100.859 9.50407 98.9075 11.6481 98.9075 14.9441V22.9761H95.8035V6.78407H98.8435ZM109.496 7.24792e-05C110.552 7.24792e-05 111.448 0.864073 111.448 1.95207C111.448 3.04007 110.552 3.93607 109.496 3.93607C108.44 3.93607 107.544 3.04007 107.544 1.95207C107.544 0.864073 108.44 7.24792e-05 109.496 7.24792e-05ZM107.928 22.9761V6.78407H111.032V22.9761H107.928ZM120.426 5.40807V6.78407H124.298V9.37607H120.426V22.9761H117.322V9.37607H115.082V6.78407H117.322V5.31207C117.322 2.04807 119.626 7.24792e-05 122.858 7.24792e-05C123.69 7.24792e-05 124.458 0.0960732 125.098 0.448072V3.13607C124.554 2.88007 123.946 2.75207 123.338 2.75207C121.834 2.75207 120.426 3.45607 120.426 5.40807ZM129.184 7.24792e-05C130.24 7.24792e-05 131.136 0.864073 131.136 1.95207C131.136 3.04007 130.24 3.93607 129.184 3.93607C128.128 3.93607 127.232 3.04007 127.232 1.95207C127.232 0.864073 128.128 7.24792e-05 129.184 7.24792e-05ZM127.616 22.9761V6.78407H130.72V22.9761H127.616ZM142.898 6.40007C147.538 6.40007 150.226 9.76007 150.226 13.9201C150.226 14.5281 150.162 15.1681 150.066 15.6801H138.13C138.482 19.1041 140.946 20.4801 143.73 20.4801C145.778 20.4801 147.794 19.7441 149.17 18.5281V21.7601C147.09 23.1681 145.202 23.3601 143.282 23.3601C138.162 23.3601 134.866 19.6801 134.866 14.9121C134.866 10.1441 138.034 6.40007 142.898 6.40007ZM142.834 9.18407C140.434 9.18407 138.706 10.6881 138.226 13.1521H147.154C146.93 10.7521 145.266 9.18407 142.834 9.18407ZM166.237 20.5761C165.341 22.1441 163.005 23.3601 160.765 23.3601C156.445 23.3601 153.085 19.8081 153.085 14.8801C153.085 9.95207 156.445 6.40007 160.765 6.40007C163.005 6.40007 165.181 7.58407 166.109 9.02407V0.384073H169.213V22.9761H166.237V20.5761ZM161.277 20.5121C163.965 20.5121 166.301 18.2401 166.301 14.8801C166.301 11.4881 163.965 9.24807 161.277 9.24807C158.589 9.24807 156.221 11.5201 156.221 14.8801C156.221 18.2401 158.589 20.5121 161.277 20.5121ZM-1.43051e-06 64.9761V42.3841H7.936C12.576 42.3841 15.584 45.1361 15.584 49.1681C15.584 52.1441 13.568 54.8001 10.4 55.5681L16.864 64.9761H13.12L6.976 56.0481H3.168V64.9761H-1.43051e-06ZM3.168 53.2321H7.936C10.72 53.2321 12.256 51.6001 12.256 49.2001C12.256 46.8641 10.72 45.2641 7.936 45.2641H3.168V53.2321ZM26.6477 48.4001C31.2877 48.4001 33.9757 51.7601 33.9757 55.9201C33.9757 56.5281 33.9117 57.1681 33.8158 57.6801H21.8797C22.2317 61.1041 24.6957 62.4801 27.4797 62.4801C29.5277 62.4801 31.5437 61.7441 32.9197 60.5281V63.7601C30.8397 65.1681 28.9517 65.3601 27.0317 65.3601C21.9117 65.3601 18.6157 61.6801 18.6157 56.9121C18.6157 52.1441 21.7837 48.4001 26.6477 48.4001ZM26.5837 51.1841C24.1837 51.1841 22.4557 52.6881 21.9757 55.1521H30.9037C30.6797 52.7521 29.0157 51.1841 26.5837 51.1841ZM49.7632 49.4881V52.5921C48.5792 51.7601 46.8512 51.3441 45.5392 51.3441C42.1792 51.3441 39.9712 53.7121 39.9712 56.9121C39.9712 59.8561 41.9872 62.4161 45.5392 62.4161C47.0112 62.4161 48.6752 62.0321 49.8272 61.1361V64.2721C48.5792 65.0721 46.7872 65.3601 45.2832 65.3601C40.3872 65.3601 36.8032 61.7121 36.8032 56.9121C36.8032 52.0801 40.3232 48.4001 45.3152 48.4001C46.8512 48.4001 48.5152 48.7521 49.7632 49.4881ZM52.708 71.3441V68.5601C53.572 69.1041 54.372 69.1041 54.756 69.1041C56.164 69.1041 56.996 68.3041 57.668 66.5441L58.34 64.7521L51.62 48.7841H55.108L59.812 61.0401L64.388 48.7841H67.748L60.228 67.6321C59.268 70.0641 58.02 71.7601 55.044 71.7601C54.404 71.7601 53.604 71.7281 52.708 71.3441ZM82.2945 49.4881V52.5921C81.1105 51.7601 79.3825 51.3441 78.0705 51.3441C74.7105 51.3441 72.5025 53.7121 72.5025 56.9121C72.5025 59.8561 74.5185 62.4161 78.0705 62.4161C79.5425 62.4161 81.2065 62.0321 82.3585 61.1361V64.2721C81.1105 65.0721 79.3185 65.3601 77.8145 65.3601C72.9185 65.3601 69.3345 61.7121 69.3345 56.9121C69.3345 52.0801 72.8545 48.4001 77.8465 48.4001C79.3825 48.4001 81.0465 48.7521 82.2945 49.4881ZM86.4552 60.9441V42.3841H89.5592V60.4001C89.5592 61.6161 89.8472 62.5121 91.0632 62.5121C91.3512 62.5121 91.7032 62.4801 92.1192 62.3201V65.1041C91.6392 65.2961 91.1592 65.3601 90.6792 65.3601C88.5352 65.3601 86.4552 64.3681 86.4552 60.9441ZM102.366 48.4001C107.006 48.4001 109.694 51.7601 109.694 55.9201C109.694 56.5281 109.63 57.1681 109.535 57.6801H97.5985C97.9505 61.1041 100.414 62.4801 103.198 62.4801C105.246 62.4801 107.262 61.7441 108.638 60.5281V63.7601C106.558 65.1681 104.67 65.3601 102.75 65.3601C97.6305 65.3601 94.3345 61.6801 94.3345 56.9121C94.3345 52.1441 97.5025 48.4001 102.366 48.4001ZM102.302 51.1841C99.9025 51.1841 98.1745 52.6881 97.6945 55.1521H106.622C106.398 52.7521 104.734 51.1841 102.302 51.1841ZM125.706 62.5761C124.81 64.1441 122.474 65.3601 120.234 65.3601C115.914 65.3601 112.554 61.8081 112.554 56.8801C112.554 51.9521 115.914 48.4001 120.234 48.4001C122.474 48.4001 124.65 49.5841 125.578 51.0241V42.3841H128.682V64.9761H125.706V62.5761ZM120.746 62.5121C123.434 62.5121 125.77 60.2401 125.77 56.8801C125.77 53.4881 123.434 51.2481 120.746 51.2481C118.058 51.2481 115.69 53.5201 115.69 56.8801C115.69 60.2401 118.058 62.5121 120.746 62.5121ZM154.776 47.1201L149.08 64.9761H145.816L139 42.3841H142.296L147.512 60.4001L153.112 42.3841H156.44L162.04 60.4001L167.256 42.3841H170.552L163.736 64.9761H160.472L154.776 47.1201ZM172.52 50.0001C173.832 49.1041 175.848 48.4001 178.024 48.4001C182.152 48.4001 184.712 50.8001 184.712 54.5121V64.9761H181.832V62.4801C180.68 64.4001 178.792 65.3601 176.552 65.3601C173.544 65.3601 171.304 63.3761 171.304 60.6881C171.304 57.8081 173.448 56.2081 177.352 55.6641L181.608 55.0561V54.4481C181.608 52.4321 180.2 51.2161 177.832 51.2161C175.688 51.2161 173.736 52.2081 172.52 53.1041V50.0001ZM177.064 62.7361C179.688 62.7361 181.672 60.5601 181.672 58.2881V57.4561L177.832 57.9361C175.592 58.2241 174.344 59.0881 174.344 60.4961C174.344 61.8721 175.464 62.7361 177.064 62.7361ZM198.027 61.9681V64.8161C197.419 65.1681 196.555 65.3601 195.435 65.3601C192.267 65.3601 190.379 63.4721 190.379 60.2081V51.3761H187.947V48.7841H190.475V44.9761L193.483 44.0161V48.7841H197.643V51.3761H193.483V59.8241C193.483 61.6481 194.315 62.4801 196.107 62.4801C196.459 62.4801 197.259 62.4161 198.027 61.9681ZM208.273 48.4001C212.913 48.4001 215.601 51.7601 215.601 55.9201C215.601 56.5281 215.537 57.1681 215.441 57.6801H203.505C203.857 61.1041 206.321 62.4801 209.105 62.4801C211.153 62.4801 213.169 61.7441 214.545 60.5281V63.7601C212.465 65.1681 210.577 65.3601 208.657 65.3601C203.537 65.3601 200.241 61.6801 200.241 56.9121C200.241 52.1441 203.409 48.4001 208.273 48.4001ZM208.209 51.1841C205.809 51.1841 204.081 52.6881 203.601 55.1521H212.529C212.305 52.7521 210.641 51.1841 208.209 51.1841ZM222.812 48.7841V51.6321C223.612 49.6481 225.276 48.4001 227.452 48.4001C227.836 48.4001 228.252 48.4641 228.444 48.5281V51.5681C228.316 51.5361 227.996 51.5041 227.804 51.5041C224.828 51.5041 222.876 53.6481 222.876 56.9441V64.9761H219.772V48.7841H222.812Z" fill="white"/>
</svg>
