<svg width="749" height="747" viewBox="0 0 749 747" fill="none" xmlns="http://www.w3.org/2000/svg">
<g filter="url(#filter0_d_325_77)">
<rect x="86.3042" y="43.1523" width="576" height="574" rx="50.3442" fill="white" shape-rendering="crispEdges"/>
<g filter="url(#filter1_d_325_77)">
<rect x="309.257" y="115.073" width="129.456" height="129.456" rx="64.7282" fill="#23A55A" shape-rendering="crispEdges"/>
<rect x="312.853" y="118.669" width="122.264" height="122.264" rx="61.1322" stroke="white" stroke-width="7.19202" shape-rendering="crispEdges"/>
<rect x="303.861" y="109.679" width="140.244" height="140.244" rx="70.1222" stroke="#23A55A" stroke-width="3.59601"/>
<path d="M347.202 181.993L365.324 200.115L401.569 161.281" stroke="white" stroke-width="7.76674" stroke-linecap="round" stroke-linejoin="round"/>
</g>
<path d="M182.805 365.653V376.025C180.563 377.458 177.417 378.143 174.707 378.143C167.73 378.143 163.027 373.316 163.027 366.681C163.027 359.767 168.509 355.282 174.894 355.282C177.51 355.282 179.878 355.842 182.12 357.057V361.293C179.784 359.798 177.417 359.206 175.019 359.206C170.72 359.206 167.232 362.196 167.232 366.868C167.232 371.416 170.222 374.25 174.801 374.25C175.984 374.25 177.542 374.032 179.005 373.565V369.08H173.804V365.653H182.805ZM190.823 361.885V364.626C191.633 362.695 193.19 361.511 195.308 361.511C195.682 361.511 196.118 361.573 196.305 361.636V365.56C196.18 365.529 195.776 365.467 195.433 365.467C192.536 365.467 190.854 367.491 190.854 370.699V377.77H186.805V361.885H190.823ZM205.702 361.511C210.405 361.511 213.021 364.875 213.021 369.017C213.021 369.609 212.959 370.325 212.897 370.793H201.902C202.213 373.565 204.425 374.655 206.854 374.655C208.817 374.655 210.81 373.938 211.962 372.973V376.804C210.218 377.894 208.225 378.143 206.325 378.143C201.217 378.143 197.728 374.873 197.728 369.858C197.728 365.155 200.936 361.511 205.702 361.511ZM205.64 364.906C203.646 364.906 202.276 366.183 201.933 368.145H209.159C209.003 366.214 207.664 364.906 205.64 364.906ZM216.553 363.037C217.892 362.165 219.948 361.511 222.097 361.511C226.146 361.511 229.074 363.722 229.074 367.74V377.77H225.305V375.558C224.308 377.178 222.595 378.143 220.508 378.143C217.518 378.143 215.338 376.243 215.338 373.627C215.338 370.855 217.394 369.266 221.1 368.706L225.118 368.114V367.678C225.118 366.027 223.81 365.062 221.785 365.062C219.667 365.062 217.736 365.965 216.553 366.837V363.037ZM221.412 374.997C223.467 374.997 225.149 373.316 225.149 371.322V370.73L221.941 371.135C220.197 371.353 219.2 372.07 219.2 373.222C219.2 374.312 220.104 374.997 221.412 374.997ZM242.344 374.032V377.52C241.689 377.894 240.693 378.143 239.385 378.143C236.114 378.143 234.09 376.212 234.09 372.786V365.124H231.847V361.885H234.214V358.272L238.139 357.244V361.885H241.97V365.124H238.139V372.225C238.139 373.845 238.98 374.53 240.475 374.53C240.911 374.53 241.689 374.406 242.344 374.032ZM255.047 354.97C256.355 354.97 257.383 355.967 257.383 357.275C257.383 358.583 256.355 359.58 255.047 359.58C253.739 359.58 252.711 358.583 252.711 357.275C252.711 355.967 253.739 354.97 255.047 354.97ZM257.072 361.885V378.61C257.072 382.753 254.58 384.373 251.59 384.373C250.593 384.373 249.908 384.217 249.378 383.968V380.51C249.908 380.76 250.468 380.822 250.936 380.822C252.244 380.822 253.022 380.012 253.022 378.424V361.885H257.072ZM268.948 361.511C273.807 361.511 277.326 365.124 277.326 369.827C277.326 374.53 273.807 378.143 268.948 378.143C264.058 378.143 260.538 374.53 260.538 369.827C260.538 365.124 264.058 361.511 268.948 361.511ZM268.948 365.217C266.425 365.217 264.618 367.211 264.618 369.827C264.618 372.443 266.425 374.437 268.948 374.437C271.439 374.437 273.246 372.443 273.246 369.827C273.246 367.211 271.439 365.217 268.948 365.217ZM284.623 375.62V377.77H280.854V355.655H284.872V363.847C285.744 362.508 287.675 361.511 289.731 361.511C293.78 361.511 297.112 364.906 297.112 369.827C297.112 374.748 293.78 378.143 289.668 378.143C287.55 378.143 285.495 377.084 284.623 375.62ZM288.89 374.561C291.132 374.561 293.063 372.661 293.063 369.858C293.063 367.055 291.132 365.155 288.89 365.155C286.585 365.155 284.685 367.024 284.685 369.858C284.685 372.661 286.585 374.561 288.89 374.561ZM299.204 375.838C299.204 374.53 300.232 373.565 301.54 373.565C302.849 373.565 303.876 374.53 303.876 375.838C303.876 377.147 302.849 378.143 301.54 378.143C300.232 378.143 299.204 377.147 299.204 375.838ZM318.488 377.77V367.896L310.607 355.655H315.217L320.543 364.314L325.901 355.655H330.479L322.599 367.896V377.77H318.488ZM337.172 361.511C342.031 361.511 345.551 365.124 345.551 369.827C345.551 374.53 342.031 378.143 337.172 378.143C332.282 378.143 328.763 374.53 328.763 369.827C328.763 365.124 332.282 361.511 337.172 361.511ZM337.172 365.217C334.65 365.217 332.843 367.211 332.843 369.827C332.843 372.443 334.65 374.437 337.172 374.437C339.664 374.437 341.471 372.443 341.471 369.827C341.471 367.211 339.664 365.217 337.172 365.217ZM359.886 375.62C358.983 377.147 357.426 378.143 354.996 378.143C351.321 378.143 348.829 375.683 348.829 371.54V361.885H352.878V371.042C352.878 373.347 354.249 374.53 356.055 374.53C358.734 374.53 359.762 372.132 359.762 370.076V361.885H363.811V377.77H359.886V375.62ZM371.569 355.873C371.382 356.6 371.143 357.389 370.852 358.241C370.562 359.092 370.25 359.943 369.918 360.795C369.586 361.625 369.243 362.414 368.89 363.162H366.492C366.637 362.56 366.783 361.926 366.928 361.262C367.094 360.597 367.239 359.933 367.364 359.268C367.509 358.583 367.634 357.929 367.738 357.306C367.862 356.662 367.966 356.071 368.049 355.531H371.351L371.569 355.873ZM382.206 377.77H378.437L372.052 361.885H376.257L380.306 372.817L384.386 361.885H388.591L382.206 377.77ZM397.662 361.511C402.365 361.511 404.981 364.875 404.981 369.017C404.981 369.609 404.919 370.325 404.857 370.793H393.862C394.173 373.565 396.385 374.655 398.814 374.655C400.777 374.655 402.77 373.938 403.922 372.973V376.804C402.178 377.894 400.185 378.143 398.285 378.143C393.177 378.143 389.688 374.873 389.688 369.858C389.688 365.155 392.896 361.511 397.662 361.511ZM397.6 364.906C395.606 364.906 394.236 366.183 393.893 368.145H401.119C400.963 366.214 399.624 364.906 397.6 364.906ZM421.322 361.511C423.159 361.511 425.059 362.04 426.243 362.881V366.619C424.903 365.529 423.253 364.875 421.477 364.875C419.764 364.875 418.923 365.498 418.923 366.37C418.923 367.335 419.889 367.803 421.851 368.332C424.436 369.017 427.146 369.921 427.146 373.129C427.146 376.212 424.748 378.143 420.792 378.143C418.612 378.143 416.618 377.552 415.186 376.524V372.506C416.681 373.938 418.363 374.811 420.543 374.811C422.412 374.811 423.377 374.125 423.377 373.16C423.377 372.101 422.162 371.727 420.045 371.073C417.584 370.325 415.092 369.329 415.092 366.463C415.092 363.629 417.522 361.511 421.322 361.511ZM441.403 375.62C440.5 377.147 438.943 378.143 436.513 378.143C432.838 378.143 430.346 375.683 430.346 371.54V361.885H434.395V371.042C434.395 373.347 435.766 374.53 437.572 374.53C440.251 374.53 441.279 372.132 441.279 370.076V361.885H445.328V377.77H441.403V375.62ZM461.495 362.508V366.308C460.436 365.56 458.91 365.155 457.664 365.155C454.83 365.155 452.899 367.086 452.899 369.858C452.899 372.443 454.705 374.499 457.664 374.499C459.035 374.499 460.499 374.125 461.526 373.316V377.147C460.374 377.863 458.63 378.143 457.166 378.143C452.338 378.143 448.787 374.561 448.787 369.858C448.787 365.124 452.276 361.511 457.197 361.511C458.661 361.511 460.312 361.854 461.495 362.508ZM476.612 362.508V366.308C475.553 365.56 474.027 365.155 472.781 365.155C469.947 365.155 468.016 367.086 468.016 369.858C468.016 372.443 469.822 374.499 472.781 374.499C474.152 374.499 475.616 374.125 476.643 373.316V377.147C475.491 377.863 473.747 378.143 472.283 378.143C467.455 378.143 463.904 374.561 463.904 369.858C463.904 365.124 467.393 361.511 472.314 361.511C473.778 361.511 475.429 361.854 476.612 362.508ZM487.026 361.511C491.729 361.511 494.346 364.875 494.346 369.017C494.346 369.609 494.284 370.325 494.221 370.793H483.226C483.538 373.565 485.749 374.655 488.179 374.655C490.141 374.655 492.134 373.938 493.287 372.973V376.804C491.543 377.894 489.549 378.143 487.649 378.143C482.541 378.143 479.053 374.873 479.053 369.858C479.053 365.155 482.261 361.511 487.026 361.511ZM486.964 364.906C484.971 364.906 483.6 366.183 483.258 368.145H490.484C490.328 366.214 488.989 364.906 486.964 364.906ZM503.203 361.511C505.041 361.511 506.941 362.04 508.125 362.881V366.619C506.785 365.529 505.134 364.875 503.359 364.875C501.646 364.875 500.805 365.498 500.805 366.37C500.805 367.335 501.771 367.803 503.733 368.332C506.318 369.017 509.028 369.921 509.028 373.129C509.028 376.212 506.63 378.143 502.674 378.143C500.494 378.143 498.5 377.552 497.067 376.524V372.506C498.563 373.938 500.244 374.811 502.425 374.811C504.294 374.811 505.259 374.125 505.259 373.16C505.259 372.101 504.044 371.727 501.926 371.073C499.466 370.325 496.974 369.329 496.974 366.463C496.974 363.629 499.403 361.511 503.203 361.511ZM517.803 361.511C519.641 361.511 521.541 362.04 522.725 362.881V366.619C521.385 365.529 519.735 364.875 517.959 364.875C516.246 364.875 515.405 365.498 515.405 366.37C515.405 367.335 516.371 367.803 518.333 368.332C520.918 369.017 523.628 369.921 523.628 373.129C523.628 376.212 521.23 378.143 517.274 378.143C515.094 378.143 513.1 377.552 511.668 376.524V372.506C513.163 373.938 514.844 374.811 517.025 374.811C518.894 374.811 519.859 374.125 519.859 373.16C519.859 372.101 518.644 371.727 516.526 371.073C514.066 370.325 511.574 369.329 511.574 366.463C511.574 363.629 514.004 361.511 517.803 361.511ZM532.061 360.857V361.885H535.549V365.124H532.092V377.77H528.012V365.124H525.894V361.885H528.043V360.763C528.043 357.368 530.348 355.282 533.93 355.282C534.833 355.282 535.674 355.406 536.235 355.686V358.988C535.767 358.801 535.176 358.677 534.584 358.677C533.244 358.677 532.061 359.3 532.061 360.857ZM549.292 375.62C548.388 377.147 546.831 378.143 544.402 378.143C540.726 378.143 538.234 375.683 538.234 371.54V361.885H542.284V371.042C542.284 373.347 543.654 374.53 545.461 374.53C548.139 374.53 549.167 372.132 549.167 370.076V361.885H553.216V377.77H549.292V375.62ZM557.672 373.471V355.655H561.721V372.724C561.721 373.845 562.033 374.561 563.154 374.561C563.466 374.561 563.808 374.499 564.182 374.375V377.832C563.652 378.05 563.029 378.143 562.313 378.143C559.728 378.143 557.672 376.866 557.672 373.471ZM567.223 373.471V355.655H571.272V372.724C571.272 373.845 571.584 374.561 572.705 374.561C573.016 374.561 573.359 374.499 573.733 374.375V377.832C573.203 378.05 572.58 378.143 571.864 378.143C569.279 378.143 567.223 376.866 567.223 373.471ZM575.196 383.874V380.417C576.037 380.884 576.878 380.946 577.376 380.946C578.964 380.946 579.712 380.106 580.46 378.361L580.802 377.552L574.292 361.885H578.622L582.671 373.004L586.627 361.885H590.831L583.792 379.576C582.577 382.628 581.02 384.373 577.843 384.373C577.033 384.373 576.068 384.279 575.196 383.874ZM176.448 404.037C177.788 403.165 179.843 402.511 181.992 402.511C186.042 402.511 188.969 404.722 188.969 408.74V418.77H185.201V416.558C184.204 418.178 182.491 419.143 180.404 419.143C177.414 419.143 175.234 417.243 175.234 414.627C175.234 411.855 177.289 410.266 180.996 409.706L185.014 409.114V408.678C185.014 407.027 183.706 406.062 181.681 406.062C179.563 406.062 177.632 406.965 176.448 407.837V404.037ZM181.307 415.997C183.363 415.997 185.045 414.316 185.045 412.322V411.73L181.837 412.135C180.093 412.353 179.096 413.07 179.096 414.222C179.096 415.312 179.999 415.997 181.307 415.997ZM197.314 405.034C198.217 403.508 199.806 402.511 202.204 402.511C205.88 402.511 208.371 404.972 208.371 409.114V418.77H204.322V409.612C204.322 407.308 202.952 406.124 201.145 406.124C198.467 406.124 197.47 408.522 197.47 410.578V418.77H193.421V402.885H197.314V405.034ZM218.122 402.511C219.96 402.511 221.86 403.04 223.044 403.881V407.619C221.704 406.529 220.054 405.875 218.278 405.875C216.565 405.875 215.724 406.498 215.724 407.37C215.724 408.335 216.69 408.803 218.652 409.332C221.237 410.017 223.947 410.921 223.947 414.129C223.947 417.212 221.549 419.143 217.593 419.143C215.413 419.143 213.419 418.552 211.987 417.524V413.506C213.482 414.938 215.164 415.811 217.344 415.811C219.213 415.811 220.178 415.125 220.178 414.16C220.178 413.101 218.963 412.727 216.845 412.073C214.385 411.325 211.893 410.329 211.893 407.463C211.893 404.629 214.323 402.511 218.122 402.511ZM230.421 418.77L225.22 402.885H229.238L232.477 413.755L235.965 402.885H239.267L242.755 413.755L245.995 402.885H250.013L244.78 418.77H241.011L237.616 408.46L234.19 418.77H230.421ZM259.311 402.511C264.015 402.511 266.631 405.875 266.631 410.017C266.631 410.609 266.569 411.325 266.506 411.793H255.511C255.823 414.565 258.034 415.655 260.464 415.655C262.426 415.655 264.419 414.938 265.572 413.973V417.804C263.828 418.894 261.834 419.143 259.934 419.143C254.826 419.143 251.338 415.873 251.338 410.858C251.338 406.155 254.546 402.511 259.311 402.511ZM259.249 405.906C257.256 405.906 255.885 407.183 255.543 409.145H262.769C262.613 407.214 261.274 405.906 259.249 405.906ZM274.18 402.885V405.626C274.99 403.695 276.547 402.511 278.665 402.511C279.039 402.511 279.475 402.573 279.662 402.636V406.56C279.538 406.529 279.133 406.467 278.79 406.467C275.893 406.467 274.211 408.491 274.211 411.699V418.77H270.162V402.885H274.18ZM289.059 402.511C293.762 402.511 296.378 405.875 296.378 410.017C296.378 410.609 296.316 411.325 296.254 411.793H285.259C285.57 414.565 287.782 415.655 290.211 415.655C292.174 415.655 294.167 414.938 295.319 413.973V417.804C293.575 418.894 291.582 419.143 289.682 419.143C284.574 419.143 281.085 415.873 281.085 410.858C281.085 406.155 284.293 402.511 289.059 402.511ZM288.997 405.906C287.003 405.906 285.633 407.183 285.29 409.145H292.516C292.36 407.214 291.021 405.906 288.997 405.906ZM311.278 416.62C310.438 418.084 308.351 419.143 306.233 419.143C302.09 419.143 298.757 415.748 298.757 410.827C298.757 405.906 302.121 402.511 306.17 402.511C308.226 402.511 310.157 403.539 311.029 404.847V396.655H315.047V418.77H311.278V416.62ZM307.011 415.561C309.316 415.561 311.247 413.661 311.247 410.858C311.247 408.024 309.316 406.155 307.011 406.155C304.738 406.155 302.807 408.055 302.807 410.858C302.807 413.661 304.738 415.561 307.011 415.561ZM327.194 404.037C328.533 403.165 330.589 402.511 332.738 402.511C336.787 402.511 339.715 404.722 339.715 408.74V418.77H335.946V416.558C334.949 418.178 333.236 419.143 331.149 419.143C328.159 419.143 325.979 417.243 325.979 414.627C325.979 411.855 328.035 410.266 331.741 409.706L335.759 409.114V408.678C335.759 407.027 334.451 406.062 332.426 406.062C330.308 406.062 328.377 406.965 327.194 407.837V404.037ZM332.053 415.997C334.108 415.997 335.79 414.316 335.79 412.322V411.73L332.582 412.135C330.838 412.353 329.841 413.07 329.841 414.222C329.841 415.312 330.744 415.997 332.053 415.997ZM343.979 414.471V396.655H348.028V413.724C348.028 414.845 348.34 415.561 349.461 415.561C349.773 415.561 350.115 415.499 350.489 415.375V418.832C349.96 419.05 349.337 419.143 348.62 419.143C346.035 419.143 343.979 417.866 343.979 414.471ZM353.53 414.471V396.655H357.579V413.724C357.579 414.845 357.891 415.561 359.012 415.561C359.324 415.561 359.666 415.499 360.04 415.375V418.832C359.51 419.05 358.888 419.143 358.171 419.143C355.586 419.143 353.53 417.866 353.53 414.471ZM379.721 415.032V418.52C379.067 418.894 378.07 419.143 376.762 419.143C373.491 419.143 371.467 417.212 371.467 413.786V406.124H369.224V402.885H371.591V399.272L375.516 398.244V402.885H379.347V406.124H375.516V413.225C375.516 414.845 376.357 415.53 377.852 415.53C378.288 415.53 379.067 415.406 379.721 415.032ZM382.917 396.655H386.966V404.785C387.87 403.508 389.396 402.511 391.701 402.511C395.314 402.511 397.868 404.972 397.868 409.114V418.77H393.819V409.612C393.819 407.308 392.417 406.124 390.642 406.124C387.963 406.124 386.966 408.304 386.966 410.36V418.77H382.917V396.655ZM409.114 402.511C413.817 402.511 416.433 405.875 416.433 410.017C416.433 410.609 416.371 411.325 416.309 411.793H405.314C405.625 414.565 407.837 415.655 410.266 415.655C412.228 415.655 414.222 414.938 415.374 413.973V417.804C413.63 418.894 411.637 419.143 409.737 419.143C404.629 419.143 401.14 415.873 401.14 410.858C401.14 406.155 404.348 402.511 409.114 402.511ZM409.052 405.906C407.058 405.906 405.688 407.183 405.345 409.145H412.571C412.415 407.214 411.076 405.906 409.052 405.906ZM442.585 402.885V424.999H438.536V416.932C437.663 418.209 435.732 419.143 433.739 419.143C429.628 419.143 426.295 415.748 426.295 410.827C426.295 405.906 429.659 402.511 433.739 402.511C435.95 402.511 437.913 403.695 438.816 405.096V402.885H442.585ZM438.754 410.858C438.754 408.024 436.854 406.155 434.549 406.155C432.275 406.155 430.344 408.055 430.344 410.858C430.344 413.661 432.275 415.561 434.549 415.561C436.854 415.561 438.754 413.661 438.754 410.858ZM457.965 416.62C457.062 418.147 455.505 419.143 453.075 419.143C449.4 419.143 446.908 416.683 446.908 412.54V402.885H450.957V412.042C450.957 414.347 452.328 415.53 454.134 415.53C456.813 415.53 457.841 413.132 457.841 411.076V402.885H461.89V418.77H457.965V416.62ZM473.354 402.511C478.057 402.511 480.673 405.875 480.673 410.017C480.673 410.609 480.611 411.325 480.549 411.793H469.554C469.866 414.565 472.077 415.655 474.506 415.655C476.469 415.655 478.462 414.938 479.614 413.973V417.804C477.87 418.894 475.877 419.143 473.977 419.143C468.869 419.143 465.38 415.873 465.38 410.858C465.38 406.155 468.589 402.511 473.354 402.511ZM473.292 405.906C471.298 405.906 469.928 407.183 469.585 409.145H476.811C476.656 407.214 475.316 405.906 473.292 405.906ZM489.531 402.511C491.369 402.511 493.269 403.04 494.452 403.881V407.619C493.113 406.529 491.462 405.875 489.687 405.875C487.974 405.875 487.133 406.498 487.133 407.37C487.133 408.335 488.098 408.803 490.061 409.332C492.646 410.017 495.356 410.921 495.356 414.129C495.356 417.212 492.957 419.143 489.002 419.143C486.821 419.143 484.828 418.552 483.395 417.524V413.506C484.89 414.938 486.572 415.811 488.752 415.811C490.621 415.811 491.587 415.125 491.587 414.16C491.587 413.101 490.372 412.727 488.254 412.073C485.793 411.325 483.302 410.329 483.302 407.463C483.302 404.629 485.731 402.511 489.531 402.511ZM507.775 415.032V418.52C507.121 418.894 506.124 419.143 504.816 419.143C501.546 419.143 499.521 417.212 499.521 413.786V406.124H497.279V402.885H499.646V399.272L503.57 398.244V402.885H507.402V406.124H503.57V413.225C503.57 414.845 504.411 415.53 505.906 415.53C506.343 415.53 507.121 415.406 507.775 415.032ZM513.027 395.97C514.304 395.97 515.332 396.967 515.332 398.275C515.332 399.583 514.304 400.58 513.027 400.58C511.719 400.58 510.66 399.583 510.66 398.275C510.66 396.967 511.719 395.97 513.027 395.97ZM510.972 418.77V402.885H515.021V418.77H510.972ZM526.897 402.511C531.756 402.511 535.275 406.124 535.275 410.827C535.275 415.53 531.756 419.143 526.897 419.143C522.007 419.143 518.487 415.53 518.487 410.827C518.487 406.124 522.007 402.511 526.897 402.511ZM526.897 406.217C524.374 406.217 522.568 408.211 522.568 410.827C522.568 413.443 524.374 415.437 526.897 415.437C529.389 415.437 531.195 413.443 531.195 410.827C531.195 408.211 529.389 406.217 526.897 406.217ZM542.696 405.034C543.6 403.508 545.188 402.511 547.586 402.511C551.262 402.511 553.753 404.972 553.753 409.114V418.77H549.704V409.612C549.704 407.308 548.334 406.124 546.527 406.124C543.849 406.124 542.852 408.522 542.852 410.578V418.77H538.803V402.885H542.696V405.034ZM563.505 402.511C565.342 402.511 567.242 403.04 568.426 403.881V407.619C567.086 406.529 565.436 405.875 563.66 405.875C561.947 405.875 561.106 406.498 561.106 407.37C561.106 408.335 562.072 408.803 564.034 409.332C566.619 410.017 569.329 410.921 569.329 414.129C569.329 417.212 566.931 419.143 562.975 419.143C560.795 419.143 558.801 418.552 557.369 417.524V413.506C558.864 414.938 560.546 415.811 562.726 415.811C564.595 415.811 565.56 415.125 565.56 414.16C565.56 413.101 564.346 412.727 562.228 412.073C559.767 411.325 557.275 410.329 557.275 407.463C557.275 404.629 559.705 402.511 563.505 402.511ZM571.875 416.838C571.875 415.53 572.903 414.565 574.211 414.565C575.519 414.565 576.547 415.53 576.547 416.838C576.547 418.147 575.519 419.143 574.211 419.143C572.903 419.143 571.875 418.147 571.875 416.838Z" fill="#0E2A72"/>
<path d="M308.496 303.344C310.647 303.344 312.657 302.082 314.48 300.399L319.342 306.663C315.742 309.889 312.47 311.245 307.935 311.245C298.96 311.245 293.21 305.728 293.21 295.49C293.21 283.102 300.736 279.035 307.935 279.035C313.031 279.035 317.238 281.232 319.903 285.954L313.124 290.816C311.301 288.244 309.572 287.076 307.702 287.076C305.131 287.076 303.167 289.507 303.167 294.929C303.167 299.978 304.757 303.344 308.496 303.344ZM330.91 304.653C332.359 304.653 332.873 303.11 332.873 298.716C332.873 294.275 332.406 292.452 330.863 292.452C329.508 292.452 328.947 294.462 328.947 297.875C328.947 301.661 329.134 304.653 330.91 304.653ZM319.27 298.903C319.27 289.039 325.908 285.767 331.19 285.767C335.071 285.767 342.597 286.936 342.597 298.062C342.597 306.71 337.221 311.432 330.536 311.432C323.617 311.432 319.27 307.411 319.27 298.903ZM354.9 296.192V310.684H345.457V291.564L344.756 286.515H352.282L353.03 289.74C354.386 286.562 356.723 285.767 358.36 285.767C359.575 285.767 361.118 286.001 362.24 286.655L361.071 294.555C360.042 294.088 358.874 293.714 357.658 293.714C356.022 293.714 354.9 294.368 354.9 296.192ZM373.892 296.192V310.684H364.448V291.564L363.747 286.515H371.274L372.022 289.74C373.377 286.562 375.715 285.767 377.351 285.767C378.566 285.767 380.109 286.001 381.231 286.655L380.062 294.555C379.034 294.088 377.865 293.714 376.65 293.714C375.014 293.714 373.892 294.368 373.892 296.192ZM393.793 285.767C398.889 285.767 402.488 288.198 402.488 293.667C402.488 300.072 395.757 301.755 390.942 302.222C391.315 303.625 392.624 304.513 394.635 304.513C396.551 304.513 398.608 303.718 400.338 302.596L402.722 308.767C402.816 308.72 398.982 311.432 393.185 311.432C384.631 311.432 381.311 306.476 381.311 299.371C381.311 292.592 385.425 285.767 393.793 285.767ZM394.448 293.574C394.448 292.826 393.98 292.312 393.232 292.312C391.923 292.312 390.614 293.574 390.474 296.659C392.998 296.425 394.448 294.929 394.448 293.574ZM417.232 304.139C418.774 304.139 419.896 303.625 421.813 302.362L425.038 308.72C422.654 310.497 419.616 311.478 415.782 311.478C408.677 311.478 403.955 307.271 403.955 298.997C403.955 289.834 409.939 285.767 416.016 285.767C419.662 285.767 423.169 286.936 425.599 290.909L419.943 295.771C419.008 294.462 418.026 293.153 416.484 293.153C414.38 293.153 413.398 295.21 413.398 298.576C413.398 302.222 414.801 304.139 417.232 304.139ZM427.354 278.194H436.844V286.515H442.407V293.808H436.844V301.287C436.844 303.625 438.06 304.373 439.415 304.373C440.07 304.373 440.818 304.139 441.566 303.718L443.529 309.702C442.033 310.637 439.228 311.432 436.33 311.432C427.869 311.432 427.354 306.383 427.354 301.755V278.194ZM445.806 285.954V281.419C445.806 279.643 446.974 278.194 449.779 278.194C452.631 278.194 453.8 279.69 453.8 281.513V285.954L452.537 301.381H447.115L445.806 285.954ZM445.245 307.318C445.245 305.214 446.928 303.251 449.639 303.251C452.537 303.251 454.08 305.027 454.08 307.364C454.08 309.421 452.584 311.478 449.732 311.478C446.741 311.478 445.245 309.562 445.245 307.318Z" fill="#0E2A72"/>
</g>
<defs>
<filter id="filter0_d_325_77" x="-7.62939e-05" y="0.000205994" width="748.609" height="746.609" filterUnits="userSpaceOnUse" color-interpolation-filters="sRGB">
<feFlood flood-opacity="0" result="BackgroundImageFix"/>
<feColorMatrix in="SourceAlpha" type="matrix" values="0 0 0 0 0 0 0 0 0 0 0 0 0 0 0 0 0 0 127 0" result="hardAlpha"/>
<feOffset dy="43.1521"/>
<feGaussianBlur stdDeviation="43.1521"/>
<feComposite in2="hardAlpha" operator="out"/>
<feColorMatrix type="matrix" values="0 0 0 0 0 0 0 0 0 0 0 0 0 0 0 0 0 0 0.2 0"/>
<feBlend mode="normal" in2="BackgroundImageFix" result="effect1_dropShadow_325_77"/>
<feBlend mode="normal" in="SourceGraphic" in2="effect1_dropShadow_325_77" result="shape"/>
</filter>
<filter id="filter1_d_325_77" x="258.911" y="86.3043" width="230.145" height="230.145" filterUnits="userSpaceOnUse" color-interpolation-filters="sRGB">
<feFlood flood-opacity="0" result="BackgroundImageFix"/>
<feColorMatrix in="SourceAlpha" type="matrix" values="0 0 0 0 0 0 0 0 0 0 0 0 0 0 0 0 0 0 127 0" result="hardAlpha"/>
<feOffset dy="21.5761"/>
<feGaussianBlur stdDeviation="21.5761"/>
<feComposite in2="hardAlpha" operator="out"/>
<feColorMatrix type="matrix" values="0 0 0 0 0 0 0 0 0 0 0 0 0 0 0 0 0 0 0.1 0"/>
<feBlend mode="normal" in2="BackgroundImageFix" result="effect1_dropShadow_325_77"/>
<feBlend mode="normal" in="SourceGraphic" in2="effect1_dropShadow_325_77" result="shape"/>
</filter>
</defs>
</svg>
