<svg width="548" height="161" viewBox="0 0 548 161" fill="none" xmlns="http://www.w3.org/2000/svg">
<g filter="url(#filter0_d_325_88)">
<rect x="28.7681" y="14.3843" width="490.058" height="102.728" rx="21.5761" fill="#0E2A72" shape-rendering="crispEdges"/>
<path d="M257.524 52.3232H261.293V72.7485H258.071L247.916 58.9399V72.7485H244.118V52.3232H247.369L257.524 66.1319V52.3232ZM271.986 57.7316C276.33 57.7316 278.747 60.8385 278.747 64.6647C278.747 65.2113 278.689 65.873 278.632 66.3045H268.477C268.764 68.8648 270.807 69.8717 273.051 69.8717C274.863 69.8717 276.704 69.2101 277.769 68.3182V71.8567C276.158 72.8636 274.317 73.0938 272.562 73.0938C267.844 73.0938 264.622 70.0731 264.622 65.4414C264.622 61.0975 267.585 57.7316 271.986 57.7316ZM271.929 60.8673C270.088 60.8673 268.822 62.0468 268.505 63.8592H275.18C275.036 62.0756 273.799 60.8673 271.929 60.8673ZM294.441 72.7485H290.298L287.249 67.8004L284.084 72.7485H279.941L284.918 65.2401L280.114 58.0768H284.257L287.191 62.7372L290.154 58.0768H294.268L289.464 65.2401L294.441 72.7485ZM305.184 69.2964V72.5184C304.58 72.8636 303.659 73.0938 302.451 73.0938C299.43 73.0938 297.56 71.3101 297.56 68.1456V61.0687H295.489V58.0768H297.675V54.7397L301.3 53.7904V58.0768H304.838V61.0687H301.3V67.6278C301.3 69.1238 302.077 69.7567 303.458 69.7567C303.86 69.7567 304.58 69.6416 305.184 69.2964Z" fill="white"/>
</g>
<defs>
<filter id="filter0_d_325_88" x="-2.47955e-05" y="0.000231743" width="547.594" height="160.264" filterUnits="userSpaceOnUse" color-interpolation-filters="sRGB">
<feFlood flood-opacity="0" result="BackgroundImageFix"/>
<feColorMatrix in="SourceAlpha" type="matrix" values="0 0 0 0 0 0 0 0 0 0 0 0 0 0 0 0 0 0 127 0" result="hardAlpha"/>
<feOffset dy="14.384"/>
<feGaussianBlur stdDeviation="14.384"/>
<feComposite in2="hardAlpha" operator="out"/>
<feColorMatrix type="matrix" values="0 0 0 0 0 0 0 0 0 0 0 0 0 0 0 0 0 0 0.1 0"/>
<feBlend mode="normal" in2="BackgroundImageFix" result="effect1_dropShadow_325_88"/>
<feBlend mode="normal" in="SourceGraphic" in2="effect1_dropShadow_325_88" result="shape"/>
</filter>
</defs>
</svg>
