<svg width="257" height="107" viewBox="0 0 257 107" fill="none" xmlns="http://www.w3.org/2000/svg">
<path d="M73.0872 22.5918V-0.000204086H81.0232C85.6632 -0.000204086 88.6712 2.7518 88.6712 6.7838C88.6712 9.7598 86.6552 12.4158 83.4872 13.1838L89.9512 22.5918H86.2072L80.0632 13.6638H76.2552V22.5918H73.0872ZM76.2552 10.8478H81.0232C83.8072 10.8478 85.3432 9.2158 85.3432 6.8158C85.3432 4.4798 83.8072 2.8798 81.0232 2.8798H76.2552V10.8478ZM104.623 20.1598C103.695 21.8558 102.063 22.9758 99.3747 22.9758C95.6947 22.9758 93.1027 20.4798 93.1027 16.1918V6.3998H96.2067V16.0638C96.2067 18.7518 97.9347 20.1278 100.015 20.1278C103.375 20.1278 104.559 17.0238 104.559 14.6238V6.3998H107.663V22.5918H104.623V20.1598ZM116.212 8.8318C117.14 7.1358 118.772 6.0158 121.46 6.0158C125.14 6.0158 127.732 8.5118 127.732 12.7998V22.5918H124.628V12.9278C124.628 10.2398 122.9 8.8638 120.82 8.8638C117.46 8.8638 116.276 11.9678 116.276 14.3678V22.5918H113.172V6.3998H116.212V8.8318ZM149.052 19.5838V22.4318C148.444 22.7838 147.58 22.9758 146.46 22.9758C143.292 22.9758 141.404 21.0878 141.404 17.8238V8.9918H138.972V6.3998H141.5V2.5918L144.508 1.6318V6.3998H148.668V8.9918H144.508V17.4398C144.508 19.2638 145.34 20.0958 147.132 20.0958C147.484 20.0958 148.284 20.0318 149.052 19.5838ZM152.766 -0.000204086H155.87V8.6398C156.798 7.1998 158.43 6.0158 161.054 6.0158C164.638 6.0158 167.326 8.5118 167.326 12.7998V22.5918H164.222V12.9278C164.222 10.2398 162.462 8.8638 160.414 8.8638C157.054 8.8638 155.87 11.6478 155.87 14.0478V22.5918H152.766V-0.000204086ZM179.235 6.0158C183.875 6.0158 186.563 9.3758 186.563 13.5358C186.563 14.1438 186.499 14.7838 186.403 15.2958H174.467C174.819 18.7198 177.283 20.0958 180.067 20.0958C182.115 20.0958 184.131 19.3598 185.507 18.1438V21.3758C183.427 22.7838 181.539 22.9758 179.619 22.9758C174.499 22.9758 171.203 19.2958 171.203 14.5278C171.203 9.7598 174.371 6.0158 179.235 6.0158ZM179.171 8.7998C176.771 8.7998 175.043 10.3038 174.563 12.7678H183.491C183.267 10.3678 181.603 8.7998 179.171 8.7998ZM13.1525 62.1918C12.2565 63.7598 9.92055 64.9758 7.68055 64.9758C3.36055 64.9758 0.000546932 61.4238 0.000546932 56.4958C0.000546932 51.5678 3.36055 48.0158 7.68055 48.0158C9.92055 48.0158 12.0965 49.1998 13.0245 50.6398V41.9998H16.1285V64.5918H13.1525V62.1918ZM8.19255 62.1278C10.8805 62.1278 13.2165 59.8558 13.2165 56.4958C13.2165 53.1038 10.8805 50.8638 8.19255 50.8638C5.50455 50.8638 3.13655 53.1358 3.13655 56.4958C3.13655 59.8558 5.50455 62.1278 8.19255 62.1278ZM23.193 41.6158C24.249 41.6158 25.145 42.4798 25.145 43.5678C25.145 44.6558 24.249 45.5518 23.193 45.5518C22.137 45.5518 21.241 44.6558 21.241 43.5678C21.241 42.4798 22.137 41.6158 23.193 41.6158ZM21.625 64.5918V48.3998H24.729V64.5918H21.625ZM35.0828 48.0158C36.9388 48.0158 38.8908 48.5918 40.0428 49.5198V52.7198C38.6028 51.5038 37.0348 50.7998 35.2108 50.7998C33.1628 50.7998 32.2028 51.6638 32.2028 52.7518C32.2028 53.9358 33.3868 54.5118 35.5628 55.1518C38.1548 55.8878 40.8748 56.7838 40.8748 60.0158C40.8748 63.0558 38.5068 64.9758 34.8268 64.9758C32.7148 64.9758 30.6348 64.3358 29.1308 63.1198V59.6638C30.6988 61.2638 32.3948 62.1918 34.6028 62.1918C36.7788 62.1918 37.8668 61.2958 37.8668 60.0478C37.8668 58.7358 36.5868 58.2878 34.2508 57.5838C31.6908 56.7838 29.1628 55.8238 29.1628 52.9118C29.1628 50.0958 31.4988 48.0158 35.0828 48.0158ZM44.9688 41.9998H48.0728V50.6398C49.0008 49.1998 50.6328 48.0158 53.2568 48.0158C56.8408 48.0158 59.5288 50.5118 59.5288 54.7998V64.5918H56.4248V54.9278C56.4248 52.2398 54.6648 50.8638 52.6168 50.8638C49.2568 50.8638 48.0728 53.6478 48.0728 56.0478V64.5918H44.9688V41.9998ZM67.6338 64.5918L62.3538 48.3998H65.5858L69.2658 60.3678L73.1698 48.3998H76.1778L80.0818 60.3678L83.7618 48.3998H86.9938L81.7138 64.5918H78.7058L74.6738 52.7198L70.6418 64.5918H67.6338ZM89.9665 49.6158C91.2785 48.7198 93.2945 48.0158 95.4705 48.0158C99.5985 48.0158 102.159 50.4158 102.159 54.1278V64.5918H99.2785V62.0958C98.1265 64.0158 96.2385 64.9758 93.9985 64.9758C90.9905 64.9758 88.7505 62.9918 88.7505 60.3038C88.7505 57.4238 90.8945 55.8238 94.7985 55.2798L99.0545 54.6718V54.0638C99.0545 52.0478 97.6465 50.8318 95.2785 50.8318C93.1345 50.8318 91.1825 51.8238 89.9665 52.7198V49.6158ZM94.5105 62.3518C97.1345 62.3518 99.1185 60.1758 99.1185 57.9038V57.0718L95.2785 57.5518C93.0385 57.8398 91.7905 58.7038 91.7905 60.1118C91.7905 61.4878 92.9105 62.3518 94.5105 62.3518ZM112.27 48.0158C114.126 48.0158 116.078 48.5918 117.23 49.5198V52.7198C115.79 51.5038 114.222 50.7998 112.398 50.7998C110.35 50.7998 109.39 51.6638 109.39 52.7518C109.39 53.9358 110.574 54.5118 112.75 55.1518C115.342 55.8878 118.062 56.7838 118.062 60.0158C118.062 63.0558 115.694 64.9758 112.014 64.9758C109.902 64.9758 107.822 64.3358 106.318 63.1198V59.6638C107.886 61.2638 109.582 62.1918 111.79 62.1918C113.966 62.1918 115.054 61.2958 115.054 60.0478C115.054 58.7358 113.774 58.2878 111.438 57.5838C108.878 56.7838 106.35 55.8238 106.35 52.9118C106.35 50.0958 108.686 48.0158 112.27 48.0158ZM122.156 41.9998H125.26V50.6398C126.188 49.1998 127.82 48.0158 130.444 48.0158C134.028 48.0158 136.716 50.5118 136.716 54.7998V64.5918H133.612V54.9278C133.612 52.2398 131.852 50.8638 129.804 50.8638C126.444 50.8638 125.26 53.6478 125.26 56.0478V64.5918H122.156V41.9998ZM148.626 48.0158C153.266 48.0158 155.954 51.3758 155.954 55.5358C155.954 56.1438 155.89 56.7838 155.794 57.2958H143.858C144.21 60.7198 146.674 62.0958 149.458 62.0958C151.506 62.0958 153.522 61.3598 154.898 60.1438V63.3758C152.818 64.7838 150.93 64.9758 149.01 64.9758C143.89 64.9758 140.594 61.2958 140.594 56.5278C140.594 51.7598 143.762 48.0158 148.626 48.0158ZM148.562 50.7998C146.162 50.7998 144.434 52.3038 143.954 54.7678H152.882C152.658 52.3678 150.994 50.7998 148.562 50.7998ZM163.165 48.3998V51.2478C163.965 49.2638 165.629 48.0158 167.805 48.0158C168.189 48.0158 168.605 48.0798 168.797 48.1438V51.1838C168.669 51.1518 168.349 51.1198 168.157 51.1198C165.181 51.1198 163.229 53.2638 163.229 56.5598V64.5918H160.125V48.3998H163.165ZM181.759 64.5918L176.479 48.3998H179.711L183.391 60.3678L187.295 48.3998H190.303L194.207 60.3678L197.887 48.3998H201.119L195.839 64.5918H192.831L188.799 52.7198L184.767 64.5918H181.759ZM204.375 41.9998H207.479V50.6398C208.407 49.1998 210.039 48.0158 212.663 48.0158C216.247 48.0158 218.935 50.5118 218.935 54.7998V64.5918H215.831V54.9278C215.831 52.2398 214.071 50.8638 212.023 50.8638C208.663 50.8638 207.479 53.6478 207.479 56.0478V64.5918H204.375V41.9998ZM230.844 48.0158C235.484 48.0158 238.172 51.3758 238.172 55.5358C238.172 56.1438 238.108 56.7838 238.012 57.2958H226.076C226.428 60.7198 228.892 62.0958 231.676 62.0958C233.724 62.0958 235.74 61.3598 237.116 60.1438V63.3758C235.036 64.7838 233.148 64.9758 231.228 64.9758C226.108 64.9758 222.812 61.2958 222.812 56.5278C222.812 51.7598 225.98 48.0158 230.844 48.0158ZM230.78 50.7998C228.38 50.7998 226.652 52.3038 226.172 54.7678H235.1C234.876 52.3678 233.212 50.7998 230.78 50.7998ZM245.384 50.8318C246.312 49.1358 247.944 48.0158 250.632 48.0158C254.312 48.0158 256.904 50.5118 256.904 54.7998V64.5918H253.8V54.9278C253.8 52.2398 252.072 50.8638 249.992 50.8638C246.632 50.8638 245.448 53.9678 245.448 56.3678V64.5918H242.344V48.3998H245.384V50.8318ZM51.943 83.6158C52.999 83.6158 53.895 84.4798 53.895 85.5678C53.895 86.6558 52.999 87.5518 51.943 87.5518C50.887 87.5518 49.991 86.6558 49.991 85.5678C49.991 84.4798 50.887 83.6158 51.943 83.6158ZM50.375 106.592V90.3998H53.479V106.592H50.375ZM67.1928 103.584V106.432C66.5848 106.784 65.7208 106.976 64.6008 106.976C61.4328 106.976 59.5448 105.088 59.5448 101.824V92.9918H57.1128V90.3998H59.6408V86.5918L62.6488 85.6318V90.3998H66.8088V92.9918H62.6488V101.44C62.6488 103.264 63.4808 104.096 65.2728 104.096C65.6248 104.096 66.4248 104.032 67.1928 103.584ZM73.3703 84.0958C73.1783 84.8425 72.933 85.6531 72.6343 86.5278C72.3356 87.4025 72.005 88.2771 71.6423 89.1518C71.301 90.0051 70.9596 90.8158 70.6183 91.5838H68.5383C68.6876 90.9865 68.837 90.3465 68.9863 89.6638C69.157 88.9811 69.3063 88.2985 69.4343 87.6158C69.5836 86.9118 69.7116 86.2291 69.8183 85.5678C69.9463 84.9065 70.053 84.2985 70.1383 83.7438H73.1463L73.3703 84.0958ZM81.364 90.0158C83.22 90.0158 85.172 90.5918 86.324 91.5198V94.7198C84.884 93.5038 83.316 92.7998 81.492 92.7998C79.444 92.7998 78.484 93.6638 78.484 94.7518C78.484 95.9358 79.668 96.5118 81.844 97.1518C84.436 97.8878 87.156 98.7838 87.156 102.016C87.156 105.056 84.788 106.976 81.108 106.976C78.996 106.976 76.916 106.336 75.412 105.12V101.664C76.98 103.264 78.676 104.192 80.884 104.192C83.06 104.192 84.148 103.296 84.148 102.048C84.148 100.736 82.868 100.288 80.532 99.5838C77.972 98.7838 75.444 97.8238 75.444 94.9118C75.444 92.0958 77.78 90.0158 81.364 90.0158ZM99.125 83.9998H102.229V92.6398C103.157 91.1998 104.789 90.0158 107.413 90.0158C110.997 90.0158 113.685 92.5118 113.685 96.7998V106.592H110.581V96.9278C110.581 94.2398 108.821 92.8638 106.773 92.8638C103.413 92.8638 102.229 95.6478 102.229 98.0478V106.592H99.125V83.9998ZM118.81 91.6158C120.122 90.7198 122.138 90.0158 124.314 90.0158C128.442 90.0158 131.002 92.4158 131.002 96.1278V106.592H128.122V104.096C126.97 106.016 125.082 106.976 122.842 106.976C119.834 106.976 117.594 104.992 117.594 102.304C117.594 99.4238 119.738 97.8238 123.642 97.2798L127.898 96.6718V96.0638C127.898 94.0478 126.49 92.8318 124.122 92.8318C121.978 92.8318 120.026 93.8238 118.81 94.7198V91.6158ZM123.354 104.352C125.978 104.352 127.962 102.176 127.962 99.9038V99.0718L124.122 99.5518C121.882 99.8398 120.634 100.704 120.634 102.112C120.634 103.488 121.754 104.352 123.354 104.352ZM136.058 102.56V83.9998H139.162V102.016C139.162 103.232 139.45 104.128 140.666 104.128C140.954 104.128 141.306 104.096 141.722 103.936V106.72C141.242 106.912 140.762 106.976 140.282 106.976C138.138 106.976 136.058 105.984 136.058 102.56ZM149.154 89.0238V90.3998H153.026V92.9918H149.154V106.592H146.05V92.9918H143.81V90.3998H146.05V88.9278C146.05 85.6638 148.354 83.6158 151.586 83.6158C152.418 83.6158 153.186 83.7118 153.826 84.0638V86.7518C153.282 86.4958 152.674 86.3678 152.066 86.3678C150.562 86.3678 149.154 87.0718 149.154 89.0238ZM167.529 89.0238V90.3998H171.401V92.9918H167.529V106.592H164.425V92.9918H162.185V90.3998H164.425V88.9278C164.425 85.6638 166.729 83.6158 169.961 83.6158C170.793 83.6158 171.561 83.7118 172.201 84.0638V86.7518C171.657 86.4958 171.049 86.3678 170.441 86.3678C168.937 86.3678 167.529 87.0718 167.529 89.0238ZM185.951 104.16C185.023 105.856 183.391 106.976 180.703 106.976C177.023 106.976 174.431 104.48 174.431 100.192V90.3998H177.535V100.064C177.535 102.752 179.263 104.128 181.343 104.128C184.703 104.128 185.887 101.024 185.887 98.6238V90.3998H188.991V106.592H185.951V104.16ZM194.308 102.56V83.9998H197.412V102.016C197.412 103.232 197.7 104.128 198.916 104.128C199.204 104.128 199.556 104.096 199.972 103.936V106.72C199.492 106.912 199.012 106.976 198.532 106.976C196.388 106.976 194.308 105.984 194.308 102.56ZM203.589 102.56V83.9998H206.693V102.016C206.693 103.232 206.981 104.128 208.197 104.128C208.485 104.128 208.837 104.096 209.253 103.936V106.72C208.773 106.912 208.293 106.976 207.813 106.976C205.669 106.976 203.589 105.984 203.589 102.56Z" fill="white"/>
</svg>
