<svg width="411" height="31" viewBox="0 0 411 31" fill="none" xmlns="http://www.w3.org/2000/svg">
<path d="M-0.000179529 23.4238V0.735826H4.22382V19.6478H13.5998V23.4238H-0.000179529ZM23.0926 6.71983C27.9246 6.71983 30.6126 10.1758 30.6126 14.4318C30.6126 15.0398 30.5486 15.7758 30.4846 16.2558H19.1886C19.5086 19.1038 21.7806 20.2238 24.2766 20.2238C26.2926 20.2238 28.3406 19.4878 29.5246 18.4958V22.4318C27.7326 23.5518 25.6846 23.8078 23.7326 23.8078C18.4846 23.8078 14.9006 20.4478 14.9006 15.2958C14.9006 10.4638 18.1966 6.71983 23.0926 6.71983ZM23.0286 10.2078C20.9806 10.2078 19.5726 11.5198 19.2206 13.5358H26.6446C26.4846 11.5518 25.1086 10.2078 23.0286 10.2078ZM34.2408 8.28783C35.6168 7.39183 37.7288 6.71983 39.9368 6.71983C44.0968 6.71983 47.1048 8.99183 47.1048 13.1198V23.4238H43.2328V21.1518C42.2088 22.8158 40.4488 23.8078 38.3048 23.8078C35.2328 23.8078 32.9928 21.8558 32.9928 19.1678C32.9928 16.3198 35.1048 14.6878 38.9128 14.1118L43.0408 13.5038V13.0558C43.0408 11.3598 41.6968 10.3678 39.6168 10.3678C37.4408 10.3678 35.4568 11.2958 34.2408 12.1918V8.28783ZM39.2328 20.5758C41.3448 20.5758 43.0728 18.8478 43.0728 16.7998V16.1918L39.7768 16.6078C37.9848 16.8318 36.9608 17.5678 36.9608 18.7518C36.9608 19.8718 37.8888 20.5758 39.2328 20.5758ZM59.6196 23.4238H55.7476L49.1876 7.10383H53.5076L57.6676 18.3358L61.8596 7.10383H66.1796L59.6196 23.4238ZM75.4988 6.71983C80.3308 6.71983 83.0188 10.1758 83.0188 14.4318C83.0188 15.0398 82.9548 15.7758 82.8908 16.2558H71.5948C71.9148 19.1038 74.1868 20.2238 76.6828 20.2238C78.6988 20.2238 80.7468 19.4878 81.9308 18.4958V22.4318C80.1388 23.5518 78.0908 23.8078 76.1388 23.8078C70.8908 23.8078 67.3068 20.4478 67.3068 15.2958C67.3068 10.4638 70.6028 6.71983 75.4988 6.71983ZM75.4348 10.2078C73.3868 10.2078 71.9788 11.5198 71.6268 13.5358H79.0508C78.8908 11.5518 77.5148 10.2078 75.4348 10.2078ZM103.551 19.5838V23.1678C102.879 23.5518 101.855 23.8078 100.511 23.8078C97.1506 23.8078 95.0706 21.8238 95.0706 18.3038V10.4318H92.7666V7.10383H95.1986V3.39183L99.2306 2.33583V7.10383H103.167V10.4318H99.2306V17.7278C99.2306 19.3918 100.095 20.0958 101.631 20.0958C102.079 20.0958 102.879 19.9678 103.551 19.5838ZM106.835 0.703827H110.995V9.05583C111.923 7.74383 113.491 6.71983 115.859 6.71983C119.571 6.71983 122.195 9.24783 122.195 13.5038V23.4238H118.035V14.0158C118.035 11.6478 116.595 10.4318 114.771 10.4318C112.019 10.4318 110.995 12.6718 110.995 14.7838V23.4238H106.835V0.703827ZM133.749 6.71983C138.581 6.71983 141.269 10.1758 141.269 14.4318C141.269 15.0398 141.205 15.7758 141.141 16.2558H129.845C130.165 19.1038 132.437 20.2238 134.933 20.2238C136.949 20.2238 138.997 19.4878 140.181 18.4958V22.4318C138.389 23.5518 136.341 23.8078 134.389 23.8078C129.141 23.8078 125.557 20.4478 125.557 15.2958C125.557 10.4638 128.853 6.71983 133.749 6.71983ZM133.685 10.2078C131.637 10.2078 130.229 11.5198 129.877 13.5358H137.301C137.141 11.5518 135.765 10.2078 133.685 10.2078ZM158.057 6.71983C159.945 6.71983 161.897 7.26383 163.113 8.12783V11.9678C161.737 10.8478 160.041 10.1758 158.217 10.1758C156.457 10.1758 155.593 10.8158 155.593 11.7118C155.593 12.7038 156.585 13.1838 158.601 13.7278C161.257 14.4318 164.041 15.3598 164.041 18.6558C164.041 21.8238 161.577 23.8078 157.513 23.8078C155.273 23.8078 153.225 23.1998 151.753 22.1438V18.0158C153.289 19.4878 155.017 20.3838 157.257 20.3838C159.177 20.3838 160.169 19.6798 160.169 18.6878C160.169 17.5998 158.921 17.2158 156.745 16.5438C154.217 15.7758 151.657 14.7518 151.657 11.8078C151.657 8.89583 154.153 6.71983 158.057 6.71983ZM167.585 29.8238V7.10383H171.457V9.37583C172.353 7.93583 174.369 6.71983 176.641 6.71983C180.833 6.71983 184.289 10.2078 184.289 15.2638C184.289 20.3198 180.897 23.8078 176.513 23.8078C174.561 23.8078 172.673 22.9118 171.713 21.5998V29.8238H167.585ZM171.489 15.2958C171.489 18.1758 173.441 20.1278 175.809 20.1278C178.145 20.1278 180.129 18.1758 180.129 15.2958C180.129 12.4158 178.145 10.4638 175.809 10.4638C173.441 10.4638 171.489 12.3838 171.489 15.2958ZM192.025 7.10383V9.91983C192.857 7.93583 194.457 6.71983 196.633 6.71983C197.017 6.71983 197.465 6.78383 197.657 6.84783V10.8798C197.529 10.8478 197.113 10.7838 196.761 10.7838C193.785 10.7838 192.057 12.8638 192.057 16.1598V23.4238H187.897V7.10383H192.025ZM202.79 -0.000173569C204.102 -0.000173569 205.158 1.02383 205.158 2.36783C205.158 3.71183 204.102 4.73583 202.79 4.73583C201.446 4.73583 200.358 3.71183 200.358 2.36783C200.358 1.02383 201.446 -0.000173569 202.79 -0.000173569ZM200.678 23.4238V7.10383H204.838V23.4238H200.678ZM213.616 9.31183C214.544 7.74383 216.176 6.71983 218.64 6.71983C222.416 6.71983 224.976 9.24783 224.976 13.5038V23.4238H220.816V14.0158C220.816 11.6478 219.408 10.4318 217.552 10.4318C214.8 10.4318 213.776 12.8958 213.776 15.0078V23.4238H209.616V7.10383H213.616V9.31183ZM233.682 23.4238H229.522V0.703827H233.682V14.1438L239.57 7.10383H244.53L238.77 14.0478L245.042 23.4238H240.21L235.73 16.3838L233.682 18.7518V23.4238ZM247.236 19.0078V0.703827H251.396V18.2398C251.396 19.3918 251.716 20.1278 252.868 20.1278C253.188 20.1278 253.54 20.0638 253.924 19.9358V23.4878C253.38 23.7118 252.74 23.8078 252.004 23.8078C249.348 23.8078 247.236 22.4958 247.236 19.0078ZM263.999 6.71983C268.831 6.71983 271.519 10.1758 271.519 14.4318C271.519 15.0398 271.455 15.7758 271.391 16.2558H260.095C260.415 19.1038 262.687 20.2238 265.183 20.2238C267.199 20.2238 269.247 19.4878 270.431 18.4958V22.4318C268.639 23.5518 266.591 23.8078 264.639 23.8078C259.391 23.8078 255.807 20.4478 255.807 15.2958C255.807 10.4638 259.103 6.71983 263.999 6.71983ZM263.935 10.2078C261.887 10.2078 260.479 11.5198 260.127 13.5358H267.551C267.391 11.5518 266.015 10.2078 263.935 10.2078ZM279.275 7.10383V9.91983C280.107 7.93583 281.707 6.71983 283.883 6.71983C284.267 6.71983 284.715 6.78383 284.907 6.84783V10.8798C284.779 10.8478 284.363 10.7838 284.011 10.7838C281.035 10.7838 279.307 12.8638 279.307 16.1598V23.4238H275.147V7.10383H279.275ZM298.9 7.10383V9.91983C299.732 7.93583 301.332 6.71983 303.508 6.71983C303.892 6.71983 304.34 6.78383 304.532 6.84783V10.8798C304.404 10.8478 303.988 10.7838 303.636 10.7838C300.66 10.7838 298.932 12.8638 298.932 16.1598V23.4238H294.772V7.10383H298.9ZM318.657 21.2158C317.729 22.7838 316.129 23.8078 313.633 23.8078C309.857 23.8078 307.297 21.2798 307.297 17.0238V7.10383H311.457V16.5118C311.457 18.8798 312.865 20.0958 314.721 20.0958C317.473 20.0958 318.529 17.6318 318.529 15.5198V7.10383H322.689V23.4238H318.657V21.2158ZM331.46 9.31183C332.388 7.74383 334.02 6.71983 336.484 6.71983C340.26 6.71983 342.82 9.24783 342.82 13.5038V23.4238H338.66V14.0158C338.66 11.6478 337.252 10.4318 335.396 10.4318C332.644 10.4318 331.62 12.8958 331.62 15.0078V23.4238H327.46V7.10383H331.46V9.31183ZM351.366 9.31183C352.294 7.74383 353.926 6.71983 356.39 6.71983C360.166 6.71983 362.726 9.24783 362.726 13.5038V23.4238H358.566V14.0158C358.566 11.6478 357.158 10.4318 355.302 10.4318C352.55 10.4318 351.526 12.8958 351.526 15.0078V23.4238H347.366V7.10383H351.366V9.31183ZM369.384 -0.000173569C370.696 -0.000173569 371.752 1.02383 371.752 2.36783C371.752 3.71183 370.696 4.73583 369.384 4.73583C368.04 4.73583 366.952 3.71183 366.952 2.36783C366.952 1.02383 368.04 -0.000173569 369.384 -0.000173569ZM367.272 23.4238V7.10383H371.432V23.4238H367.272ZM380.21 9.31183C381.138 7.74383 382.77 6.71983 385.234 6.71983C389.01 6.71983 391.57 9.24783 391.57 13.5038V23.4238H387.41V14.0158C387.41 11.6478 386.002 10.4318 384.146 10.4318C381.394 10.4318 380.37 12.8958 380.37 15.0078V23.4238H376.21V7.10383H380.21V9.31183ZM401.684 6.71983C402.548 6.71983 403.38 6.84783 404.148 7.10383H410.324V10.3038H407.924C408.244 11.0078 408.436 11.7758 408.436 12.6078C408.436 15.9678 405.46 18.5278 401.652 18.5278C401.172 18.5278 400.724 18.4958 400.276 18.3998C399.924 18.6558 399.636 18.9438 399.636 19.3598C399.636 19.9998 400.276 20.3198 400.948 20.3198H405.076C408.308 20.3198 410.484 22.2718 410.484 24.9598C410.484 27.9678 407.252 30.2078 402.164 30.2078C397.556 30.2078 394.484 28.5758 394.484 25.7598C394.484 24.2558 395.636 23.0718 397.14 22.3998C396.276 21.7598 395.892 20.9918 395.892 20.0638C395.892 19.0398 396.628 18.0798 397.652 17.4078C396.02 16.3518 394.964 14.6238 394.964 12.6078C394.964 9.24783 397.94 6.71983 401.684 6.71983ZM401.684 9.95183C400.02 9.95183 398.74 11.1358 398.74 12.6078C398.74 14.1118 400.02 15.2958 401.684 15.2958C403.38 15.2958 404.66 14.1118 404.66 12.6078C404.66 11.1358 403.38 9.95183 401.684 9.95183ZM399.86 23.5838C399.22 23.8078 398.516 24.3198 398.516 25.1518C398.516 26.2718 400.052 26.9118 402.26 26.9118C404.98 26.9118 406.516 26.1758 406.516 25.0878C406.516 24.1278 405.588 23.5838 404.436 23.5838H399.86Z" fill="white"/>
</svg>
