<svg width="175" height="24" viewBox="0 0 175 24" fill="none" xmlns="http://www.w3.org/2000/svg">
<path d="M7.55199 7.24792e-05C9.72799 7.24792e-05 11.712 0.608072 13.12 1.44007V4.73607C11.552 3.64807 9.47199 2.97607 7.64799 2.97607C5.34399 2.97607 3.45599 4.03207 3.45599 6.04807C3.45599 7.87207 4.95999 8.76807 7.93599 10.0161C11.296 11.4561 14.336 12.8321 14.336 16.7041C14.336 20.7681 11.04 23.3281 6.46399 23.3281C3.87199 23.3281 1.50399 22.4961 -1.33514e-05 21.4401V17.8561C1.63199 19.2641 4.03199 20.3521 6.33599 20.3521C8.83199 20.3521 10.912 19.0401 10.912 16.8321C10.912 14.8481 9.18399 13.9841 5.95199 12.5761C3.00799 11.3281 0.0959866 9.92007 0.0959866 6.24007C0.0959866 2.40007 3.23199 7.24792e-05 7.55199 7.24792e-05ZM26.4935 19.9681V22.8161C25.8855 23.1681 25.0215 23.3601 23.9015 23.3601C20.7335 23.3601 18.8455 21.4721 18.8455 18.2081V9.37607H16.4135V6.78407H18.9415V2.97607L21.9495 2.01607V6.78407H26.1095V9.37607H21.9495V17.8241C21.9495 19.6481 22.7815 20.4801 24.5735 20.4801C24.9255 20.4801 25.7255 20.4161 26.4935 19.9681ZM37.0907 6.40007C41.8907 6.40007 45.4747 10.1121 45.4747 14.8801C45.4747 19.6481 41.8907 23.3601 37.0907 23.3601C32.2907 23.3601 28.7067 19.6481 28.7067 14.8801C28.7067 10.1121 32.2907 6.40007 37.0907 6.40007ZM37.0907 9.34407C34.0187 9.34407 31.8747 11.8721 31.8747 14.8801C31.8747 17.8881 34.0187 20.4161 37.0907 20.4161C40.1627 20.4161 42.3067 17.8881 42.3067 14.8801C42.3067 11.8721 40.1627 9.34407 37.0907 9.34407ZM52.6845 6.78407V9.63207C53.4845 7.64807 55.1485 6.40007 57.3245 6.40007C57.7085 6.40007 58.1245 6.46407 58.3165 6.52807V9.56807C58.1885 9.53607 57.8685 9.50407 57.6765 9.50407C54.7005 9.50407 52.7485 11.6481 52.7485 14.9441V22.9761H49.6445V6.78407H52.6845ZM61.7695 6.78407H64.8095V9.21607C65.7375 7.52007 67.3695 6.40007 70.0575 6.40007C72.6175 6.40007 74.6335 7.61607 75.6575 9.76007C77.1615 7.45607 78.8255 6.40007 81.5135 6.40007C85.1935 6.40007 87.7855 8.89607 87.7855 13.1841V22.9761H84.6815V13.3121C84.6815 10.6241 82.9535 9.24807 80.8735 9.24807C77.5135 9.24807 76.3295 12.3521 76.3295 14.7521V22.9761H73.2255V13.3121C73.2255 10.6241 71.4975 9.24807 69.4175 9.24807C66.0575 9.24807 64.8735 12.3521 64.8735 14.7521V22.9761H61.7695V6.78407ZM95.872 22.9761L90.592 6.78407H93.824L97.504 18.7521L101.408 6.78407H104.416L108.32 18.7521L112 6.78407H115.232L109.952 22.9761H106.944L102.912 11.1041L98.88 22.9761H95.872ZM118.205 8.00007C119.517 7.10407 121.533 6.40007 123.709 6.40007C127.837 6.40007 130.397 8.80007 130.397 12.5121V22.9761H127.517V20.4801C126.365 22.4001 124.477 23.3601 122.237 23.3601C119.229 23.3601 116.989 21.3761 116.989 18.6881C116.989 15.8081 119.133 14.2081 123.037 13.6641L127.293 13.0561V12.4481C127.293 10.4321 125.885 9.21607 123.517 9.21607C121.373 9.21607 119.421 10.2081 118.205 11.1041V8.00007ZM122.749 20.7361C125.373 20.7361 127.357 18.5601 127.357 16.2881V15.4561L123.517 15.9361C121.277 16.2241 120.029 17.0881 120.029 18.4961C120.029 19.8721 121.149 20.7361 122.749 20.7361ZM143.712 19.9681V22.8161C143.104 23.1681 142.24 23.3601 141.12 23.3601C137.952 23.3601 136.064 21.4721 136.064 18.2081V9.37607H133.632V6.78407H136.16V2.97607L139.168 2.01607V6.78407H143.328V9.37607H139.168V17.8241C139.168 19.6481 140 20.4801 141.792 20.4801C142.144 20.4801 142.944 20.4161 143.712 19.9681ZM153.957 6.40007C158.597 6.40007 161.285 9.76007 161.285 13.9201C161.285 14.5281 161.221 15.1681 161.125 15.6801H149.189C149.541 19.1041 152.005 20.4801 154.789 20.4801C156.837 20.4801 158.853 19.7441 160.229 18.5281V21.7601C158.149 23.1681 156.261 23.3601 154.341 23.3601C149.221 23.3601 145.925 19.6801 145.925 14.9121C145.925 10.1441 149.093 6.40007 153.957 6.40007ZM153.893 9.18407C151.493 9.18407 149.765 10.6881 149.285 13.1521H158.213C157.989 10.7521 156.325 9.18407 153.893 9.18407ZM168.497 6.78407V9.63207C169.297 7.64807 170.961 6.40007 173.137 6.40007C173.521 6.40007 173.937 6.46407 174.129 6.52807V9.56807C174.001 9.53607 173.681 9.50407 173.489 9.50407C170.513 9.50407 168.561 11.6481 168.561 14.9441V22.9761H165.457V6.78407H168.497Z" fill="white"/>
</svg>
