<svg width="319" height="24" viewBox="0 0 319 24" fill="none" xmlns="http://www.w3.org/2000/svg">
<path d="M6.52828 22.7197V3.80773H0.000281274V0.0317249H17.2803V3.80773H10.7523V22.7197H6.52828ZM17.6695 7.58373C19.0455 6.68773 21.1575 6.01573 23.3655 6.01573C27.5255 6.01573 30.5335 8.28773 30.5335 12.4157V22.7197H26.6615V20.4477C25.6375 22.1117 23.8775 23.1037 21.7335 23.1037C18.6615 23.1037 16.4215 21.1517 16.4215 18.4637C16.4215 15.6157 18.5335 13.9837 22.3415 13.4077L26.4695 12.7997V12.3517C26.4695 10.6557 25.1255 9.66373 23.0455 9.66373C20.8695 9.66373 18.8855 10.5917 17.6695 11.4877V7.58373ZM22.6615 19.8717C24.7735 19.8717 26.5015 18.1437 26.5015 16.0957V15.4877L23.2055 15.9037C21.4135 16.1277 20.3895 16.8637 20.3895 18.0477C20.3895 19.1677 21.3175 19.8717 22.6615 19.8717ZM39.267 22.7197H35.107V-0.000274658H39.267V13.4397L45.155 6.39972H50.115L44.355 13.3437L50.627 22.7197H45.795L41.315 15.6797L39.267 18.0477V22.7197ZM59.49 6.01573C64.322 6.01573 67.01 9.47173 67.01 13.7277C67.01 14.3357 66.946 15.0717 66.882 15.5517H55.586C55.906 18.3997 58.178 19.5197 60.674 19.5197C62.69 19.5197 64.738 18.7837 65.922 17.7917V21.7277C64.13 22.8477 62.082 23.1037 60.13 23.1037C54.882 23.1037 51.298 19.7437 51.298 14.5917C51.298 9.75973 54.594 6.01573 59.49 6.01573ZM59.426 9.50373C57.378 9.50373 55.97 10.8157 55.618 12.8317H63.042C62.882 10.8477 61.506 9.50373 59.426 9.50373ZM83.7978 6.01573C85.6858 6.01573 87.6378 6.55973 88.8538 7.42373V11.2637C87.4778 10.1437 85.7818 9.47173 83.9578 9.47173C82.1978 9.47173 81.3338 10.1117 81.3338 11.0077C81.3338 11.9997 82.3258 12.4797 84.3418 13.0237C86.9978 13.7277 89.7818 14.6557 89.7818 17.9517C89.7818 21.1197 87.3178 23.1037 83.2538 23.1037C81.0138 23.1037 78.9658 22.4957 77.4938 21.4397V17.3117C79.0298 18.7837 80.7578 19.6797 82.9978 19.6797C84.9178 19.6797 85.9098 18.9757 85.9098 17.9837C85.9098 16.8957 84.6618 16.5117 82.4858 15.8397C79.9578 15.0717 77.3978 14.0477 77.3978 11.1037C77.3978 8.19173 79.8938 6.01573 83.7978 6.01573ZM93.3258 -0.000274658H97.4858V8.35173C98.4138 7.03973 99.9818 6.01573 102.35 6.01573C106.062 6.01573 108.686 8.54373 108.686 12.7997V22.7197H104.526V13.3117C104.526 10.9437 103.086 9.72773 101.262 9.72773C98.5098 9.72773 97.4858 11.9677 97.4858 14.0797V22.7197H93.3258V-0.000274658ZM120.656 6.01573C125.648 6.01573 129.264 9.72773 129.264 14.5597C129.264 19.3917 125.648 23.1037 120.656 23.1037C115.632 23.1037 112.016 19.3917 112.016 14.5597C112.016 9.72773 115.632 6.01573 120.656 6.01573ZM120.656 9.82373C118.064 9.82373 116.208 11.8717 116.208 14.5597C116.208 17.2477 118.064 19.2957 120.656 19.2957C123.216 19.2957 125.072 17.2477 125.072 14.5597C125.072 11.8717 123.216 9.82373 120.656 9.82373ZM137.016 6.39972V9.21573C137.848 7.23173 139.448 6.01573 141.624 6.01573C142.008 6.01573 142.456 6.07973 142.648 6.14373V10.1757C142.52 10.1437 142.104 10.0797 141.752 10.0797C138.776 10.0797 137.048 12.1597 137.048 15.4557V22.7197H132.888V6.39972H137.016ZM154.886 18.8797V22.4637C154.214 22.8477 153.19 23.1037 151.846 23.1037C148.486 23.1037 146.406 21.1197 146.406 17.5997V9.72773H144.102V6.39972H146.534V2.68773L150.566 1.63173V6.39972H154.502V9.72773H150.566V17.0237C150.566 18.6877 151.43 19.3917 152.966 19.3917C153.414 19.3917 154.214 19.2637 154.886 18.8797ZM165.021 6.01573C169.853 6.01573 172.541 9.47173 172.541 13.7277C172.541 14.3357 172.477 15.0717 172.413 15.5517H161.117C161.437 18.3997 163.709 19.5197 166.205 19.5197C168.221 19.5197 170.269 18.7837 171.453 17.7917V21.7277C169.661 22.8477 167.613 23.1037 165.661 23.1037C160.413 23.1037 156.829 19.7437 156.829 14.5917C156.829 9.75973 160.125 6.01573 165.021 6.01573ZM164.957 9.50373C162.909 9.50373 161.501 10.8157 161.149 12.8317H168.573C168.413 10.8477 167.037 9.50373 164.957 9.50373ZM180.298 6.39972V9.21573C181.13 7.23173 182.73 6.01573 184.906 6.01573C185.29 6.01573 185.738 6.07973 185.93 6.14373V10.1757C185.802 10.1437 185.386 10.0797 185.034 10.0797C182.058 10.0797 180.33 12.1597 180.33 15.4557V22.7197H176.17V6.39972H180.298ZM201.267 6.01573C203.155 6.01573 205.107 6.55973 206.323 7.42373V11.2637C204.947 10.1437 203.251 9.47173 201.427 9.47173C199.667 9.47173 198.803 10.1117 198.803 11.0077C198.803 11.9997 199.795 12.4797 201.811 13.0237C204.467 13.7277 207.251 14.6557 207.251 17.9517C207.251 21.1197 204.787 23.1037 200.723 23.1037C198.483 23.1037 196.435 22.4957 194.963 21.4397V17.3117C196.499 18.7837 198.227 19.6797 200.467 19.6797C202.387 19.6797 203.379 18.9757 203.379 17.9837C203.379 16.8957 202.131 16.5117 199.955 15.8397C197.427 15.0717 194.867 14.0477 194.867 11.1037C194.867 8.19173 197.363 6.01573 201.267 6.01573ZM210.795 -0.000274658H214.955V8.35173C215.883 7.03973 217.451 6.01573 219.819 6.01573C223.531 6.01573 226.155 8.54373 226.155 12.7997V22.7197H221.995V13.3117C221.995 10.9437 220.555 9.72773 218.731 9.72773C215.979 9.72773 214.955 11.9677 214.955 14.0797V22.7197H210.795V-0.000274658ZM238.125 6.01573C243.117 6.01573 246.733 9.72773 246.733 14.5597C246.733 19.3917 243.117 23.1037 238.125 23.1037C233.101 23.1037 229.485 19.3917 229.485 14.5597C229.485 9.72773 233.101 6.01573 238.125 6.01573ZM238.125 9.82373C235.533 9.82373 233.677 11.8717 233.677 14.5597C233.677 17.2477 235.533 19.2957 238.125 19.2957C240.685 19.2957 242.541 17.2477 242.541 14.5597C242.541 11.8717 240.685 9.82373 238.125 9.82373ZM253.465 22.7197L248.121 6.39972H252.249L255.577 17.5677L259.161 6.39972H262.553L266.137 17.5677L269.465 6.39972H273.593L268.217 22.7197H264.345L260.857 12.1277L257.337 22.7197H253.465ZM283.146 6.01573C287.978 6.01573 290.666 9.47173 290.666 13.7277C290.666 14.3357 290.602 15.0717 290.538 15.5517H279.242C279.562 18.3997 281.834 19.5197 284.33 19.5197C286.346 19.5197 288.394 18.7837 289.578 17.7917V21.7277C287.786 22.8477 285.738 23.1037 283.786 23.1037C278.538 23.1037 274.954 19.7437 274.954 14.5917C274.954 9.75973 278.25 6.01573 283.146 6.01573ZM283.082 9.50373C281.034 9.50373 279.626 10.8157 279.274 12.8317H286.698C286.538 10.8477 285.162 9.50373 283.082 9.50373ZM298.423 6.39972V9.21573C299.255 7.23173 300.855 6.01573 303.031 6.01573C303.415 6.01573 303.863 6.07973 304.055 6.14373V10.1757C303.927 10.1437 303.511 10.0797 303.159 10.0797C300.183 10.0797 298.455 12.1597 298.455 15.4557V22.7197H294.295V6.39972H298.423ZM312.36 6.01573C314.248 6.01573 316.2 6.55973 317.416 7.42373V11.2637C316.04 10.1437 314.344 9.47173 312.52 9.47173C310.76 9.47173 309.896 10.1117 309.896 11.0077C309.896 11.9997 310.888 12.4797 312.904 13.0237C315.56 13.7277 318.344 14.6557 318.344 17.9517C318.344 21.1197 315.88 23.1037 311.816 23.1037C309.576 23.1037 307.528 22.4957 306.056 21.4397V17.3117C307.592 18.7837 309.32 19.6797 311.56 19.6797C313.48 19.6797 314.472 18.9757 314.472 17.9837C314.472 16.8957 313.224 16.5117 311.048 15.8397C308.52 15.0717 305.96 14.0477 305.96 11.1037C305.96 8.19173 308.456 6.01573 312.36 6.01573Z" fill="#001969"/>
</svg>
