<svg width="218" height="46" viewBox="0 0 218 46" fill="none" xmlns="http://www.w3.org/2000/svg">
<path d="M1.08125e-05 1.41756H23.8144V6.42615H14.6478V32.8394H8.93042V6.42615H1.08125e-05V1.41756ZM41.3903 10.0172V28.3033L41.8155 32.8394H36.9487L36.6179 30.3351L36.4289 30.2878C34.9641 32.4141 32.5544 33.4536 29.9556 33.4536C23.2932 33.4536 20.6944 28.7285 20.6944 21.9717C20.6944 13.6555 24.8525 8.36343 32.9796 8.36343C34.5389 8.36343 37.9882 8.74143 41.3903 10.0172ZM35.8147 25.3265V13.0885C35.1059 12.7578 33.7356 12.4743 32.2708 12.4743C27.782 12.4743 26.27 16.6796 26.27 21.7827C26.27 25.7045 27.215 29.4373 31.1841 29.4373C34.1136 29.4373 35.8147 27.3583 35.8147 25.3265ZM52.8774 32.1778V42.762H47.2545V9.92271C50.7983 8.83594 54.2949 8.36343 56.7047 8.36343C64.2648 8.36343 67.8086 12.5688 67.8086 20.7431C67.8086 29.0593 63.9813 33.5481 57.7915 33.5481C55.9487 33.5481 54.1059 32.9339 52.8774 32.1778ZM62.1385 21.1684C62.1385 15.6401 60.0122 12.8523 55.6652 12.8523C54.8147 12.8523 53.8696 12.9468 52.8774 13.183V27.7363C54.1059 28.5395 55.6652 28.9175 56.8937 28.9175C60.91 28.9175 62.1385 24.9485 62.1385 21.1684ZM82.463 3.29792e-05H88.0859V9.07219H94.4647V13.4665H88.0859V25.4682C88.0859 28.3505 89.2199 29.201 91.1572 29.201C92.433 29.201 93.6142 28.6813 94.3702 28.2088L95.7878 31.8471C94.3702 32.8394 92.0077 33.5009 89.7869 33.5009C82.4158 33.5009 82.463 28.9648 82.463 25.6572V3.29792e-05ZM107.415 29.39C110.864 29.39 112.329 25.988 112.329 21.0739C112.329 15.7818 111.101 12.5215 107.51 12.5215C104.06 12.5215 102.501 15.7346 102.501 20.2706C102.501 24.665 103.21 29.39 107.415 29.39ZM96.7837 20.9321C96.7837 11.104 102.926 8.36343 107.793 8.36343C111.29 8.36343 118.094 9.4502 118.094 20.3179C118.094 29.39 113.274 33.5481 107.037 33.5481C100.706 33.5481 96.7837 29.4845 96.7837 20.9321ZM138.104 32.1778V42.762H132.481V9.92271C136.025 8.83594 139.522 8.36343 141.932 8.36343C149.492 8.36343 153.035 12.5688 153.035 20.7431C153.035 29.0593 149.208 33.5481 143.018 33.5481C141.175 33.5481 139.333 32.9339 138.104 32.1778ZM147.365 21.1684C147.365 15.6401 145.239 12.8523 140.892 12.8523C140.041 12.8523 139.096 12.9468 138.104 13.183V27.7363C139.333 28.5395 140.892 28.9175 142.121 28.9175C146.137 28.9175 147.365 24.9485 147.365 21.1684ZM157.769 0.047286H163.392V25.0902C163.392 28.0198 164.006 29.1065 165.943 29.1065C166.888 29.1065 167.928 28.7758 168.92 28.3505L170.149 32.1306C168.873 32.9339 166.558 33.5481 164.526 33.5481C158.147 33.5481 157.769 29.8153 157.769 26.2715V0.047286ZM192.048 10.0172V28.3033L192.474 32.8394H187.607L187.276 30.3351L187.087 30.2878C185.622 32.4141 183.212 33.4536 180.614 33.4536C173.951 33.4536 171.353 28.7285 171.353 21.9717C171.353 13.6555 175.511 8.36343 183.638 8.36343C185.197 8.36343 188.646 8.74143 192.048 10.0172ZM186.473 25.3265V13.0885C185.764 12.7578 184.394 12.4743 182.929 12.4743C178.44 12.4743 176.928 16.6796 176.928 21.7827C176.928 25.7045 177.873 29.4373 181.842 29.4373C184.772 29.4373 186.473 27.3583 186.473 25.3265ZM217.474 29.8626C217.474 31.6108 217.333 34.8711 217.096 36.4304C216.199 42.1005 212.797 45.4081 206.89 45.4081C201.787 45.4081 199.236 42.9983 199.236 39.2182C199.236 35.6744 201.598 32.9811 204.197 31.1383C200.322 30.5713 197.913 28.2088 197.913 23.4837V9.07219H203.536V22.4914C203.536 25.5627 203.819 27.8308 207.552 27.8308C210.245 27.8308 211.899 26.366 211.899 23.6727V9.07219H217.474V29.8626ZM204.386 38.3205C204.386 40.1632 205.426 41.3445 207.552 41.3445C210.859 41.3445 211.946 38.2732 211.946 34.0206V30.0516C207.788 32.0361 204.386 34.3514 204.386 38.3205Z" fill="white"/>
</svg>
