<svg width="215" height="114" viewBox="0 0 215 114" fill="none" xmlns="http://www.w3.org/2000/svg">
<path d="M19.7167 22.5918V2.8798H12.9327V-0.000204086H29.6687V2.8798H22.8847V22.5918H19.7167ZM41.4664 20.1598C40.5384 21.8558 38.9064 22.9758 36.2184 22.9758C32.5384 22.9758 29.9464 20.4798 29.9464 16.1918V6.3998H33.0504V16.0638C33.0504 18.7518 34.7784 20.1278 36.8584 20.1278C40.2184 20.1278 41.4024 17.0238 41.4024 14.6238V6.3998H44.5064V22.5918H41.4664V20.1598ZM53.0557 6.3998V9.2478C53.8557 7.2638 55.5197 6.0158 57.6957 6.0158C58.0797 6.0158 58.4957 6.0798 58.6877 6.1438V9.1838C58.5597 9.1518 58.2397 9.1198 58.0477 9.1198C55.0717 9.1198 53.1197 11.2638 53.1197 14.5598V22.5918H50.0157V6.3998H53.0557ZM65.1807 8.8318C66.1087 7.1358 67.7407 6.0158 70.4287 6.0158C74.1087 6.0158 76.7007 8.5118 76.7007 12.7998V22.5918H73.5967V12.9278C73.5967 10.2398 71.8687 8.8638 69.7887 8.8638C66.4287 8.8638 65.2447 11.9678 65.2447 14.3678V22.5918H62.1407V6.3998H65.1807V8.8318ZM98.0209 19.5838V22.4318C97.4129 22.7838 96.5489 22.9758 95.4289 22.9758C92.2609 22.9758 90.3729 21.0878 90.3729 17.8238V8.9918H87.9409V6.3998H90.4689V2.5918L93.4769 1.6318V6.3998H97.6369V8.9918H93.4769V17.4398C93.4769 19.2638 94.3089 20.0958 96.1009 20.0958C96.4529 20.0958 97.2529 20.0318 98.0209 19.5838ZM101.734 -0.000204086H104.838V8.6398C105.766 7.1998 107.398 6.0158 110.022 6.0158C113.606 6.0158 116.294 8.5118 116.294 12.7998V22.5918H113.19V12.9278C113.19 10.2398 111.43 8.8638 109.382 8.8638C106.022 8.8638 104.838 11.6478 104.838 14.0478V22.5918H101.734V-0.000204086ZM128.204 6.0158C132.844 6.0158 135.532 9.3758 135.532 13.5358C135.532 14.1438 135.468 14.7838 135.372 15.2958H123.436C123.788 18.7198 126.252 20.0958 129.036 20.0958C131.084 20.0958 133.1 19.3598 134.476 18.1438V21.3758C132.396 22.7838 130.508 22.9758 128.588 22.9758C123.468 22.9758 120.172 19.2958 120.172 14.5278C120.172 9.7598 123.34 6.0158 128.204 6.0158ZM128.14 8.7998C125.74 8.7998 124.012 10.3038 123.532 12.7678H132.46C132.236 10.3678 130.572 8.7998 128.14 8.7998ZM155.802 19.5838V22.4318C155.194 22.7838 154.33 22.9758 153.21 22.9758C150.042 22.9758 148.154 21.0878 148.154 17.8238V8.9918H145.722V6.3998H148.25V2.5918L151.258 1.6318V6.3998H155.418V8.9918H151.258V17.4398C151.258 19.2638 152.09 20.0958 153.882 20.0958C154.234 20.0958 155.034 20.0318 155.802 19.5838ZM159.42 7.6158C160.732 6.7198 162.748 6.0158 164.924 6.0158C169.052 6.0158 171.612 8.4158 171.612 12.1278V22.5918H168.732V20.0958C167.58 22.0158 165.692 22.9758 163.452 22.9758C160.444 22.9758 158.204 20.9918 158.204 18.3038C158.204 15.4238 160.348 13.8238 164.252 13.2798L168.508 12.6718V12.0638C168.508 10.0478 167.1 8.8318 164.732 8.8318C162.588 8.8318 160.636 9.8238 159.42 10.7198V7.6158ZM163.964 20.3518C166.588 20.3518 168.572 18.1758 168.572 15.9038V15.0718L164.732 15.5518C162.492 15.8398 161.244 16.7038 161.244 18.1118C161.244 19.4878 162.364 20.3518 163.964 20.3518ZM176.859 28.9918V6.3998H179.835V8.7678C180.859 7.1998 183.067 6.0158 185.307 6.0158C189.627 6.0158 192.987 9.5678 192.987 14.4958C192.987 19.3918 189.659 22.9758 185.147 22.9758C183.099 22.9758 180.987 21.9518 179.963 20.5118V28.9918H176.859ZM179.771 14.4958C179.771 17.8558 182.107 20.1278 184.795 20.1278C187.483 20.1278 189.851 17.8558 189.851 14.4958C189.851 11.1358 187.483 8.8638 184.795 8.8638C182.107 8.8638 179.771 11.1038 179.771 14.4958ZM51.3057 48.0158C56.1057 48.0158 59.6897 51.7278 59.6897 56.4958C59.6897 61.2638 56.1057 64.9758 51.3057 64.9758C46.5057 64.9758 42.9217 61.2638 42.9217 56.4958C42.9217 51.7278 46.5057 48.0158 51.3057 48.0158ZM51.3057 50.9598C48.2337 50.9598 46.0897 53.4878 46.0897 56.4958C46.0897 59.5038 48.2337 62.0318 51.3057 62.0318C54.3777 62.0318 56.5217 59.5038 56.5217 56.4958C56.5217 53.4878 54.3777 50.9598 51.3057 50.9598ZM67.5134 47.0238V48.3998H71.3854V50.9918H67.5134V64.5918H64.4094V50.9918H62.1694V48.3998H64.4094V46.9278C64.4094 43.6638 66.7134 41.6158 69.9454 41.6158C70.7774 41.6158 71.5454 41.7118 72.1854 42.0638V44.7518C71.6414 44.4958 71.0334 44.3678 70.4254 44.3678C68.9214 44.3678 67.5134 45.0718 67.5134 47.0238ZM78.6072 47.0238V48.3998H82.4792V50.9918H78.6072V64.5918H75.5032V50.9918H73.2632V48.3998H75.5032V46.9278C75.5032 43.6638 77.8072 41.6158 81.0392 41.6158C81.8712 41.6158 82.6392 41.7118 83.2792 42.0638V44.7518C82.7352 44.4958 82.1272 44.3678 81.5192 44.3678C80.0152 44.3678 78.6072 45.0718 78.6072 47.0238ZM95.5557 64.5918L90.2757 48.3998H93.5077L97.1877 60.3678L101.092 48.3998H104.1L108.004 60.3678L111.684 48.3998H114.916L109.636 64.5918H106.628L102.596 52.7198L98.5637 64.5918H95.5557ZM118.172 41.9998H121.276V50.6398C122.204 49.1998 123.836 48.0158 126.46 48.0158C130.044 48.0158 132.732 50.5118 132.732 54.7998V64.5918H129.628V54.9278C129.628 52.2398 127.868 50.8638 125.82 50.8638C122.46 50.8638 121.276 53.6478 121.276 56.0478V64.5918H118.172V41.9998ZM144.641 48.0158C149.281 48.0158 151.969 51.3758 151.969 55.5358C151.969 56.1438 151.905 56.7838 151.809 57.2958H139.873C140.225 60.7198 142.689 62.0958 145.473 62.0958C147.521 62.0958 149.537 61.3598 150.913 60.1438V63.3758C148.833 64.7838 146.945 64.9758 145.025 64.9758C139.905 64.9758 136.609 61.2958 136.609 56.5278C136.609 51.7598 139.777 48.0158 144.641 48.0158ZM144.577 50.7998C142.177 50.7998 140.449 52.3038 139.969 54.7678H148.897C148.673 52.3678 147.009 50.7998 144.577 50.7998ZM159.181 50.8318C160.109 49.1358 161.741 48.0158 164.429 48.0158C168.109 48.0158 170.701 50.5118 170.701 54.7998V64.5918H167.597V54.9278C167.597 52.2398 165.869 50.8638 163.789 50.8638C160.429 50.8638 159.245 53.9678 159.245 56.3678V64.5918H156.141V48.3998H159.181V50.8318ZM2.97605 104.192V106.592H4.69685e-05V83.9998H3.10405V92.6398C4.03205 91.1998 6.20805 90.0158 8.44805 90.0158C12.768 90.0158 16.128 93.5678 16.128 98.4958C16.128 103.424 12.768 106.976 8.44805 106.976C6.20805 106.976 3.87205 105.76 2.97605 104.192ZM7.93605 104.128C10.624 104.128 12.992 101.856 12.992 98.4958C12.992 95.1358 10.624 92.8638 7.93605 92.8638C5.24805 92.8638 2.91205 95.1038 2.91205 98.4958C2.91205 101.856 5.24805 104.128 7.93605 104.128ZM23.3525 90.3998V93.2478C24.1525 91.2638 25.8165 90.0158 27.9925 90.0158C28.3765 90.0158 28.7925 90.0798 28.9845 90.1438V93.1838C28.8565 93.1518 28.5365 93.1198 28.3445 93.1198C25.3685 93.1198 23.4165 95.2638 23.4165 98.5598V106.592H20.3125V90.3998H23.3525ZM43.6695 104.16C42.7415 105.856 41.1095 106.976 38.4215 106.976C34.7415 106.976 32.1495 104.48 32.1495 100.192V90.3998H35.2535V100.064C35.2535 102.752 36.9815 104.128 39.0615 104.128C42.4215 104.128 43.6055 101.024 43.6055 98.6238V90.3998H46.7095V106.592H43.6695V104.16ZM57.0828 90.0158C58.9388 90.0158 60.8908 90.5918 62.0428 91.5198V94.7198C60.6028 93.5038 59.0348 92.7998 57.2108 92.7998C55.1628 92.7998 54.2028 93.6638 54.2028 94.7518C54.2028 95.9358 55.3868 96.5118 57.5628 97.1518C60.1548 97.8878 62.8748 98.7838 62.8748 102.016C62.8748 105.056 60.5068 106.976 56.8268 106.976C54.7148 106.976 52.6348 106.336 51.1308 105.12V101.664C52.6988 103.264 54.3948 104.192 56.6028 104.192C58.7788 104.192 59.8668 103.296 59.8668 102.048C59.8668 100.736 58.5868 100.288 56.2508 99.5838C53.6908 98.7838 51.1628 97.8238 51.1628 94.9118C51.1628 92.0958 53.4988 90.0158 57.0828 90.0158ZM66.9688 83.9998H70.0728V92.6398C71.0008 91.1998 72.6328 90.0158 75.2568 90.0158C78.8408 90.0158 81.5288 92.5118 81.5288 96.7998V106.592H78.4248V96.9278C78.4248 94.2398 76.6648 92.8638 74.6168 92.8638C71.2568 92.8638 70.0728 95.6478 70.0728 98.0478V106.592H66.9688V83.9998ZM88.318 83.6158C89.374 83.6158 90.27 84.4798 90.27 85.5678C90.27 86.6558 89.374 87.5518 88.318 87.5518C87.262 87.5518 86.366 86.6558 86.366 85.5678C86.366 84.4798 87.262 83.6158 88.318 83.6158ZM86.75 106.592V90.3998H89.854V106.592H86.75ZM98.3838 92.8318C99.3118 91.1358 100.944 90.0158 103.632 90.0158C107.312 90.0158 109.904 92.5118 109.904 96.7998V106.592H106.8V96.9278C106.8 94.2398 105.072 92.8638 102.992 92.8638C99.6318 92.8638 98.4478 95.9678 98.4478 98.3678V106.592H95.3438V90.3998H98.3838V92.8318ZM120.277 90.0158C121.109 90.0158 121.877 90.1438 122.613 90.3998H128.565V92.9918H125.909C126.453 93.8558 126.741 94.8478 126.741 95.9358C126.741 99.2318 123.893 101.856 120.277 101.856C119.701 101.856 119.157 101.792 118.613 101.664C118.261 101.92 117.973 102.272 117.973 102.752C117.973 103.488 118.613 103.904 119.253 103.904H123.349C126.613 103.904 128.725 105.824 128.725 108.416C128.725 111.2 125.557 113.376 120.661 113.376C116.181 113.376 113.365 111.712 113.365 108.864C113.365 107.296 114.581 106.08 116.085 105.344C115.349 104.8 115.029 104.032 115.029 103.168C115.029 102.208 115.605 101.376 116.469 100.736C114.869 99.6798 113.813 97.9198 113.813 95.9358C113.813 92.6398 116.661 90.0158 120.277 90.0158ZM120.277 92.7358C118.357 92.7358 116.821 94.1758 116.821 95.9358C116.821 97.6958 118.357 99.1358 120.277 99.1358C122.197 99.1358 123.733 97.6958 123.733 95.9358C123.733 94.1758 122.197 92.7358 120.277 92.7358ZM118.357 106.656C117.653 106.848 116.469 107.424 116.469 108.576C116.469 109.856 118.293 110.592 120.725 110.592C123.925 110.592 125.685 109.728 125.685 108.48C125.685 107.264 124.501 106.656 123.093 106.656H118.357ZM148.537 103.584V106.432C147.929 106.784 147.065 106.976 145.945 106.976C142.777 106.976 140.889 105.088 140.889 101.824V92.9918H138.457V90.3998H140.985V86.5918L143.993 85.6318V90.3998H148.153V92.9918H143.993V101.44C143.993 103.264 144.825 104.096 146.617 104.096C146.969 104.096 147.769 104.032 148.537 103.584ZM158.782 90.0158C163.422 90.0158 166.11 93.3758 166.11 97.5358C166.11 98.1438 166.046 98.7838 165.95 99.2958H154.014C154.366 102.72 156.83 104.096 159.614 104.096C161.662 104.096 163.678 103.36 165.054 102.144V105.376C162.974 106.784 161.086 106.976 159.166 106.976C154.046 106.976 150.75 103.296 150.75 98.5278C150.75 93.7598 153.918 90.0158 158.782 90.0158ZM158.718 92.7998C156.318 92.7998 154.59 94.3038 154.11 96.7678H163.038C162.814 94.3678 161.15 92.7998 158.718 92.7998ZM176.969 90.0158C181.609 90.0158 184.297 93.3758 184.297 97.5358C184.297 98.1438 184.233 98.7838 184.137 99.2958H172.201C172.553 102.72 175.017 104.096 177.801 104.096C179.849 104.096 181.865 103.36 183.241 102.144V105.376C181.161 106.784 179.273 106.976 177.353 106.976C172.233 106.976 168.937 103.296 168.937 98.5278C168.937 93.7598 172.105 90.0158 176.969 90.0158ZM176.905 92.7998C174.505 92.7998 172.777 94.3038 172.297 96.7678H181.225C181.001 94.3678 179.337 92.7998 176.905 92.7998ZM196.693 103.584V106.432C196.085 106.784 195.221 106.976 194.101 106.976C190.933 106.976 189.045 105.088 189.045 101.824V92.9918H186.613V90.3998H189.141V86.5918L192.149 85.6318V90.3998H196.309V92.9918H192.149V101.44C192.149 103.264 192.981 104.096 194.773 104.096C195.125 104.096 195.925 104.032 196.693 103.584ZM200.406 83.9998H203.51V92.6398C204.438 91.1998 206.07 90.0158 208.694 90.0158C212.278 90.0158 214.966 92.5118 214.966 96.7998V106.592H211.862V96.9278C211.862 94.2398 210.102 92.8638 208.054 92.8638C204.694 92.8638 203.51 95.6478 203.51 98.0478V106.592H200.406V83.9998Z" fill="white"/>
</svg>
