<svg width="349" height="408" viewBox="0 0 349 408" fill="none" xmlns="http://www.w3.org/2000/svg">
<path d="M109.6 317.54C107.66 312.17 109.9 307.96 105.97 292.54C114.2 306.15 118.78 307.51 121.25 312.66C123.85 318.09 122.36 322.63 119.15 323.98C115.93 325.33 111.65 323.21 109.61 317.55L109.6 317.54Z" fill="white"/>
<path d="M127.07 359.2C125.13 353.83 127.37 349.62 123.44 334.2C131.67 347.81 136.25 349.17 138.72 354.32C141.32 359.75 139.83 364.29 136.62 365.64C133.4 366.99 129.12 364.87 127.08 359.21L127.07 359.2Z" fill="white"/>
<path d="M144.53 400.85C142.59 395.48 144.83 391.27 140.9 375.85C149.13 389.46 153.71 390.82 156.18 395.97C158.78 401.4 157.29 405.94 154.08 407.29C150.86 408.64 146.58 406.52 144.54 400.86L144.53 400.85Z" fill="white"/>
<path d="M173.33 317.54C171.39 312.17 173.63 307.96 169.7 292.54C177.93 306.15 182.51 307.51 184.98 312.66C187.58 318.09 186.09 322.63 182.88 323.98C179.66 325.33 175.38 323.21 173.34 317.55L173.33 317.54Z" fill="white"/>
<path d="M190.79 359.2C188.85 353.83 191.09 349.62 187.16 334.2C195.39 347.81 199.97 349.17 202.44 354.32C205.04 359.75 203.55 364.29 200.34 365.64C197.12 366.99 192.84 364.87 190.8 359.21L190.79 359.2Z" fill="white"/>
<path d="M208.25 400.85C206.31 395.48 208.55 391.27 204.62 375.85C212.85 389.46 217.43 390.82 219.9 395.97C222.5 401.4 221.01 405.94 217.8 407.29C214.58 408.64 210.3 406.52 208.26 400.86L208.25 400.85Z" fill="white"/>
<path d="M237.06 317.54C235.12 312.17 237.36 307.96 233.43 292.54C241.66 306.15 246.24 307.51 248.71 312.66C251.31 318.09 249.82 322.63 246.61 323.98C243.39 325.33 239.11 323.21 237.07 317.55L237.06 317.54Z" fill="white"/>
<path d="M254.52 359.2C252.58 353.83 254.82 349.62 250.89 334.2C259.12 347.81 263.7 349.17 266.17 354.32C268.77 359.75 267.28 364.29 264.07 365.64C260.85 366.99 256.57 364.87 254.53 359.21L254.52 359.2Z" fill="white"/>
<path d="M271.98 400.85C270.04 395.48 272.28 391.27 268.35 375.85C276.58 389.46 281.16 390.82 283.63 395.97C286.23 401.4 284.74 405.94 281.53 407.29C278.31 408.64 274.03 406.52 271.99 400.86L271.98 400.85Z" fill="white"/>
<path d="M300.78 317.54C298.84 312.17 301.08 307.96 297.15 292.54C305.38 306.15 309.96 307.51 312.43 312.66C315.03 318.09 313.54 322.63 310.33 323.98C307.11 325.33 302.83 323.21 300.79 317.55L300.78 317.54Z" fill="white"/>
<path d="M318.25 359.2C316.31 353.83 318.55 349.62 314.62 334.2C322.85 347.81 327.43 349.17 329.9 354.32C332.5 359.75 331.01 364.29 327.8 365.64C324.58 366.99 320.3 364.87 318.26 359.21L318.25 359.2Z" fill="white"/>
<path d="M335.71 400.85C333.77 395.48 336.01 391.27 332.08 375.85C340.31 389.46 344.89 390.82 347.36 395.97C349.96 401.4 348.47 405.94 345.26 407.29C342.04 408.64 337.76 406.52 335.72 400.86L335.71 400.85Z" fill="white"/>
<g opacity="0.53">
<path d="M70.6201 301.84C68.6801 296.47 70.92 292.26 66.99 276.84C75.22 290.45 79.8 291.81 82.27 296.96C84.87 302.39 83.3802 306.93 80.1702 308.28C76.9502 309.63 72.6701 307.51 70.6301 301.85L70.6201 301.84Z" fill="white"/>
<path d="M88.0801 343.5C86.1401 338.13 88.3802 333.92 84.4502 318.5C92.6802 332.11 97.26 333.47 99.73 338.62C102.33 344.05 100.84 348.59 97.6301 349.94C94.4101 351.29 90.1301 349.17 88.0901 343.51L88.0801 343.5Z" fill="white"/>
<path d="M105.54 385.15C103.6 379.78 105.84 375.57 101.91 360.15C110.14 373.76 114.72 375.12 117.19 380.27C119.79 385.7 118.3 390.24 115.09 391.59C111.87 392.94 107.59 390.82 105.55 385.16L105.54 385.15Z" fill="white"/>
<path d="M134.35 301.84C132.41 296.47 134.65 292.26 130.72 276.84C138.95 290.45 143.53 291.81 146 296.96C148.6 302.39 147.11 306.93 143.9 308.28C140.68 309.63 136.4 307.51 134.36 301.85L134.35 301.84Z" fill="white"/>
<path d="M151.81 343.5C149.87 338.13 152.11 333.92 148.18 318.5C156.41 332.11 160.99 333.47 163.46 338.62C166.06 344.05 164.57 348.59 161.36 349.94C158.14 351.29 153.86 349.17 151.82 343.51L151.81 343.5Z" fill="white"/>
<path d="M169.27 385.15C167.33 379.78 169.57 375.57 165.64 360.15C173.87 373.76 178.45 375.12 180.92 380.27C183.52 385.7 182.03 390.24 178.82 391.59C175.6 392.94 171.32 390.82 169.28 385.16L169.27 385.15Z" fill="white"/>
<path d="M198.07 301.84C196.13 296.47 198.37 292.26 194.44 276.84C202.67 290.45 207.25 291.81 209.72 296.96C212.32 302.39 210.83 306.93 207.62 308.28C204.4 309.63 200.12 307.51 198.08 301.85L198.07 301.84Z" fill="white"/>
<path d="M215.54 343.5C213.6 338.13 215.84 333.92 211.91 318.5C220.14 332.11 224.72 333.47 227.19 338.62C229.79 344.05 228.3 348.59 225.09 349.94C221.87 351.29 217.59 349.17 215.55 343.51L215.54 343.5Z" fill="white"/>
<path d="M233 385.15C231.06 379.78 233.3 375.57 229.37 360.15C237.6 373.76 242.18 375.12 244.65 380.27C247.25 385.7 245.76 390.24 242.55 391.59C239.33 392.94 235.05 390.82 233.01 385.16L233 385.15Z" fill="white"/>
<path d="M261.8 301.84C259.86 296.47 262.1 292.26 258.17 276.84C266.4 290.45 270.98 291.81 273.45 296.96C276.05 302.39 274.56 306.93 271.35 308.28C268.13 309.63 263.85 307.51 261.81 301.85L261.8 301.84Z" fill="white"/>
<path d="M279.26 343.5C277.32 338.13 279.56 333.92 275.63 318.5C283.86 332.11 288.44 333.47 290.91 338.62C293.51 344.05 292.02 348.59 288.81 349.94C285.59 351.29 281.31 349.17 279.27 343.51L279.26 343.5Z" fill="white"/>
<path d="M296.72 385.15C294.78 379.78 297.02 375.57 293.09 360.15C301.32 373.76 305.9 375.12 308.37 380.27C310.97 385.7 309.48 390.24 306.27 391.59C303.05 392.94 298.77 390.82 296.73 385.16L296.72 385.15Z" fill="white"/>
</g>
<path d="M42.6101 40.7002C40.6701 35.3302 42.91 31.1202 38.98 15.7002C47.21 29.3102 51.79 30.6702 54.26 35.8202C56.86 41.2502 55.3702 45.7903 52.1602 47.1403C48.9402 48.4903 44.6601 46.3702 42.6201 40.7102L42.6101 40.7002Z" fill="white"/>
<path d="M106.34 40.7002C104.4 35.3302 106.64 31.1202 102.71 15.7002C110.94 29.3102 115.52 30.6702 117.99 35.8202C120.59 41.2502 119.1 45.7903 115.89 47.1403C112.67 48.4903 108.39 46.3702 106.35 40.7102L106.34 40.7002Z" fill="white"/>
<path d="M170.07 40.7002C168.13 35.3302 170.37 31.1202 166.44 15.7002C174.67 29.3102 179.25 30.6702 181.72 35.8202C184.32 41.2502 182.83 45.7903 179.62 47.1403C176.4 48.4903 172.12 46.3702 170.08 40.7102L170.07 40.7002Z" fill="white"/>
<path d="M233.79 40.7002C231.85 35.3302 234.09 31.1202 230.16 15.7002C238.39 29.3102 242.97 30.6702 245.44 35.8202C248.04 41.2502 246.55 45.7903 243.34 47.1403C240.12 48.4903 235.84 46.3702 233.8 40.7102L233.79 40.7002Z" fill="white"/>
<path d="M3.63013 25C1.69013 19.63 3.93 15.42 0 0C8.23 13.61 12.81 14.97 15.28 20.12C17.88 25.55 16.3902 30.0899 13.1802 31.4399C9.96018 32.7899 5.68014 30.67 3.64014 25.01L3.63013 25Z" fill="white"/>
<path d="M67.3601 25C65.4201 19.63 67.66 15.42 63.73 0C71.96 13.61 76.54 14.97 79.01 20.12C81.61 25.55 80.1202 30.0899 76.9102 31.4399C73.6902 32.7899 69.4101 30.67 67.3701 25.01L67.3601 25Z" fill="white"/>
<path d="M131.09 25C129.15 19.63 131.39 15.42 127.46 0C135.69 13.61 140.27 14.97 142.74 20.12C145.34 25.55 143.85 30.0899 140.64 31.4399C137.42 32.7899 133.14 30.67 131.1 25.01L131.09 25Z" fill="white"/>
<path d="M194.81 25C192.87 19.63 195.11 15.42 191.18 0C199.41 13.61 203.99 14.97 206.46 20.12C209.06 25.55 207.57 30.0899 204.36 31.4399C201.14 32.7899 196.86 30.67 194.82 25.01L194.81 25Z" fill="white"/>
</svg>
