<svg width="1769" height="2000" viewBox="0 0 1769 2000" fill="none" xmlns="http://www.w3.org/2000/svg">
<path opacity="0.7" d="M775.535 59.3018C775.49 59.9029 775.465 60.506 775.466 61.1113C775.501 94.8072 846.268 122.049 933.527 121.958C1018.12 121.869 1087.16 96.1229 1091.27 63.8477L1768.66 1891.48L0 1999.9L775.535 59.3018ZM783.341 42.0078C782.706 42.7544 782.106 43.5067 781.544 44.2656L782.45 42L783.341 42.0078Z" fill="url(#paint0_linear_328_86)"/>
<path d="M933.125 122.189C1020.38 122.098 1091.09 94.7076 1091.06 61.0117C1091.02 27.3158 1020.26 0.0739781 932.997 0.165356C845.738 0.256734 775.029 27.6467 775.064 61.3426C775.099 95.0385 845.866 122.28 933.125 122.189Z" fill="url(#paint1_radial_328_86)"/>
<defs>
<linearGradient id="paint0_linear_328_86" x1="1011.18" y1="93.4835" x2="893.666" y2="1810.6" gradientUnits="userSpaceOnUse">
<stop stop-color="#FBC310"/>
<stop offset="0.02" stop-color="#FBC729" stop-opacity="0.92"/>
<stop offset="0.06" stop-color="#FCD262" stop-opacity="0.73"/>
<stop offset="0.1" stop-color="#FDDB91" stop-opacity="0.57"/>
<stop offset="0.15" stop-color="#FEE2B5" stop-opacity="0.45"/>
<stop offset="0.19" stop-color="#FEE7D0" stop-opacity="0.37"/>
<stop offset="0.23" stop-color="#FEEADF" stop-opacity="0.32"/>
<stop offset="0.26" stop-color="#FFEBE5" stop-opacity="0.3"/>
<stop offset="0.35" stop-color="#FFF1ED" stop-opacity="0.19"/>
<stop offset="0.45" stop-color="#FFF7F5" stop-opacity="0.09"/>
<stop offset="0.55" stop-color="#FFFBFA" stop-opacity="0.02"/>
<stop offset="0.62" stop-color="#FFFDFC" stop-opacity="0"/>
<stop offset="0.99" stop-color="white" stop-opacity="0"/>
</linearGradient>
<radialGradient id="paint1_radial_328_86" cx="0" cy="0" r="1" gradientTransform="matrix(278.91 2.60737e-06 1.31481 118.894 933.061 61.1772)" gradientUnits="userSpaceOnUse">
<stop stop-color="#FEEEBC"/>
<stop offset="0.14" stop-color="#FCDE7D"/>
<stop offset="0.36" stop-color="#FBC310"/>
<stop offset="0.5" stop-color="#FBC310" stop-opacity="0.75"/>
<stop offset="0.68" stop-color="#FBC310" stop-opacity="0.43"/>
<stop offset="0.83" stop-color="#FBC310" stop-opacity="0.2"/>
<stop offset="0.94" stop-color="#FBC310" stop-opacity="0.05"/>
<stop offset="1" stop-color="#FBC310" stop-opacity="0"/>
</radialGradient>
</defs>
</svg>
