<svg width="1378" height="640" viewBox="0 0 1378 640" fill="none" xmlns="http://www.w3.org/2000/svg">
<rect x="0.5" y="0.5" width="1376.11" height="638.148" rx="4.5" stroke="#8A38F5" stroke-dasharray="10 5"/>
<path fill-rule="evenodd" clip-rule="evenodd" d="M692.795 20.031C879.016 22.351 1028.59 154.171 1026.59 314.211C1024.6 474.251 871.785 602.291 685.555 599.971C499.335 597.651 349.765 465.831 351.765 305.791C353.765 145.751 506.575 17.711 692.795 20.031Z" fill="url(#paint0_radial_214_194)"/>
<path fill-rule="evenodd" clip-rule="evenodd" d="M454.075 101.291C531.335 89.8611 615.325 83.8011 702.795 84.8911C780.995 85.8711 855.735 92.4811 924.965 103.411C988.515 157.021 1027.6 231.881 1026.57 314.211C1025.6 392.131 988.885 462.471 929.955 513.861C855.815 520.571 775.405 523.631 691.465 522.581C603.255 521.481 519.075 515.951 442.055 506.591C385.205 453.861 350.785 383.121 351.755 305.801C352.755 225.401 391.815 153.081 454.065 101.301L454.075 101.291Z" fill="#6DBDC3"/>
<path fill-rule="evenodd" clip-rule="evenodd" d="M697.515 111.421C1066.45 116.021 1358.55 246.091 1357.1 362.611C1355.66 479.131 1055.14 553.701 686.205 549.101C317.265 544.501 18.705 462.441 20.165 345.931C21.615 229.411 328.585 106.811 697.525 111.411L697.515 111.421Z" fill="#00FFFF"/>
<path fill-rule="evenodd" clip-rule="evenodd" d="M691.115 154.761C1060.06 159.361 1358.41 257.691 1356.96 374.211C1355.51 490.721 1054.8 581.591 685.845 576.991C316.905 572.391 18.5553 474.051 20.0053 357.541C21.4553 241.021 322.165 150.161 691.115 154.761Z" fill="#007286"/>
<path fill-rule="evenodd" clip-rule="evenodd" d="M215.016 457.126C195.756 451.076 177.836 453.846 175.026 463.316C172.216 472.776 184.735 488.146 203.995 494.186C223.255 500.226 241.995 494.676 244.815 485.226C247.635 475.766 234.286 463.176 215.026 457.136L215.016 457.126Z" fill="#FBC310"/>
<path fill-rule="evenodd" clip-rule="evenodd" d="M118.666 366.072C96.2364 364.642 77.4164 373.642 76.6564 386.162C75.8964 398.682 93.2564 413.672 115.686 415.102C138.116 416.532 157.166 403.852 157.926 391.332C158.686 378.812 141.106 367.492 118.676 366.062L118.666 366.072Z" fill="#FBC310"/>
<path fill-rule="evenodd" clip-rule="evenodd" d="M207.601 269.236C176.651 279.036 154.431 296.716 158.011 308.706C161.591 320.696 193.231 336.666 224.181 326.876C255.131 317.086 273.761 285.196 270.171 273.216C266.591 261.226 238.551 259.456 207.601 269.246V269.236Z" fill="#FBC310"/>
<path fill-rule="evenodd" clip-rule="evenodd" d="M359.805 546.051C329.125 488.671 322.105 420.621 355.885 346.721C360.755 336.071 454.415 284.831 659.825 291.741C872.215 298.891 1015.05 357.631 1021.29 368.471C1061.99 439.261 1060.39 500.151 1033.82 550.541C932.275 568.801 813.115 578.581 685.855 576.991C567.365 575.511 456.145 564.361 359.805 546.051Z" fill="#00424E"/>
<path fill-rule="evenodd" clip-rule="evenodd" d="M956.095 214.041C992.985 219.651 1021.48 234.271 1019.69 246.681C1017.9 259.091 988.135 277.361 951.245 271.751C914.355 266.141 884.225 238.771 886.015 226.361C887.805 213.961 919.205 208.431 956.095 214.041Z" fill="#FBC310"/>
<path fill-rule="evenodd" clip-rule="evenodd" d="M428.795 207.471C391.775 212.161 362.935 226.071 364.405 238.511C365.885 250.961 395.185 269.961 432.205 265.281C469.225 260.591 500.035 233.981 498.545 221.531C497.065 209.081 465.805 202.781 428.795 207.471Z" fill="#FBC310"/>
<path fill-rule="evenodd" clip-rule="evenodd" d="M1180.37 268.471C1211.07 279.041 1232.84 297.271 1228.96 309.161C1225.08 321.051 1193.06 336.241 1162.36 325.671C1131.66 315.101 1113.84 282.771 1117.72 270.881C1121.6 258.991 1149.67 257.911 1180.37 268.471Z" fill="#FBC310"/>
<path fill-rule="evenodd" clip-rule="evenodd" d="M1284.45 374.911C1306.91 374.041 1325.5 383.511 1325.95 396.041C1326.4 408.571 1308.67 423.131 1286.21 424.001C1263.75 424.871 1245.03 411.721 1244.58 399.191C1244.13 386.661 1262 375.781 1284.45 374.911Z" fill="#FBC310"/>
<path fill-rule="evenodd" clip-rule="evenodd" d="M1174.56 469.241C1193.96 463.681 1211.81 466.901 1214.39 476.421C1216.96 485.951 1204.06 501.001 1184.66 506.561C1165.26 512.121 1146.66 506.111 1144.08 496.581C1141.5 487.061 1155.16 474.801 1174.56 469.241Z" fill="#FBC310"/>
<path fill-rule="evenodd" clip-rule="evenodd" d="M1037.49 506.711C1057.53 504.561 1074.59 510.801 1075.59 520.641C1076.58 530.481 1061.42 543.101 1041.39 545.261C1021.36 547.411 1004 538.281 1003 528.451C1002.01 518.611 1017.46 508.881 1037.49 506.721V506.711Z" fill="#FBC310"/>
<path fill-rule="evenodd" clip-rule="evenodd" d="M340.135 498.021C320.165 495.371 302.945 501.181 301.705 510.991C300.465 520.801 315.315 533.801 335.285 536.441C355.255 539.091 372.835 530.401 374.075 520.591C375.315 510.781 360.105 500.661 340.135 498.011V498.021Z" fill="#FBC310"/>
<path fill-rule="evenodd" clip-rule="evenodd" d="M897.665 515.531C917.695 513.381 934.765 519.621 935.755 529.461C936.745 539.301 921.585 551.921 901.555 554.081C881.525 556.231 864.165 547.101 863.165 537.271C862.175 527.431 877.625 517.701 897.665 515.541V515.531Z" fill="#FBC310"/>
<path fill-rule="evenodd" clip-rule="evenodd" d="M479.685 510.321C459.715 507.671 442.495 513.481 441.255 523.291C440.015 533.101 454.855 546.101 474.835 548.751C494.805 551.401 512.385 542.711 513.625 532.901C514.865 523.091 499.655 512.971 479.675 510.321H479.685Z" fill="#FBC310"/>
<path fill-rule="evenodd" clip-rule="evenodd" d="M355.885 346.721C354.125 335.141 454.415 284.831 659.825 291.741C872.215 298.891 1024.13 356.291 1021.28 368.471C989.985 502.221 851.475 602.041 686.855 599.991C516.775 597.871 377.265 487.731 355.885 346.721Z" fill="#65B0B5"/>
<path fill-rule="evenodd" clip-rule="evenodd" d="M359.375 365.101C357.985 359.031 356.825 352.901 355.885 346.711C354.125 335.131 454.415 284.821 659.825 291.731C872.215 298.881 1024.13 356.281 1021.28 368.461C1019.83 374.671 1018.15 380.811 1016.24 386.861C989.005 368.111 848.095 322.151 659.525 315.801C478.795 309.711 379.445 347.931 359.375 365.091V365.101Z" fill="#1F4D58"/>
<path fill-rule="evenodd" clip-rule="evenodd" d="M957.265 338.511C999.105 351.641 1022.41 363.621 1021.28 368.461C989.985 502.211 851.475 602.031 686.855 599.981C582.545 598.681 489.725 556.751 428.615 491.981C484.185 528.231 553.155 550.121 628.065 551.051C784.805 553.011 917.865 462.611 957.265 338.511Z" fill="#1F4D58"/>
<path opacity="0.3" fill-rule="evenodd" clip-rule="evenodd" d="M395.885 322.861V323.431C394.505 432.881 464.035 529.141 567.695 579.791C455.045 541.551 371.985 452.881 355.885 346.721C355.235 342.441 368.515 332.881 395.885 322.861Z" fill="#00FFFF"/>
<path fill-rule="evenodd" clip-rule="evenodd" d="M687.885 413.231C812.205 414.781 912.705 449.981 912.185 491.781C911.665 533.581 810.165 578.541 685.845 576.991C561.535 575.441 461.175 527.971 461.705 486.161C462.225 444.361 563.575 411.681 687.895 413.231H687.885Z" fill="#353535"/>
<path fill-rule="evenodd" clip-rule="evenodd" d="M687.755 423.841C812.075 425.391 912.575 460.591 912.055 502.391C911.535 544.191 810.035 589.151 685.715 587.601C561.405 586.051 461.045 538.581 461.575 496.771C462.095 454.961 563.445 422.281 687.755 423.831V423.841Z" fill="#6B6B6B"/>
<path fill-rule="evenodd" clip-rule="evenodd" d="M875.175 460.141C898.655 472.411 912.245 486.951 912.055 502.391C911.535 544.191 810.035 589.151 685.715 587.601C631.405 586.921 590.115 568.191 666.335 569.141C790.655 570.691 885.965 545.121 879.375 475.121C878.895 470.031 877.995 465.001 875.175 460.131V460.141Z" fill="#494949"/>
<path fill-rule="evenodd" clip-rule="evenodd" d="M687.485 445.911C795.055 447.251 882.015 477.711 881.565 513.881C881.115 550.051 793.285 588.951 685.715 587.611C578.155 586.271 491.325 545.191 491.775 509.021C492.225 472.851 579.925 444.571 687.485 445.911Z" fill="#313131"/>
<path fill-rule="evenodd" clip-rule="evenodd" d="M686.905 462.671C784.775 463.891 863.865 495.331 863.395 532.831C862.925 570.331 782.945 610.801 685.075 609.581C587.195 608.361 508.255 565.911 508.725 528.401C509.195 490.891 589.035 461.441 686.905 462.661V462.671Z" fill="#353535"/>
<path fill-rule="evenodd" clip-rule="evenodd" d="M686.785 472.201C784.655 473.421 863.745 504.861 863.275 542.371C862.805 579.881 782.825 620.351 684.955 619.121C587.085 617.901 508.135 575.451 508.605 537.941C509.065 500.441 588.915 470.981 686.785 472.201Z" fill="#6B6B6B"/>
<path fill-rule="evenodd" clip-rule="evenodd" d="M831.225 504.471C849.695 515.451 860.375 528.471 860.205 542.331C859.735 579.841 779.755 620.301 681.885 619.081C600.065 618.061 596.185 593.911 656.195 594.661C754.065 595.881 834.045 555.411 834.515 517.911C834.575 513.321 833.445 508.831 831.235 504.471H831.225Z" fill="#494949"/>
<path fill-rule="evenodd" clip-rule="evenodd" d="M686.535 492.001C771.225 493.051 839.645 520.261 839.245 552.711C838.835 585.161 769.635 620.181 684.945 619.121C600.255 618.071 531.955 581.331 532.355 548.881C532.765 516.431 601.845 490.941 686.525 492.001H686.535Z" fill="#FBC310"/>
<path fill-rule="evenodd" clip-rule="evenodd" d="M692.483 192.949C729.773 193.409 759.923 203.969 759.763 216.509C759.603 229.049 729.063 250.319 691.773 249.849C654.483 249.389 624.483 227.359 624.633 214.819C624.793 202.279 655.193 192.469 692.483 192.939V192.949Z" fill="#FBC310"/>
<defs>
<radialGradient id="paint0_radial_214_194" cx="0" cy="0" r="1" gradientUnits="userSpaceOnUse" gradientTransform="translate(689.161 309.891) rotate(-15.2) scale(314.67 314.67)">
<stop stop-color="white"/>
<stop offset="1" stop-color="white" stop-opacity="0.1"/>
</radialGradient>
</defs>
</svg>
