<svg width="1338" height="600" viewBox="0 0 1338 600" fill="none" xmlns="http://www.w3.org/2000/svg">
<path fill-rule="evenodd" clip-rule="evenodd" d="M672.796 0.0310362C859.016 2.35104 1008.59 134.171 1006.59 294.211C1004.6 454.251 851.786 582.291 665.556 579.971C479.336 577.651 329.766 445.831 331.766 285.791C333.766 125.751 486.576 -2.28896 672.796 0.0310362Z" fill="url(#paint0_radial_328_412)"/>
<path fill-rule="evenodd" clip-rule="evenodd" d="M434.074 81.2911C511.334 69.8611 595.324 63.8011 682.794 64.8911C760.994 65.8711 835.734 72.4811 904.964 83.4111C968.514 137.021 1007.6 211.881 1006.57 294.211C1005.6 372.131 968.884 442.471 909.954 493.861C835.814 500.571 755.404 503.631 671.464 502.581C583.254 501.481 499.074 495.951 422.054 486.591C365.204 433.861 330.784 363.121 331.754 285.801C332.754 205.401 371.814 133.081 434.064 81.3011L434.074 81.2911Z" fill="#6DBDC3"/>
<path fill-rule="evenodd" clip-rule="evenodd" d="M677.515 91.4212C1046.46 96.0212 1338.56 226.091 1337.11 342.611C1335.66 459.131 1035.15 533.701 666.205 529.101C297.265 524.501 -1.29451 442.441 0.165488 325.931C1.61549 209.411 308.585 86.8112 677.525 91.4112L677.515 91.4212Z" fill="#00FFFF"/>
<path fill-rule="evenodd" clip-rule="evenodd" d="M671.115 134.761C1040.06 139.361 1338.41 237.691 1336.96 354.211C1335.51 470.721 1034.8 561.591 665.845 556.991C296.905 552.391 -1.44474 454.051 0.005263 337.541C1.45526 221.021 302.165 130.161 671.115 134.761Z" fill="#007286"/>
<path fill-rule="evenodd" clip-rule="evenodd" d="M195.016 437.126C175.756 431.076 157.836 433.846 155.026 443.316C152.216 452.776 164.736 468.146 183.996 474.186C203.256 480.226 221.996 474.676 224.816 465.226C227.636 455.766 214.286 443.176 195.026 437.136L195.016 437.126Z" fill="#FBC310"/>
<path fill-rule="evenodd" clip-rule="evenodd" d="M98.6669 346.072C76.2369 344.642 57.4168 353.642 56.6568 366.162C55.8968 378.682 73.2569 393.672 95.6869 395.102C118.117 396.532 137.167 383.852 137.927 371.332C138.687 358.812 121.107 347.492 98.6769 346.062L98.6669 346.072Z" fill="#FBC310"/>
<path fill-rule="evenodd" clip-rule="evenodd" d="M187.601 249.236C156.651 259.036 134.431 276.716 138.011 288.706C141.591 300.696 173.231 316.666 204.181 306.876C235.131 297.086 253.761 265.196 250.171 253.216C246.591 241.226 218.551 239.456 187.601 249.246V249.236Z" fill="#FBC310"/>
<path fill-rule="evenodd" clip-rule="evenodd" d="M339.805 526.051C309.125 468.671 302.105 400.621 335.885 326.721C340.755 316.071 434.415 264.831 639.825 271.741C852.215 278.891 995.045 337.631 1001.29 348.471C1041.99 419.261 1040.39 480.151 1013.82 530.541C912.275 548.801 793.115 558.581 665.855 556.991C547.365 555.511 436.145 544.361 339.805 526.051Z" fill="#00424E"/>
<path fill-rule="evenodd" clip-rule="evenodd" d="M936.097 194.041C972.987 199.651 1001.48 214.271 999.687 226.681C997.897 239.091 968.137 257.361 931.247 251.751C894.357 246.141 864.227 218.771 866.017 206.361C867.807 193.961 899.207 188.431 936.097 194.041Z" fill="#FBC310"/>
<path fill-rule="evenodd" clip-rule="evenodd" d="M408.795 187.471C371.775 192.161 342.935 206.071 344.405 218.511C345.885 230.961 375.185 249.961 412.205 245.281C449.225 240.591 480.035 213.981 478.545 201.531C477.065 189.081 445.805 182.781 408.795 187.471Z" fill="#FBC310"/>
<path fill-rule="evenodd" clip-rule="evenodd" d="M1160.36 248.471C1191.06 259.041 1212.83 277.271 1208.95 289.161C1205.07 301.051 1173.05 316.241 1142.35 305.671C1111.65 295.101 1093.83 262.771 1097.71 250.881C1101.59 238.991 1129.66 237.911 1160.36 248.471Z" fill="#FBC310"/>
<path fill-rule="evenodd" clip-rule="evenodd" d="M1264.44 354.911C1286.9 354.041 1305.49 363.511 1305.94 376.041C1306.39 388.571 1288.66 403.131 1266.2 404.001C1243.74 404.871 1225.02 391.721 1224.57 379.191C1224.12 366.661 1241.99 355.781 1264.44 354.911Z" fill="#FBC310"/>
<path fill-rule="evenodd" clip-rule="evenodd" d="M1154.57 449.241C1173.97 443.681 1191.82 446.901 1194.4 456.421C1196.97 465.951 1184.07 481.001 1164.67 486.561C1145.27 492.121 1126.67 486.111 1124.09 476.581C1121.51 467.061 1135.17 454.801 1154.57 449.241Z" fill="#FBC310"/>
<path fill-rule="evenodd" clip-rule="evenodd" d="M1017.48 486.711C1037.52 484.561 1054.58 490.801 1055.58 500.641C1056.57 510.481 1041.41 523.101 1021.38 525.261C1001.35 527.411 983.994 518.281 982.994 508.451C982.004 498.611 997.454 488.881 1017.48 486.721V486.711Z" fill="#FBC310"/>
<path fill-rule="evenodd" clip-rule="evenodd" d="M320.135 478.021C300.165 475.371 282.945 481.181 281.705 490.991C280.465 500.801 295.315 513.801 315.285 516.441C335.255 519.091 352.835 510.401 354.075 500.591C355.315 490.781 340.105 480.661 320.135 478.011V478.021Z" fill="#FBC310"/>
<path fill-rule="evenodd" clip-rule="evenodd" d="M877.666 495.531C897.696 493.381 914.766 499.621 915.756 509.461C916.746 519.301 901.586 531.921 881.556 534.081C861.526 536.231 844.166 527.101 843.166 517.271C842.176 507.431 857.626 497.701 877.666 495.541V495.531Z" fill="#FBC310"/>
<path fill-rule="evenodd" clip-rule="evenodd" d="M459.686 490.321C439.716 487.671 422.496 493.481 421.256 503.291C420.016 513.101 434.856 526.101 454.836 528.751C474.806 531.401 492.386 522.711 493.626 512.901C494.866 503.091 479.656 492.971 459.676 490.321H459.686Z" fill="#FBC310"/>
<path fill-rule="evenodd" clip-rule="evenodd" d="M335.886 326.721C334.126 315.141 434.416 264.831 639.826 271.741C852.216 278.891 1004.14 336.291 1001.29 348.471C969.986 482.221 831.476 582.041 666.856 579.991C496.776 577.871 357.266 467.731 335.886 326.721Z" fill="#65B0B5"/>
<path fill-rule="evenodd" clip-rule="evenodd" d="M339.376 345.101C337.986 339.031 336.826 332.901 335.886 326.711C334.126 315.131 434.416 264.821 639.826 271.731C852.216 278.881 1004.14 336.281 1001.29 348.461C999.836 354.671 998.146 360.811 996.236 366.861C969.006 348.111 828.096 302.151 639.526 295.801C458.796 289.711 359.446 327.931 339.376 345.091V345.101Z" fill="#1F4D58"/>
<path fill-rule="evenodd" clip-rule="evenodd" d="M937.265 318.511C979.105 331.641 1002.42 343.621 1001.29 348.461C969.985 482.211 831.475 582.031 666.855 579.981C562.545 578.681 469.725 536.751 408.615 471.981C464.185 508.231 533.155 530.121 608.065 531.051C764.805 533.011 897.865 442.611 937.265 318.511Z" fill="#1F4D58"/>
<path opacity="0.3" fill-rule="evenodd" clip-rule="evenodd" d="M375.886 302.861V303.431C374.506 412.881 444.036 509.141 547.696 559.791C435.046 521.551 351.986 432.881 335.886 326.721C335.236 322.441 348.516 312.881 375.886 302.861Z" fill="#00FFFF"/>
<path fill-rule="evenodd" clip-rule="evenodd" d="M667.887 393.231C792.207 394.781 892.707 429.981 892.187 471.781C891.667 513.581 790.167 558.541 665.847 556.991C541.537 555.441 441.177 507.971 441.707 466.161C442.227 424.361 543.577 391.681 667.897 393.231H667.887Z" fill="#353535"/>
<path fill-rule="evenodd" clip-rule="evenodd" d="M667.756 403.841C792.076 405.391 892.576 440.591 892.056 482.391C891.536 524.191 790.036 569.151 665.716 567.601C541.406 566.051 441.046 518.581 441.576 476.771C442.096 434.961 543.446 402.281 667.756 403.831V403.841Z" fill="#6B6B6B"/>
<path fill-rule="evenodd" clip-rule="evenodd" d="M855.176 440.141C878.656 452.411 892.246 466.951 892.056 482.391C891.536 524.191 790.036 569.151 665.716 567.601C611.406 566.921 570.116 548.191 646.336 549.141C770.656 550.691 865.966 525.121 859.376 455.121C858.896 450.031 857.996 445.001 855.176 440.131V440.141Z" fill="#494949"/>
<path fill-rule="evenodd" clip-rule="evenodd" d="M667.487 425.911C775.057 427.251 862.017 457.711 861.567 493.881C861.117 530.051 773.287 568.951 665.717 567.611C558.157 566.271 471.327 525.191 471.777 489.021C472.227 452.851 559.927 424.571 667.487 425.911Z" fill="#313131"/>
<path fill-rule="evenodd" clip-rule="evenodd" d="M666.907 442.671C764.777 443.891 843.867 475.331 843.397 512.831C842.927 550.331 762.947 590.801 665.077 589.581C567.197 588.361 488.257 545.911 488.727 508.401C489.197 470.891 569.037 441.441 666.907 442.661V442.671Z" fill="#353535"/>
<path fill-rule="evenodd" clip-rule="evenodd" d="M666.786 452.201C764.656 453.421 843.746 484.861 843.276 522.371C842.806 559.881 762.826 600.351 664.956 599.121C567.086 597.901 488.136 555.451 488.606 517.941C489.066 480.441 568.916 450.981 666.786 452.201Z" fill="#6B6B6B"/>
<path fill-rule="evenodd" clip-rule="evenodd" d="M811.225 484.471C829.695 495.451 840.375 508.471 840.205 522.331C839.735 559.841 759.755 600.301 661.885 599.081C580.065 598.061 576.185 573.911 636.195 574.661C734.065 575.881 814.045 535.411 814.515 497.911C814.575 493.321 813.445 488.831 811.235 484.471H811.225Z" fill="#494949"/>
<path fill-rule="evenodd" clip-rule="evenodd" d="M666.537 472.001C751.227 473.051 819.647 500.261 819.247 532.711C818.837 565.161 749.637 600.181 664.947 599.121C580.257 598.071 511.957 561.331 512.357 528.881C512.767 496.431 581.847 470.941 666.527 472.001H666.537Z" fill="#FBC310"/>
<path fill-rule="evenodd" clip-rule="evenodd" d="M672.483 172.949C709.773 173.409 739.923 183.969 739.763 196.509C739.603 209.049 709.063 230.319 671.773 229.849C634.483 229.389 604.483 207.359 604.633 194.819C604.793 182.279 635.193 172.469 672.483 172.939V172.949Z" fill="#FBC310"/>
<defs>
<radialGradient id="paint0_radial_328_412" cx="0" cy="0" r="1" gradientUnits="userSpaceOnUse" gradientTransform="translate(669.161 289.891) rotate(-15.2) scale(314.67 314.67)">
<stop stop-color="white"/>
<stop offset="1" stop-color="white" stop-opacity="0.1"/>
</radialGradient>
</defs>
</svg>
