<svg width="1809" height="2058" viewBox="0 0 1809 2058" fill="none" xmlns="http://www.w3.org/2000/svg">
<rect x="0.5" y="0.5" width="1807.66" height="2056.9" rx="4.5" stroke="#8A38F5" stroke-dasharray="10 5"/>
<path d="M952.125 142.189C1039.38 142.098 1110.09 114.708 1110.06 81.0118C1110.02 47.3159 1039.26 20.0741 951.997 20.1655C864.738 20.2569 794.029 47.6469 794.064 81.3427C794.099 115.039 864.866 142.28 952.125 142.189Z" fill="url(#paint0_radial_217_117)"/>
<path opacity="0.7" d="M1788.66 1929.48L20 2037.9L797.353 92.7549C812.234 120.481 875.883 141.269 952.125 141.189C1029.39 141.109 1093.67 119.625 1107.36 91.3145L1788.66 1929.48Z" fill="url(#paint1_linear_217_117)"/>
<defs>
<radialGradient id="paint0_radial_217_117" cx="0" cy="0" r="1" gradientTransform="matrix(278.91 2.60737e-06 1.31481 118.894 952.061 81.1773)" gradientUnits="userSpaceOnUse">
<stop stop-color="#FEEEBC"/>
<stop offset="0.14" stop-color="#FCDE7D"/>
<stop offset="0.36" stop-color="#FBC310"/>
<stop offset="0.5" stop-color="#FBC310" stop-opacity="0.75"/>
<stop offset="0.68" stop-color="#FBC310" stop-opacity="0.43"/>
<stop offset="0.83" stop-color="#FBC310" stop-opacity="0.2"/>
<stop offset="0.94" stop-color="#FBC310" stop-opacity="0.05"/>
<stop offset="1" stop-color="#FBC310" stop-opacity="0"/>
</radialGradient>
<linearGradient id="paint1_linear_217_117" x1="1031.18" y1="131.482" x2="913.666" y2="1848.6" gradientUnits="userSpaceOnUse">
<stop stop-color="#FBC310"/>
<stop offset="0.02" stop-color="#FBC729" stop-opacity="0.92"/>
<stop offset="0.06" stop-color="#FCD262" stop-opacity="0.73"/>
<stop offset="0.1" stop-color="#FDDB91" stop-opacity="0.57"/>
<stop offset="0.15" stop-color="#FEE2B5" stop-opacity="0.45"/>
<stop offset="0.19" stop-color="#FEE7D0" stop-opacity="0.37"/>
<stop offset="0.23" stop-color="#FEEADF" stop-opacity="0.32"/>
<stop offset="0.26" stop-color="#FFEBE5" stop-opacity="0.3"/>
<stop offset="0.35" stop-color="#FFF1ED" stop-opacity="0.19"/>
<stop offset="0.45" stop-color="#FFF7F5" stop-opacity="0.09"/>
<stop offset="0.55" stop-color="#FFFBFA" stop-opacity="0.02"/>
<stop offset="0.62" stop-color="#FFFDFC" stop-opacity="0"/>
<stop offset="0.99" stop-color="white" stop-opacity="0"/>
</linearGradient>
</defs>
</svg>
