<svg width="225" height="114" viewBox="0 0 225 114" fill="none" xmlns="http://www.w3.org/2000/svg">
<path d="M51.1938 0.383585V14.8156C51.1938 19.5516 47.4818 23.3596 42.4578 23.3596C37.4018 23.3596 33.7218 19.5516 33.7218 14.8156V0.383585H36.8898V14.6236C36.8898 17.6956 39.1618 20.3196 42.4578 20.3196C45.7218 20.3196 48.0258 17.6956 48.0258 14.6236V0.383585H51.1938ZM61.364 6.39959C63.22 6.39959 65.172 6.97559 66.324 7.90359V11.1036C64.884 9.88759 63.316 9.18359 61.492 9.18359C59.444 9.18359 58.484 10.0476 58.484 11.1356C58.484 12.3196 59.668 12.8956 61.844 13.5356C64.436 14.2716 67.156 15.1676 67.156 18.3996C67.156 21.4396 64.788 23.3596 61.108 23.3596C58.996 23.3596 56.916 22.7196 55.412 21.5036V18.0476C56.98 19.6476 58.676 20.5756 60.884 20.5756C63.06 20.5756 64.148 19.6796 64.148 18.4316C64.148 17.1196 62.868 16.6716 60.532 15.9676C57.972 15.1676 55.444 14.2076 55.444 11.2956C55.444 8.47959 57.78 6.39959 61.364 6.39959ZM77.938 6.39959C82.578 6.39959 85.266 9.75959 85.266 13.9196C85.266 14.5276 85.202 15.1676 85.106 15.6796H73.17C73.522 19.1036 75.986 20.4796 78.77 20.4796C80.818 20.4796 82.834 19.7436 84.21 18.5276V21.7596C82.13 23.1676 80.242 23.3596 78.322 23.3596C73.202 23.3596 69.906 19.6796 69.906 14.9116C69.906 10.1436 73.074 6.39959 77.938 6.39959ZM77.874 9.18359C75.474 9.18359 73.746 10.6876 73.266 13.1516H82.194C81.97 10.7516 80.306 9.18359 77.874 9.18359ZM105.537 19.9676V22.8156C104.929 23.1676 104.065 23.3596 102.945 23.3596C99.7765 23.3596 97.8885 21.4716 97.8885 18.2076V9.37559H95.4565V6.78358H97.9845V2.97559L100.993 2.01558V6.78358H105.153V9.37559H100.993V17.8236C100.993 19.6476 101.825 20.4796 103.617 20.4796C103.969 20.4796 104.769 20.4156 105.537 19.9676ZM112.29 6.78358V9.63159C113.09 7.64758 114.754 6.39959 116.93 6.39959C117.314 6.39959 117.73 6.46358 117.922 6.52759V9.56758C117.794 9.53559 117.474 9.50358 117.282 9.50358C114.306 9.50358 112.354 11.6476 112.354 14.9436V22.9756H109.25V6.78358H112.29ZM122.943 -0.000415802C123.999 -0.000415802 124.895 0.863585 124.895 1.95159C124.895 3.03959 123.999 3.93559 122.943 3.93559C121.887 3.93559 120.991 3.03959 120.991 1.95159C120.991 0.863585 121.887 -0.000415802 122.943 -0.000415802ZM121.375 22.9756V6.78358H124.479V22.9756H121.375ZM135.121 6.39959C135.953 6.39959 136.721 6.52759 137.457 6.78358H143.409V9.37559H140.753C141.297 10.2396 141.585 11.2316 141.585 12.3196C141.585 15.6156 138.737 18.2396 135.121 18.2396C134.545 18.2396 134.001 18.1756 133.457 18.0476C133.105 18.3036 132.817 18.6556 132.817 19.1356C132.817 19.8716 133.457 20.2876 134.097 20.2876H138.193C141.457 20.2876 143.569 22.2076 143.569 24.7996C143.569 27.5836 140.401 29.7596 135.505 29.7596C131.025 29.7596 128.209 28.0956 128.209 25.2476C128.209 23.6796 129.425 22.4636 130.929 21.7276C130.193 21.1836 129.873 20.4156 129.873 19.5516C129.873 18.5916 130.449 17.7596 131.313 17.1196C129.713 16.0636 128.657 14.3036 128.657 12.3196C128.657 9.02359 131.505 6.39959 135.121 6.39959ZM135.121 9.11959C133.201 9.11959 131.665 10.5596 131.665 12.3196C131.665 14.0796 133.201 15.5196 135.121 15.5196C137.041 15.5196 138.577 14.0796 138.577 12.3196C138.577 10.5596 137.041 9.11959 135.121 9.11959ZM133.201 23.0396C132.497 23.2316 131.313 23.8076 131.313 24.9596C131.313 26.2396 133.137 26.9756 135.569 26.9756C138.769 26.9756 140.529 26.1116 140.529 24.8636C140.529 23.6476 139.345 23.0396 137.937 23.0396H133.201ZM152.433 6.39959C153.265 6.39959 154.033 6.52759 154.769 6.78358H160.721V9.37559H158.065C158.609 10.2396 158.897 11.2316 158.897 12.3196C158.897 15.6156 156.049 18.2396 152.433 18.2396C151.857 18.2396 151.313 18.1756 150.769 18.0476C150.417 18.3036 150.129 18.6556 150.129 19.1356C150.129 19.8716 150.769 20.2876 151.409 20.2876H155.505C158.769 20.2876 160.881 22.2076 160.881 24.7996C160.881 27.5836 157.713 29.7596 152.817 29.7596C148.337 29.7596 145.521 28.0956 145.521 25.2476C145.521 23.6796 146.737 22.4636 148.241 21.7276C147.505 21.1836 147.185 20.4156 147.185 19.5516C147.185 18.5916 147.761 17.7596 148.625 17.1196C147.025 16.0636 145.969 14.3036 145.969 12.3196C145.969 9.02359 148.817 6.39959 152.433 6.39959ZM152.433 9.11959C150.513 9.11959 148.977 10.5596 148.977 12.3196C148.977 14.0796 150.513 15.5196 152.433 15.5196C154.353 15.5196 155.889 14.0796 155.889 12.3196C155.889 10.5596 154.353 9.11959 152.433 9.11959ZM150.513 23.0396C149.809 23.2316 148.625 23.8076 148.625 24.9596C148.625 26.2396 150.449 26.9756 152.881 26.9756C156.081 26.9756 157.841 26.1116 157.841 24.8636C157.841 23.6476 156.657 23.0396 155.249 23.0396H150.513ZM171.126 6.39959C175.766 6.39959 178.454 9.75959 178.454 13.9196C178.454 14.5276 178.39 15.1676 178.294 15.6796H166.358C166.71 19.1036 169.174 20.4796 171.958 20.4796C174.006 20.4796 176.022 19.7436 177.398 18.5276V21.7596C175.318 23.1676 173.43 23.3596 171.51 23.3596C166.39 23.3596 163.094 19.6796 163.094 14.9116C163.094 10.1436 166.262 6.39959 171.126 6.39959ZM171.062 9.18359C168.662 9.18359 166.934 10.6876 166.454 13.1516H175.382C175.158 10.7516 173.494 9.18359 171.062 9.18359ZM185.665 6.78358V9.63159C186.465 7.64758 188.129 6.39959 190.305 6.39959C190.689 6.39959 191.105 6.46358 191.297 6.52759V9.56758C191.169 9.53559 190.849 9.50358 190.657 9.50358C187.681 9.50358 185.729 11.6476 185.729 14.9436V22.9756H182.625V6.78358H185.665ZM3.04005 51.2156C3.96805 49.5196 5.60005 48.3996 8.28805 48.3996C11.968 48.3996 14.56 50.8956 14.56 55.1836V64.9756H11.456V55.3116C11.456 52.6236 9.72805 51.2476 7.64805 51.2476C4.28805 51.2476 3.10405 54.3516 3.10405 56.7516V64.9756H4.69685e-05V48.7836H3.04005V51.2156ZM26.8213 48.3996C31.6213 48.3996 35.2053 52.1116 35.2053 56.8796C35.2053 61.6476 31.6213 65.3596 26.8213 65.3596C22.0213 65.3596 18.4373 61.6476 18.4373 56.8796C18.4373 52.1116 22.0213 48.3996 26.8213 48.3996ZM26.8213 51.3436C23.7493 51.3436 21.6053 53.8716 21.6053 56.8796C21.6053 59.8876 23.7493 62.4156 26.8213 62.4156C29.8933 62.4156 32.0373 59.8876 32.0373 56.8796C32.0373 53.8716 29.8933 51.3436 26.8213 51.3436ZM37.8115 64.9756V63.1836L46.1315 51.4716H37.8115V48.7836H50.2275V50.5756L41.8435 62.2876H50.5155V64.9756H37.8115ZM53.124 64.9756V63.1836L61.444 51.4716H53.124V48.7836H65.54V50.5756L57.156 62.2876H65.828V64.9756H53.124ZM69.6205 60.9436V42.3836H72.7245V60.3996C72.7245 61.6156 73.0125 62.5116 74.2285 62.5116C74.5165 62.5116 74.8685 62.4796 75.2845 62.3196V65.1036C74.8045 65.2956 74.3245 65.3596 73.8445 65.3596C71.7005 65.3596 69.6205 64.3676 69.6205 60.9436ZM85.5318 48.3996C90.1718 48.3996 92.8598 51.7596 92.8598 55.9196C92.8598 56.5276 92.7958 57.1676 92.6998 57.6796H80.7638C81.1158 61.1036 83.5798 62.4796 86.3638 62.4796C88.4118 62.4796 90.4278 61.7436 91.8038 60.5276V63.7596C89.7238 65.1676 87.8358 65.3596 85.9158 65.3596C80.7958 65.3596 77.4998 61.6796 77.4998 56.9116C77.4998 52.1436 80.6678 48.3996 85.5318 48.3996ZM85.4678 51.1836C83.0678 51.1836 81.3398 52.6876 80.8598 55.1516H89.7878C89.5638 52.7516 87.8998 51.1836 85.4678 51.1836ZM113.13 61.9676V64.8156C112.522 65.1676 111.658 65.3596 110.538 65.3596C107.37 65.3596 105.482 63.4716 105.482 60.2076V51.3756H103.05V48.7836H105.578V44.9756L108.586 44.0156V48.7836H112.746V51.3756H108.586V59.8236C108.586 61.6476 109.418 62.4796 111.21 62.4796C111.562 62.4796 112.362 62.4156 113.13 61.9676ZM123.728 48.3996C128.528 48.3996 132.112 52.1116 132.112 56.8796C132.112 61.6476 128.528 65.3596 123.728 65.3596C118.928 65.3596 115.344 61.6476 115.344 56.8796C115.344 52.1116 118.928 48.3996 123.728 48.3996ZM123.728 51.3436C120.656 51.3436 118.512 53.8716 118.512 56.8796C118.512 59.8876 120.656 62.4156 123.728 62.4156C126.8 62.4156 128.944 59.8876 128.944 56.8796C128.944 53.8716 126.8 51.3436 123.728 51.3436ZM146.634 64.9756L141.354 48.7836H144.586L148.266 60.7516L152.17 48.7836H155.178L159.082 60.7516L162.762 48.7836H165.994L160.714 64.9756H157.706L153.674 53.1036L149.642 64.9756H146.634ZM168.967 49.9996C170.279 49.1036 172.295 48.3996 174.471 48.3996C178.599 48.3996 181.159 50.7996 181.159 54.5116V64.9756H178.279V62.4796C177.127 64.3996 175.239 65.3596 172.999 65.3596C169.991 65.3596 167.751 63.3756 167.751 60.6876C167.751 57.8076 169.895 56.2076 173.799 55.6636L178.055 55.0556V54.4476C178.055 52.4316 176.647 51.2156 174.279 51.2156C172.135 51.2156 170.183 52.2076 168.967 53.1036V49.9996ZM173.511 62.7356C176.135 62.7356 178.119 60.5596 178.119 58.2876V57.4556L174.279 57.9356C172.039 58.2236 170.791 59.0876 170.791 60.4956C170.791 61.8716 171.911 62.7356 173.511 62.7356ZM194.474 61.9676V64.8156C193.866 65.1676 193.002 65.3596 191.882 65.3596C188.714 65.3596 186.826 63.4716 186.826 60.2076V51.3756H184.394V48.7836H186.922V44.9756L189.93 44.0156V48.7836H194.09V51.3756H189.93V59.8236C189.93 61.6476 190.762 62.4796 192.554 62.4796C192.906 62.4796 193.706 62.4156 194.474 61.9676ZM204.719 48.3996C209.359 48.3996 212.047 51.7596 212.047 55.9196C212.047 56.5276 211.983 57.1676 211.887 57.6796H199.951C200.303 61.1036 202.767 62.4796 205.551 62.4796C207.599 62.4796 209.615 61.7436 210.991 60.5276V63.7596C208.911 65.1676 207.023 65.3596 205.103 65.3596C199.983 65.3596 196.687 61.6796 196.687 56.9116C196.687 52.1436 199.855 48.3996 204.719 48.3996ZM204.655 51.1836C202.255 51.1836 200.527 52.6876 200.047 55.1516H208.975C208.751 52.7516 207.087 51.1836 204.655 51.1836ZM219.259 48.7836V51.6316C220.059 49.6476 221.723 48.3996 223.899 48.3996C224.283 48.3996 224.699 48.4636 224.891 48.5276V51.5676C224.763 51.5356 224.443 51.5036 224.251 51.5036C221.275 51.5036 219.323 53.6476 219.323 56.9436V64.9756H216.219V48.7836H219.259ZM40.724 103.968V106.816C40.116 107.168 39.252 107.36 38.132 107.36C34.964 107.36 33.076 105.472 33.076 102.208V93.3756H30.644V90.7836H33.172V86.9756L36.18 86.0156V90.7836H40.34V93.3756H36.18V101.824C36.18 103.648 37.012 104.48 38.804 104.48C39.156 104.48 39.956 104.416 40.724 103.968ZM44.4375 84.3836H47.5415V93.0236C48.4695 91.5836 50.1015 90.3996 52.7255 90.3996C56.3095 90.3996 58.9975 92.8956 58.9975 97.1836V106.976H55.8935V97.3116C55.8935 94.6236 54.1335 93.2476 52.0855 93.2476C48.7255 93.2476 47.5415 96.0316 47.5415 98.4316V106.976H44.4375V84.3836ZM70.9068 90.3996C75.5468 90.3996 78.2348 93.7596 78.2348 97.9196C78.2348 98.5276 78.1708 99.1676 78.0748 99.6796H66.1388C66.4908 103.104 68.9548 104.48 71.7388 104.48C73.7868 104.48 75.8028 103.744 77.1788 102.528V105.76C75.0988 107.168 73.2108 107.36 71.2908 107.36C66.1708 107.36 62.8748 103.68 62.8748 98.9116C62.8748 94.1436 66.0428 90.3996 70.9068 90.3996ZM70.8428 93.1836C68.4428 93.1836 66.7148 94.6876 66.2348 97.1516H75.1628C74.9388 94.7516 73.2748 93.1836 70.8428 93.1836ZM95.4333 90.3996C96.2653 90.3996 97.0333 90.5276 97.7693 90.7836H103.721V93.3756H101.065C101.609 94.2396 101.897 95.2316 101.897 96.3196C101.897 99.6156 99.0493 102.24 95.4333 102.24C94.8573 102.24 94.3133 102.176 93.7693 102.048C93.4173 102.304 93.1293 102.656 93.1293 103.136C93.1293 103.872 93.7693 104.288 94.4093 104.288H98.5053C101.769 104.288 103.881 106.208 103.881 108.8C103.881 111.584 100.713 113.76 95.8173 113.76C91.3373 113.76 88.5213 112.096 88.5213 109.248C88.5213 107.68 89.7373 106.464 91.2413 105.728C90.5053 105.184 90.1853 104.416 90.1853 103.552C90.1853 102.592 90.7613 101.76 91.6253 101.12C90.0253 100.064 88.9693 98.3036 88.9693 96.3196C88.9693 93.0236 91.8173 90.3996 95.4333 90.3996ZM95.4333 93.1196C93.5133 93.1196 91.9773 94.5596 91.9773 96.3196C91.9773 98.0796 93.5133 99.5196 95.4333 99.5196C97.3533 99.5196 98.8893 98.0796 98.8893 96.3196C98.8893 94.5596 97.3533 93.1196 95.4333 93.1196ZM93.5133 107.04C92.8093 107.232 91.6253 107.808 91.6253 108.96C91.6253 110.24 93.4493 110.976 95.8813 110.976C99.0813 110.976 100.841 110.112 100.841 108.864C100.841 107.648 99.6573 107.04 98.2493 107.04H93.5133ZM107.498 91.9996C108.81 91.1036 110.826 90.3996 113.002 90.3996C117.13 90.3996 119.69 92.7996 119.69 96.5116V106.976H116.81V104.48C115.658 106.4 113.77 107.36 111.53 107.36C108.522 107.36 106.282 105.376 106.282 102.688C106.282 99.8076 108.426 98.2076 112.33 97.6636L116.586 97.0556V96.4476C116.586 94.4316 115.178 93.2156 112.81 93.2156C110.666 93.2156 108.714 94.2076 107.498 95.1036V91.9996ZM112.042 104.736C114.666 104.736 116.65 102.56 116.65 100.288V99.4556L112.81 99.9356C110.57 100.224 109.322 101.088 109.322 102.496C109.322 103.872 110.442 104.736 112.042 104.736ZM127.978 90.7836V93.6316C128.778 91.6476 130.442 90.3996 132.618 90.3996C133.002 90.3996 133.418 90.4636 133.61 90.5276V93.5676C133.482 93.5356 133.162 93.5036 132.97 93.5036C129.994 93.5036 128.042 95.6476 128.042 98.9436V106.976H124.938V90.7836H127.978ZM148.559 104.576C147.663 106.144 145.327 107.36 143.087 107.36C138.767 107.36 135.407 103.808 135.407 98.8796C135.407 93.9516 138.767 90.3996 143.087 90.3996C145.327 90.3996 147.503 91.5836 148.431 93.0236V84.3836H151.535V106.976H148.559V104.576ZM143.599 104.512C146.287 104.512 148.623 102.24 148.623 98.8796C148.623 95.4876 146.287 93.2476 143.599 93.2476C140.911 93.2476 138.543 95.5196 138.543 98.8796C138.543 102.24 140.911 104.512 143.599 104.512ZM163.719 90.3996C168.359 90.3996 171.047 93.7596 171.047 97.9196C171.047 98.5276 170.983 99.1676 170.887 99.6796H158.951C159.303 103.104 161.767 104.48 164.551 104.48C166.599 104.48 168.615 103.744 169.991 102.528V105.76C167.911 107.168 166.023 107.36 164.103 107.36C158.983 107.36 155.687 103.68 155.687 98.9116C155.687 94.1436 158.855 90.3996 163.719 90.3996ZM163.655 93.1836C161.255 93.1836 159.527 94.6876 159.047 97.1516H167.975C167.751 94.7516 166.087 93.1836 163.655 93.1836ZM178.259 93.2156C179.187 91.5196 180.819 90.3996 183.507 90.3996C187.187 90.3996 189.779 92.8956 189.779 97.1836V106.976H186.675V97.3116C186.675 94.6236 184.947 93.2476 182.867 93.2476C179.507 93.2476 178.323 96.3516 178.323 98.7516V106.976H175.219V90.7836H178.259V93.2156Z" fill="white"/>
</svg>
