<svg width="225" height="114" viewBox="0 0 225 114" fill="none" xmlns="http://www.w3.org/2000/svg">
<path d="M38.5844 0.384562V14.8166C38.5844 19.5526 34.8724 23.3606 29.8484 23.3606C24.7924 23.3606 21.1124 19.5526 21.1124 14.8166V0.384562H24.2804V14.6246C24.2804 17.6966 26.5524 20.3206 29.8484 20.3206C33.1124 20.3206 35.4164 17.6966 35.4164 14.6246V0.384562H38.5844ZM48.7547 6.40056C50.6107 6.40056 52.5627 6.97656 53.7147 7.90456V11.1046C52.2747 9.88856 50.7067 9.18456 48.8827 9.18456C46.8347 9.18456 45.8747 10.0486 45.8747 11.1366C45.8747 12.3206 47.0587 12.8966 49.2347 13.5366C51.8267 14.2726 54.5467 15.1686 54.5467 18.4006C54.5467 21.4406 52.1787 23.3606 48.4987 23.3606C46.3867 23.3606 44.3067 22.7206 42.8027 21.5046V18.0486C44.3707 19.6486 46.0667 20.5766 48.2747 20.5766C50.4507 20.5766 51.5387 19.6806 51.5387 18.4326C51.5387 17.1206 50.2587 16.6726 47.9227 15.9686C45.3627 15.1686 42.8347 14.2086 42.8347 11.2966C42.8347 8.48056 45.1707 6.40056 48.7547 6.40056ZM65.3287 6.40056C69.9687 6.40056 72.6567 9.76056 72.6567 13.9206C72.6567 14.5286 72.5927 15.1686 72.4967 15.6806H60.5607C60.9127 19.1046 63.3767 20.4806 66.1607 20.4806C68.2087 20.4806 70.2247 19.7446 71.6007 18.5286V21.7606C69.5207 23.1686 67.6327 23.3606 65.7127 23.3606C60.5927 23.3606 57.2967 19.6806 57.2967 14.9126C57.2967 10.1446 60.4647 6.40056 65.3287 6.40056ZM65.2647 9.18456C62.8647 9.18456 61.1367 10.6886 60.6567 13.1526H69.5847C69.3607 10.7526 67.6967 9.18456 65.2647 9.18456ZM84.6072 8.00056C85.9192 7.10456 87.9352 6.40056 90.1112 6.40056C94.2392 6.40056 96.7992 8.80056 96.7992 12.5126V22.9766H93.9192V20.4806C92.7672 22.4006 90.8792 23.3606 88.6392 23.3606C85.6312 23.3606 83.3912 21.3766 83.3912 18.6886C83.3912 15.8086 85.5352 14.2086 89.4392 13.6646L93.6952 13.0566V12.4486C93.6952 10.4326 92.2872 9.21656 89.9192 9.21656C87.7752 9.21656 85.8232 10.2086 84.6072 11.1046V8.00056ZM89.1512 20.7366C91.7752 20.7366 93.7592 18.5606 93.7592 16.2886V15.4566L89.9192 15.9366C87.6792 16.2246 86.4312 17.0886 86.4312 18.4966C86.4312 19.8726 87.5512 20.7366 89.1512 20.7366ZM118.146 19.9686V22.8166C117.538 23.1686 116.674 23.3606 115.554 23.3606C112.386 23.3606 110.498 21.4726 110.498 18.2086V9.37656H108.066V6.78456H110.594V2.97656L113.602 2.01656V6.78456H117.762V9.37656H113.602V17.8246C113.602 19.6486 114.434 20.4806 116.226 20.4806C116.578 20.4806 117.378 20.4166 118.146 19.9686ZM124.899 6.78456V9.63256C125.699 7.64856 127.363 6.40056 129.539 6.40056C129.923 6.40056 130.339 6.46456 130.531 6.52856V9.56856C130.403 9.53656 130.083 9.50456 129.891 9.50456C126.915 9.50456 124.963 11.6486 124.963 14.9446V22.9766H121.859V6.78456H124.899ZM135.552 0.00056076C136.608 0.00056076 137.504 0.864561 137.504 1.95256C137.504 3.04056 136.608 3.93656 135.552 3.93656C134.496 3.93656 133.6 3.04056 133.6 1.95256C133.6 0.864561 134.496 0.00056076 135.552 0.00056076ZM133.984 22.9766V6.78456H137.088V22.9766H133.984ZM147.73 6.40056C148.562 6.40056 149.33 6.52856 150.066 6.78456H156.018V9.37656H153.362C153.906 10.2406 154.194 11.2326 154.194 12.3206C154.194 15.6166 151.346 18.2406 147.73 18.2406C147.154 18.2406 146.61 18.1766 146.066 18.0486C145.714 18.3046 145.426 18.6566 145.426 19.1366C145.426 19.8726 146.066 20.2886 146.706 20.2886H150.802C154.066 20.2886 156.178 22.2086 156.178 24.8006C156.178 27.5846 153.01 29.7606 148.114 29.7606C143.634 29.7606 140.818 28.0966 140.818 25.2486C140.818 23.6806 142.034 22.4646 143.538 21.7286C142.802 21.1846 142.482 20.4166 142.482 19.5526C142.482 18.5926 143.058 17.7606 143.922 17.1206C142.322 16.0646 141.266 14.3046 141.266 12.3206C141.266 9.02456 144.114 6.40056 147.73 6.40056ZM147.73 9.12056C145.81 9.12056 144.274 10.5606 144.274 12.3206C144.274 14.0806 145.81 15.5206 147.73 15.5206C149.65 15.5206 151.186 14.0806 151.186 12.3206C151.186 10.5606 149.65 9.12056 147.73 9.12056ZM145.81 23.0406C145.106 23.2326 143.922 23.8086 143.922 24.9606C143.922 26.2406 145.746 26.9766 148.178 26.9766C151.378 26.9766 153.138 26.1126 153.138 24.8646C153.138 23.6486 151.954 23.0406 150.546 23.0406H145.81ZM165.043 6.40056C165.875 6.40056 166.643 6.52856 167.379 6.78456H173.331V9.37656H170.675C171.219 10.2406 171.507 11.2326 171.507 12.3206C171.507 15.6166 168.659 18.2406 165.043 18.2406C164.467 18.2406 163.923 18.1766 163.379 18.0486C163.027 18.3046 162.739 18.6566 162.739 19.1366C162.739 19.8726 163.379 20.2886 164.019 20.2886H168.115C171.379 20.2886 173.491 22.2086 173.491 24.8006C173.491 27.5846 170.323 29.7606 165.427 29.7606C160.947 29.7606 158.131 28.0966 158.131 25.2486C158.131 23.6806 159.347 22.4646 160.851 21.7286C160.115 21.1846 159.795 20.4166 159.795 19.5526C159.795 18.5926 160.371 17.7606 161.235 17.1206C159.635 16.0646 158.579 14.3046 158.579 12.3206C158.579 9.02456 161.427 6.40056 165.043 6.40056ZM165.043 9.12056C163.123 9.12056 161.587 10.5606 161.587 12.3206C161.587 14.0806 163.123 15.5206 165.043 15.5206C166.963 15.5206 168.499 14.0806 168.499 12.3206C168.499 10.5606 166.963 9.12056 165.043 9.12056ZM163.123 23.0406C162.419 23.2326 161.235 23.8086 161.235 24.9606C161.235 26.2406 163.059 26.9766 165.491 26.9766C168.691 26.9766 170.451 26.1126 170.451 24.8646C170.451 23.6486 169.267 23.0406 167.859 23.0406H163.123ZM183.735 6.40056C188.375 6.40056 191.063 9.76056 191.063 13.9206C191.063 14.5286 190.999 15.1686 190.903 15.6806H178.967C179.319 19.1046 181.783 20.4806 184.567 20.4806C186.615 20.4806 188.631 19.7446 190.007 18.5286V21.7606C187.927 23.1686 186.039 23.3606 184.119 23.3606C178.999 23.3606 175.703 19.6806 175.703 14.9126C175.703 10.1446 178.871 6.40056 183.735 6.40056ZM183.671 9.18456C181.271 9.18456 179.543 10.6886 179.063 13.1526H187.991C187.767 10.7526 186.103 9.18456 183.671 9.18456ZM198.274 6.78456V9.63256C199.074 7.64856 200.738 6.40056 202.914 6.40056C203.298 6.40056 203.714 6.46456 203.906 6.52856V9.56856C203.778 9.53656 203.458 9.50456 203.266 9.50456C200.29 9.50456 198.338 11.6486 198.338 14.9446V22.9766H195.234V6.78456H198.274ZM3.04005 51.2166C3.96805 49.5206 5.60005 48.4006 8.28805 48.4006C11.968 48.4006 14.56 50.8966 14.56 55.1846V64.9766H11.456V55.3126C11.456 52.6246 9.72805 51.2486 7.64805 51.2486C4.28805 51.2486 3.10405 54.3526 3.10405 56.7526V64.9766H4.69685e-05V48.7846H3.04005V51.2166ZM26.8213 48.4006C31.6213 48.4006 35.2053 52.1126 35.2053 56.8806C35.2053 61.6486 31.6213 65.3606 26.8213 65.3606C22.0213 65.3606 18.4373 61.6486 18.4373 56.8806C18.4373 52.1126 22.0213 48.4006 26.8213 48.4006ZM26.8213 51.3446C23.7493 51.3446 21.6053 53.8726 21.6053 56.8806C21.6053 59.8886 23.7493 62.4166 26.8213 62.4166C29.8933 62.4166 32.0373 59.8886 32.0373 56.8806C32.0373 53.8726 29.8933 51.3446 26.8213 51.3446ZM37.8115 64.9766V63.1846L46.1315 51.4726H37.8115V48.7846H50.2275V50.5766L41.8435 62.2886H50.5155V64.9766H37.8115ZM53.124 64.9766V63.1846L61.444 51.4726H53.124V48.7846H65.54V50.5766L57.156 62.2886H65.828V64.9766H53.124ZM69.6205 60.9446V42.3846H72.7245V60.4006C72.7245 61.6166 73.0125 62.5126 74.2285 62.5126C74.5165 62.5126 74.8685 62.4806 75.2845 62.3206V65.1046C74.8045 65.2966 74.3245 65.3606 73.8445 65.3606C71.7005 65.3606 69.6205 64.3686 69.6205 60.9446ZM85.5318 48.4006C90.1718 48.4006 92.8598 51.7606 92.8598 55.9206C92.8598 56.5286 92.7958 57.1686 92.6998 57.6806H80.7638C81.1158 61.1046 83.5798 62.4806 86.3638 62.4806C88.4118 62.4806 90.4278 61.7446 91.8038 60.5286V63.7606C89.7238 65.1686 87.8358 65.3606 85.9158 65.3606C80.7958 65.3606 77.4998 61.6806 77.4998 56.9126C77.4998 52.1446 80.6678 48.4006 85.5318 48.4006ZM85.4678 51.1846C83.0678 51.1846 81.3398 52.6886 80.8598 55.1526H89.7878C89.5638 52.7526 87.8998 51.1846 85.4678 51.1846ZM113.13 61.9686V64.8166C112.522 65.1686 111.658 65.3606 110.538 65.3606C107.37 65.3606 105.482 63.4726 105.482 60.2086V51.3766H103.05V48.7846H105.578V44.9766L108.586 44.0166V48.7846H112.746V51.3766H108.586V59.8246C108.586 61.6486 109.418 62.4806 111.21 62.4806C111.562 62.4806 112.362 62.4166 113.13 61.9686ZM123.728 48.4006C128.528 48.4006 132.112 52.1126 132.112 56.8806C132.112 61.6486 128.528 65.3606 123.728 65.3606C118.928 65.3606 115.344 61.6486 115.344 56.8806C115.344 52.1126 118.928 48.4006 123.728 48.4006ZM123.728 51.3446C120.656 51.3446 118.512 53.8726 118.512 56.8806C118.512 59.8886 120.656 62.4166 123.728 62.4166C126.8 62.4166 128.944 59.8886 128.944 56.8806C128.944 53.8726 126.8 51.3446 123.728 51.3446ZM146.634 64.9766L141.354 48.7846H144.586L148.266 60.7526L152.17 48.7846H155.178L159.082 60.7526L162.762 48.7846H165.994L160.714 64.9766H157.706L153.674 53.1046L149.642 64.9766H146.634ZM168.967 50.0006C170.279 49.1046 172.295 48.4006 174.471 48.4006C178.599 48.4006 181.159 50.8006 181.159 54.5126V64.9766H178.279V62.4806C177.127 64.4006 175.239 65.3606 172.999 65.3606C169.991 65.3606 167.751 63.3766 167.751 60.6886C167.751 57.8086 169.895 56.2086 173.799 55.6646L178.055 55.0566V54.4486C178.055 52.4326 176.647 51.2166 174.279 51.2166C172.135 51.2166 170.183 52.2086 168.967 53.1046V50.0006ZM173.511 62.7366C176.135 62.7366 178.119 60.5606 178.119 58.2886V57.4566L174.279 57.9366C172.039 58.2246 170.791 59.0886 170.791 60.4966C170.791 61.8726 171.911 62.7366 173.511 62.7366ZM194.474 61.9686V64.8166C193.866 65.1686 193.002 65.3606 191.882 65.3606C188.714 65.3606 186.826 63.4726 186.826 60.2086V51.3766H184.394V48.7846H186.922V44.9766L189.93 44.0166V48.7846H194.09V51.3766H189.93V59.8246C189.93 61.6486 190.762 62.4806 192.554 62.4806C192.906 62.4806 193.706 62.4166 194.474 61.9686ZM204.719 48.4006C209.359 48.4006 212.047 51.7606 212.047 55.9206C212.047 56.5286 211.983 57.1686 211.887 57.6806H199.951C200.303 61.1046 202.767 62.4806 205.551 62.4806C207.599 62.4806 209.615 61.7446 210.991 60.5286V63.7606C208.911 65.1686 207.023 65.3606 205.103 65.3606C199.983 65.3606 196.687 61.6806 196.687 56.9126C196.687 52.1446 199.855 48.4006 204.719 48.4006ZM204.655 51.1846C202.255 51.1846 200.527 52.6886 200.047 55.1526H208.975C208.751 52.7526 207.087 51.1846 204.655 51.1846ZM219.259 48.7846V51.6326C220.059 49.6486 221.723 48.4006 223.899 48.4006C224.283 48.4006 224.699 48.4646 224.891 48.5286V51.5686C224.763 51.5366 224.443 51.5046 224.251 51.5046C221.275 51.5046 219.323 53.6486 219.323 56.9446V64.9766H216.219V48.7846H219.259ZM40.724 103.969V106.817C40.116 107.169 39.252 107.361 38.132 107.361C34.964 107.361 33.076 105.473 33.076 102.209V93.3766H30.644V90.7846H33.172V86.9766L36.18 86.0166V90.7846H40.34V93.3766H36.18V101.825C36.18 103.649 37.012 104.481 38.804 104.481C39.156 104.481 39.956 104.417 40.724 103.969ZM44.4375 84.3846H47.5415V93.0246C48.4695 91.5846 50.1015 90.4006 52.7255 90.4006C56.3095 90.4006 58.9975 92.8966 58.9975 97.1846V106.977H55.8935V97.3126C55.8935 94.6246 54.1335 93.2486 52.0855 93.2486C48.7255 93.2486 47.5415 96.0326 47.5415 98.4326V106.977H44.4375V84.3846ZM70.9068 90.4006C75.5468 90.4006 78.2348 93.7606 78.2348 97.9206C78.2348 98.5286 78.1708 99.1686 78.0748 99.6806H66.1388C66.4908 103.105 68.9548 104.481 71.7388 104.481C73.7868 104.481 75.8028 103.745 77.1788 102.529V105.761C75.0988 107.169 73.2108 107.361 71.2908 107.361C66.1708 107.361 62.8748 103.681 62.8748 98.9126C62.8748 94.1446 66.0428 90.4006 70.9068 90.4006ZM70.8428 93.1846C68.4428 93.1846 66.7148 94.6886 66.2348 97.1526H75.1628C74.9388 94.7526 73.2748 93.1846 70.8428 93.1846ZM95.4333 90.4006C96.2653 90.4006 97.0333 90.5286 97.7693 90.7846H103.721V93.3766H101.065C101.609 94.2406 101.897 95.2326 101.897 96.3206C101.897 99.6166 99.0493 102.241 95.4333 102.241C94.8573 102.241 94.3133 102.177 93.7693 102.049C93.4173 102.305 93.1293 102.657 93.1293 103.137C93.1293 103.873 93.7693 104.289 94.4093 104.289H98.5053C101.769 104.289 103.881 106.209 103.881 108.801C103.881 111.585 100.713 113.761 95.8173 113.761C91.3373 113.761 88.5213 112.097 88.5213 109.249C88.5213 107.681 89.7373 106.465 91.2413 105.729C90.5053 105.185 90.1853 104.417 90.1853 103.553C90.1853 102.593 90.7613 101.761 91.6253 101.121C90.0253 100.065 88.9693 98.3046 88.9693 96.3206C88.9693 93.0246 91.8173 90.4006 95.4333 90.4006ZM95.4333 93.1206C93.5133 93.1206 91.9773 94.5606 91.9773 96.3206C91.9773 98.0806 93.5133 99.5206 95.4333 99.5206C97.3533 99.5206 98.8893 98.0806 98.8893 96.3206C98.8893 94.5606 97.3533 93.1206 95.4333 93.1206ZM93.5133 107.041C92.8093 107.233 91.6253 107.809 91.6253 108.961C91.6253 110.241 93.4493 110.977 95.8813 110.977C99.0813 110.977 100.841 110.113 100.841 108.865C100.841 107.649 99.6573 107.041 98.2493 107.041H93.5133ZM107.498 92.0006C108.81 91.1046 110.826 90.4006 113.002 90.4006C117.13 90.4006 119.69 92.8006 119.69 96.5126V106.977H116.81V104.481C115.658 106.401 113.77 107.361 111.53 107.361C108.522 107.361 106.282 105.377 106.282 102.689C106.282 99.8086 108.426 98.2086 112.33 97.6646L116.586 97.0566V96.4486C116.586 94.4326 115.178 93.2166 112.81 93.2166C110.666 93.2166 108.714 94.2086 107.498 95.1046V92.0006ZM112.042 104.737C114.666 104.737 116.65 102.561 116.65 100.289V99.4566L112.81 99.9366C110.57 100.225 109.322 101.089 109.322 102.497C109.322 103.873 110.442 104.737 112.042 104.737ZM127.978 90.7846V93.6326C128.778 91.6486 130.442 90.4006 132.618 90.4006C133.002 90.4006 133.418 90.4646 133.61 90.5286V93.5686C133.482 93.5366 133.162 93.5046 132.97 93.5046C129.994 93.5046 128.042 95.6486 128.042 98.9446V106.977H124.938V90.7846H127.978ZM148.559 104.577C147.663 106.145 145.327 107.361 143.087 107.361C138.767 107.361 135.407 103.809 135.407 98.8806C135.407 93.9526 138.767 90.4006 143.087 90.4006C145.327 90.4006 147.503 91.5846 148.431 93.0246V84.3846H151.535V106.977H148.559V104.577ZM143.599 104.513C146.287 104.513 148.623 102.241 148.623 98.8806C148.623 95.4886 146.287 93.2486 143.599 93.2486C140.911 93.2486 138.543 95.5206 138.543 98.8806C138.543 102.241 140.911 104.513 143.599 104.513ZM163.719 90.4006C168.359 90.4006 171.047 93.7606 171.047 97.9206C171.047 98.5286 170.983 99.1686 170.887 99.6806H158.951C159.303 103.105 161.767 104.481 164.551 104.481C166.599 104.481 168.615 103.745 169.991 102.529V105.761C167.911 107.169 166.023 107.361 164.103 107.361C158.983 107.361 155.687 103.681 155.687 98.9126C155.687 94.1446 158.855 90.4006 163.719 90.4006ZM163.655 93.1846C161.255 93.1846 159.527 94.6886 159.047 97.1526H167.975C167.751 94.7526 166.087 93.1846 163.655 93.1846ZM178.259 93.2166C179.187 91.5206 180.819 90.4006 183.507 90.4006C187.187 90.4006 189.779 92.8966 189.779 97.1846V106.977H186.675V97.3126C186.675 94.6246 184.947 93.2486 182.867 93.2486C179.507 93.2486 178.323 96.3526 178.323 98.7526V106.977H175.219V90.7846H178.259V93.2166Z" fill="white"/>
</svg>
