<svg width="466" height="31" viewBox="0 0 466 31" fill="none" xmlns="http://www.w3.org/2000/svg">
<path d="M15.9357 6.94383L10.9757 23.4238H6.75169L-0.000312477 0.703827H4.28769L8.99169 17.6318L13.9197 0.703827H17.9197L22.8797 17.6318L27.5517 0.703827H31.8717L25.1197 23.4238H20.8957L15.9357 6.94383ZM33.3922 8.28783C34.7682 7.39183 36.8802 6.71983 39.0882 6.71983C43.2482 6.71983 46.2562 8.99183 46.2562 13.1198V23.4238H42.3842V21.1518C41.3602 22.8158 39.6002 23.8078 37.4562 23.8078C34.3842 23.8078 32.1442 21.8558 32.1442 19.1678C32.1442 16.3198 34.2562 14.6878 38.0642 14.1118L42.1922 13.5038V13.0558C42.1922 11.3598 40.8482 10.3678 38.7682 10.3678C36.5922 10.3678 34.6082 11.2958 33.3922 12.1918V8.28783ZM38.3842 20.5758C40.4962 20.5758 42.2242 18.8478 42.2242 16.7998V16.1918L38.9282 16.6078C37.1362 16.8318 36.1122 17.5678 36.1122 18.7518C36.1122 19.8718 37.0402 20.5758 38.3842 20.5758ZM56.3017 6.71983C58.1897 6.71983 60.1417 7.26383 61.3577 8.12783V11.9678C59.9817 10.8478 58.2857 10.1758 56.4617 10.1758C54.7017 10.1758 53.8377 10.8158 53.8377 11.7118C53.8377 12.7038 54.8297 13.1838 56.8457 13.7278C59.5017 14.4318 62.2857 15.3598 62.2857 18.6558C62.2857 21.8238 59.8217 23.8078 55.7577 23.8078C53.5177 23.8078 51.4697 23.1998 49.9977 22.1438V18.0158C51.5337 19.4878 53.2617 20.3838 55.5017 20.3838C57.4217 20.3838 58.4137 19.6798 58.4137 18.6878C58.4137 17.5998 57.1657 17.2158 54.9897 16.5438C52.4617 15.7758 49.9017 14.7518 49.9017 11.8078C49.9017 8.89583 52.3977 6.71983 56.3017 6.71983ZM65.8297 0.703827H69.9897V9.05583C70.9177 7.74383 72.4857 6.71983 74.8537 6.71983C78.5657 6.71983 81.1897 9.24783 81.1897 13.5038V23.4238H77.0297V14.0158C77.0297 11.6478 75.5897 10.4318 73.7657 10.4318C71.0137 10.4318 69.9897 12.6718 69.9897 14.7838V23.4238H65.8297V0.703827ZM102.639 19.5838V23.1678C101.967 23.5518 100.943 23.8078 99.5994 23.8078C96.2394 23.8078 94.1594 21.8238 94.1594 18.3038V10.4318H91.8554V7.10383H94.2874V3.39183L98.3194 2.33583V7.10383H102.255V10.4318H98.3194V17.7278C98.3194 19.3918 99.1834 20.0958 100.719 20.0958C101.167 20.0958 101.967 19.9678 102.639 19.5838ZM105.923 0.703827H110.083V9.05583C111.011 7.74383 112.579 6.71983 114.947 6.71983C118.659 6.71983 121.283 9.24783 121.283 13.5038V23.4238H117.123V14.0158C117.123 11.6478 115.683 10.4318 113.859 10.4318C111.107 10.4318 110.083 12.6718 110.083 14.7838V23.4238H105.923V0.703827ZM132.838 6.71983C137.67 6.71983 140.358 10.1758 140.358 14.4318C140.358 15.0398 140.294 15.7758 140.23 16.2558H128.934C129.254 19.1038 131.526 20.2238 134.022 20.2238C136.038 20.2238 138.086 19.4878 139.27 18.4958V22.4318C137.478 23.5518 135.43 23.8078 133.478 23.8078C128.23 23.8078 124.646 20.4478 124.646 15.2958C124.646 10.4638 127.942 6.71983 132.838 6.71983ZM132.774 10.2078C130.726 10.2078 129.318 11.5198 128.966 13.5358H136.39C136.23 11.5518 134.854 10.2078 132.774 10.2078ZM163.353 21.2158C162.489 22.7198 160.345 23.8078 158.169 23.8078C153.913 23.8078 150.489 20.3198 150.489 15.2638C150.489 10.2078 153.945 6.71983 158.105 6.71983C160.217 6.71983 162.201 7.77583 163.097 9.11983V0.703827H167.225V23.4238H163.353V21.2158ZM158.969 20.1278C161.337 20.1278 163.321 18.1758 163.321 15.2958C163.321 12.3838 161.337 10.4638 158.969 10.4638C156.633 10.4638 154.649 12.4158 154.649 15.2958C154.649 18.1758 156.633 20.1278 158.969 20.1278ZM176.145 7.10383V9.91983C176.977 7.93583 178.577 6.71983 180.753 6.71983C181.137 6.71983 181.585 6.78383 181.777 6.84783V10.8798C181.649 10.8478 181.233 10.7838 180.881 10.7838C177.905 10.7838 176.177 12.8638 176.177 16.1598V23.4238H172.017V7.10383H176.145ZM186.91 -0.000173569C188.222 -0.000173569 189.278 1.02383 189.278 2.36783C189.278 3.71183 188.222 4.73583 186.91 4.73583C185.566 4.73583 184.478 3.71183 184.478 2.36783C184.478 1.02383 185.566 -0.000173569 186.91 -0.000173569ZM184.798 23.4238V7.10383H188.958V23.4238H184.798ZM201.896 23.4238H198.024L191.464 7.10383H195.784L199.944 18.3358L204.136 7.10383H208.456L201.896 23.4238ZM217.775 6.71983C222.607 6.71983 225.295 10.1758 225.295 14.4318C225.295 15.0398 225.231 15.7758 225.167 16.2558H213.871C214.191 19.1038 216.463 20.2238 218.959 20.2238C220.975 20.2238 223.023 19.4878 224.207 18.4958V22.4318C222.415 23.5518 220.367 23.8078 218.415 23.8078C213.167 23.8078 209.583 20.4478 209.583 15.2958C209.583 10.4638 212.879 6.71983 217.775 6.71983ZM217.711 10.2078C215.663 10.2078 214.255 11.5198 213.903 13.5358H221.327C221.167 11.5518 219.791 10.2078 217.711 10.2078ZM232.187 23.4238L226.843 7.10383H230.971L234.299 18.2718L237.883 7.10383H241.275L244.859 18.2718L248.187 7.10383H252.315L246.939 23.4238H243.067L239.579 12.8318L236.059 23.4238H232.187ZM254.83 8.28783C256.206 7.39183 258.318 6.71983 260.526 6.71983C264.686 6.71983 267.694 8.99183 267.694 13.1198V23.4238H263.822V21.1518C262.798 22.8158 261.038 23.8078 258.894 23.8078C255.822 23.8078 253.582 21.8558 253.582 19.1678C253.582 16.3198 255.694 14.6878 259.502 14.1118L263.63 13.5038V13.0558C263.63 11.3598 262.286 10.3678 260.206 10.3678C258.03 10.3678 256.046 11.2958 254.83 12.1918V8.28783ZM259.822 20.5758C261.934 20.5758 263.662 18.8478 263.662 16.7998V16.1918L260.366 16.6078C258.574 16.8318 257.55 17.5678 257.55 18.7518C257.55 19.8718 258.478 20.5758 259.822 20.5758ZM270.672 29.6958V26.1438C271.536 26.6238 272.4 26.6878 272.912 26.6878C274.544 26.6878 275.312 25.8238 276.08 24.0318L276.432 23.1998L269.744 7.10383H274.192L278.352 18.5278L282.416 7.10383H286.736L279.504 25.2798C278.256 28.4158 276.656 30.2078 273.392 30.2078C272.56 30.2078 271.568 30.1118 270.672 29.6958ZM299.094 23.4238L293.75 7.10383H297.878L301.206 18.2718L304.79 7.10383H308.182L311.766 18.2718L315.094 7.10383H319.222L313.846 23.4238H309.974L306.486 12.8318L302.966 23.4238H299.094ZM324.035 -0.000173569C325.347 -0.000173569 326.403 1.02383 326.403 2.36783C326.403 3.71183 325.347 4.73583 324.035 4.73583C322.691 4.73583 321.603 3.71183 321.603 2.36783C321.603 1.02383 322.691 -0.000173569 324.035 -0.000173569ZM321.923 23.4238V7.10383H326.083V23.4238H321.923ZM340.077 19.5838V23.1678C339.405 23.5518 338.381 23.8078 337.037 23.8078C333.677 23.8078 331.597 21.8238 331.597 18.3038V10.4318H329.293V7.10383H331.725V3.39183L335.757 2.33583V7.10383H339.693V10.4318H335.757V17.7278C335.757 19.3918 336.621 20.0958 338.157 20.0958C338.605 20.0958 339.405 19.9678 340.077 19.5838ZM343.361 0.703827H347.521V9.05583C348.449 7.74383 350.017 6.71983 352.385 6.71983C356.097 6.71983 358.721 9.24783 358.721 13.5038V23.4238H354.561V14.0158C354.561 11.6478 353.121 10.4318 351.297 10.4318C348.545 10.4318 347.521 12.6718 347.521 14.7838V23.4238H343.361V0.703827ZM370.955 8.28783C372.331 7.39183 374.443 6.71983 376.651 6.71983C380.811 6.71983 383.819 8.99183 383.819 13.1198V23.4238H379.947V21.1518C378.923 22.8158 377.163 23.8078 375.019 23.8078C371.947 23.8078 369.707 21.8558 369.707 19.1678C369.707 16.3198 371.819 14.6878 375.627 14.1118L379.755 13.5038V13.0558C379.755 11.3598 378.411 10.3678 376.331 10.3678C374.155 10.3678 372.171 11.2958 370.955 12.1918V8.28783ZM375.947 20.5758C378.059 20.5758 379.787 18.8478 379.787 16.7998V16.1918L376.491 16.6078C374.699 16.8318 373.675 17.5678 373.675 18.7518C373.675 19.8718 374.603 20.5758 375.947 20.5758ZM396.08 0.703827H400.24V9.05583C401.168 7.74383 402.736 6.71983 405.104 6.71983C408.816 6.71983 411.44 9.24783 411.44 13.5038V23.4238H407.28V14.0158C407.28 11.6478 405.84 10.4318 404.016 10.4318C401.264 10.4318 400.24 12.6718 400.24 14.7838V23.4238H396.08V0.703827ZM423.41 6.71983C428.402 6.71983 432.018 10.4318 432.018 15.2638C432.018 20.0958 428.402 23.8078 423.41 23.8078C418.386 23.8078 414.77 20.0958 414.77 15.2638C414.77 10.4318 418.386 6.71983 423.41 6.71983ZM423.41 10.5278C420.818 10.5278 418.962 12.5758 418.962 15.2638C418.962 17.9518 420.818 19.9998 423.41 19.9998C425.97 19.9998 427.826 17.9518 427.826 15.2638C427.826 12.5758 425.97 10.5278 423.41 10.5278ZM441.114 6.71983C443.002 6.71983 444.954 7.26383 446.17 8.12783V11.9678C444.794 10.8478 443.098 10.1758 441.274 10.1758C439.514 10.1758 438.65 10.8158 438.65 11.7118C438.65 12.7038 439.642 13.1838 441.658 13.7278C444.314 14.4318 447.098 15.3598 447.098 18.6558C447.098 21.8238 444.634 23.8078 440.57 23.8078C438.33 23.8078 436.282 23.1998 434.81 22.1438V18.0158C436.346 19.4878 438.074 20.3838 440.314 20.3838C442.234 20.3838 443.226 19.6798 443.226 18.6878C443.226 17.5998 441.978 17.2158 439.802 16.5438C437.274 15.7758 434.714 14.7518 434.714 11.8078C434.714 8.89583 437.21 6.71983 441.114 6.71983ZM457.65 6.71983C462.482 6.71983 465.17 10.1758 465.17 14.4318C465.17 15.0398 465.106 15.7758 465.042 16.2558H453.746C454.066 19.1038 456.338 20.2238 458.834 20.2238C460.85 20.2238 462.898 19.4878 464.082 18.4958V22.4318C462.29 23.5518 460.242 23.8078 458.29 23.8078C453.042 23.8078 449.458 20.4478 449.458 15.2958C449.458 10.4638 452.754 6.71983 457.65 6.71983ZM457.586 10.2078C455.538 10.2078 454.13 11.5198 453.778 13.5358H461.202C461.042 11.5518 459.666 10.2078 457.586 10.2078Z" fill="white"/>
</svg>
