<svg width="425" height="170" viewBox="0 0 425 170" fill="none" xmlns="http://www.w3.org/2000/svg">
<path d="M342.262 111.817C338.464 118.219 334.166 125.509 327.149 125.384C322.658 125.509 316.13 121.233 309.648 118.39C303.246 115.377 296.139 112.704 290.146 112.636C278.786 112.716 272.986 120.528 269.063 127.851L275.431 136.903C278.149 130.66 282.664 123.371 290.146 123.325C298.129 123.371 304.099 127.101 309.648 130.319C315.277 133.492 320.77 136.164 327.149 136.073C337.782 136.164 343.468 128.34 348.619 120.858L342.262 111.817Z" fill="white"/>
<path d="M6.10352e-05 78.3731H18.9792L17.2963 142.577H17.5464L44.7018 78.3731H66.5127L66.5354 142.577H66.7856L90.9958 78.3731H109.133L70.7315 169.801H50.2853L50.183 102.936H49.9443L20.8897 169.801H0.796019L6.10352e-05 78.3731Z" fill="white"/>
<path d="M127.201 169.801L135.309 149.537H160.543L162.34 169.801H181.819L171.79 78.362H147.409L108.95 169.801H127.201ZM158.78 135.482H141.143L155.631 95.9652H155.869L158.769 135.482H158.78Z" fill="white"/>
<path d="M267.78 78.3731L264.665 93.5656H244.082L228.412 169.801H209.91L225.58 93.5656H205.009L208.136 78.3731H267.78Z" fill="white"/>
<path d="M381.028 131.933H385.804C400.007 131.933 397.13 141.179 394.89 152.073C393.662 158.031 391.899 164.229 393.207 169.801H411.334C410.39 166.003 413.574 148.775 414.768 142.953C418.145 126.486 406.364 125.474 402.418 124.974L402.464 124.724C414.893 122.688 421.102 113.955 423.49 102.31C426.697 86.7313 420.329 78.3731 407.706 78.3731H373.546L354.737 169.812H373.239L381.028 131.945V131.933ZM389.147 92.4285H397.358C403.226 92.4285 406.103 95.7262 404.317 104.46C403.112 110.282 399.462 117.878 392.115 117.878H383.905L389.136 92.4285H389.147Z" fill="white"/>
<path d="M301.157 136.346H282.655L275.775 169.801H325.014L327.914 155.746H297.165L301.157 136.346Z" fill="white"/>
<path d="M294.572 78.3731L289.057 105.187H307.547L310.174 92.4285H339.945L342.833 78.3731H294.572Z" fill="white"/>
<path d="M143.327 16.7162L130.738 17.444V20.3096H132.694C134.127 20.3096 135.23 20.6849 135.992 21.4241C136.742 22.1632 137.118 23.2776 137.118 24.7218V47.6015C137.118 48.3066 136.845 48.8638 136.276 49.33C135.696 49.8076 134.832 50.0464 133.706 50.0464H131.182V53.2873H149.467V50.0464H146.954C145.715 50.0464 144.828 49.7849 144.316 49.2846C143.804 48.7956 143.531 47.9086 143.531 46.6918V33.5462C143.531 29.93 144.441 26.9507 146.249 24.6991C148.046 22.4589 150.32 21.3217 153.004 21.3217C155.687 21.3217 157.746 22.4362 159.065 24.6309C160.009 26.1774 160.486 28.611 160.486 31.8746V53.2873H172.768V50.0464H170.22C168.981 50.0464 168.105 49.7849 167.605 49.2846C167.093 48.7956 166.843 47.9086 166.843 46.6918V29.4411C166.843 26.9507 166.365 24.665 165.433 22.6636C164.489 20.6394 163.227 19.1384 161.658 18.2059C160.1 17.2734 158.144 16.7958 155.858 16.7958C153.197 16.7958 150.786 17.4553 148.671 18.7403C146.727 19.9457 145.01 21.7311 143.531 24.0282V16.7048H143.327V16.7162Z" fill="white"/>
<path d="M254.543 17.4213H240.078V20.3779H240.26C242.33 20.5371 243.729 20.867 244.411 21.356C245.059 21.8449 245.389 22.5044 245.389 23.3687C245.389 24.5513 245.127 25.7795 244.627 27.0076C244.627 27.0076 238.702 41.5519 237.611 44.2243C237.247 43.4283 228.241 23.3574 228.241 23.3574C228.115 23.0617 228.047 22.7546 228.047 22.4476C228.047 21.7767 228.275 21.2763 228.741 20.9238C229.23 20.5599 230.185 20.3666 231.561 20.3666H233.29V17.3986H216.505V20.3439L216.676 20.3666C217.983 20.5372 218.984 20.867 219.666 21.3446C220.326 21.8222 220.883 22.5499 221.338 23.5279C221.338 23.5279 233.449 50.49 234.233 52.2185C232.494 55.7892 231.22 58.1659 230.469 59.2917C229.628 60.5539 228.707 61.4978 227.729 62.0663C226.751 62.6349 225.887 62.9306 225.113 62.9306C224.943 62.9306 224.806 62.9079 224.67 62.8738C225.409 62.0323 225.83 60.9633 225.83 59.8261C225.83 57.3243 223.862 55.2775 221.44 55.2775C218.836 55.2775 217.028 57.404 217.028 60.4402C217.028 62.271 217.676 63.863 218.904 65.0116C220.042 66.0919 221.577 66.6264 223.442 66.6264C225.989 66.6264 228.4 65.6143 230.629 63.6129C232.528 61.8958 234.472 58.8709 236.405 54.5952L249.21 24.0851C250.12 21.8904 251.916 20.6395 254.554 20.3666L254.736 20.3439V17.3873H254.543V17.4213Z" fill="white"/>
<path d="M81.8984 17.4213H67.4335V20.3779H67.6269C69.6966 20.5371 71.0953 20.867 71.7776 21.356C72.4258 21.8449 72.7555 22.5044 72.7555 23.3687C72.7555 24.5513 72.5053 25.7795 71.9936 27.0076C71.9936 27.0076 65.2958 43.4169 64.9774 44.2243C64.6249 43.4283 55.6072 23.3574 55.6072 23.3574C55.4935 23.0617 55.4138 22.7546 55.4138 22.4476C55.4138 21.7767 55.6526 21.2763 56.1188 20.9238C56.6078 20.5599 57.5516 20.3666 58.939 20.3666H60.6675V17.3986H43.883V20.3439L44.0536 20.3666C45.3613 20.5372 46.362 20.867 47.0329 21.3446C47.6925 21.8222 48.261 22.5499 48.7159 23.5279C48.7159 23.5279 60.8266 50.49 61.6113 52.2185C59.8714 55.7892 58.5979 58.1659 57.8587 59.2917C57.0172 60.5539 56.0847 61.4978 55.1181 62.0663C54.1402 62.6349 53.2646 62.9306 52.5027 62.9306C52.3322 62.9306 52.1843 62.9079 52.0592 62.8738C52.8098 62.0323 53.2304 60.9633 53.2304 59.8261C53.2304 57.3243 51.2518 55.2775 48.841 55.2775C46.2369 55.2775 44.4174 57.404 44.4174 60.4402C44.4174 62.271 45.077 63.863 46.3051 65.0116C47.4423 66.0919 48.9774 66.6264 50.831 66.6264C53.3783 66.6264 55.8005 65.6143 58.018 63.6129C59.917 61.9071 61.8615 58.8709 63.7947 54.5952L76.5991 24.0851C77.4975 21.8904 79.3055 20.6395 81.9324 20.3666L82.1144 20.3439V17.3873H81.9097L81.8984 17.4213Z" fill="white"/>
<path d="M5.27649 4.42358C2.44496 7.34608 1.00075 11.1442 1.00075 15.727C1.00075 20.3097 2.44498 23.5734 5.29926 25.9728C7.31203 27.6672 11.1443 29.2023 16.6709 30.5669C21.663 31.7837 25.0517 32.8185 26.7461 33.66C28.4177 34.5015 29.6572 35.5363 30.4191 36.7417C31.1924 37.9471 31.5791 39.38 31.5791 40.972C31.5791 43.8035 30.5329 46.2484 28.4632 48.2384C26.3936 50.2284 23.6758 51.2405 20.378 51.2405C16.2956 51.2405 12.577 49.6485 9.32472 46.4986C6.06106 43.36 3.93463 38.9933 2.99078 33.5349L2.95664 33.3644H0.284332V53.8447H2.8771L5.25373 50.8425L5.52663 50.5923C6.18619 50.1147 6.90263 50.0124 7.68727 50.2967C8.34682 50.5355 8.98356 50.8653 9.59762 51.2861C12.7248 53.2192 16.2842 54.2085 20.1505 54.2085C25.0176 54.2085 29.0318 52.6392 32.1021 49.5462C35.1838 46.4531 36.7303 42.4957 36.7303 37.7993C36.7303 35.161 36.1617 32.8299 35.0359 30.8512C33.9215 28.8839 32.193 27.2237 29.9301 25.9387C27.6785 24.6537 23.7212 23.3573 18.1605 22.0951C14.2259 21.2081 11.5195 20.3779 10.1094 19.6047C8.72209 18.8428 7.65313 17.8421 6.94809 16.6367C6.25442 15.4313 5.90185 13.9985 5.90185 12.3837C5.90185 9.80235 6.83439 7.57353 8.67659 5.78819C10.5302 3.99147 12.9409 3.08173 15.8406 3.08173C19.3317 3.08173 22.459 4.4008 25.1427 7.01627C27.8491 9.64312 29.9188 13.8734 31.2948 19.5933L31.3402 19.7411H33.9898L33.8079 0.466275H31.0219L29.7936 2.31985C29.498 2.74061 29.2251 3.05895 28.9635 3.25227C28.304 3.74125 27.5989 3.83223 26.8029 3.54794C26.1433 3.30914 25.5066 2.97936 24.8925 2.55861C23.9828 1.99003 23.0957 1.53521 22.2542 1.18269C20.3438 0.398051 18.297 0 16.1818 0C11.7696 0 8.08526 1.47832 5.25373 4.41219" fill="white"/>
<path d="M188.608 22.2886L188.926 22.5387C190.643 20.2758 192.77 19.1159 195.271 19.1159C197.773 19.1159 199.911 20.2758 201.628 22.5387C203.334 24.7903 204.244 28.2246 204.335 32.7277H186.208C186.311 28.2246 187.22 24.7903 188.926 22.5387M183.593 21.7882C180.477 25.3476 178.908 30.0668 178.908 35.8322C178.908 41.1996 180.5 45.6572 183.661 49.1028C186.822 52.5484 190.768 54.2997 195.385 54.2997C201.435 54.2997 206.291 51.3772 209.793 45.6231L209.907 45.4298L207.132 44.1903L207.041 44.3267C204.38 48.4319 200.98 50.5129 196.954 50.5129C193.793 50.5129 191.144 49.2734 189.085 46.8513C187.323 44.7248 186.356 40.9949 186.22 35.798H210.76V35.5933C210.703 32.0681 210.248 29.1001 209.384 26.7803C208.156 23.4712 206.291 20.8785 203.857 19.1045C201.424 17.3305 198.49 16.4322 195.135 16.4322C190.586 16.4322 186.697 18.2402 183.593 21.7996" fill="white"/>
<path d="M96.6934 46.5894C95.1469 44.2696 94.3508 40.1985 94.3508 34.4786C94.3508 29.2135 95.1241 25.4267 96.6365 23.2206C98.1376 21.0373 100.196 19.9343 102.754 19.9343C105.313 19.9343 107.405 21.1283 109.123 23.4936C111.113 26.2001 112.125 29.9754 112.125 34.706C112.125 39.7209 111.181 43.5759 109.327 46.1686C107.485 48.7386 105.233 50.0463 102.652 50.0463C100.241 50.0463 98.24 48.8864 96.6934 46.5894ZM118.243 0.375091L104.688 1.02328V4.26417H107.337C108.963 4.26417 110.18 4.55986 110.931 5.15119C111.681 5.73114 112.045 6.50441 112.045 7.49374V22.7544C110.817 20.7417 109.396 19.1724 107.792 18.1376C106.03 16.989 104.005 16.409 101.776 16.409C98.1489 16.409 94.908 17.8419 92.122 20.662C88.5854 24.2668 86.7886 29.1453 86.7886 35.1722C86.7886 40.7443 88.1874 45.293 90.9621 48.6817C93.7254 52.0932 97.1369 53.8217 101.083 53.8217C103.425 53.8217 105.575 53.1508 107.474 51.8431C109.191 50.649 110.726 48.875 112.045 46.6121V53.2645L124.838 52.5367V49.671H122.882C121.449 49.671 120.346 49.2958 119.596 48.5566C118.845 47.8175 118.47 46.7144 118.47 45.2702V0.363708H118.265L118.243 0.375091Z" fill="white"/>
</svg>
