<svg width="1080" height="1920" viewBox="0 0 1080 1920" fill="none" xmlns="http://www.w3.org/2000/svg">
<path fill-rule="evenodd" clip-rule="evenodd" d="M540.163 -346.891C726.383 -344.571 875.953 -212.751 873.953 -52.7113C871.963 107.329 719.153 235.369 532.923 233.049C346.703 230.729 197.133 98.9087 199.133 -61.1313C201.133 -221.171 353.943 -349.211 540.163 -346.891Z" fill="url(#paint0_radial_175_754)"/>
<path fill-rule="evenodd" clip-rule="evenodd" d="M301.443 -265.631C378.703 -277.061 462.693 -283.121 550.163 -282.031C628.363 -281.051 703.103 -274.441 772.333 -263.511C835.883 -209.901 874.973 -135.041 873.943 -52.7113C872.973 25.2087 836.253 95.5486 777.323 146.939C703.183 153.649 622.773 156.709 538.833 155.659C450.623 154.559 366.443 149.029 289.423 139.669C232.573 86.9387 198.153 16.1987 199.123 -61.1213C200.123 -141.521 239.183 -213.841 301.433 -265.621L301.443 -265.631Z" fill="#6DBDC3"/>
<path fill-rule="evenodd" clip-rule="evenodd" d="M544.883 -255.501C913.823 -250.901 1205.92 -120.831 1204.47 -4.31131C1203.02 112.209 902.513 186.779 533.573 182.179C164.633 177.579 -133.927 95.5187 -132.467 -20.9913C-131.017 -137.511 175.953 -260.111 544.893 -255.511L544.883 -255.501Z" fill="#00FFFF"/>
<path fill-rule="evenodd" clip-rule="evenodd" d="M538.483 -212.161C907.423 -207.561 1205.77 -109.231 1204.32 7.2887C1202.87 123.799 902.163 214.669 533.213 210.069C164.273 205.469 -134.077 107.129 -132.627 -9.38129C-131.177 -125.901 169.533 -216.761 538.483 -212.161Z" fill="#007286"/>
<path fill-rule="evenodd" clip-rule="evenodd" d="M207.173 179.129C176.493 121.749 169.473 53.6987 203.253 -20.2013C208.123 -30.8513 301.783 -82.0913 507.193 -75.1813C719.583 -68.0313 862.413 -9.29131 868.653 1.5487C909.353 72.3387 907.753 133.229 881.183 183.619C779.643 201.879 660.483 211.659 533.223 210.069C414.733 208.589 303.513 197.439 207.173 179.129Z" fill="#00424E"/>
<path fill-rule="evenodd" clip-rule="evenodd" d="M1021.93 102.319C1041.33 96.7587 1059.18 99.9787 1061.76 109.499C1064.33 119.029 1051.43 134.079 1032.03 139.639C1012.63 145.199 994.033 139.189 991.453 129.659C988.873 120.139 1002.53 107.879 1021.93 102.319Z" fill="#FBC310"/>
<path fill-rule="evenodd" clip-rule="evenodd" d="M51.3928 90.2187C32.1328 84.1687 14.2128 86.9387 11.4028 96.4087C8.59283 105.869 21.1128 121.239 40.3728 127.279C59.6328 133.319 78.3727 127.769 81.1927 118.319C84.0127 108.859 70.6628 96.2687 51.4028 90.2287L51.3928 90.2187Z" fill="#FBC310"/>
<path fill-rule="evenodd" clip-rule="evenodd" d="M884.853 139.789C904.893 137.639 921.953 143.879 922.953 153.719C923.943 163.559 908.783 176.179 888.753 178.339C868.723 180.489 851.363 171.359 850.363 161.529C849.373 151.689 864.823 141.959 884.853 139.799V139.789Z" fill="#FBC310"/>
<path fill-rule="evenodd" clip-rule="evenodd" d="M187.503 131.099C167.533 128.449 150.313 134.259 149.073 144.069C147.833 153.879 162.683 166.879 182.653 169.519C202.623 172.169 220.203 163.479 221.443 153.669C222.683 143.859 207.473 133.739 187.503 131.089V131.099Z" fill="#FBC310"/>
<path fill-rule="evenodd" clip-rule="evenodd" d="M745.033 148.609C765.063 146.459 782.133 152.699 783.123 162.539C784.113 172.379 768.953 184.999 748.923 187.159C728.893 189.309 711.533 180.179 710.533 170.349C709.543 160.509 724.993 150.779 745.033 148.619V148.609Z" fill="#FBC310"/>
<path fill-rule="evenodd" clip-rule="evenodd" d="M327.053 143.399C307.083 140.749 289.863 146.559 288.623 156.369C287.383 166.179 302.223 179.179 322.203 181.829C342.173 184.479 359.753 175.789 360.993 165.979C362.233 156.169 347.023 146.049 327.043 143.399H327.053Z" fill="#FBC310"/>
<path fill-rule="evenodd" clip-rule="evenodd" d="M203.253 -20.2013C201.493 -31.7813 301.783 -82.0913 507.193 -75.1813C719.583 -68.0313 871.503 -10.6313 868.653 1.54869C837.353 135.299 698.843 235.119 534.223 233.069C364.143 230.949 224.633 120.809 203.253 -20.2013Z" fill="#65B0B5"/>
<path fill-rule="evenodd" clip-rule="evenodd" d="M206.743 -1.8213C205.353 -7.8913 204.193 -14.0213 203.253 -20.2113C201.493 -31.7913 301.783 -82.1013 507.193 -75.1913C719.583 -68.0413 871.503 -10.6413 868.653 1.53868C867.203 7.74868 865.513 13.8887 863.603 19.9387C836.373 1.18867 695.463 -44.7713 506.893 -51.1213C326.163 -57.2113 226.813 -18.9913 206.743 -1.83131V-1.8213Z" fill="#1F4D58"/>
<path fill-rule="evenodd" clip-rule="evenodd" d="M804.633 -28.4113C846.473 -15.2813 869.783 -3.3013 868.653 1.5387C837.353 135.289 698.843 235.109 534.223 233.059C429.913 231.759 337.093 189.829 275.983 125.059C331.553 161.309 400.523 183.199 475.433 184.129C632.173 186.089 765.233 95.6887 804.633 -28.4113Z" fill="#1F4D58"/>
<path opacity="0.3" fill-rule="evenodd" clip-rule="evenodd" d="M243.253 -44.0613V-43.4913C241.873 65.9587 311.403 162.219 415.063 212.869C302.413 174.629 219.353 85.9587 203.253 -20.2013C202.603 -24.4813 215.883 -34.0413 243.253 -44.0613Z" fill="#00FFFF"/>
<path fill-rule="evenodd" clip-rule="evenodd" d="M535.253 46.3087C659.573 47.8587 760.073 83.0587 759.553 124.859C759.033 166.659 657.533 211.619 533.213 210.069C408.903 208.519 308.543 161.049 309.073 119.239C309.593 77.4387 410.943 44.7587 535.263 46.3087H535.253Z" fill="#353535"/>
<path fill-rule="evenodd" clip-rule="evenodd" d="M535.123 56.9187C659.443 58.4687 759.943 93.6687 759.423 135.469C758.903 177.269 657.403 222.229 533.083 220.679C408.773 219.129 308.413 171.659 308.943 129.849C309.463 88.0387 410.813 55.3587 535.123 56.9087V56.9187Z" fill="#6B6B6B"/>
<path fill-rule="evenodd" clip-rule="evenodd" d="M722.543 93.2187C746.023 105.489 759.613 120.029 759.423 135.469C758.903 177.269 657.403 222.229 533.083 220.679C478.773 219.999 437.483 201.269 513.703 202.219C638.023 203.769 733.333 178.199 726.743 108.199C726.263 103.109 725.363 98.0787 722.543 93.2087V93.2187Z" fill="#494949"/>
<path fill-rule="evenodd" clip-rule="evenodd" d="M534.853 78.9887C642.423 80.3287 729.383 110.789 728.933 146.959C728.483 183.129 640.653 222.029 533.083 220.689C425.523 219.349 338.693 178.269 339.143 142.099C339.593 105.929 427.293 77.6487 534.853 78.9887Z" fill="#313131"/>
<path fill-rule="evenodd" clip-rule="evenodd" d="M534.273 95.7487C632.143 96.9687 711.233 128.409 710.763 165.909C710.293 203.409 630.313 243.879 532.443 242.659C434.563 241.439 355.623 198.989 356.093 161.479C356.563 123.969 436.403 94.5187 534.273 95.7387V95.7487Z" fill="#353535"/>
<path fill-rule="evenodd" clip-rule="evenodd" d="M534.153 105.279C632.023 106.499 711.113 137.939 710.643 175.449C710.173 212.959 630.193 253.429 532.323 252.199C434.453 250.979 355.503 208.529 355.973 171.019C356.433 133.519 436.283 104.059 534.153 105.279Z" fill="#6B6B6B"/>
<path fill-rule="evenodd" clip-rule="evenodd" d="M678.593 137.549C697.063 148.529 707.743 161.549 707.573 175.409C707.103 212.919 627.123 253.379 529.253 252.159C447.433 251.139 443.553 226.989 503.563 227.739C601.433 228.959 681.413 188.489 681.883 150.989C681.943 146.399 680.813 141.909 678.603 137.549H678.593Z" fill="#494949"/>
<path fill-rule="evenodd" clip-rule="evenodd" d="M533.903 125.079C618.593 126.129 687.013 153.339 686.613 185.789C686.203 218.239 617.003 253.259 532.313 252.199C447.623 251.149 379.323 214.409 379.723 181.959C380.133 149.509 449.213 124.019 533.893 125.079H533.903Z" fill="#FBC310"/>
<path opacity="0.7" fill-rule="evenodd" clip-rule="evenodd" d="M-398.867 2126.44L383.583 168.539L685.373 171.429L1369.79 2018.02L-398.867 2126.44Z" fill="url(#paint1_linear_175_754)"/>
<path d="M534.66 248.497C621.919 248.405 692.629 221.015 692.593 187.32C692.558 153.624 621.792 126.382 534.532 126.473C447.273 126.565 376.563 153.955 376.599 187.65C376.634 221.346 447.4 248.588 534.66 248.497Z" fill="url(#paint2_radial_175_754)"/>
<defs>
<radialGradient id="paint0_radial_175_754" cx="0" cy="0" r="1" gradientUnits="userSpaceOnUse" gradientTransform="translate(536.528 -57.0311) rotate(-15.2) scale(314.67 314.67)">
<stop stop-color="white"/>
<stop offset="1" stop-color="white" stop-opacity="0.1"/>
</radialGradient>
<linearGradient id="paint1_linear_175_754" x1="612.309" y1="220.022" x2="494.799" y2="1937.14" gradientUnits="userSpaceOnUse">
<stop stop-color="#FBC310"/>
<stop offset="0.02" stop-color="#FBC729" stop-opacity="0.92"/>
<stop offset="0.06" stop-color="#FCD262" stop-opacity="0.73"/>
<stop offset="0.1" stop-color="#FDDB91" stop-opacity="0.57"/>
<stop offset="0.15" stop-color="#FEE2B5" stop-opacity="0.45"/>
<stop offset="0.19" stop-color="#FEE7D0" stop-opacity="0.37"/>
<stop offset="0.23" stop-color="#FEEADF" stop-opacity="0.32"/>
<stop offset="0.26" stop-color="#FFEBE5" stop-opacity="0.3"/>
<stop offset="0.35" stop-color="#FFF1ED" stop-opacity="0.19"/>
<stop offset="0.45" stop-color="#FFF7F5" stop-opacity="0.09"/>
<stop offset="0.55" stop-color="#FFFBFA" stop-opacity="0.02"/>
<stop offset="0.62" stop-color="#FFFDFC" stop-opacity="0"/>
<stop offset="0.99" stop-color="white" stop-opacity="0"/>
</linearGradient>
<radialGradient id="paint2_radial_175_754" cx="0" cy="0" r="1" gradientTransform="matrix(278.91 2.60737e-06 1.31481 118.894 534.596 187.485)" gradientUnits="userSpaceOnUse">
<stop stop-color="#FEEEBC"/>
<stop offset="0.14" stop-color="#FCDE7D"/>
<stop offset="0.36" stop-color="#FBC310"/>
<stop offset="0.5" stop-color="#FBC310" stop-opacity="0.75"/>
<stop offset="0.68" stop-color="#FBC310" stop-opacity="0.43"/>
<stop offset="0.83" stop-color="#FBC310" stop-opacity="0.2"/>
<stop offset="0.94" stop-color="#FBC310" stop-opacity="0.05"/>
<stop offset="1" stop-color="#FBC310" stop-opacity="0"/>
</radialGradient>
</defs>
</svg>
